<?xml version="1.0" encoding="UTF-8" standalone="no"?>
<!DOCTYPE svg PUBLIC "-//W3C//DTD SVG 1.1//EN" "http://www.w3.org/Graphics/SVG/1.1/DTD/svg11.dtd">
<!-- Gegenereerd door Microsoft Visio, SVG Export structure.svg Pagina-1 -->
<svg xmlns="http://www.w3.org/2000/svg" xmlns:xlink="http://www.w3.org/1999/xlink" xmlns:ev="http://www.w3.org/2001/xml-events"
		xmlns:v="http://schemas.microsoft.com/visio/2003/SVGExtensions/" width="3.23876in" height="3.15648in"
		viewBox="0 0 233.191 227.267" xml:space="preserve" color-interpolation-filters="sRGB" class="st21">
	<v:documentProperties v:langID="1043" v:metric="true" v:viewMarkup="false"/>

	<style type="text/css">
	<![CDATA[
		.st1 {marker-start:url(#mrkr5-6);stroke:#800000;stroke-linecap:round;stroke-linejoin:round;stroke-width:2}
		.st2 {fill:#800000;fill-opacity:1;stroke:#800000;stroke-opacity:1;stroke-width:0.44247787610619}
		.st3 {stroke:#000000;stroke-linecap:round;stroke-linejoin:round;stroke-width:1.2}
		.st4 {stroke:#000000;stroke-linecap:round;stroke-linejoin:round;stroke-width:0.75}
		.st5 {stroke:#000000;stroke-linecap:round;stroke-linejoin:round;stroke-width:2}
		.st6 {fill:#ffffff;stroke:#000000;stroke-linecap:round;stroke-linejoin:round;stroke-width:0.75}
		.st7 {marker-end:url(#mrkr5-68);stroke:#800000;stroke-linecap:round;stroke-linejoin:round;stroke-width:1.2}
		.st8 {fill:#800000;fill-opacity:1;stroke:#800000;stroke-opacity:1;stroke-width:0.45454545454545}
		.st9 {stroke:#800000;stroke-linecap:round;stroke-linejoin:round;stroke-width:1.2}
		.st10 {fill:none;stroke:none;stroke-linecap:round;stroke-linejoin:round;stroke-width:0.24}
		.st11 {fill:#000000;font-family:Times New Roman;font-size:1.00001em}
		.st12 {fill:#00cc99;stroke:#000000;stroke-linecap:round;stroke-linejoin:round;stroke-width:0.75}
		.st13 {fill:none;stroke:none;stroke-linecap:round;stroke-linejoin:round;stroke-width:0.75}
		.st14 {stroke:#000000;stroke-linecap:round;stroke-linejoin:round;stroke-width:0.25}
		.st15 {marker-end:url(#mrkr4-135);marker-start:url(#mrkr4-133);stroke:#000000;stroke-linecap:round;stroke-linejoin:round;stroke-width:0.25}
		.st16 {fill:#000000;fill-opacity:1;stroke:#000000;stroke-opacity:1;stroke-width:0.1219512195122}
		.st17 {fill:#000000;font-family:Times New Roman;font-size:0.666664em}
		.st18 {fill:#000000;font-family:Times New Roman;font-size:1.00001em;font-style:italic}
		.st19 {font-size:1em;font-style:normal}
		.st20 {baseline-shift:32.4941%;font-size:0.649882em;font-style:normal}
		.st21 {fill:none;fill-rule:evenodd;font-size:12px;overflow:visible;stroke-linecap:square;stroke-miterlimit:3}
	]]>
	</style>

	<defs id="Markers">
		<g id="lend5">
			<path d="M 2 1 L 0 0 L 1.98117 -0.993387 C 1.67173 -0.364515 1.67301 0.372641 1.98465 1.00043 " style="stroke:none"/>
		</g>
		<marker id="mrkr5-6" class="st2" v:arrowType="5" v:arrowSize="2" v:setback="3.775" refX="3.775" orient="auto"
				markerUnits="strokeWidth" overflow="visible">
			<use xlink:href="#lend5" transform="scale(2.26) "/>
		</marker>
		<marker id="mrkr5-68" class="st8" v:arrowType="5" v:arrowSize="0" v:setback="3.85" refX="-3.85" orient="auto"
				markerUnits="strokeWidth" overflow="visible">
			<use xlink:href="#lend5" transform="scale(-2.2,-2.2) "/>
		</marker>
		<g id="lend4">
			<path d="M 2 1 L 0 0 L 2 -1 L 2 1 " style="stroke:none"/>
		</g>
		<marker id="mrkr4-133" class="st16" v:arrowType="4" v:arrowSize="1" v:setback="14.96" refX="14.96" orient="auto"
				markerUnits="strokeWidth" overflow="visible">
			<use xlink:href="#lend4" transform="scale(8.2) "/>
		</marker>
		<marker id="mrkr4-135" class="st16" v:arrowType="4" v:arrowSize="1" v:setback="16.4" refX="-16.4" orient="auto"
				markerUnits="strokeWidth" overflow="visible">
			<use xlink:href="#lend4" transform="scale(-8.2,-8.2) "/>
		</marker>
	</defs>
	<g v:mID="0" v:index="1" v:groupContext="foregroundPage">
		<title>Pagina-1</title>
		<v:pageProperties v:drawingScale="0.0393701" v:pageScale="0.0393701" v:drawingUnits="24" v:shadowOffsetX="8.50394"
				v:shadowOffsetY="-8.50394"/>
		<g id="shape138-1" v:mID="138" v:groupContext="shape" transform="translate(62.7372,383.292) rotate(180)">
			<title>Kracht.138</title>
			<path d="M7.55 227.27 L7.91 227.27 L31.18 227.27" class="st1"/>
		</g>
		<g id="group1-7" transform="translate(187.331,241.56) rotate(180)" v:mID="1" v:groupContext="group">
			<title>Inklemming</title>
			<g id="shape2-8" v:mID="2" v:groupContext="shape" transform="translate(238.605,198.92) rotate(90)">
				<title>Blad.2</title>
				<path d="M0 227.27 L28.35 227.27" class="st3"/>
			</g>
			<g id="shape3-11" v:mID="3" v:groupContext="shape" transform="translate(169.206,38.2184) rotate(45)">
				<title>Blad.3</title>
				<path d="M0 227.27 L4.01 227.27" class="st4"/>
			</g>
			<g id="shape4-14" v:mID="4" v:groupContext="shape" transform="translate(166.371,38.2184) rotate(45)">
				<title>Blad.4</title>
				<path d="M0 227.27 L8.02 227.27" class="st4"/>
			</g>
			<g id="shape5-17" v:mID="5" v:groupContext="shape" transform="translate(163.536,38.2184) rotate(45)">
				<title>Blad.5</title>
				<path d="M0 227.27 L12.03 227.27" class="st4"/>
			</g>
			<g id="shape6-20" v:mID="6" v:groupContext="shape" transform="translate(160.702,38.2184) rotate(45)">
				<title>Blad.6</title>
				<path d="M0 227.27 L16.04 227.27" class="st4"/>
			</g>
			<g id="shape7-23" v:mID="7" v:groupContext="shape" transform="translate(160.702,41.0531) rotate(45)">
				<title>Blad.7</title>
				<path d="M0 227.27 L16.04 227.27" class="st4"/>
			</g>
			<g id="shape8-26" v:mID="8" v:groupContext="shape" transform="translate(160.702,43.8877) rotate(45)">
				<title>Blad.8</title>
				<path d="M0 227.27 L16.04 227.27" class="st4"/>
			</g>
			<g id="shape9-29" v:mID="9" v:groupContext="shape" transform="translate(160.702,46.7223) rotate(45)">
				<title>Blad.9</title>
				<path d="M0 227.27 L16.04 227.27" class="st4"/>
			</g>
			<g id="shape10-32" v:mID="10" v:groupContext="shape" transform="translate(160.702,49.557) rotate(45)">
				<title>Blad.10</title>
				<path d="M0 227.27 L16.04 227.27" class="st4"/>
			</g>
			<g id="shape11-35" v:mID="11" v:groupContext="shape" transform="translate(160.702,52.3916) rotate(45)">
				<title>Blad.11</title>
				<path d="M0 227.27 L16.04 227.27" class="st4"/>
			</g>
			<g id="shape12-38" v:mID="12" v:groupContext="shape" transform="translate(160.702,55.2263) rotate(45)">
				<title>Blad.12</title>
				<path d="M0 227.27 L16.04 227.27" class="st4"/>
			</g>
			<g id="shape13-41" v:mID="13" v:groupContext="shape" transform="translate(160.702,58.0609) rotate(45)">
				<title>Blad.13</title>
				<path d="M0 227.27 L12.03 227.27" class="st4"/>
			</g>
			<g id="shape14-44" v:mID="14" v:groupContext="shape" transform="translate(160.702,60.8956) rotate(45)">
				<title>Blad.14</title>
				<path d="M0 227.27 L8.02 227.27" class="st4"/>
			</g>
			<g id="shape15-47" v:mID="15" v:groupContext="shape" transform="translate(160.702,63.7302) rotate(45)">
				<title>Blad.15</title>
				<path d="M0 227.27 L4.01 227.27" class="st4"/>
			</g>
		</g>
		<g id="shape16-50" v:mID="16" v:groupContext="shape" transform="translate(62.7372,-198.8)">
			<title>Ligger, 2 pt</title>
			<path d="M0 227.27 L113.26 227.27" class="st5"/>
		</g>
		<g id="shape17-53" v:mID="17" v:groupContext="shape" transform="translate(-73.5927,-25.7123) rotate(-36.9016)">
			<title>Ligger, 2 pt.17</title>
			<path d="M0 227.27 L141.63 227.27" class="st5"/>
		</g>
		<g id="shape22-56" v:mID="22" v:groupContext="shape" transform="translate(-164.529,156.026) rotate(-90)">
			<title>Ligger, 2 pt.22</title>
			<path d="M0 227.27 L127.56 227.27" class="st5"/>
		</g>
		<g id="shape23-59" v:mID="23" v:groupContext="shape" transform="translate(60.6112,-196.674)">
			<title>Scharnier</title>
			<ellipse cx="2.12598" cy="225.141" rx="2.12598" ry="2.12598" class="st6"/>
		</g>
		<g id="group31-61" transform="translate(119.43,-198.8)" v:mID="31" v:groupContext="group">
			<title>q-last constnt</title>
			<g id="group32-62" v:mID="32" v:groupContext="group">
				<title>q-last, recht.51</title>
				<g id="shape33-63" v:mID="33" v:groupContext="shape" transform="translate(227.267,213.093) rotate(90)">
					<title>Kracht.5</title>
					<path d="M0 227.27 L9.55 227.27" class="st7"/>
				</g>
				<g id="shape34-69" v:mID="34" v:groupContext="shape" transform="translate(7.99361E-15,-14.1732)">
					<title>Blad.34</title>
					<path d="M0 227.27 L56.69 227.27" class="st9"/>
				</g>
				<g id="shape35-72" v:mID="35" v:groupContext="shape" transform="translate(237.574,213.093) rotate(90)">
					<title>Kracht.4</title>
					<path d="M0 227.27 L9.55 227.27" class="st7"/>
				</g>
				<g id="shape36-77" v:mID="36" v:groupContext="shape" transform="translate(247.882,213.093) rotate(90)">
					<title>Kracht.9</title>
					<path d="M0 227.27 L9.55 227.27" class="st7"/>
				</g>
				<g id="shape37-82" v:mID="37" v:groupContext="shape" transform="translate(283.96,213.093) rotate(90)">
					<title>Kracht.6</title>
					<path d="M0 227.27 L9.55 227.27" class="st7"/>
				</g>
				<g id="shape38-87" v:mID="38" v:groupContext="shape" transform="translate(273.652,213.093) rotate(90)">
					<title>Kracht.7</title>
					<path d="M0 227.27 L9.55 227.27" class="st7"/>
				</g>
			</g>
			<g id="shape39-92" v:mID="39" v:groupContext="shape" transform="translate(0,-14.1732)">
				<title>A.58</title>
				<desc>10 kN/m</desc>
				<v:textBlock v:margins="rect(4,4,4,4)" v:tabSpace="42.5197"/>
				<v:textRect cx="28.3465" cy="220.18" width="56.7" height="14.1732"/>
				<rect x="0" y="213.093" width="56.6929" height="14.1732" class="st10"/>
				<text x="7.18" y="223.78" class="st11" v:langID="1043"><v:paragraph v:horizAlign="1"/><v:tabList/>10 kN/m</text>			</g>
		</g>
		<g id="group44-95" transform="translate(52.816,-57.0679)" v:mID="44" v:groupContext="group">
			<title>Rol</title>
			<g id="group45-96" transform="translate(0.261477,-2.83465)" v:mID="45" v:groupContext="group">
				<title>Scharnier</title>
				<g id="shape46-97" v:mID="46" v:groupContext="shape" transform="translate(2.79729,0)">
					<title>Blad.46</title>
					<path d="M0 227.27 L13.99 227.27 L6.99 215.93 L0 227.27 Z" class="st12"/>
				</g>
				<g id="shape47-99" v:mID="47" v:groupContext="shape" transform="translate(2.79729,454.533) rotate(180)">
					<title>Blad.47</title>
					<path d="M0 227.27 L2.8 227.27" class="st4"/>
				</g>
				<g id="shape48-102" v:mID="48" v:groupContext="shape" transform="translate(16.7838,0)">
					<title>Blad.48</title>
					<path d="M0 227.27 L2.8 227.27" class="st4"/>
				</g>
			</g>
			<g id="shape49-105" v:mID="49" v:groupContext="shape">
				<title>Blad.49</title>
				<path d="M0 227.27 L19.84 227.27" class="st4"/>
			</g>
		</g>
		<g id="shape50-108" v:mID="50" v:groupContext="shape" transform="translate(69.8238,-64.1545)">
			<title>Blad.50</title>
			<desc>A</desc>
			<v:textBlock v:margins="rect(4,4,4,4)" v:tabSpace="42.5197"/>
			<v:textRect cx="7.02125" cy="220.18" width="14.05" height="14.1732"/>
			<rect x="0" y="213.093" width="14.0425" height="14.1732" class="st13"/>
			<text x="4" y="223.78" class="st11" v:langID="1043"><v:paragraph v:horizAlign="1"/><v:tabList/>A</text>		</g>
		<g id="shape53-111" v:mID="53" v:groupContext="shape" transform="translate(48.6947,-198.8)">
			<title>Blad.53</title>
			<desc>D</desc>
			<v:textBlock v:margins="rect(4,4,4,4)" v:tabSpace="42.5197"/>
			<v:textRect cx="7.02125" cy="220.18" width="14.05" height="14.1732"/>
			<rect x="0" y="213.093" width="14.0425" height="14.1732" class="st13"/>
			<text x="4" y="223.78" class="st11" v:langID="1043"><v:paragraph v:horizAlign="1"/><v:tabList/>D</text>		</g>
		<g id="shape54-114" v:mID="54" v:groupContext="shape" transform="translate(161.95,-184.627)">
			<title>Blad.54</title>
			<desc>B</desc>
			<v:textBlock v:margins="rect(4,4,4,4)" v:tabSpace="42.5197"/>
			<v:textRect cx="7.02125" cy="220.18" width="14.05" height="14.1732"/>
			<rect x="0" y="213.093" width="14.0425" height="14.1732" class="st13"/>
			<text x="4" y="223.78" class="st11" v:langID="1043"><v:paragraph v:horizAlign="1"/><v:tabList/>B</text>		</g>
		<g id="shape55-117" v:mID="55" v:groupContext="shape" transform="translate(60.6112,-69.1152)">
			<title>Scharnier.55</title>
			<ellipse cx="2.12598" cy="225.141" rx="2.12598" ry="2.12598" class="st6"/>
		</g>
		<g id="group68-119" transform="translate(62.7372,-0.375)" v:mID="68" v:groupContext="group">
			<title>Maatlijn.68</title>
			<g id="group69-120" transform="translate(0,-9.92126)" v:mID="69" v:groupContext="group">
				<title>Maatlijn.31</title>
				<g id="shape70-121" v:mID="70" v:groupContext="shape" transform="translate(227.267,218.763) rotate(90)">
					<title>Blad.70</title>
					<path d="M0 227.27 L8.5 227.27" class="st14"/>
				</g>
				<g id="shape71-124" v:mID="71" v:groupContext="shape" transform="translate(283.96,218.763) rotate(90)">
					<title>Blad.71</title>
					<path d="M0 227.27 L8.5 227.27" class="st14"/>
				</g>
				<g id="shape72-127" v:mID="72" v:groupContext="shape" transform="translate(0,-4.25197)">
					<title>Blad.72</title>
					<path d="M3.74 227.27 L4.1 227.27 L52.59 227.27" class="st15"/>
				</g>
			</g>
			<g id="shape73-136" v:mID="73" v:groupContext="shape">
				<title>Blad.73</title>
				<desc>4 m</desc>
				<v:textBlock v:margins="rect(4,4,4,4)" v:tabSpace="42.5197"/>
				<v:textRect cx="28.3465" cy="220.18" width="56.7" height="14.1732"/>
				<rect x="0" y="213.093" width="56.6929" height="14.1732" class="st13"/>
				<text x="19.18" y="223.78" class="st11" v:langID="1043"><v:paragraph v:horizAlign="1"/><v:tabList/>4 m</text>			</g>
		</g>
		<g id="group74-139" transform="translate(200.087,-71.2411)" v:mID="74" v:groupContext="group">
			<title>Maatlijn verticaal</title>
			<g id="group75-140" transform="translate(-218.763,227.267) rotate(-90)" v:mID="75" v:groupContext="group">
				<title>Maatlijn.31</title>
				<g id="shape76-141" v:mID="76" v:groupContext="shape" transform="translate(227.267,218.763) rotate(90)">
					<title>Blad.76</title>
					<path d="M0 227.27 L8.5 227.27" class="st14"/>
				</g>
				<g id="shape77-144" v:mID="77" v:groupContext="shape" transform="translate(312.306,218.763) rotate(90)">
					<title>Blad.77</title>
					<path d="M0 227.27 L8.5 227.27" class="st14"/>
				</g>
				<g id="shape78-147" v:mID="78" v:groupContext="shape" transform="translate(0,-4.25197)">
					<title>Blad.78</title>
					<path d="M3.74 227.27 L4.1 227.27 L80.94 227.27" class="st15"/>
				</g>
			</g>
			<g id="shape79-154" v:mID="79" v:groupContext="shape" transform="translate(4.25197,-34.0158)">
				<title>Blad.79</title>
				<desc>6 m</desc>
				<v:textBlock v:margins="rect(4,4,4,4)" v:tabSpace="42.5197"/>
				<v:textRect cx="14.1732" cy="218.763" width="28.35" height="17.0079"/>
				<rect x="0" y="210.259" width="28.3465" height="17.0079" class="st13"/>
				<text x="5.01" y="222.36" class="st11" v:langID="1043"><v:paragraph v:horizAlign="1"/><v:tabList/>6 m</text>			</g>
		</g>
		<g id="shape139-157" v:mID="139" v:groupContext="shape" transform="translate(105.388,-198.8)">
			<title>Blad.139</title>
			<desc>E</desc>
			<v:textBlock v:margins="rect(4,4,4,4)" v:tabSpace="42.5197"/>
			<v:textRect cx="7.02125" cy="220.18" width="14.05" height="14.1732"/>
			<rect x="0" y="213.093" width="14.0425" height="14.1732" class="st13"/>
			<text x="4" y="223.78" class="st11" v:langID="1043"><v:paragraph v:horizAlign="1"/><v:tabList/>E</text>		</g>
		<g id="group140-160" transform="translate(119.43,-0.375)" v:mID="140" v:groupContext="group">
			<title>Maatlijn.140</title>
			<g id="group141-161" transform="translate(0,-9.92126)" v:mID="141" v:groupContext="group">
				<title>Maatlijn.31</title>
				<g id="shape142-162" v:mID="142" v:groupContext="shape" transform="translate(227.267,218.763) rotate(90)">
					<title>Blad.142</title>
					<path d="M0 227.27 L8.5 227.27" class="st14"/>
				</g>
				<g id="shape143-165" v:mID="143" v:groupContext="shape" transform="translate(283.96,218.763) rotate(90)">
					<title>Blad.143</title>
					<path d="M0 227.27 L8.5 227.27" class="st14"/>
				</g>
				<g id="shape144-168" v:mID="144" v:groupContext="shape" transform="translate(0,-4.25197)">
					<title>Blad.144</title>
					<path d="M3.74 227.27 L4.1 227.27 L52.59 227.27" class="st15"/>
				</g>
			</g>
			<g id="shape145-175" v:mID="145" v:groupContext="shape">
				<title>Blad.145</title>
				<desc>4 m</desc>
				<v:textBlock v:margins="rect(4,4,4,4)" v:tabSpace="42.5197"/>
				<v:textRect cx="28.3465" cy="220.18" width="56.7" height="14.1732"/>
				<rect x="0" y="213.093" width="56.6929" height="14.1732" class="st13"/>
				<text x="19.18" y="223.78" class="st11" v:langID="1043"><v:paragraph v:horizAlign="1"/><v:tabList/>4 m</text>			</g>
		</g>
		<g id="group201-178" transform="translate(200.218,-156.281)" v:mID="201" v:groupContext="group">
			<title>Maatlijn verticaal.201</title>
			<g id="group202-179" transform="translate(-218.763,227.267) rotate(-90)" v:mID="202" v:groupContext="group">
				<title>Maatlijn.31</title>
				<g id="shape203-180" v:mID="203" v:groupContext="shape" transform="translate(227.267,218.763) rotate(90)">
					<title>Blad.203</title>
					<path d="M0 227.27 L8.5 227.27" class="st14"/>
				</g>
				<g id="shape204-183" v:mID="204" v:groupContext="shape" transform="translate(269.786,218.763) rotate(90)">
					<title>Blad.204</title>
					<path d="M0 227.27 L8.5 227.27" class="st14"/>
				</g>
				<g id="shape205-186" v:mID="205" v:groupContext="shape" transform="translate(0,-4.25197)">
					<title>Blad.205</title>
					<path d="M3.74 227.27 L4.1 227.27 L38.42 227.27" class="st15"/>
				</g>
			</g>
			<g id="shape206-193" v:mID="206" v:groupContext="shape" transform="translate(4.25197,-17.0079)">
				<title>Blad.206</title>
				<desc>3 m</desc>
				<v:textBlock v:margins="rect(4,4,4,4)" v:tabSpace="42.5197"/>
				<v:textRect cx="14.1732" cy="223.015" width="28.35" height="8.50394"/>
				<rect x="0" y="218.763" width="28.3465" height="8.50394" class="st13"/>
				<text x="5.01" y="226.61" class="st11" v:langID="1043"><v:paragraph v:horizAlign="1"/><v:tabList/>3 m</text>			</g>
		</g>
		<g id="group222-196" transform="translate(-39.805,80.9074) rotate(-90)" v:mID="222" v:groupContext="group">
			<title>Scharnieroplegging</title>
			<g id="shape223-197" v:mID="223" v:groupContext="shape" transform="translate(2.83465,0)">
				<title>Blad.223</title>
				<path d="M0 227.27 L14.17 227.27 L7.09 215.93 L0 227.27 Z" class="st12"/>
			</g>
			<g id="shape224-199" v:mID="224" v:groupContext="shape" transform="translate(2.83465,454.533) rotate(180)">
				<title>Blad.224</title>
				<path d="M0 227.27 L2.83 227.27" class="st4"/>
			</g>
			<g id="shape225-202" v:mID="225" v:groupContext="shape" transform="translate(17.0079,0)">
				<title>Blad.225</title>
				<path d="M0 227.27 L2.83 227.27" class="st4"/>
			</g>
		</g>
		<g id="shape226-205" v:mID="226" v:groupContext="shape" transform="translate(161.95,-156.28)">
			<title>Blad.226</title>
			<desc>C</desc>
			<v:textBlock v:margins="rect(4,4,4,4)" v:tabSpace="42.5197"/>
			<v:textRect cx="7.02125" cy="220.18" width="14.05" height="14.1732"/>
			<rect x="0" y="213.093" width="14.0425" height="14.1732" class="st13"/>
			<text x="4" y="223.78" class="st11" v:langID="1043"><v:paragraph v:horizAlign="1"/><v:tabList/>C</text>		</g>
		<g id="group245-208" transform="translate(113.761,328.017) scale(1,-1)" v:mID="245" v:groupContext="group">
			<title>Hellingsdriehoek</title>
			<g id="shape246-209" v:mID="246" v:groupContext="shape" transform="translate(22.6772,2.84217E-14)">
				<title>Blad.246</title>
				<desc>3</desc>
				<v:textBlock v:margins="rect(4,4,4,4)" v:tabSpace="42.5197"/>
				<v:textRect cx="5.66929" cy="218.763" width="11.34" height="17.0079"/>
				<rect x="0" y="210.259" width="11.3386" height="17.0079" class="st13"/>
				<text x="4" y="-216.36" transform="scale(1,-1)" class="st17" v:langID="1043"><v:paragraph v:horizAlign="1"/><v:tabList/>3</text>			</g>
			<g id="shape247-212" v:mID="247" v:groupContext="shape" transform="translate(3.59712E-14,-17.0079)">
				<title>Blad.247</title>
				<desc>4</desc>
				<v:textBlock v:margins="rect(4,4,4,4)" v:tabSpace="42.5197"/>
				<v:textRect cx="11.3386" cy="223.015" width="22.68" height="8.50394"/>
				<rect x="0" y="218.763" width="22.6772" height="8.50394" class="st13"/>
				<text x="9.34" y="-220.61" transform="scale(1,-1)" class="st17" v:langID="1043"><v:paragraph v:horizAlign="1"/><v:tabList/>4</text>			</g>
			<g id="shape248-215" v:mID="248" v:groupContext="shape">
				<title>Blad.248</title>
				<path d="M22.68 227.27 L22.68 210.26 L0 210.26" class="st4"/>
			</g>
		</g>
		<g id="shape249-218" v:mID="249" v:groupContext="shape" transform="translate(62.7372,-183.21)">
			<title>Blad.249</title>
			<desc>EI = 5000 kNm2</desc>
			<v:textBlock v:margins="rect(4,4,4,4)" v:tabSpace="42.5197"/>
			<v:textRect cx="56.6929" cy="220.18" width="113.39" height="14.1732"/>
			<rect x="0" y="213.093" width="113.386" height="14.1732" class="st13"/>
			<text x="17.2" y="223.78" class="st18" v:langID="1043"><v:paragraph v:horizAlign="1"/><v:tabList/>EI<tspan class="st19"> </tspan><tspan
						class="st19">= 5000 kNm</tspan><tspan dy="-0.198em" class="st20" v:baseFontSize="12">2</tspan></text>		</g>
		<g id="shape250-224" v:mID="250" v:groupContext="shape" transform="translate(0.375,-135.021)">
			<title>Blad.250</title>
			<desc>EA = 20000 kN</desc>
			<v:textBlock v:margins="rect(4,4,4,4)" v:tabSpace="42.5197"/>
			<v:textRect cx="31.1811" cy="220.18" width="62.37" height="14.1732"/>
			<rect x="0" y="213.093" width="62.3622" height="14.1732" class="st13"/>
			<text x="18.97" y="216.58" class="st18" v:langID="1043"><v:paragraph v:horizAlign="1"/><v:tabList/>EA<tspan
						class="st19"> </tspan><tspan class="st19">=<v:newlineChar/></tspan><tspan x="7.35" dy="1.2em" class="st19">20000 kN</tspan></text>		</g>
		<g id="shape251-230" v:mID="251" v:groupContext="shape" transform="translate(81.1624,-132.204)">
			<title>Blad.251</title>
			<desc>EA = 20000 kN</desc>
			<v:textBlock v:margins="rect(4,4,4,4)" v:tabSpace="42.5197"/>
			<v:textRect cx="31.1811" cy="220.18" width="62.37" height="14.1732"/>
			<rect x="0" y="213.093" width="62.3622" height="14.1732" class="st13"/>
			<text x="18.97" y="216.58" class="st18" v:langID="1043"><v:paragraph v:horizAlign="1"/><v:tabList/>EA<tspan
						class="st19"> </tspan><tspan class="st19">=<v:newlineChar/></tspan><tspan x="7.35" dy="1.2em" class="st19">20000 kN</tspan></text>		</g>
		<g id="shape261-236" v:mID="261" v:groupContext="shape" transform="translate(0.375017,-71.2411)">
			<title>Blad.261</title>
			<desc>150 kN</desc>
			<v:textBlock v:margins="rect(4,4,4,4)" v:tabSpace="42.5197"/>
			<v:textRect cx="31.1811" cy="220.18" width="62.37" height="14.1732"/>
			<rect x="0" y="213.093" width="62.3622" height="14.1732" class="st13"/>
			<text x="13.35" y="223.78" class="st11" v:langID="1043"><v:paragraph v:horizAlign="1"/><v:tabList/>150 kN</text>		</g>
	</g>
</svg>
