<?xml version="1.0" encoding="UTF-8" standalone="no"?>
<!DOCTYPE svg PUBLIC "-//W3C//DTD SVG 1.1//EN" "http://www.w3.org/Graphics/SVG/1.1/DTD/svg11.dtd">
<!-- Gegenereerd door Microsoft Visio, SVG Export 1.svg Pagina-1 -->
<svg xmlns="http://www.w3.org/2000/svg" xmlns:xlink="http://www.w3.org/1999/xlink" xmlns:ev="http://www.w3.org/2001/xml-events"
		xmlns:v="http://schemas.microsoft.com/visio/2003/SVGExtensions/" width="2.36908in" height="2.72341in"
		viewBox="0 0 170.574 196.086" xml:space="preserve" color-interpolation-filters="sRGB" class="st18">
	<v:documentProperties v:langID="1043" v:metric="true" v:viewMarkup="false"/>

	<style type="text/css">
	<![CDATA[
		.st1 {stroke:#000000;stroke-linecap:round;stroke-linejoin:round;stroke-width:1.2}
		.st2 {stroke:#000000;stroke-linecap:round;stroke-linejoin:round;stroke-width:0.75}
		.st3 {stroke:#000000;stroke-linecap:round;stroke-linejoin:round;stroke-width:2}
		.st4 {marker-end:url(#mrkr5-53);stroke:#800000;stroke-linecap:round;stroke-linejoin:round;stroke-width:1.2}
		.st5 {fill:#800000;fill-opacity:1;stroke:#800000;stroke-opacity:1;stroke-width:0.45454545454545}
		.st6 {stroke:#800000;stroke-linecap:round;stroke-linejoin:round;stroke-width:1.2}
		.st7 {fill:none;stroke:none;stroke-linecap:round;stroke-linejoin:round;stroke-width:0.24}
		.st8 {fill:#000000;font-family:Times New Roman;font-size:1.00001em}
		.st9 {fill:#00cc99;stroke:#000000;stroke-linecap:round;stroke-linejoin:round;stroke-width:0.75}
		.st10 {stroke:#000000;stroke-linecap:round;stroke-linejoin:round;stroke-width:0.25}
		.st11 {marker-end:url(#mrkr4-114);marker-start:url(#mrkr4-112);stroke:#000000;stroke-linecap:round;stroke-linejoin:round;stroke-width:0.25}
		.st12 {fill:#000000;fill-opacity:1;stroke:#000000;stroke-opacity:1;stroke-width:0.12195121951219}
		.st13 {fill:none;stroke:none;stroke-linecap:round;stroke-linejoin:round;stroke-width:0.75}
		.st14 {fill:#000000;font-family:Times New Roman;font-size:1.00001em;font-style:italic}
		.st15 {font-size:1em;font-style:normal}
		.st16 {marker-start:url(#mrkr5-177);stroke:#800000;stroke-linecap:round;stroke-linejoin:round;stroke-width:2}
		.st17 {fill:#800000;fill-opacity:1;stroke:#800000;stroke-opacity:1;stroke-width:0.44247787610619}
		.st18 {fill:none;fill-rule:evenodd;font-size:12px;overflow:visible;stroke-linecap:square;stroke-miterlimit:3}
	]]>
	</style>

	<defs id="Markers">
		<g id="lend5">
			<path d="M 2 1 L 0 0 L 1.98117 -0.993387 C 1.67173 -0.364515 1.67301 0.372641 1.98465 1.00043 " style="stroke:none"/>
		</g>
		<marker id="mrkr5-53" class="st5" v:arrowType="5" v:arrowSize="0" v:setback="3.85" refX="-3.85" orient="auto"
				markerUnits="strokeWidth" overflow="visible">
			<use xlink:href="#lend5" transform="scale(-2.2,-2.2) "/>
		</marker>
		<g id="lend4">
			<path d="M 2 1 L 0 0 L 2 -1 L 2 1 " style="stroke:none"/>
		</g>
		<marker id="mrkr4-112" class="st12" v:arrowType="4" v:arrowSize="1" v:setback="14.96" refX="14.96" orient="auto"
				markerUnits="strokeWidth" overflow="visible">
			<use xlink:href="#lend4" transform="scale(8.2) "/>
		</marker>
		<marker id="mrkr4-114" class="st12" v:arrowType="4" v:arrowSize="1" v:setback="16.4" refX="-16.4" orient="auto"
				markerUnits="strokeWidth" overflow="visible">
			<use xlink:href="#lend4" transform="scale(-8.2,-8.2) "/>
		</marker>
		<marker id="mrkr5-177" class="st17" v:arrowType="5" v:arrowSize="2" v:setback="3.775" refX="3.775" orient="auto"
				markerUnits="strokeWidth" overflow="visible">
			<use xlink:href="#lend5" transform="scale(2.26) "/>
		</marker>
	</defs>
	<g v:mID="0" v:index="1" v:groupContext="foregroundPage">
		<title>Pagina-1</title>
		<v:pageProperties v:drawingScale="0.0393701" v:pageScale="0.0393701" v:drawingUnits="24" v:shadowOffsetX="8.50394"
				v:shadowOffsetY="-8.50394"/>
		<g id="group1-1" transform="translate(-110.926,195.711) rotate(-90)" v:mID="1" v:groupContext="group">
			<title>Inklemming</title>
			<g id="shape2-2" v:mID="2" v:groupContext="shape" transform="translate(207.424,167.739) rotate(90)">
				<title>Blad.2</title>
				<path d="M0 196.09 L28.35 196.09" class="st1"/>
			</g>
			<g id="shape3-5" v:mID="3" v:groupContext="shape" transform="translate(147.157,29.0857) rotate(45)">
				<title>Blad.3</title>
				<path d="M0 196.09 L4.01 196.09" class="st2"/>
			</g>
			<g id="shape4-8" v:mID="4" v:groupContext="shape" transform="translate(144.323,29.0857) rotate(45)">
				<title>Blad.4</title>
				<path d="M0 196.09 L8.02 196.09" class="st2"/>
			</g>
			<g id="shape5-11" v:mID="5" v:groupContext="shape" transform="translate(141.488,29.0857) rotate(45)">
				<title>Blad.5</title>
				<path d="M0 196.09 L12.03 196.09" class="st2"/>
			</g>
			<g id="shape6-14" v:mID="6" v:groupContext="shape" transform="translate(138.653,29.0857) rotate(45)">
				<title>Blad.6</title>
				<path d="M0 196.09 L16.04 196.09" class="st2"/>
			</g>
			<g id="shape7-17" v:mID="7" v:groupContext="shape" transform="translate(138.653,31.9203) rotate(45)">
				<title>Blad.7</title>
				<path d="M0 196.09 L16.04 196.09" class="st2"/>
			</g>
			<g id="shape8-20" v:mID="8" v:groupContext="shape" transform="translate(138.653,34.755) rotate(45)">
				<title>Blad.8</title>
				<path d="M0 196.09 L16.04 196.09" class="st2"/>
			</g>
			<g id="shape9-23" v:mID="9" v:groupContext="shape" transform="translate(138.653,37.5896) rotate(45)">
				<title>Blad.9</title>
				<path d="M0 196.09 L16.04 196.09" class="st2"/>
			</g>
			<g id="shape10-26" v:mID="10" v:groupContext="shape" transform="translate(138.653,40.4243) rotate(45)">
				<title>Blad.10</title>
				<path d="M0 196.09 L16.04 196.09" class="st2"/>
			</g>
			<g id="shape11-29" v:mID="11" v:groupContext="shape" transform="translate(138.653,43.2589) rotate(45)">
				<title>Blad.11</title>
				<path d="M0 196.09 L16.04 196.09" class="st2"/>
			</g>
			<g id="shape12-32" v:mID="12" v:groupContext="shape" transform="translate(138.653,46.0935) rotate(45)">
				<title>Blad.12</title>
				<path d="M0 196.09 L16.04 196.09" class="st2"/>
			</g>
			<g id="shape13-35" v:mID="13" v:groupContext="shape" transform="translate(138.653,48.9282) rotate(45)">
				<title>Blad.13</title>
				<path d="M0 196.09 L12.03 196.09" class="st2"/>
			</g>
			<g id="shape14-38" v:mID="14" v:groupContext="shape" transform="translate(138.653,51.7628) rotate(45)">
				<title>Blad.14</title>
				<path d="M0 196.09 L8.02 196.09" class="st2"/>
			</g>
			<g id="shape15-41" v:mID="15" v:groupContext="shape" transform="translate(138.653,54.5975) rotate(45)">
				<title>Blad.15</title>
				<path d="M0 196.09 L4.01 196.09" class="st2"/>
			</g>
		</g>
		<g id="shape16-44" v:mID="16" v:groupContext="shape" transform="translate(-125.099,184.372) rotate(-90)">
			<title>Ligger, 2 pt</title>
			<path d="M0 196.09 L113.39 196.09" class="st3"/>
		</g>
		<g id="group29-47" transform="translate(274.158,99.3326) rotate(90)" v:mID="29" v:groupContext="group">
			<title>q-last constant parallel</title>
			<g id="shape30-48" v:mID="30" v:groupContext="shape" transform="translate(2.95764E-06,0)">
				<title>Kracht.5</title>
				<path d="M0 196.09 L6.01 196.09" class="st4"/>
			</g>
			<g id="shape31-54" v:mID="31" v:groupContext="shape" transform="translate(-2.39808E-14,7.08663)">
				<title>Blad.31</title>
				<path d="M0 196.09 L0 189 L0 181.91 L85.04 181.91 L85.04 189 L85.04 196.09" class="st6"/>
			</g>
			<g id="shape32-57" v:mID="32" v:groupContext="shape" transform="translate(18.6024,0)">
				<title>Kracht.4</title>
				<path d="M0 196.09 L6.01 196.09" class="st4"/>
			</g>
			<g id="shape33-62" v:mID="33" v:groupContext="shape" transform="translate(37.2047,0)">
				<title>Kracht.9</title>
				<path d="M0 196.09 L6.01 196.09" class="st4"/>
			</g>
			<g id="shape34-67" v:mID="34" v:groupContext="shape" transform="translate(55.8071,5.68434E-14)">
				<title>Kracht.6</title>
				<path d="M0 196.09 L6.01 196.09" class="st4"/>
			</g>
			<g id="shape35-72" v:mID="35" v:groupContext="shape" transform="translate(74.4095,0)">
				<title>Kracht.7</title>
				<path d="M0 196.09 L6.01 196.09" class="st4"/>
			</g>
			<g id="shape36-77" v:mID="36" v:groupContext="shape" transform="translate(-146.479,188.999) rotate(-90)">
				<title>A.58</title>
				<desc>8 kN/m</desc>
				<v:textBlock v:margins="rect(4,4,4,4)" v:tabSpace="42.5197"/>
				<v:textRect cx="24.8032" cy="188.999" width="49.61" height="14.1732"/>
				<rect x="0" y="181.912" width="49.6063" height="14.1732" class="st7"/>
				<text x="6.64" y="192.6" class="st8" v:langID="1043"><v:paragraph v:horizAlign="1"/><v:tabList/>8 kN/m</text>			</g>
		</g>
		<g id="group37-80" transform="translate(255.733,4.37197) rotate(90)" v:mID="37" v:groupContext="group">
			<title>Scharnieroplegging</title>
			<g id="shape38-81" v:mID="38" v:groupContext="shape" transform="translate(2.83465,0)">
				<title>Blad.38</title>
				<path d="M0 196.09 L14.17 196.09 L7.09 184.75 L0 196.09 Z" class="st9"/>
			</g>
			<g id="shape39-83" v:mID="39" v:groupContext="shape" transform="translate(2.83465,392.171) rotate(180)">
				<title>Blad.39</title>
				<path d="M0 196.09 L2.83 196.09" class="st2"/>
			</g>
			<g id="shape40-86" v:mID="40" v:groupContext="shape" transform="translate(17.0079,0)">
				<title>Blad.40</title>
				<path d="M0 196.09 L2.83 196.09" class="st2"/>
			</g>
		</g>
		<g id="shape41-89" v:mID="41" v:groupContext="shape" transform="translate(-125.099,70.9862) rotate(-90)">
			<title>Ligger, 2 pt.41</title>
			<path d="M0 196.09 L56.69 196.09" class="st3"/>
		</g>
		<g id="shape47-92" v:mID="47" v:groupContext="shape" transform="translate(70.9861,-125.099)">
			<title>Blad.47</title>
			<path d="M0 196.09 L5.67 196.09" class="st2"/>
		</g>
		<g id="shape48-95" v:mID="48" v:groupContext="shape" transform="translate(78.0728,-136.438)">
			<title>A.58</title>
			<desc>60 kN</desc>
			<v:textBlock v:margins="rect(4,4,4,4)" v:tabSpace="42.5197"/>
			<v:textRect cx="24.8032" cy="188.999" width="49.61" height="14.1732"/>
			<rect x="0" y="181.912" width="49.6063" height="14.1732" class="st7"/>
			<text x="9.97" y="192.6" class="st8" v:langID="1043"><v:paragraph v:horizAlign="1"/><v:tabList/>60 kN</text>		</g>
		<g id="group49-98" transform="translate(137.6,-125.099)" v:mID="49" v:groupContext="group">
			<title>Maatlijn verticaal</title>
			<g id="group50-99" transform="translate(-187.582,196.086) rotate(-90)" v:mID="50" v:groupContext="group">
				<title>Maatlijn.31</title>
				<g id="shape51-100" v:mID="51" v:groupContext="shape" transform="translate(196.086,187.582) rotate(90)">
					<title>Blad.51</title>
					<path d="M0 196.09 L8.5 196.09" class="st10"/>
				</g>
				<g id="shape52-103" v:mID="52" v:groupContext="shape" transform="translate(252.778,187.582) rotate(90)">
					<title>Blad.52</title>
					<path d="M0 196.09 L8.5 196.09" class="st10"/>
				</g>
				<g id="shape53-106" v:mID="53" v:groupContext="shape" transform="translate(0,-4.25197)">
					<title>Blad.53</title>
					<path d="M3.74 196.09 L4.1 196.09 L52.59 196.09" class="st11"/>
				</g>
			</g>
			<g id="shape54-115" v:mID="54" v:groupContext="shape" transform="translate(4.25197,-22.6772)">
				<title>Blad.54</title>
				<desc>4 m</desc>
				<v:textBlock v:margins="rect(4,4,4,4)" v:tabSpace="42.5197"/>
				<v:textRect cx="14.1732" cy="190.416" width="28.35" height="11.3386"/>
				<rect x="0" y="184.747" width="28.3465" height="11.3386" class="st13"/>
				<text x="5.01" y="194.02" class="st8" v:langID="1043"><v:paragraph v:horizAlign="1"/><v:tabList/>4 m</text>			</g>
		</g>
		<g id="group55-118" transform="translate(137.6,-96.7529)" v:mID="55" v:groupContext="group">
			<title>Maatlijn verticaal.55</title>
			<g id="group56-119" transform="translate(-187.582,196.086) rotate(-90)" v:mID="56" v:groupContext="group">
				<title>Maatlijn.31</title>
				<g id="shape57-120" v:mID="57" v:groupContext="shape" transform="translate(196.086,187.582) rotate(90)">
					<title>Blad.57</title>
					<path d="M0 196.09 L8.5 196.09" class="st10"/>
				</g>
				<g id="shape58-123" v:mID="58" v:groupContext="shape" transform="translate(224.432,187.582) rotate(90)">
					<title>Blad.58</title>
					<path d="M0 196.09 L8.5 196.09" class="st10"/>
				</g>
				<g id="shape59-126" v:mID="59" v:groupContext="shape" transform="translate(0,-4.25197)">
					<title>Blad.59</title>
					<path d="M3.74 196.09 L4.1 196.09 L24.25 196.09" class="st11"/>
				</g>
			</g>
			<g id="shape60-133" v:mID="60" v:groupContext="shape" transform="translate(4.25197,-11.3386)">
				<title>Blad.60</title>
				<desc>2 m</desc>
				<v:textBlock v:margins="rect(4,4,4,4)" v:tabSpace="42.5197"/>
				<v:textRect cx="14.1732" cy="193.251" width="28.35" height="5.66929"/>
				<rect x="0" y="190.416" width="28.3465" height="5.66929" class="st13"/>
				<text x="5.01" y="196.85" class="st8" v:langID="1043"><v:paragraph v:horizAlign="1"/><v:tabList/>2 m</text>			</g>
		</g>
		<g id="group61-136" transform="translate(137.6,-11.7136)" v:mID="61" v:groupContext="group">
			<title>Maatlijn verticaal.61</title>
			<g id="group62-137" transform="translate(-187.582,196.086) rotate(-90)" v:mID="62" v:groupContext="group">
				<title>Maatlijn.31</title>
				<g id="shape63-138" v:mID="63" v:groupContext="shape" transform="translate(196.086,187.582) rotate(90)">
					<title>Blad.63</title>
					<path d="M0 196.09 L8.5 196.09" class="st10"/>
				</g>
				<g id="shape64-141" v:mID="64" v:groupContext="shape" transform="translate(281.125,187.582) rotate(90)">
					<title>Blad.64</title>
					<path d="M0 196.09 L8.5 196.09" class="st10"/>
				</g>
				<g id="shape65-144" v:mID="65" v:groupContext="shape" transform="translate(0,-4.25197)">
					<title>Blad.65</title>
					<path d="M3.74 196.09 L4.1 196.09 L80.94 196.09" class="st11"/>
				</g>
			</g>
			<g id="shape66-151" v:mID="66" v:groupContext="shape" transform="translate(4.25197,-34.0157)">
				<title>Blad.66</title>
				<desc>6 m</desc>
				<v:textBlock v:margins="rect(4,4,4,4)" v:tabSpace="42.5197"/>
				<v:textRect cx="14.1732" cy="187.582" width="28.35" height="17.0079"/>
				<rect x="0" y="179.078" width="28.3465" height="17.0079" class="st13"/>
				<text x="5.01" y="191.18" class="st8" v:langID="1043"><v:paragraph v:horizAlign="1"/><v:tabList/>6 m</text>			</g>
		</g>
		<g id="shape67-154" v:mID="67" v:groupContext="shape" transform="translate(0.12,-54.2333)">
			<title>A.67</title>
			<desc>EA = 3000 kN</desc>
			<v:textBlock v:margins="rect(4,4,4,4)" v:tabSpace="42.5197"/>
			<v:textRect cx="28.3465" cy="188.999" width="56.7" height="14.1732"/>
			<rect x="0" y="181.912" width="56.6929" height="14.1732" class="st7"/>
			<text x="16.13" y="185.4" class="st14" v:langID="1043"><v:paragraph v:horizAlign="1"/><v:tabList/>EA<tspan class="st15"> </tspan><tspan
						class="st15">= </tspan><tspan x="7.51" dy="1.2em" class="st15">3000 kN</tspan></text>		</g>
		<g id="shape68-160" v:mID="68" v:groupContext="shape" transform="translate(56.8129,-11.7136)">
			<title>Punt A</title>
			<desc>A</desc>
			<v:textBlock v:margins="rect(4,4,4,4)" v:tabSpace="42.5197"/>
			<v:textRect cx="7.08661" cy="188.999" width="14.18" height="14.1732"/>
			<rect x="0" y="181.912" width="14.1732" height="14.1732" class="st7"/>
			<text x="4" y="192.6" class="st8" v:langID="1043"><v:paragraph v:horizAlign="1"/><v:tabList/>A</text>		</g>
		<g id="shape69-163" v:mID="69" v:groupContext="shape" transform="translate(70.9861,-181.792)">
			<title>Punt A.69</title>
			<desc>B</desc>
			<v:textBlock v:margins="rect(4,4,4,4)" v:tabSpace="42.5197"/>
			<v:textRect cx="7.08661" cy="188.999" width="14.18" height="14.1732"/>
			<rect x="0" y="181.912" width="14.1732" height="14.1732" class="st7"/>
			<text x="4" y="192.6" class="st8" v:langID="1043"><v:paragraph v:horizAlign="1"/><v:tabList/>B</text>		</g>
		<g id="shape70-166" v:mID="70" v:groupContext="shape" transform="translate(56.8129,-89.6663)">
			<title>Punt A.70</title>
			<desc>C</desc>
			<v:textBlock v:margins="rect(4,4,4,4)" v:tabSpace="42.5197"/>
			<v:textRect cx="7.08661" cy="188.999" width="14.18" height="14.1732"/>
			<rect x="0" y="181.912" width="14.1732" height="14.1732" class="st7"/>
			<text x="4" y="192.6" class="st8" v:langID="1043"><v:paragraph v:horizAlign="1"/><v:tabList/>C</text>		</g>
		<g id="shape71-169" v:mID="71" v:groupContext="shape" transform="translate(56.8129,-118.013)">
			<title>Punt A.71</title>
			<desc>D</desc>
			<v:textBlock v:margins="rect(4,4,4,4)" v:tabSpace="42.5197"/>
			<v:textRect cx="7.08661" cy="188.999" width="14.18" height="14.1732"/>
			<rect x="0" y="181.912" width="14.1732" height="14.1732" class="st7"/>
			<text x="4" y="192.6" class="st8" v:langID="1043"><v:paragraph v:horizAlign="1"/><v:tabList/>D</text>		</g>
		<g id="shape46-172" v:mID="46" v:groupContext="shape" transform="translate(272.741,42.6397) rotate(90)">
			<title>Kracht</title>
			<path d="M7.55 196.09 L7.91 196.09 L28.35 196.09" class="st16"/>
		</g>
	</g>
</svg>
