<?xml version="1.0" encoding="UTF-8" standalone="no"?>
<!DOCTYPE svg PUBLIC "-//W3C//DTD SVG 1.1//EN" "http://www.w3.org/Graphics/SVG/1.1/DTD/svg11.dtd">
<!-- Gegenereerd door Microsoft Visio, SVG Export a_assen.svg Pagina-1 -->
<svg xmlns="http://www.w3.org/2000/svg" xmlns:xlink="http://www.w3.org/1999/xlink" xmlns:ev="http://www.w3.org/2001/xml-events"
		xmlns:v="http://schemas.microsoft.com/visio/2003/SVGExtensions/" width="2.46543in" height="3.02015in"
		viewBox="0 0 177.511 217.451" xml:space="preserve" color-interpolation-filters="sRGB" class="st20">
	<v:documentProperties v:langID="1043" v:metric="true" v:viewMarkup="false"/>

	<style type="text/css">
	<![CDATA[
		.st1 {stroke:#000000;stroke-linecap:round;stroke-linejoin:round;stroke-width:1.2}
		.st2 {stroke:#000000;stroke-linecap:round;stroke-linejoin:round;stroke-width:0.75}
		.st3 {stroke:#000000;stroke-linecap:round;stroke-linejoin:round;stroke-width:2}
		.st4 {marker-end:url(#mrkr5-53);stroke:#800000;stroke-linecap:round;stroke-linejoin:round;stroke-width:1.2}
		.st5 {fill:#800000;fill-opacity:1;stroke:#800000;stroke-opacity:1;stroke-width:0.45454545454545}
		.st6 {stroke:#800000;stroke-linecap:round;stroke-linejoin:round;stroke-width:1.2}
		.st7 {fill:none;stroke:none;stroke-linecap:round;stroke-linejoin:round;stroke-width:0.24}
		.st8 {fill:#000000;font-family:Times New Roman;font-size:1.00001em}
		.st9 {fill:#00cc99;stroke:#000000;stroke-linecap:round;stroke-linejoin:round;stroke-width:0.75}
		.st10 {stroke:#000000;stroke-linecap:round;stroke-linejoin:round;stroke-width:0.25}
		.st11 {marker-end:url(#mrkr4-114);marker-start:url(#mrkr4-112);stroke:#000000;stroke-linecap:round;stroke-linejoin:round;stroke-width:0.25}
		.st12 {fill:#000000;fill-opacity:1;stroke:#000000;stroke-opacity:1;stroke-width:0.12195121951219}
		.st13 {fill:none;stroke:none;stroke-linecap:round;stroke-linejoin:round;stroke-width:0.75}
		.st14 {marker-start:url(#mrkr5-171);stroke:#800000;stroke-linecap:round;stroke-linejoin:round;stroke-width:2}
		.st15 {fill:#800000;fill-opacity:1;stroke:#800000;stroke-opacity:1;stroke-width:0.44247787610619}
		.st16 {marker-end:url(#mrkr5-179);stroke:#000000;stroke-linecap:round;stroke-linejoin:round;stroke-width:0.75}
		.st17 {fill:#000000;fill-opacity:1;stroke:#000000;stroke-opacity:1;stroke-width:0.22935779816514}
		.st18 {fill:#000000;font-family:Times New Roman;font-size:1.00001em;font-style:italic}
		.st19 {font-size:1em;font-style:normal}
		.st20 {fill:none;fill-rule:evenodd;font-size:12px;overflow:visible;stroke-linecap:square;stroke-miterlimit:3}
	]]>
	</style>

	<defs id="Markers">
		<g id="lend5">
			<path d="M 2 1 L 0 0 L 1.98117 -0.993387 C 1.67173 -0.364515 1.67301 0.372641 1.98465 1.00043 " style="stroke:none"/>
		</g>
		<marker id="mrkr5-53" class="st5" v:arrowType="5" v:arrowSize="0" v:setback="3.85" refX="-3.85" orient="auto"
				markerUnits="strokeWidth" overflow="visible">
			<use xlink:href="#lend5" transform="scale(-2.2,-2.2) "/>
		</marker>
		<g id="lend4">
			<path d="M 2 1 L 0 0 L 2 -1 L 2 1 " style="stroke:none"/>
		</g>
		<marker id="mrkr4-112" class="st12" v:arrowType="4" v:arrowSize="1" v:setback="14.96" refX="14.96" orient="auto"
				markerUnits="strokeWidth" overflow="visible">
			<use xlink:href="#lend4" transform="scale(8.2) "/>
		</marker>
		<marker id="mrkr4-114" class="st12" v:arrowType="4" v:arrowSize="1" v:setback="16.4" refX="-16.4" orient="auto"
				markerUnits="strokeWidth" overflow="visible">
			<use xlink:href="#lend4" transform="scale(-8.2,-8.2) "/>
		</marker>
		<marker id="mrkr5-171" class="st15" v:arrowType="5" v:arrowSize="2" v:setback="3.775" refX="3.775" orient="auto"
				markerUnits="strokeWidth" overflow="visible">
			<use xlink:href="#lend5" transform="scale(2.26) "/>
		</marker>
		<marker id="mrkr5-179" class="st17" v:arrowType="5" v:arrowSize="2" v:setback="7.63" refX="-7.63" orient="auto"
				markerUnits="strokeWidth" overflow="visible">
			<use xlink:href="#lend5" transform="scale(-4.36,-4.36) "/>
		</marker>
	</defs>
	<g v:mID="0" v:index="1" v:groupContext="foregroundPage">
		<title>Pagina-1</title>
		<v:pageProperties v:drawingScale="0.0393701" v:pageScale="0.0393701" v:drawingUnits="24" v:shadowOffsetX="8.50394"
				v:shadowOffsetY="-8.50394"/>
		<g id="group110-1" transform="translate(-132.291,217.076) rotate(-90)" v:mID="110" v:groupContext="group">
			<title>Inklemming.110</title>
			<g id="shape111-2" v:mID="111" v:groupContext="shape" transform="translate(228.789,189.104) rotate(90)">
				<title>Blad.111</title>
				<path d="M0 217.45 L28.35 217.45" class="st1"/>
			</g>
			<g id="shape112-5" v:mID="112" v:groupContext="shape" transform="translate(162.265,35.3434) rotate(45)">
				<title>Blad.112</title>
				<path d="M0 217.45 L4.01 217.45" class="st2"/>
			</g>
			<g id="shape113-8" v:mID="113" v:groupContext="shape" transform="translate(159.43,35.3434) rotate(45)">
				<title>Blad.113</title>
				<path d="M0 217.45 L8.02 217.45" class="st2"/>
			</g>
			<g id="shape114-11" v:mID="114" v:groupContext="shape" transform="translate(156.596,35.3434) rotate(45)">
				<title>Blad.114</title>
				<path d="M0 217.45 L12.03 217.45" class="st2"/>
			</g>
			<g id="shape115-14" v:mID="115" v:groupContext="shape" transform="translate(153.761,35.3434) rotate(45)">
				<title>Blad.115</title>
				<path d="M0 217.45 L16.04 217.45" class="st2"/>
			</g>
			<g id="shape116-17" v:mID="116" v:groupContext="shape" transform="translate(153.761,38.178) rotate(45)">
				<title>Blad.116</title>
				<path d="M0 217.45 L16.04 217.45" class="st2"/>
			</g>
			<g id="shape117-20" v:mID="117" v:groupContext="shape" transform="translate(153.761,41.0127) rotate(45)">
				<title>Blad.117</title>
				<path d="M0 217.45 L16.04 217.45" class="st2"/>
			</g>
			<g id="shape118-23" v:mID="118" v:groupContext="shape" transform="translate(153.761,43.8473) rotate(45)">
				<title>Blad.118</title>
				<path d="M0 217.45 L16.04 217.45" class="st2"/>
			</g>
			<g id="shape119-26" v:mID="119" v:groupContext="shape" transform="translate(153.761,46.682) rotate(45)">
				<title>Blad.119</title>
				<path d="M0 217.45 L16.04 217.45" class="st2"/>
			</g>
			<g id="shape120-29" v:mID="120" v:groupContext="shape" transform="translate(153.761,49.5166) rotate(45)">
				<title>Blad.120</title>
				<path d="M0 217.45 L16.04 217.45" class="st2"/>
			</g>
			<g id="shape121-32" v:mID="121" v:groupContext="shape" transform="translate(153.761,52.3513) rotate(45)">
				<title>Blad.121</title>
				<path d="M0 217.45 L16.04 217.45" class="st2"/>
			</g>
			<g id="shape122-35" v:mID="122" v:groupContext="shape" transform="translate(153.761,55.1859) rotate(45)">
				<title>Blad.122</title>
				<path d="M0 217.45 L12.03 217.45" class="st2"/>
			</g>
			<g id="shape123-38" v:mID="123" v:groupContext="shape" transform="translate(153.761,58.0206) rotate(45)">
				<title>Blad.123</title>
				<path d="M0 217.45 L8.02 217.45" class="st2"/>
			</g>
			<g id="shape124-41" v:mID="124" v:groupContext="shape" transform="translate(153.761,60.8552) rotate(45)">
				<title>Blad.124</title>
				<path d="M0 217.45 L4.01 217.45" class="st2"/>
			</g>
		</g>
		<g id="shape125-44" v:mID="125" v:groupContext="shape" transform="translate(-146.465,205.737) rotate(-90)">
			<title>Ligger, 2 pt.125</title>
			<path d="M0 217.45 L113.39 217.45" class="st3"/>
		</g>
		<g id="group126-47" transform="translate(295.523,120.698) rotate(90)" v:mID="126" v:groupContext="group">
			<title>q-last constant parallel.126</title>
			<g id="shape127-48" v:mID="127" v:groupContext="shape" transform="translate(2.95764E-06,2.84217E-14)">
				<title>Kracht.5</title>
				<path d="M0 217.45 L6.01 217.45" class="st4"/>
			</g>
			<g id="shape128-54" v:mID="128" v:groupContext="shape" transform="translate(-2.39808E-14,7.08663)">
				<title>Blad.128</title>
				<path d="M0 217.45 L0 210.36 L0 203.28 L85.04 203.28 L85.04 210.36 L85.04 217.45" class="st6"/>
			</g>
			<g id="shape129-57" v:mID="129" v:groupContext="shape" transform="translate(18.6024,2.84217E-14)">
				<title>Kracht.4</title>
				<path d="M0 217.45 L6.01 217.45" class="st4"/>
			</g>
			<g id="shape130-62" v:mID="130" v:groupContext="shape" transform="translate(37.2047,2.84217E-14)">
				<title>Kracht.9</title>
				<path d="M0 217.45 L6.01 217.45" class="st4"/>
			</g>
			<g id="shape131-67" v:mID="131" v:groupContext="shape" transform="translate(55.8071,8.52651E-14)">
				<title>Kracht.6</title>
				<path d="M0 217.45 L6.01 217.45" class="st4"/>
			</g>
			<g id="shape132-72" v:mID="132" v:groupContext="shape" transform="translate(74.4095,2.84217E-14)">
				<title>Kracht.7</title>
				<path d="M0 217.45 L6.01 217.45" class="st4"/>
			</g>
			<g id="shape133-77" v:mID="133" v:groupContext="shape" transform="translate(-167.844,210.364) rotate(-90)">
				<title>A.58</title>
				<desc>8 kN/m</desc>
				<v:textBlock v:margins="rect(4,4,4,4)" v:tabSpace="42.5197"/>
				<v:textRect cx="24.8032" cy="210.364" width="49.61" height="14.1732"/>
				<rect x="0" y="203.278" width="49.6063" height="14.1732" class="st7"/>
				<text x="6.64" y="213.96" class="st8" v:langID="1043"><v:paragraph v:horizAlign="1"/><v:tabList/>8 kN/m</text>			</g>
		</g>
		<g id="group134-80" transform="translate(277.098,25.7371) rotate(90)" v:mID="134" v:groupContext="group">
			<title>Scharnieroplegging.134</title>
			<g id="shape135-81" v:mID="135" v:groupContext="shape" transform="translate(2.83465,2.84217E-14)">
				<title>Blad.135</title>
				<path d="M0 217.45 L14.17 217.45 L7.09 206.11 L0 217.45 Z" class="st9"/>
			</g>
			<g id="shape136-83" v:mID="136" v:groupContext="shape" transform="translate(2.83465,434.901) rotate(180)">
				<title>Blad.136</title>
				<path d="M0 217.45 L2.83 217.45" class="st2"/>
			</g>
			<g id="shape137-86" v:mID="137" v:groupContext="shape" transform="translate(17.0079,2.84217E-14)">
				<title>Blad.137</title>
				<path d="M0 217.45 L2.83 217.45" class="st2"/>
			</g>
		</g>
		<g id="shape138-89" v:mID="138" v:groupContext="shape" transform="translate(-146.465,92.3513) rotate(-90)">
			<title>Ligger, 2 pt.138</title>
			<path d="M0 217.45 L56.69 217.45" class="st3"/>
		</g>
		<g id="shape139-92" v:mID="139" v:groupContext="shape" transform="translate(70.9861,-125.099)">
			<title>Blad.139</title>
			<path d="M0 217.45 L5.67 217.45" class="st2"/>
		</g>
		<g id="shape140-95" v:mID="140" v:groupContext="shape" transform="translate(78.0728,-136.438)">
			<title>A.140</title>
			<desc>60 kN</desc>
			<v:textBlock v:margins="rect(4,4,4,4)" v:tabSpace="42.5197"/>
			<v:textRect cx="24.8032" cy="210.364" width="49.61" height="14.1732"/>
			<rect x="0" y="203.278" width="49.6063" height="14.1732" class="st7"/>
			<text x="9.97" y="213.96" class="st8" v:langID="1043"><v:paragraph v:horizAlign="1"/><v:tabList/>60 kN</text>		</g>
		<g id="group141-98" transform="translate(137.6,-125.099)" v:mID="141" v:groupContext="group">
			<title>Maatlijn verticaal.141</title>
			<g id="group142-99" transform="translate(-208.947,217.451) rotate(-90)" v:mID="142" v:groupContext="group">
				<title>Maatlijn.31</title>
				<g id="shape143-100" v:mID="143" v:groupContext="shape" transform="translate(217.451,208.947) rotate(90)">
					<title>Blad.143</title>
					<path d="M0 217.45 L8.5 217.45" class="st10"/>
				</g>
				<g id="shape144-103" v:mID="144" v:groupContext="shape" transform="translate(274.144,208.947) rotate(90)">
					<title>Blad.144</title>
					<path d="M0 217.45 L8.5 217.45" class="st10"/>
				</g>
				<g id="shape145-106" v:mID="145" v:groupContext="shape" transform="translate(0,-4.25197)">
					<title>Blad.145</title>
					<path d="M3.74 217.45 L4.1 217.45 L52.59 217.45" class="st11"/>
				</g>
			</g>
			<g id="shape146-115" v:mID="146" v:groupContext="shape" transform="translate(4.25197,-22.6772)">
				<title>Blad.146</title>
				<desc>4 m</desc>
				<v:textBlock v:margins="rect(4,4,4,4)" v:tabSpace="42.5197"/>
				<v:textRect cx="14.1732" cy="211.781" width="28.35" height="11.3386"/>
				<rect x="0" y="206.112" width="28.3465" height="11.3386" class="st13"/>
				<text x="5.01" y="215.38" class="st8" v:langID="1043"><v:paragraph v:horizAlign="1"/><v:tabList/>4 m</text>			</g>
		</g>
		<g id="group147-118" transform="translate(137.6,-96.7529)" v:mID="147" v:groupContext="group">
			<title>Maatlijn verticaal.147</title>
			<g id="group148-119" transform="translate(-208.947,217.451) rotate(-90)" v:mID="148" v:groupContext="group">
				<title>Maatlijn.31</title>
				<g id="shape149-120" v:mID="149" v:groupContext="shape" transform="translate(217.451,208.947) rotate(90)">
					<title>Blad.149</title>
					<path d="M0 217.45 L8.5 217.45" class="st10"/>
				</g>
				<g id="shape150-123" v:mID="150" v:groupContext="shape" transform="translate(245.797,208.947) rotate(90)">
					<title>Blad.150</title>
					<path d="M0 217.45 L8.5 217.45" class="st10"/>
				</g>
				<g id="shape151-126" v:mID="151" v:groupContext="shape" transform="translate(0,-4.25197)">
					<title>Blad.151</title>
					<path d="M3.74 217.45 L4.1 217.45 L24.25 217.45" class="st11"/>
				</g>
			</g>
			<g id="shape152-133" v:mID="152" v:groupContext="shape" transform="translate(4.25197,-11.3386)">
				<title>Blad.152</title>
				<desc>2 m</desc>
				<v:textBlock v:margins="rect(4,4,4,4)" v:tabSpace="42.5197"/>
				<v:textRect cx="14.1732" cy="214.616" width="28.35" height="5.66929"/>
				<rect x="0" y="211.781" width="28.3465" height="5.66929" class="st13"/>
				<text x="5.01" y="218.22" class="st8" v:langID="1043"><v:paragraph v:horizAlign="1"/><v:tabList/>2 m</text>			</g>
		</g>
		<g id="group153-136" transform="translate(137.6,-11.7136)" v:mID="153" v:groupContext="group">
			<title>Maatlijn verticaal.153</title>
			<g id="group154-137" transform="translate(-208.947,217.451) rotate(-90)" v:mID="154" v:groupContext="group">
				<title>Maatlijn.31</title>
				<g id="shape155-138" v:mID="155" v:groupContext="shape" transform="translate(217.451,208.947) rotate(90)">
					<title>Blad.155</title>
					<path d="M0 217.45 L8.5 217.45" class="st10"/>
				</g>
				<g id="shape156-141" v:mID="156" v:groupContext="shape" transform="translate(302.49,208.947) rotate(90)">
					<title>Blad.156</title>
					<path d="M0 217.45 L8.5 217.45" class="st10"/>
				</g>
				<g id="shape157-144" v:mID="157" v:groupContext="shape" transform="translate(0,-4.25197)">
					<title>Blad.157</title>
					<path d="M3.74 217.45 L4.1 217.45 L80.94 217.45" class="st11"/>
				</g>
			</g>
			<g id="shape158-151" v:mID="158" v:groupContext="shape" transform="translate(4.25197,-34.0157)">
				<title>Blad.158</title>
				<desc>6 m</desc>
				<v:textBlock v:margins="rect(4,4,4,4)" v:tabSpace="42.5197"/>
				<v:textRect cx="14.1732" cy="208.947" width="28.35" height="17.0079"/>
				<rect x="0" y="200.443" width="28.3465" height="17.0079" class="st13"/>
				<text x="5.01" y="212.55" class="st8" v:langID="1043"><v:paragraph v:horizAlign="1"/><v:tabList/>6 m</text>			</g>
		</g>
		<g id="shape160-154" v:mID="160" v:groupContext="shape" transform="translate(56.8129,-11.7136)">
			<title>Punt A.160</title>
			<desc>A</desc>
			<v:textBlock v:margins="rect(4,4,4,4)" v:tabSpace="42.5197"/>
			<v:textRect cx="7.08661" cy="210.364" width="14.18" height="14.1732"/>
			<rect x="0" y="203.278" width="14.1732" height="14.1732" class="st7"/>
			<text x="4" y="213.96" class="st8" v:langID="1043"><v:paragraph v:horizAlign="1"/><v:tabList/>A</text>		</g>
		<g id="shape161-157" v:mID="161" v:groupContext="shape" transform="translate(70.9861,-174.706)">
			<title>Punt A.161</title>
			<desc>B</desc>
			<v:textBlock v:margins="rect(4,4,4,4)" v:tabSpace="42.5197"/>
			<v:textRect cx="7.08661" cy="210.364" width="14.18" height="14.1732"/>
			<rect x="0" y="203.278" width="14.1732" height="14.1732" class="st7"/>
			<text x="4" y="213.96" class="st8" v:langID="1043"><v:paragraph v:horizAlign="1"/><v:tabList/>B</text>		</g>
		<g id="shape162-160" v:mID="162" v:groupContext="shape" transform="translate(56.8129,-89.6663)">
			<title>Punt A.162</title>
			<desc>C</desc>
			<v:textBlock v:margins="rect(4,4,4,4)" v:tabSpace="42.5197"/>
			<v:textRect cx="7.08661" cy="210.364" width="14.18" height="14.1732"/>
			<rect x="0" y="203.278" width="14.1732" height="14.1732" class="st7"/>
			<text x="4" y="213.96" class="st8" v:langID="1043"><v:paragraph v:horizAlign="1"/><v:tabList/>C</text>		</g>
		<g id="shape163-163" v:mID="163" v:groupContext="shape" transform="translate(56.8129,-118.013)">
			<title>Punt A.163</title>
			<desc>D</desc>
			<v:textBlock v:margins="rect(4,4,4,4)" v:tabSpace="42.5197"/>
			<v:textRect cx="7.08661" cy="210.364" width="14.18" height="14.1732"/>
			<rect x="0" y="203.278" width="14.1732" height="14.1732" class="st7"/>
			<text x="4" y="213.96" class="st8" v:langID="1043"><v:paragraph v:horizAlign="1"/><v:tabList/>D</text>		</g>
		<g id="shape164-166" v:mID="164" v:groupContext="shape" transform="translate(294.106,64.0049) rotate(90)">
			<title>Kracht.164</title>
			<path d="M7.55 217.45 L7.91 217.45 L28.35 217.45" class="st14"/>
		</g>
		<g id="group165-172" transform="translate(-47.252,205.737) rotate(-90)" v:mID="165" v:groupContext="group">
			<title>z-as</title>
			<g id="shape166-173" v:mID="166" v:groupContext="shape" transform="translate(217.451,189.104) rotate(90)">
				<title>Blad.166</title>
				<path d="M0 217.45 L22.62 217.45" class="st16"/>
			</g>
			<g id="shape167-180" v:mID="167" v:groupContext="shape" transform="translate(217.451,203.278) rotate(90)">
				<title>Blad.167</title>
				<desc>z</desc>
				<v:textBlock v:margins="rect(4,4,4,4)" v:tabSpace="42.5197"/>
				<v:textRect cx="7.08661" cy="210.364" width="14.18" height="14.1732"/>
				<rect x="0" y="203.278" width="14.1732" height="14.1732" class="st13"/>
				<text x="4.75" y="213.96" class="st18" v:langID="1043"><v:paragraph v:horizAlign="1"/><v:tabList/>z</text>			</g>
		</g>
		<g id="group168-183" transform="translate(-132.291,35.6584) rotate(-90)" v:mID="168" v:groupContext="group">
			<title>x-as</title>
			<g id="shape169-184" v:mID="169" v:groupContext="shape" transform="translate(-2.47948E-12,-14.1732)">
				<title>Blad.169</title>
				<path d="M0 217.45 L22.62 217.45" class="st16"/>
			</g>
			<g id="shape170-189" v:mID="170" v:groupContext="shape" transform="translate(231.624,203.278) rotate(90)">
				<title>Blad.170</title>
				<desc>x</desc>
				<v:textBlock v:margins="rect(4,4,4,4)" v:tabSpace="42.5197"/>
				<v:textRect cx="7.08661" cy="210.364" width="14.18" height="14.1732"/>
				<rect x="0" y="203.278" width="14.1732" height="14.1732" class="st13"/>
				<text x="4.42" y="213.96" class="st18" v:langID="1043"><v:paragraph v:horizAlign="1"/><v:tabList/>x</text>			</g>
		</g>
		<g id="shape204-192" v:mID="204" v:groupContext="shape" transform="translate(0.12,-54.2333)">
			<title>A.204</title>
			<desc>EA = 3000 kN</desc>
			<v:textBlock v:margins="rect(4,4,4,4)" v:tabSpace="42.5197"/>
			<v:textRect cx="28.3465" cy="210.364" width="56.7" height="14.1732"/>
			<rect x="0" y="203.278" width="56.6929" height="14.1732" class="st7"/>
			<text x="16.13" y="206.77" class="st18" v:langID="1043"><v:paragraph v:horizAlign="1"/><v:tabList/>EA<tspan
						class="st19"> </tspan><tspan class="st19">= </tspan><tspan x="7.51" dy="1.2em" class="st19">3000 kN</tspan></text>		</g>
	</g>
</svg>
