<?xml version="1.0" encoding="utf-8" standalone="no"?>
<!DOCTYPE svg PUBLIC "-//W3C//DTD SVG 1.1//EN"
  "http://www.w3.org/Graphics/SVG/1.1/DTD/svg11.dtd">
<svg xmlns:xlink="http://www.w3.org/1999/xlink" width="397.070085pt" height="280.512pt" viewBox="0 0 397.070085 280.512" xmlns="http://www.w3.org/2000/svg" version="1.1">
 <metadata>
  <rdf:RDF xmlns:dc="http://purl.org/dc/elements/1.1/" xmlns:cc="http://creativecommons.org/ns#" xmlns:rdf="http://www.w3.org/1999/02/22-rdf-syntax-ns#">
   <cc:Work>
    <dc:type rdf:resource="http://purl.org/dc/dcmitype/StillImage"/>
    <dc:date>2024-09-18T15:51:02.881417</dc:date>
    <dc:format>image/svg+xml</dc:format>
    <dc:creator>
     <cc:Agent>
      <dc:title>Matplotlib v3.8.0, https://matplotlib.org/</dc:title>
     </cc:Agent>
    </dc:creator>
   </cc:Work>
  </rdf:RDF>
 </metadata>
 <defs>
  <style type="text/css">*{stroke-linejoin: round; stroke-linecap: butt}</style>
 </defs>
 <g id="figure_1">
  <g id="patch_1">
   <path d="M 0 280.512 
L 397.070085 280.512 
L 397.070085 0 
L 0 0 
z
" style="fill: #ffffff"/>
  </g>
  <g id="axes_1">
   <g id="patch_2">
    <path d="M 32.750085 273.312 
L 389.870085 273.312 
L 389.870085 7.2 
L 32.750085 7.2 
z
" style="fill: #ffffff"/>
   </g>
   <g id="matplotlib.axis_1">
    <g id="xtick_1">
     <g id="line2d_1">
      <defs>
       <path id="mcfd229bb2a" d="M 0 0 
L 0 3.5 
" style="stroke: #000000; stroke-width: 0.8"/>
      </defs>
      <g>
       <use xlink:href="#mcfd229bb2a" x="48.982812" y="146.622316" style="stroke: #000000; stroke-width: 0.8"/>
      </g>
     </g>
     <g id="text_1">
      <!-- 0 -->
      <g transform="translate(45.801562 161.220753) scale(0.1 -0.1)">
       <defs>
        <path id="DejaVuSans-30" d="M 2034 4250 
Q 1547 4250 1301 3770 
Q 1056 3291 1056 2328 
Q 1056 1369 1301 889 
Q 1547 409 2034 409 
Q 2525 409 2770 889 
Q 3016 1369 3016 2328 
Q 3016 3291 2770 3770 
Q 2525 4250 2034 4250 
z
M 2034 4750 
Q 2819 4750 3233 4129 
Q 3647 3509 3647 2328 
Q 3647 1150 3233 529 
Q 2819 -91 2034 -91 
Q 1250 -91 836 529 
Q 422 1150 422 2328 
Q 422 3509 836 4129 
Q 1250 4750 2034 4750 
z
" transform="scale(0.015625)"/>
       </defs>
       <use xlink:href="#DejaVuSans-30"/>
      </g>
     </g>
    </g>
    <g id="xtick_2">
     <g id="line2d_2">
      <g>
       <use xlink:href="#mcfd229bb2a" x="103.091903" y="146.622316" style="stroke: #000000; stroke-width: 0.8"/>
      </g>
     </g>
     <g id="text_2">
      <!-- 2 -->
      <g transform="translate(99.910653 161.220753) scale(0.1 -0.1)">
       <defs>
        <path id="DejaVuSans-32" d="M 1228 531 
L 3431 531 
L 3431 0 
L 469 0 
L 469 531 
Q 828 903 1448 1529 
Q 2069 2156 2228 2338 
Q 2531 2678 2651 2914 
Q 2772 3150 2772 3378 
Q 2772 3750 2511 3984 
Q 2250 4219 1831 4219 
Q 1534 4219 1204 4116 
Q 875 4013 500 3803 
L 500 4441 
Q 881 4594 1212 4672 
Q 1544 4750 1819 4750 
Q 2544 4750 2975 4387 
Q 3406 4025 3406 3419 
Q 3406 3131 3298 2873 
Q 3191 2616 2906 2266 
Q 2828 2175 2409 1742 
Q 1991 1309 1228 531 
z
" transform="scale(0.015625)"/>
       </defs>
       <use xlink:href="#DejaVuSans-32"/>
      </g>
     </g>
    </g>
    <g id="xtick_3">
     <g id="line2d_3">
      <g>
       <use xlink:href="#mcfd229bb2a" x="157.200994" y="146.622316" style="stroke: #000000; stroke-width: 0.8"/>
      </g>
     </g>
     <g id="text_3">
      <!-- 4 -->
      <g transform="translate(154.019744 161.220753) scale(0.1 -0.1)">
       <defs>
        <path id="DejaVuSans-34" d="M 2419 4116 
L 825 1625 
L 2419 1625 
L 2419 4116 
z
M 2253 4666 
L 3047 4666 
L 3047 1625 
L 3713 1625 
L 3713 1100 
L 3047 1100 
L 3047 0 
L 2419 0 
L 2419 1100 
L 313 1100 
L 313 1709 
L 2253 4666 
z
" transform="scale(0.015625)"/>
       </defs>
       <use xlink:href="#DejaVuSans-34"/>
      </g>
     </g>
    </g>
    <g id="xtick_4">
     <g id="line2d_4">
      <g>
       <use xlink:href="#mcfd229bb2a" x="211.310085" y="146.622316" style="stroke: #000000; stroke-width: 0.8"/>
      </g>
     </g>
     <g id="text_4">
      <!-- 6 -->
      <g transform="translate(208.128835 161.220753) scale(0.1 -0.1)">
       <defs>
        <path id="DejaVuSans-36" d="M 2113 2584 
Q 1688 2584 1439 2293 
Q 1191 2003 1191 1497 
Q 1191 994 1439 701 
Q 1688 409 2113 409 
Q 2538 409 2786 701 
Q 3034 994 3034 1497 
Q 3034 2003 2786 2293 
Q 2538 2584 2113 2584 
z
M 3366 4563 
L 3366 3988 
Q 3128 4100 2886 4159 
Q 2644 4219 2406 4219 
Q 1781 4219 1451 3797 
Q 1122 3375 1075 2522 
Q 1259 2794 1537 2939 
Q 1816 3084 2150 3084 
Q 2853 3084 3261 2657 
Q 3669 2231 3669 1497 
Q 3669 778 3244 343 
Q 2819 -91 2113 -91 
Q 1303 -91 875 529 
Q 447 1150 447 2328 
Q 447 3434 972 4092 
Q 1497 4750 2381 4750 
Q 2619 4750 2861 4703 
Q 3103 4656 3366 4563 
z
" transform="scale(0.015625)"/>
       </defs>
       <use xlink:href="#DejaVuSans-36"/>
      </g>
     </g>
    </g>
    <g id="xtick_5">
     <g id="line2d_5">
      <g>
       <use xlink:href="#mcfd229bb2a" x="265.419176" y="146.622316" style="stroke: #000000; stroke-width: 0.8"/>
      </g>
     </g>
     <g id="text_5">
      <!-- 8 -->
      <g transform="translate(262.237926 161.220753) scale(0.1 -0.1)">
       <defs>
        <path id="DejaVuSans-38" d="M 2034 2216 
Q 1584 2216 1326 1975 
Q 1069 1734 1069 1313 
Q 1069 891 1326 650 
Q 1584 409 2034 409 
Q 2484 409 2743 651 
Q 3003 894 3003 1313 
Q 3003 1734 2745 1975 
Q 2488 2216 2034 2216 
z
M 1403 2484 
Q 997 2584 770 2862 
Q 544 3141 544 3541 
Q 544 4100 942 4425 
Q 1341 4750 2034 4750 
Q 2731 4750 3128 4425 
Q 3525 4100 3525 3541 
Q 3525 3141 3298 2862 
Q 3072 2584 2669 2484 
Q 3125 2378 3379 2068 
Q 3634 1759 3634 1313 
Q 3634 634 3220 271 
Q 2806 -91 2034 -91 
Q 1263 -91 848 271 
Q 434 634 434 1313 
Q 434 1759 690 2068 
Q 947 2378 1403 2484 
z
M 1172 3481 
Q 1172 3119 1398 2916 
Q 1625 2713 2034 2713 
Q 2441 2713 2670 2916 
Q 2900 3119 2900 3481 
Q 2900 3844 2670 4047 
Q 2441 4250 2034 4250 
Q 1625 4250 1398 4047 
Q 1172 3844 1172 3481 
z
" transform="scale(0.015625)"/>
       </defs>
       <use xlink:href="#DejaVuSans-38"/>
      </g>
     </g>
    </g>
    <g id="xtick_6">
     <g id="line2d_6">
      <g>
       <use xlink:href="#mcfd229bb2a" x="319.528267" y="146.622316" style="stroke: #000000; stroke-width: 0.8"/>
      </g>
     </g>
     <g id="text_6">
      <!-- 10 -->
      <g transform="translate(313.165767 161.220753) scale(0.1 -0.1)">
       <defs>
        <path id="DejaVuSans-31" d="M 794 531 
L 1825 531 
L 1825 4091 
L 703 3866 
L 703 4441 
L 1819 4666 
L 2450 4666 
L 2450 531 
L 3481 531 
L 3481 0 
L 794 0 
L 794 531 
z
" transform="scale(0.015625)"/>
       </defs>
       <use xlink:href="#DejaVuSans-31"/>
       <use xlink:href="#DejaVuSans-30" x="63.623047"/>
      </g>
     </g>
    </g>
    <g id="xtick_7">
     <g id="line2d_7">
      <g>
       <use xlink:href="#mcfd229bb2a" x="373.637358" y="146.622316" style="stroke: #000000; stroke-width: 0.8"/>
      </g>
     </g>
     <g id="text_7">
      <!-- 12 -->
      <g transform="translate(367.274858 161.220753) scale(0.1 -0.1)">
       <use xlink:href="#DejaVuSans-31"/>
       <use xlink:href="#DejaVuSans-32" x="63.623047"/>
      </g>
     </g>
    </g>
    <g id="text_8">
     <!-- $x$ -->
     <g transform="translate(208.310085 174.898878) scale(0.1 -0.1)">
      <defs>
       <path id="DejaVuSans-Oblique-78" d="M 3841 3500 
L 2234 1784 
L 3219 0 
L 2559 0 
L 1819 1388 
L 531 0 
L -166 0 
L 1556 1844 
L 641 3500 
L 1300 3500 
L 1972 2234 
L 3144 3500 
L 3841 3500 
z
" transform="scale(0.015625)"/>
      </defs>
      <use xlink:href="#DejaVuSans-Oblique-78" transform="translate(0 0.3125)"/>
     </g>
    </g>
   </g>
   <g id="matplotlib.axis_2">
    <g id="ytick_1">
     <g id="line2d_8">
      <defs>
       <path id="m896d67749c" d="M 0 0 
L -3.5 0 
" style="stroke: #000000; stroke-width: 0.8"/>
      </defs>
      <g>
       <use xlink:href="#m896d67749c" x="48.982812" y="19.296" style="stroke: #000000; stroke-width: 0.8"/>
      </g>
     </g>
     <g id="text_9">
      <!-- −40 -->
      <g transform="translate(20.878125 23.095219) scale(0.1 -0.1)">
       <defs>
        <path id="DejaVuSans-2212" d="M 678 2272 
L 4684 2272 
L 4684 1741 
L 678 1741 
L 678 2272 
z
" transform="scale(0.015625)"/>
       </defs>
       <use xlink:href="#DejaVuSans-2212"/>
       <use xlink:href="#DejaVuSans-34" x="83.789062"/>
       <use xlink:href="#DejaVuSans-30" x="147.412109"/>
      </g>
     </g>
    </g>
    <g id="ytick_2">
     <g id="line2d_9">
      <g>
       <use xlink:href="#m896d67749c" x="48.982812" y="51.127579" style="stroke: #000000; stroke-width: 0.8"/>
      </g>
     </g>
     <g id="text_10">
      <!-- −30 -->
      <g transform="translate(20.878125 54.926798) scale(0.1 -0.1)">
       <defs>
        <path id="DejaVuSans-33" d="M 2597 2516 
Q 3050 2419 3304 2112 
Q 3559 1806 3559 1356 
Q 3559 666 3084 287 
Q 2609 -91 1734 -91 
Q 1441 -91 1130 -33 
Q 819 25 488 141 
L 488 750 
Q 750 597 1062 519 
Q 1375 441 1716 441 
Q 2309 441 2620 675 
Q 2931 909 2931 1356 
Q 2931 1769 2642 2001 
Q 2353 2234 1838 2234 
L 1294 2234 
L 1294 2753 
L 1863 2753 
Q 2328 2753 2575 2939 
Q 2822 3125 2822 3475 
Q 2822 3834 2567 4026 
Q 2313 4219 1838 4219 
Q 1578 4219 1281 4162 
Q 984 4106 628 3988 
L 628 4550 
Q 988 4650 1302 4700 
Q 1616 4750 1894 4750 
Q 2613 4750 3031 4423 
Q 3450 4097 3450 3541 
Q 3450 3153 3228 2886 
Q 3006 2619 2597 2516 
z
" transform="scale(0.015625)"/>
       </defs>
       <use xlink:href="#DejaVuSans-2212"/>
       <use xlink:href="#DejaVuSans-33" x="83.789062"/>
       <use xlink:href="#DejaVuSans-30" x="147.412109"/>
      </g>
     </g>
    </g>
    <g id="ytick_3">
     <g id="line2d_10">
      <g>
       <use xlink:href="#m896d67749c" x="48.982812" y="82.959158" style="stroke: #000000; stroke-width: 0.8"/>
      </g>
     </g>
     <g id="text_11">
      <!-- −20 -->
      <g transform="translate(20.878125 86.758377) scale(0.1 -0.1)">
       <use xlink:href="#DejaVuSans-2212"/>
       <use xlink:href="#DejaVuSans-32" x="83.789062"/>
       <use xlink:href="#DejaVuSans-30" x="147.412109"/>
      </g>
     </g>
    </g>
    <g id="ytick_4">
     <g id="line2d_11">
      <g>
       <use xlink:href="#m896d67749c" x="48.982812" y="114.790737" style="stroke: #000000; stroke-width: 0.8"/>
      </g>
     </g>
     <g id="text_12">
      <!-- −10 -->
      <g transform="translate(20.878125 118.589956) scale(0.1 -0.1)">
       <use xlink:href="#DejaVuSans-2212"/>
       <use xlink:href="#DejaVuSans-31" x="83.789062"/>
       <use xlink:href="#DejaVuSans-30" x="147.412109"/>
      </g>
     </g>
    </g>
    <g id="ytick_5">
     <g id="line2d_12">
      <g>
       <use xlink:href="#m896d67749c" x="48.982812" y="146.622316" style="stroke: #000000; stroke-width: 0.8"/>
      </g>
     </g>
     <g id="text_13">
      <!-- 0 -->
      <g transform="translate(35.620312 150.421535) scale(0.1 -0.1)">
       <use xlink:href="#DejaVuSans-30"/>
      </g>
     </g>
    </g>
    <g id="ytick_6">
     <g id="line2d_13">
      <g>
       <use xlink:href="#m896d67749c" x="48.982812" y="178.453895" style="stroke: #000000; stroke-width: 0.8"/>
      </g>
     </g>
     <g id="text_14">
      <!-- 10 -->
      <g transform="translate(29.257812 182.253113) scale(0.1 -0.1)">
       <use xlink:href="#DejaVuSans-31"/>
       <use xlink:href="#DejaVuSans-30" x="63.623047"/>
      </g>
     </g>
    </g>
    <g id="ytick_7">
     <g id="line2d_14">
      <g>
       <use xlink:href="#m896d67749c" x="48.982812" y="210.285474" style="stroke: #000000; stroke-width: 0.8"/>
      </g>
     </g>
     <g id="text_15">
      <!-- 20 -->
      <g transform="translate(29.257812 214.084692) scale(0.1 -0.1)">
       <use xlink:href="#DejaVuSans-32"/>
       <use xlink:href="#DejaVuSans-30" x="63.623047"/>
      </g>
     </g>
    </g>
    <g id="ytick_8">
     <g id="line2d_15">
      <g>
       <use xlink:href="#m896d67749c" x="48.982812" y="242.117053" style="stroke: #000000; stroke-width: 0.8"/>
      </g>
     </g>
     <g id="text_16">
      <!-- 30 -->
      <g transform="translate(29.257812 245.916271) scale(0.1 -0.1)">
       <use xlink:href="#DejaVuSans-33"/>
       <use xlink:href="#DejaVuSans-30" x="63.623047"/>
      </g>
     </g>
    </g>
    <g id="text_17">
     <!-- $M$ -->
     <g transform="translate(14.798437 144.606) rotate(-90) scale(0.1 -0.1)">
      <defs>
       <path id="DejaVuSans-Oblique-4d" d="M 1081 4666 
L 2028 4666 
L 2572 1522 
L 4378 4666 
L 5350 4666 
L 4441 0 
L 3828 0 
L 4622 4091 
L 2791 897 
L 2175 897 
L 1581 4103 
L 788 0 
L 172 0 
L 1081 4666 
z
" transform="scale(0.015625)"/>
      </defs>
      <use xlink:href="#DejaVuSans-Oblique-4d" transform="translate(0 0.09375)"/>
     </g>
    </g>
   </g>
   <g id="line2d_16">
    <path d="M 48.982812 71.022316 
L 50.349204 76.8454 
L 51.715595 82.499206 
L 53.081986 87.984964 
L 54.448377 93.303903 
L 55.814768 98.457254 
L 57.18116 103.446247 
L 58.547551 108.272113 
L 59.913942 112.936081 
L 61.280333 117.439382 
L 62.646724 121.783247 
L 64.013116 125.968904 
L 65.379507 129.997586 
L 66.745898 133.870521 
L 68.112289 137.58894 
L 69.47868 141.154073 
L 70.845071 144.56715 
L 72.211463 147.829402 
L 73.577854 150.94206 
L 74.944245 153.906352 
L 76.310636 156.723509 
L 77.677027 159.394762 
L 79.043419 161.921341 
L 80.40981 164.304476 
L 81.776201 166.545397 
L 83.142592 168.645334 
L 84.508983 170.605519 
L 85.875374 172.42718 
L 87.241766 174.111548 
L 88.608157 175.659853 
L 89.974548 177.073326 
L 91.340939 178.353197 
L 92.70733 179.500696 
L 94.073722 180.517053 
L 95.440113 181.403498 
L 96.806504 182.161262 
L 98.172895 182.791575 
L 99.539286 183.295667 
L 100.905678 183.674769 
L 102.272069 183.93011 
L 103.63846 184.06292 
L 105.004851 184.074431 
L 106.371242 183.965872 
L 107.737633 183.738474 
L 109.104025 183.393466 
L 110.470416 182.932079 
L 111.836807 182.355543 
L 113.203198 181.665089 
L 114.569589 180.861946 
L 115.935981 179.947345 
L 117.302372 178.922515 
L 118.668763 177.788689 
L 120.035154 176.547094 
L 121.401545 175.198962 
L 122.767936 173.745524 
L 124.134328 172.188008 
L 125.500719 170.527645 
L 126.86711 168.765667 
L 128.233501 166.903302 
L 129.599892 164.941781 
L 130.966284 162.882334 
L 132.332675 160.726192 
L 133.699066 158.474584 
L 135.065457 156.128742 
L 136.431848 153.689894 
L 137.798239 151.159272 
L 139.164631 148.538105 
L 140.531022 145.827624 
L 141.897413 143.02906 
L 143.263804 140.143641 
L 144.630195 137.172599 
L 145.996587 134.117164 
L 147.362978 130.978566 
L 148.729369 127.758034 
L 150.09576 124.4568 
L 151.462151 121.076094 
L 152.828543 117.617146 
L 154.194934 114.081185 
L 155.561325 110.469443 
L 156.927716 106.783149 
L 158.294107 103.023534 
L 159.660498 99.191828 
L 161.02689 95.289261 
L 162.393281 91.317064 
L 163.759672 87.276466 
L 165.126063 83.168698 
L 166.492454 78.99499 
L 167.858846 74.756572 
L 169.225237 70.454674 
L 170.591628 66.090528 
L 171.958019 61.665362 
L 173.32441 57.180408 
L 174.690801 52.636895 
L 176.057193 48.036053 
L 177.423584 43.379113 
L 178.789975 38.667306 
L 180.156366 33.90186 
L 181.522757 29.084007 
L 182.889149 24.214977 
L 184.25554 19.296 
" clip-path="url(#pb7b35f1c9c)" style="fill: none; stroke: #1f77b4; stroke-width: 1.5; stroke-linecap: square"/>
   </g>
   <g id="line2d_17">
    <path d="M 48.982812 71.022316 
L 50.349204 76.8454 
L 51.715595 82.499206 
L 53.081986 87.984964 
L 54.448377 93.303903 
L 55.814768 98.457254 
L 57.18116 103.446247 
L 58.547551 108.272113 
L 59.913942 112.936081 
L 61.280333 117.439382 
L 62.646724 121.783247 
L 64.013116 125.968904 
L 65.379507 129.997586 
L 66.745898 133.870521 
L 68.112289 137.58894 
L 69.47868 141.154073 
L 70.845071 144.56715 
L 72.211463 147.829402 
L 73.577854 150.94206 
L 74.944245 153.906352 
L 76.310636 156.723509 
L 77.677027 159.394762 
L 79.043419 161.921341 
L 80.40981 164.304476 
L 81.776201 166.545397 
L 83.142592 168.645334 
L 84.508983 170.605519 
L 85.875374 172.42718 
L 87.241766 174.111548 
L 88.608157 175.659853 
L 89.974548 177.073326 
L 91.340939 178.353197 
L 92.70733 179.500696 
L 94.073722 180.517053 
L 95.440113 181.403498 
L 96.806504 182.161262 
L 98.172895 182.791575 
L 99.539286 183.295667 
L 100.905678 183.674769 
L 102.272069 183.93011 
L 103.63846 184.06292 
L 105.004851 184.074431 
L 106.371242 183.965872 
L 107.737633 183.738474 
L 109.104025 183.393466 
L 110.470416 182.932079 
L 111.836807 182.355543 
L 113.203198 181.665089 
L 114.569589 180.861946 
L 115.935981 179.947345 
L 117.302372 178.922515 
L 118.668763 177.788689 
L 120.035154 176.547094 
L 121.401545 175.198962 
L 122.767936 173.745524 
L 124.134328 172.188008 
L 125.500719 170.527645 
L 126.86711 168.765667 
L 128.233501 166.903302 
L 129.599892 164.941781 
L 130.966284 162.882334 
L 132.332675 160.726192 
L 133.699066 158.474584 
L 135.065457 156.128742 
L 136.431848 153.689894 
L 137.798239 151.159272 
L 139.164631 148.538105 
L 140.531022 145.827624 
L 141.897413 143.02906 
L 143.263804 140.143641 
L 144.630195 137.172599 
L 145.996587 134.117164 
L 147.362978 130.978566 
L 148.729369 127.758034 
L 150.09576 124.4568 
L 151.462151 121.076094 
L 152.828543 117.617146 
L 154.194934 114.081185 
L 155.561325 110.469443 
L 156.927716 106.783149 
L 158.294107 103.023534 
L 159.660498 99.191828 
L 161.02689 95.289261 
L 162.393281 91.317064 
L 163.759672 87.276466 
L 165.126063 83.168698 
L 166.492454 78.99499 
L 167.858846 74.756572 
L 169.225237 70.454674 
L 170.591628 66.090528 
L 171.958019 61.665362 
L 173.32441 57.180408 
L 174.690801 52.636895 
L 176.057193 48.036053 
L 177.423584 43.379113 
L 178.789975 38.667306 
L 180.156366 33.90186 
L 181.522757 29.084007 
L 182.889149 24.214977 
L 184.25554 19.296 
" clip-path="url(#pb7b35f1c9c)" style="fill: none; stroke: #ff7f0e; stroke-width: 1.5; stroke-linecap: square"/>
   </g>
   <g id="line2d_18">
    <path d="M 184.25554 19.296 
L 184.802096 20.835465 
L 185.348653 22.367214 
L 185.895209 23.891326 
L 186.441766 25.407879 
L 186.988322 26.916953 
L 187.534879 28.418626 
L 188.081435 29.912976 
L 188.627992 31.400083 
L 189.174548 32.880025 
L 189.721105 34.352881 
L 190.267661 35.818729 
L 190.814217 37.277649 
L 191.360774 38.729719 
L 191.90733 40.175018 
L 192.453887 41.613624 
L 193.000443 43.045617 
L 193.547 44.471075 
L 194.093556 45.890076 
L 194.640113 47.302701 
L 195.186669 48.709026 
L 195.733226 50.109131 
L 196.279782 51.503096 
L 196.826339 52.890997 
L 197.372895 54.272915 
L 197.919452 55.648928 
L 198.466008 57.019114 
L 199.012565 58.383553 
L 199.559121 59.742323 
L 200.105678 61.095502 
L 200.652234 62.443171 
L 201.19879 63.785406 
L 201.745347 65.122288 
L 202.291903 66.453895 
L 202.83846 67.780305 
L 203.385016 69.101597 
L 203.931573 70.417851 
L 204.478129 71.729144 
L 205.024686 73.035555 
L 205.571242 74.337164 
L 206.117799 75.634049 
L 206.664355 76.926288 
L 207.210912 78.213961 
L 207.757468 79.497146 
L 208.304025 80.775922 
L 208.850581 82.050368 
L 209.397138 83.320561 
L 209.943694 84.586582 
L 210.490251 85.848509 
L 211.036807 87.10642 
L 211.583363 88.360395 
L 212.12992 89.610511 
L 212.676476 90.856849 
L 213.223033 92.099486 
L 213.769589 93.338501 
L 214.316146 94.573973 
L 214.862702 95.80598 
L 215.409259 97.034603 
L 215.955815 98.259918 
L 216.502372 99.482005 
L 217.048928 100.700943 
L 217.595485 101.91681 
L 218.142041 103.129685 
L 218.688598 104.339647 
L 219.235154 105.546775 
L 219.781711 106.751147 
L 220.328267 107.952842 
L 220.874824 109.151939 
L 221.42138 110.348516 
L 221.967936 111.542653 
L 222.514493 112.734427 
L 223.061049 113.923918 
L 223.607606 115.111205 
L 224.154162 116.296366 
L 224.700719 117.47948 
L 225.247275 118.660625 
L 225.793832 119.839881 
L 226.340388 121.017326 
L 226.886945 122.193038 
L 227.433501 123.367098 
L 227.980058 124.539582 
L 228.526614 125.710571 
L 229.073171 126.880142 
L 229.619727 128.048375 
L 230.166284 129.215348 
L 230.71284 130.381141 
L 231.259397 131.54583 
L 231.805953 132.709497 
L 232.352509 133.872218 
L 232.899066 135.034074 
L 233.445622 136.195142 
L 233.992179 137.355501 
L 234.538735 138.515231 
L 235.085292 139.67441 
L 235.631848 140.833116 
L 236.178405 141.991428 
L 236.724961 143.149426 
L 237.271518 144.307187 
L 237.818074 145.464791 
L 238.364631 146.622316 
" clip-path="url(#pb7b35f1c9c)" style="fill: none; stroke: #2ca02c; stroke-width: 1.5; stroke-linecap: square"/>
   </g>
   <g id="line2d_19">
    <path d="M 184.25554 19.296 
L 184.802096 20.835465 
L 185.348653 22.367214 
L 185.895209 23.891326 
L 186.441766 25.407879 
L 186.988322 26.916953 
L 187.534879 28.418626 
L 188.081435 29.912976 
L 188.627992 31.400083 
L 189.174548 32.880025 
L 189.721105 34.352881 
L 190.267661 35.818729 
L 190.814217 37.277649 
L 191.360774 38.729719 
L 191.90733 40.175018 
L 192.453887 41.613624 
L 193.000443 43.045617 
L 193.547 44.471075 
L 194.093556 45.890076 
L 194.640113 47.302701 
L 195.186669 48.709026 
L 195.733226 50.109131 
L 196.279782 51.503096 
L 196.826339 52.890997 
L 197.372895 54.272915 
L 197.919452 55.648928 
L 198.466008 57.019114 
L 199.012565 58.383553 
L 199.559121 59.742323 
L 200.105678 61.095502 
L 200.652234 62.443171 
L 201.19879 63.785406 
L 201.745347 65.122288 
L 202.291903 66.453895 
L 202.83846 67.780305 
L 203.385016 69.101597 
L 203.931573 70.417851 
L 204.478129 71.729144 
L 205.024686 73.035555 
L 205.571242 74.337164 
L 206.117799 75.634049 
L 206.664355 76.926288 
L 207.210912 78.213961 
L 207.757468 79.497146 
L 208.304025 80.775922 
L 208.850581 82.050368 
L 209.397138 83.320561 
L 209.943694 84.586582 
L 210.490251 85.848509 
L 211.036807 87.10642 
L 211.583363 88.360395 
L 212.12992 89.610511 
L 212.676476 90.856849 
L 213.223033 92.099486 
L 213.769589 93.338501 
L 214.316146 94.573973 
L 214.862702 95.80598 
L 215.409259 97.034603 
L 215.955815 98.259918 
L 216.502372 99.482005 
L 217.048928 100.700943 
L 217.595485 101.91681 
L 218.142041 103.129685 
L 218.688598 104.339647 
L 219.235154 105.546775 
L 219.781711 106.751147 
L 220.328267 107.952842 
L 220.874824 109.151939 
L 221.42138 110.348516 
L 221.967936 111.542653 
L 222.514493 112.734427 
L 223.061049 113.923918 
L 223.607606 115.111205 
L 224.154162 116.296366 
L 224.700719 117.47948 
L 225.247275 118.660625 
L 225.793832 119.839881 
L 226.340388 121.017326 
L 226.886945 122.193038 
L 227.433501 123.367098 
L 227.980058 124.539582 
L 228.526614 125.710571 
L 229.073171 126.880142 
L 229.619727 128.048375 
L 230.166284 129.215348 
L 230.71284 130.381141 
L 231.259397 131.54583 
L 231.805953 132.709497 
L 232.352509 133.872218 
L 232.899066 135.034074 
L 233.445622 136.195142 
L 233.992179 137.355501 
L 234.538735 138.515231 
L 235.085292 139.67441 
L 235.631848 140.833116 
L 236.178405 141.991428 
L 236.724961 143.149426 
L 237.271518 144.307187 
L 237.818074 145.464791 
L 238.364631 146.622316 
" clip-path="url(#pb7b35f1c9c)" style="fill: none; stroke: #d62728; stroke-width: 1.5; stroke-linecap: square"/>
   </g>
   <g id="line2d_20">
    <path d="M 238.364631 146.622316 
L 238.911187 147.779828 
L 239.457744 148.93734 
L 240.0043 150.094852 
L 240.550857 151.252364 
L 241.097413 152.409876 
L 241.64397 153.567388 
L 242.190526 154.7249 
L 242.737082 155.882411 
L 243.283639 157.039923 
L 243.830195 158.197435 
L 244.376752 159.354947 
L 244.923308 160.512459 
L 245.469865 161.669971 
L 246.016421 162.827483 
L 246.562978 163.984995 
L 247.109534 165.142507 
L 247.656091 166.300019 
L 248.202647 167.457531 
L 248.749204 168.615043 
L 249.29576 169.772555 
L 249.842317 170.930067 
L 250.388873 172.087579 
L 250.93543 173.245091 
L 251.481986 174.402603 
L 252.028543 175.560115 
L 252.575099 176.717627 
L 253.121655 177.875139 
L 253.668212 179.032651 
L 254.214768 180.190163 
L 254.761325 181.347675 
L 255.307881 182.505187 
L 255.854438 183.662699 
L 256.400994 184.820211 
L 256.947551 185.977722 
L 257.494107 187.135234 
L 258.040664 188.292746 
L 258.58722 189.450258 
L 259.133777 190.60777 
L 259.680333 191.765282 
L 260.22689 192.922794 
L 260.773446 194.080306 
L 261.320003 195.237818 
L 261.866559 196.39533 
L 262.413116 197.552842 
L 262.959672 198.710354 
L 263.506228 199.867866 
L 264.052785 201.025378 
L 264.599341 202.18289 
L 265.145898 203.340402 
L 265.692454 204.497914 
L 266.239011 205.655426 
L 266.785567 206.812938 
L 267.332124 207.97045 
L 267.87868 209.127962 
L 268.425237 210.285474 
L 268.971793 211.442986 
L 269.51835 212.600498 
L 270.064906 213.75801 
L 270.611463 214.915522 
L 271.158019 216.073033 
L 271.704576 217.230545 
L 272.251132 218.388057 
L 272.797689 219.545569 
L 273.344245 220.703081 
L 273.890801 221.860593 
L 274.437358 223.018105 
L 274.983914 224.175617 
L 275.530471 225.333129 
L 276.077027 226.490641 
L 276.623584 227.648153 
L 277.17014 228.805665 
L 277.716697 229.963177 
L 278.263253 231.120689 
L 278.80981 232.278201 
L 279.356366 233.435713 
L 279.902923 234.593225 
L 280.449479 235.750737 
L 280.996036 236.908249 
L 281.542592 238.065761 
L 282.089149 239.223273 
L 282.635705 240.380785 
L 283.182262 241.538297 
L 283.728818 242.695809 
L 284.275374 243.853321 
L 284.821931 245.010833 
L 285.368487 246.168344 
L 285.915044 247.325856 
L 286.4616 248.483368 
L 287.008157 249.64088 
L 287.554713 250.798392 
L 288.10127 251.955904 
L 288.647826 253.113416 
L 289.194383 254.270928 
L 289.740939 255.42844 
L 290.287496 256.585952 
L 290.834052 257.743464 
L 291.380609 258.900976 
L 291.927165 260.058488 
L 292.473722 261.216 
" clip-path="url(#pb7b35f1c9c)" style="fill: none; stroke: #9467bd; stroke-width: 1.5; stroke-linecap: square"/>
   </g>
   <g id="line2d_21">
    <path d="M 238.364631 146.622316 
L 238.911187 147.779828 
L 239.457744 148.93734 
L 240.0043 150.094852 
L 240.550857 151.252364 
L 241.097413 152.409876 
L 241.64397 153.567388 
L 242.190526 154.7249 
L 242.737082 155.882411 
L 243.283639 157.039923 
L 243.830195 158.197435 
L 244.376752 159.354947 
L 244.923308 160.512459 
L 245.469865 161.669971 
L 246.016421 162.827483 
L 246.562978 163.984995 
L 247.109534 165.142507 
L 247.656091 166.300019 
L 248.202647 167.457531 
L 248.749204 168.615043 
L 249.29576 169.772555 
L 249.842317 170.930067 
L 250.388873 172.087579 
L 250.93543 173.245091 
L 251.481986 174.402603 
L 252.028543 175.560115 
L 252.575099 176.717627 
L 253.121655 177.875139 
L 253.668212 179.032651 
L 254.214768 180.190163 
L 254.761325 181.347675 
L 255.307881 182.505187 
L 255.854438 183.662699 
L 256.400994 184.820211 
L 256.947551 185.977722 
L 257.494107 187.135234 
L 258.040664 188.292746 
L 258.58722 189.450258 
L 259.133777 190.60777 
L 259.680333 191.765282 
L 260.22689 192.922794 
L 260.773446 194.080306 
L 261.320003 195.237818 
L 261.866559 196.39533 
L 262.413116 197.552842 
L 262.959672 198.710354 
L 263.506228 199.867866 
L 264.052785 201.025378 
L 264.599341 202.18289 
L 265.145898 203.340402 
L 265.692454 204.497914 
L 266.239011 205.655426 
L 266.785567 206.812938 
L 267.332124 207.97045 
L 267.87868 209.127962 
L 268.425237 210.285474 
L 268.971793 211.442986 
L 269.51835 212.600498 
L 270.064906 213.75801 
L 270.611463 214.915522 
L 271.158019 216.073033 
L 271.704576 217.230545 
L 272.251132 218.388057 
L 272.797689 219.545569 
L 273.344245 220.703081 
L 273.890801 221.860593 
L 274.437358 223.018105 
L 274.983914 224.175617 
L 275.530471 225.333129 
L 276.077027 226.490641 
L 276.623584 227.648153 
L 277.17014 228.805665 
L 277.716697 229.963177 
L 278.263253 231.120689 
L 278.80981 232.278201 
L 279.356366 233.435713 
L 279.902923 234.593225 
L 280.449479 235.750737 
L 280.996036 236.908249 
L 281.542592 238.065761 
L 282.089149 239.223273 
L 282.635705 240.380785 
L 283.182262 241.538297 
L 283.728818 242.695809 
L 284.275374 243.853321 
L 284.821931 245.010833 
L 285.368487 246.168344 
L 285.915044 247.325856 
L 286.4616 248.483368 
L 287.008157 249.64088 
L 287.554713 250.798392 
L 288.10127 251.955904 
L 288.647826 253.113416 
L 289.194383 254.270928 
L 289.740939 255.42844 
L 290.287496 256.585952 
L 290.834052 257.743464 
L 291.380609 258.900976 
L 291.927165 260.058488 
L 292.473722 261.216 
" clip-path="url(#pb7b35f1c9c)" style="fill: none; stroke: #8c564b; stroke-width: 1.5; stroke-linecap: square"/>
   </g>
   <g id="line2d_22">
    <path d="M 292.473722 261.216 
L 293.293556 260.058488 
L 294.113391 258.900976 
L 294.933226 257.743464 
L 295.75306 256.585952 
L 296.572895 255.42844 
L 297.39273 254.270928 
L 298.212565 253.113416 
L 299.032399 251.955904 
L 299.852234 250.798392 
L 300.672069 249.64088 
L 301.491903 248.483368 
L 302.311738 247.325856 
L 303.131573 246.168344 
L 303.951408 245.010833 
L 304.771242 243.853321 
L 305.591077 242.695809 
L 306.410912 241.538297 
L 307.230746 240.380785 
L 308.050581 239.223273 
L 308.870416 238.065761 
L 309.690251 236.908249 
L 310.510085 235.750737 
L 311.32992 234.593225 
L 312.149755 233.435713 
L 312.969589 232.278201 
L 313.789424 231.120689 
L 314.609259 229.963177 
L 315.429093 228.805665 
L 316.248928 227.648153 
L 317.068763 226.490641 
L 317.888598 225.333129 
L 318.708432 224.175617 
L 319.528267 223.018105 
L 320.348102 221.860593 
L 321.167936 220.703081 
L 321.987771 219.545569 
L 322.807606 218.388057 
L 323.627441 217.230545 
L 324.447275 216.073033 
L 325.26711 214.915522 
L 326.086945 213.75801 
L 326.906779 212.600498 
L 327.726614 211.442986 
L 328.546449 210.285474 
L 329.366284 209.127962 
L 330.186118 207.97045 
L 331.005953 206.812938 
L 331.825788 205.655426 
L 332.645622 204.497914 
L 333.465457 203.340402 
L 334.285292 202.18289 
L 335.105127 201.025378 
L 335.924961 199.867866 
L 336.744796 198.710354 
L 337.564631 197.552842 
L 338.384465 196.39533 
L 339.2043 195.237818 
L 340.024135 194.080306 
L 340.84397 192.922794 
L 341.663804 191.765282 
L 342.483639 190.60777 
L 343.303474 189.450258 
L 344.123308 188.292746 
L 344.943143 187.135234 
L 345.762978 185.977722 
L 346.582813 184.820211 
L 347.402647 183.662699 
L 348.222482 182.505187 
L 349.042317 181.347675 
L 349.862151 180.190163 
L 350.681986 179.032651 
L 351.501821 177.875139 
L 352.321655 176.717627 
L 353.14149 175.560115 
L 353.961325 174.402603 
L 354.78116 173.245091 
L 355.600994 172.087579 
L 356.420829 170.930067 
L 357.240664 169.772555 
L 358.060498 168.615043 
L 358.880333 167.457531 
L 359.700168 166.300019 
L 360.520003 165.142507 
L 361.339837 163.984995 
L 362.159672 162.827483 
L 362.979507 161.669971 
L 363.799341 160.512459 
L 364.619176 159.354947 
L 365.439011 158.197435 
L 366.258846 157.039923 
L 367.07868 155.882411 
L 367.898515 154.7249 
L 368.71835 153.567388 
L 369.538184 152.409876 
L 370.358019 151.252364 
L 371.177854 150.094852 
L 371.997689 148.93734 
L 372.817523 147.779828 
L 373.637358 146.622316 
" clip-path="url(#pb7b35f1c9c)" style="fill: none; stroke: #e377c2; stroke-width: 1.5; stroke-linecap: square"/>
   </g>
   <g id="line2d_23">
    <path d="M 292.473722 261.216 
L 293.293556 260.058488 
L 294.113391 258.900976 
L 294.933226 257.743464 
L 295.75306 256.585952 
L 296.572895 255.42844 
L 297.39273 254.270928 
L 298.212565 253.113416 
L 299.032399 251.955904 
L 299.852234 250.798392 
L 300.672069 249.64088 
L 301.491903 248.483368 
L 302.311738 247.325856 
L 303.131573 246.168344 
L 303.951408 245.010833 
L 304.771242 243.853321 
L 305.591077 242.695809 
L 306.410912 241.538297 
L 307.230746 240.380785 
L 308.050581 239.223273 
L 308.870416 238.065761 
L 309.690251 236.908249 
L 310.510085 235.750737 
L 311.32992 234.593225 
L 312.149755 233.435713 
L 312.969589 232.278201 
L 313.789424 231.120689 
L 314.609259 229.963177 
L 315.429093 228.805665 
L 316.248928 227.648153 
L 317.068763 226.490641 
L 317.888598 225.333129 
L 318.708432 224.175617 
L 319.528267 223.018105 
L 320.348102 221.860593 
L 321.167936 220.703081 
L 321.987771 219.545569 
L 322.807606 218.388057 
L 323.627441 217.230545 
L 324.447275 216.073033 
L 325.26711 214.915522 
L 326.086945 213.75801 
L 326.906779 212.600498 
L 327.726614 211.442986 
L 328.546449 210.285474 
L 329.366284 209.127962 
L 330.186118 207.97045 
L 331.005953 206.812938 
L 331.825788 205.655426 
L 332.645622 204.497914 
L 333.465457 203.340402 
L 334.285292 202.18289 
L 335.105127 201.025378 
L 335.924961 199.867866 
L 336.744796 198.710354 
L 337.564631 197.552842 
L 338.384465 196.39533 
L 339.2043 195.237818 
L 340.024135 194.080306 
L 340.84397 192.922794 
L 341.663804 191.765282 
L 342.483639 190.60777 
L 343.303474 189.450258 
L 344.123308 188.292746 
L 344.943143 187.135234 
L 345.762978 185.977722 
L 346.582813 184.820211 
L 347.402647 183.662699 
L 348.222482 182.505187 
L 349.042317 181.347675 
L 349.862151 180.190163 
L 350.681986 179.032651 
L 351.501821 177.875139 
L 352.321655 176.717627 
L 353.14149 175.560115 
L 353.961325 174.402603 
L 354.78116 173.245091 
L 355.600994 172.087579 
L 356.420829 170.930067 
L 357.240664 169.772555 
L 358.060498 168.615043 
L 358.880333 167.457531 
L 359.700168 166.300019 
L 360.520003 165.142507 
L 361.339837 163.984995 
L 362.159672 162.827483 
L 362.979507 161.669971 
L 363.799341 160.512459 
L 364.619176 159.354947 
L 365.439011 158.197435 
L 366.258846 157.039923 
L 367.07868 155.882411 
L 367.898515 154.7249 
L 368.71835 153.567388 
L 369.538184 152.409876 
L 370.358019 151.252364 
L 371.177854 150.094852 
L 371.997689 148.93734 
L 372.817523 147.779828 
L 373.637358 146.622316 
" clip-path="url(#pb7b35f1c9c)" style="fill: none; stroke: #7f7f7f; stroke-width: 1.5; stroke-linecap: square"/>
   </g>
   <g id="patch_3">
    <path d="M 48.982812 273.312 
L 48.982812 7.2 
" style="fill: none; stroke: #000000; stroke-width: 0.8; stroke-linejoin: miter; stroke-linecap: square"/>
   </g>
   <g id="patch_4">
    <path d="M 389.870085 273.312 
L 389.870085 7.2 
" style="fill: none"/>
   </g>
   <g id="patch_5">
    <path d="M 32.750085 146.622316 
L 389.870085 146.622316 
" style="fill: none; stroke: #000000; stroke-width: 0.8; stroke-linejoin: miter; stroke-linecap: square"/>
   </g>
   <g id="patch_6">
    <path d="M 32.750085 7.2 
L 389.870085 7.2 
" style="fill: none"/>
   </g>
  </g>
 </g>
 <defs>
  <clipPath id="pb7b35f1c9c">
   <rect x="32.750085" y="7.2" width="357.12" height="266.112"/>
  </clipPath>
 </defs>
</svg>
