<?xml version="1.0" encoding="utf-8" standalone="no"?>
<!DOCTYPE svg PUBLIC "-//W3C//DTD SVG 1.1//EN"
  "http://www.w3.org/Graphics/SVG/1.1/DTD/svg11.dtd">
<svg xmlns:xlink="http://www.w3.org/1999/xlink" width="397.070085pt" height="280.512pt" viewBox="0 0 397.070085 280.512" xmlns="http://www.w3.org/2000/svg" version="1.1">
 <metadata>
  <rdf:RDF xmlns:dc="http://purl.org/dc/elements/1.1/" xmlns:cc="http://creativecommons.org/ns#" xmlns:rdf="http://www.w3.org/1999/02/22-rdf-syntax-ns#">
   <cc:Work>
    <dc:type rdf:resource="http://purl.org/dc/dcmitype/StillImage"/>
    <dc:date>2024-08-09T09:27:55.574616</dc:date>
    <dc:format>image/svg+xml</dc:format>
    <dc:creator>
     <cc:Agent>
      <dc:title>Matplotlib v3.8.0, https://matplotlib.org/</dc:title>
     </cc:Agent>
    </dc:creator>
   </cc:Work>
  </rdf:RDF>
 </metadata>
 <defs>
  <style type="text/css">*{stroke-linejoin: round; stroke-linecap: butt}</style>
 </defs>
 <g id="figure_1">
  <g id="patch_1">
   <path d="M 0 280.512 
L 397.070085 280.512 
L 397.070085 0 
L 0 0 
z
" style="fill: #ffffff"/>
  </g>
  <g id="axes_1">
   <g id="patch_2">
    <path d="M 32.750085 273.312 
L 389.870085 273.312 
L 389.870085 7.2 
L 32.750085 7.2 
z
" style="fill: #ffffff"/>
   </g>
   <g id="matplotlib.axis_1">
    <g id="xtick_1">
     <g id="line2d_1">
      <defs>
       <path id="m69c0c44a3a" d="M 0 0 
L 0 3.5 
" style="stroke: #000000; stroke-width: 0.8"/>
      </defs>
      <g>
       <use xlink:href="#m69c0c44a3a" x="48.982812" y="143.373526" style="stroke: #000000; stroke-width: 0.8"/>
      </g>
     </g>
     <g id="text_1">
      <!-- 0 -->
      <g transform="translate(45.801562 157.971963) scale(0.1 -0.1)">
       <defs>
        <path id="DejaVuSans-30" d="M 2034 4250 
Q 1547 4250 1301 3770 
Q 1056 3291 1056 2328 
Q 1056 1369 1301 889 
Q 1547 409 2034 409 
Q 2525 409 2770 889 
Q 3016 1369 3016 2328 
Q 3016 3291 2770 3770 
Q 2525 4250 2034 4250 
z
M 2034 4750 
Q 2819 4750 3233 4129 
Q 3647 3509 3647 2328 
Q 3647 1150 3233 529 
Q 2819 -91 2034 -91 
Q 1250 -91 836 529 
Q 422 1150 422 2328 
Q 422 3509 836 4129 
Q 1250 4750 2034 4750 
z
" transform="scale(0.015625)"/>
       </defs>
       <use xlink:href="#DejaVuSans-30"/>
      </g>
     </g>
    </g>
    <g id="xtick_2">
     <g id="line2d_2">
      <g>
       <use xlink:href="#m69c0c44a3a" x="103.091903" y="143.373526" style="stroke: #000000; stroke-width: 0.8"/>
      </g>
     </g>
     <g id="text_2">
      <!-- 2 -->
      <g transform="translate(99.910653 157.971963) scale(0.1 -0.1)">
       <defs>
        <path id="DejaVuSans-32" d="M 1228 531 
L 3431 531 
L 3431 0 
L 469 0 
L 469 531 
Q 828 903 1448 1529 
Q 2069 2156 2228 2338 
Q 2531 2678 2651 2914 
Q 2772 3150 2772 3378 
Q 2772 3750 2511 3984 
Q 2250 4219 1831 4219 
Q 1534 4219 1204 4116 
Q 875 4013 500 3803 
L 500 4441 
Q 881 4594 1212 4672 
Q 1544 4750 1819 4750 
Q 2544 4750 2975 4387 
Q 3406 4025 3406 3419 
Q 3406 3131 3298 2873 
Q 3191 2616 2906 2266 
Q 2828 2175 2409 1742 
Q 1991 1309 1228 531 
z
" transform="scale(0.015625)"/>
       </defs>
       <use xlink:href="#DejaVuSans-32"/>
      </g>
     </g>
    </g>
    <g id="xtick_3">
     <g id="line2d_3">
      <g>
       <use xlink:href="#m69c0c44a3a" x="157.200994" y="143.373526" style="stroke: #000000; stroke-width: 0.8"/>
      </g>
     </g>
     <g id="text_3">
      <!-- 4 -->
      <g transform="translate(154.019744 157.971963) scale(0.1 -0.1)">
       <defs>
        <path id="DejaVuSans-34" d="M 2419 4116 
L 825 1625 
L 2419 1625 
L 2419 4116 
z
M 2253 4666 
L 3047 4666 
L 3047 1625 
L 3713 1625 
L 3713 1100 
L 3047 1100 
L 3047 0 
L 2419 0 
L 2419 1100 
L 313 1100 
L 313 1709 
L 2253 4666 
z
" transform="scale(0.015625)"/>
       </defs>
       <use xlink:href="#DejaVuSans-34"/>
      </g>
     </g>
    </g>
    <g id="xtick_4">
     <g id="line2d_4">
      <g>
       <use xlink:href="#m69c0c44a3a" x="211.310085" y="143.373526" style="stroke: #000000; stroke-width: 0.8"/>
      </g>
     </g>
     <g id="text_4">
      <!-- 6 -->
      <g transform="translate(208.128835 157.971963) scale(0.1 -0.1)">
       <defs>
        <path id="DejaVuSans-36" d="M 2113 2584 
Q 1688 2584 1439 2293 
Q 1191 2003 1191 1497 
Q 1191 994 1439 701 
Q 1688 409 2113 409 
Q 2538 409 2786 701 
Q 3034 994 3034 1497 
Q 3034 2003 2786 2293 
Q 2538 2584 2113 2584 
z
M 3366 4563 
L 3366 3988 
Q 3128 4100 2886 4159 
Q 2644 4219 2406 4219 
Q 1781 4219 1451 3797 
Q 1122 3375 1075 2522 
Q 1259 2794 1537 2939 
Q 1816 3084 2150 3084 
Q 2853 3084 3261 2657 
Q 3669 2231 3669 1497 
Q 3669 778 3244 343 
Q 2819 -91 2113 -91 
Q 1303 -91 875 529 
Q 447 1150 447 2328 
Q 447 3434 972 4092 
Q 1497 4750 2381 4750 
Q 2619 4750 2861 4703 
Q 3103 4656 3366 4563 
z
" transform="scale(0.015625)"/>
       </defs>
       <use xlink:href="#DejaVuSans-36"/>
      </g>
     </g>
    </g>
    <g id="xtick_5">
     <g id="line2d_5">
      <g>
       <use xlink:href="#m69c0c44a3a" x="265.419176" y="143.373526" style="stroke: #000000; stroke-width: 0.8"/>
      </g>
     </g>
     <g id="text_5">
      <!-- 8 -->
      <g transform="translate(262.237926 157.971963) scale(0.1 -0.1)">
       <defs>
        <path id="DejaVuSans-38" d="M 2034 2216 
Q 1584 2216 1326 1975 
Q 1069 1734 1069 1313 
Q 1069 891 1326 650 
Q 1584 409 2034 409 
Q 2484 409 2743 651 
Q 3003 894 3003 1313 
Q 3003 1734 2745 1975 
Q 2488 2216 2034 2216 
z
M 1403 2484 
Q 997 2584 770 2862 
Q 544 3141 544 3541 
Q 544 4100 942 4425 
Q 1341 4750 2034 4750 
Q 2731 4750 3128 4425 
Q 3525 4100 3525 3541 
Q 3525 3141 3298 2862 
Q 3072 2584 2669 2484 
Q 3125 2378 3379 2068 
Q 3634 1759 3634 1313 
Q 3634 634 3220 271 
Q 2806 -91 2034 -91 
Q 1263 -91 848 271 
Q 434 634 434 1313 
Q 434 1759 690 2068 
Q 947 2378 1403 2484 
z
M 1172 3481 
Q 1172 3119 1398 2916 
Q 1625 2713 2034 2713 
Q 2441 2713 2670 2916 
Q 2900 3119 2900 3481 
Q 2900 3844 2670 4047 
Q 2441 4250 2034 4250 
Q 1625 4250 1398 4047 
Q 1172 3844 1172 3481 
z
" transform="scale(0.015625)"/>
       </defs>
       <use xlink:href="#DejaVuSans-38"/>
      </g>
     </g>
    </g>
    <g id="xtick_6">
     <g id="line2d_6">
      <g>
       <use xlink:href="#m69c0c44a3a" x="319.528267" y="143.373526" style="stroke: #000000; stroke-width: 0.8"/>
      </g>
     </g>
     <g id="text_6">
      <!-- 10 -->
      <g transform="translate(313.165767 157.971963) scale(0.1 -0.1)">
       <defs>
        <path id="DejaVuSans-31" d="M 794 531 
L 1825 531 
L 1825 4091 
L 703 3866 
L 703 4441 
L 1819 4666 
L 2450 4666 
L 2450 531 
L 3481 531 
L 3481 0 
L 794 0 
L 794 531 
z
" transform="scale(0.015625)"/>
       </defs>
       <use xlink:href="#DejaVuSans-31"/>
       <use xlink:href="#DejaVuSans-30" x="63.623047"/>
      </g>
     </g>
    </g>
    <g id="xtick_7">
     <g id="line2d_7">
      <g>
       <use xlink:href="#m69c0c44a3a" x="373.637358" y="143.373526" style="stroke: #000000; stroke-width: 0.8"/>
      </g>
     </g>
     <g id="text_7">
      <!-- 12 -->
      <g transform="translate(367.274858 157.971963) scale(0.1 -0.1)">
       <use xlink:href="#DejaVuSans-31"/>
       <use xlink:href="#DejaVuSans-32" x="63.623047"/>
      </g>
     </g>
    </g>
    <g id="text_8">
     <!-- $x$ -->
     <g transform="translate(208.310085 171.650088) scale(0.1 -0.1)">
      <defs>
       <path id="DejaVuSans-Oblique-78" d="M 3841 3500 
L 2234 1784 
L 3219 0 
L 2559 0 
L 1819 1388 
L 531 0 
L -166 0 
L 1556 1844 
L 641 3500 
L 1300 3500 
L 1972 2234 
L 3144 3500 
L 3841 3500 
z
" transform="scale(0.015625)"/>
      </defs>
      <use xlink:href="#DejaVuSans-Oblique-78" transform="translate(0 0.3125)"/>
     </g>
    </g>
   </g>
   <g id="matplotlib.axis_2">
    <g id="ytick_1">
     <g id="line2d_8">
      <defs>
       <path id="mdece6cb18c" d="M 0 0 
L -3.5 0 
" style="stroke: #000000; stroke-width: 0.8"/>
      </defs>
      <g>
       <use xlink:href="#mdece6cb18c" x="48.982812" y="12.437443" style="stroke: #000000; stroke-width: 0.8"/>
      </g>
     </g>
     <g id="text_9">
      <!-- −40 -->
      <g transform="translate(20.878125 16.236662) scale(0.1 -0.1)">
       <defs>
        <path id="DejaVuSans-2212" d="M 678 2272 
L 4684 2272 
L 4684 1741 
L 678 1741 
L 678 2272 
z
" transform="scale(0.015625)"/>
       </defs>
       <use xlink:href="#DejaVuSans-2212"/>
       <use xlink:href="#DejaVuSans-34" x="83.789062"/>
       <use xlink:href="#DejaVuSans-30" x="147.412109"/>
      </g>
     </g>
    </g>
    <g id="ytick_2">
     <g id="line2d_9">
      <g>
       <use xlink:href="#mdece6cb18c" x="48.982812" y="45.171464" style="stroke: #000000; stroke-width: 0.8"/>
      </g>
     </g>
     <g id="text_10">
      <!-- −30 -->
      <g transform="translate(20.878125 48.970683) scale(0.1 -0.1)">
       <defs>
        <path id="DejaVuSans-33" d="M 2597 2516 
Q 3050 2419 3304 2112 
Q 3559 1806 3559 1356 
Q 3559 666 3084 287 
Q 2609 -91 1734 -91 
Q 1441 -91 1130 -33 
Q 819 25 488 141 
L 488 750 
Q 750 597 1062 519 
Q 1375 441 1716 441 
Q 2309 441 2620 675 
Q 2931 909 2931 1356 
Q 2931 1769 2642 2001 
Q 2353 2234 1838 2234 
L 1294 2234 
L 1294 2753 
L 1863 2753 
Q 2328 2753 2575 2939 
Q 2822 3125 2822 3475 
Q 2822 3834 2567 4026 
Q 2313 4219 1838 4219 
Q 1578 4219 1281 4162 
Q 984 4106 628 3988 
L 628 4550 
Q 988 4650 1302 4700 
Q 1616 4750 1894 4750 
Q 2613 4750 3031 4423 
Q 3450 4097 3450 3541 
Q 3450 3153 3228 2886 
Q 3006 2619 2597 2516 
z
" transform="scale(0.015625)"/>
       </defs>
       <use xlink:href="#DejaVuSans-2212"/>
       <use xlink:href="#DejaVuSans-33" x="83.789062"/>
       <use xlink:href="#DejaVuSans-30" x="147.412109"/>
      </g>
     </g>
    </g>
    <g id="ytick_3">
     <g id="line2d_10">
      <g>
       <use xlink:href="#mdece6cb18c" x="48.982812" y="77.905485" style="stroke: #000000; stroke-width: 0.8"/>
      </g>
     </g>
     <g id="text_11">
      <!-- −20 -->
      <g transform="translate(20.878125 81.704703) scale(0.1 -0.1)">
       <use xlink:href="#DejaVuSans-2212"/>
       <use xlink:href="#DejaVuSans-32" x="83.789062"/>
       <use xlink:href="#DejaVuSans-30" x="147.412109"/>
      </g>
     </g>
    </g>
    <g id="ytick_4">
     <g id="line2d_11">
      <g>
       <use xlink:href="#mdece6cb18c" x="48.982812" y="110.639505" style="stroke: #000000; stroke-width: 0.8"/>
      </g>
     </g>
     <g id="text_12">
      <!-- −10 -->
      <g transform="translate(20.878125 114.438724) scale(0.1 -0.1)">
       <use xlink:href="#DejaVuSans-2212"/>
       <use xlink:href="#DejaVuSans-31" x="83.789062"/>
       <use xlink:href="#DejaVuSans-30" x="147.412109"/>
      </g>
     </g>
    </g>
    <g id="ytick_5">
     <g id="line2d_12">
      <g>
       <use xlink:href="#mdece6cb18c" x="48.982812" y="143.373526" style="stroke: #000000; stroke-width: 0.8"/>
      </g>
     </g>
     <g id="text_13">
      <!-- 0 -->
      <g transform="translate(35.620312 147.172745) scale(0.1 -0.1)">
       <use xlink:href="#DejaVuSans-30"/>
      </g>
     </g>
    </g>
    <g id="ytick_6">
     <g id="line2d_13">
      <g>
       <use xlink:href="#mdece6cb18c" x="48.982812" y="176.107546" style="stroke: #000000; stroke-width: 0.8"/>
      </g>
     </g>
     <g id="text_14">
      <!-- 10 -->
      <g transform="translate(29.257812 179.906765) scale(0.1 -0.1)">
       <use xlink:href="#DejaVuSans-31"/>
       <use xlink:href="#DejaVuSans-30" x="63.623047"/>
      </g>
     </g>
    </g>
    <g id="ytick_7">
     <g id="line2d_14">
      <g>
       <use xlink:href="#mdece6cb18c" x="48.982812" y="208.841567" style="stroke: #000000; stroke-width: 0.8"/>
      </g>
     </g>
     <g id="text_15">
      <!-- 20 -->
      <g transform="translate(29.257812 212.640786) scale(0.1 -0.1)">
       <use xlink:href="#DejaVuSans-32"/>
       <use xlink:href="#DejaVuSans-30" x="63.623047"/>
      </g>
     </g>
    </g>
    <g id="ytick_8">
     <g id="line2d_15">
      <g>
       <use xlink:href="#mdece6cb18c" x="48.982812" y="241.575588" style="stroke: #000000; stroke-width: 0.8"/>
      </g>
     </g>
     <g id="text_16">
      <!-- 30 -->
      <g transform="translate(29.257812 245.374806) scale(0.1 -0.1)">
       <use xlink:href="#DejaVuSans-33"/>
       <use xlink:href="#DejaVuSans-30" x="63.623047"/>
      </g>
     </g>
    </g>
    <g id="text_17">
     <!-- $M$ -->
     <g transform="translate(14.798437 144.606) rotate(-90) scale(0.1 -0.1)">
      <defs>
       <path id="DejaVuSans-Oblique-4d" d="M 1081 4666 
L 2028 4666 
L 2572 1522 
L 4378 4666 
L 5350 4666 
L 4441 0 
L 3828 0 
L 4622 4091 
L 2791 897 
L 2175 897 
L 1581 4103 
L 788 0 
L 172 0 
L 1081 4666 
z
" transform="scale(0.015625)"/>
      </defs>
      <use xlink:href="#DejaVuSans-Oblique-4d" transform="translate(0 0.09375)"/>
     </g>
    </g>
   </g>
   <g id="line2d_16">
    <path d="M 48.982812 137.216412 
L 50.349204 139.132665 
L 51.715595 140.966024 
L 53.081986 142.71709 
L 54.448377 144.386468 
L 55.814768 145.974758 
L 57.18116 147.482564 
L 58.547551 148.910488 
L 59.913942 150.259133 
L 61.280333 151.5291 
L 62.646724 152.720992 
L 64.013116 153.835412 
L 65.379507 154.872962 
L 66.745898 155.834245 
L 68.112289 156.719862 
L 69.47868 157.530417 
L 70.845071 158.266512 
L 72.211463 158.928749 
L 73.577854 159.51773 
L 74.944245 160.034059 
L 76.310636 160.478337 
L 77.677027 160.851167 
L 79.043419 161.153152 
L 80.40981 161.384893 
L 81.776201 161.546993 
L 83.142592 161.640056 
L 84.508983 161.664682 
L 85.875374 161.621475 
L 87.241766 161.511036 
L 88.608157 161.333969 
L 89.974548 161.090876 
L 91.340939 160.782359 
L 92.70733 160.409021 
L 94.073722 159.971464 
L 95.440113 159.47029 
L 96.806504 158.906103 
L 98.172895 158.279503 
L 99.539286 157.591095 
L 100.905678 156.84148 
L 102.272069 156.03126 
L 103.63846 155.161038 
L 105.004851 154.231417 
L 106.371242 153.242999 
L 107.737633 152.196387 
L 109.104025 151.092182 
L 110.470416 149.930987 
L 111.836807 148.713405 
L 113.203198 147.440038 
L 114.569589 146.111489 
L 115.935981 144.728359 
L 117.302372 143.291252 
L 118.668763 141.80077 
L 120.035154 140.257515 
L 121.401545 138.66209 
L 122.767936 137.015097 
L 124.134328 135.317138 
L 125.500719 133.568816 
L 126.86711 131.770734 
L 128.233501 129.923493 
L 129.599892 128.027697 
L 130.966284 126.083947 
L 132.332675 124.092846 
L 133.699066 122.054997 
L 135.065457 119.971002 
L 136.431848 117.841464 
L 137.798239 115.666984 
L 139.164631 113.448165 
L 140.531022 111.18561 
L 141.897413 108.879921 
L 143.263804 106.531701 
L 144.630195 104.141551 
L 145.996587 101.710075 
L 147.362978 99.237875 
L 148.729369 96.725553 
L 150.09576 94.173712 
L 151.462151 91.582953 
L 152.828543 88.953881 
L 154.194934 86.287096 
L 155.561325 83.583201 
L 156.927716 80.8428 
L 158.294107 78.066494 
L 159.660498 75.254885 
L 161.02689 72.408576 
L 162.393281 69.52817 
L 163.759672 66.614269 
L 165.126063 63.667476 
L 166.492454 60.688392 
L 167.858846 57.67762 
L 169.225237 54.635763 
L 170.591628 51.563423 
L 171.958019 48.461203 
L 173.32441 45.329705 
L 174.690801 42.169531 
L 176.057193 38.981284 
L 177.423584 35.765566 
L 178.789975 32.52298 
L 180.156366 29.254127 
L 181.522757 25.959612 
L 182.889149 22.640035 
L 184.25554 19.296 
" clip-path="url(#pe950e64a8e)" style="fill: none; stroke: #1f77b4; stroke-width: 1.5; stroke-linecap: square"/>
   </g>
   <g id="line2d_17">
    <path d="M 48.982812 137.216412 
L 50.349204 139.132665 
L 51.715595 140.966024 
L 53.081986 142.71709 
L 54.448377 144.386468 
L 55.814768 145.974758 
L 57.18116 147.482564 
L 58.547551 148.910488 
L 59.913942 150.259133 
L 61.280333 151.5291 
L 62.646724 152.720992 
L 64.013116 153.835412 
L 65.379507 154.872962 
L 66.745898 155.834245 
L 68.112289 156.719862 
L 69.47868 157.530417 
L 70.845071 158.266512 
L 72.211463 158.928749 
L 73.577854 159.51773 
L 74.944245 160.034059 
L 76.310636 160.478337 
L 77.677027 160.851167 
L 79.043419 161.153152 
L 80.40981 161.384893 
L 81.776201 161.546993 
L 83.142592 161.640056 
L 84.508983 161.664682 
L 85.875374 161.621475 
L 87.241766 161.511036 
L 88.608157 161.333969 
L 89.974548 161.090876 
L 91.340939 160.782359 
L 92.70733 160.409021 
L 94.073722 159.971464 
L 95.440113 159.47029 
L 96.806504 158.906103 
L 98.172895 158.279503 
L 99.539286 157.591095 
L 100.905678 156.84148 
L 102.272069 156.03126 
L 103.63846 155.161038 
L 105.004851 154.231417 
L 106.371242 153.242999 
L 107.737633 152.196387 
L 109.104025 151.092182 
L 110.470416 149.930987 
L 111.836807 148.713405 
L 113.203198 147.440038 
L 114.569589 146.111489 
L 115.935981 144.728359 
L 117.302372 143.291252 
L 118.668763 141.80077 
L 120.035154 140.257515 
L 121.401545 138.66209 
L 122.767936 137.015097 
L 124.134328 135.317138 
L 125.500719 133.568816 
L 126.86711 131.770734 
L 128.233501 129.923493 
L 129.599892 128.027697 
L 130.966284 126.083947 
L 132.332675 124.092846 
L 133.699066 122.054997 
L 135.065457 119.971002 
L 136.431848 117.841464 
L 137.798239 115.666984 
L 139.164631 113.448165 
L 140.531022 111.18561 
L 141.897413 108.879921 
L 143.263804 106.531701 
L 144.630195 104.141551 
L 145.996587 101.710075 
L 147.362978 99.237875 
L 148.729369 96.725553 
L 150.09576 94.173712 
L 151.462151 91.582953 
L 152.828543 88.953881 
L 154.194934 86.287096 
L 155.561325 83.583201 
L 156.927716 80.8428 
L 158.294107 78.066494 
L 159.660498 75.254885 
L 161.02689 72.408576 
L 162.393281 69.52817 
L 163.759672 66.614269 
L 165.126063 63.667476 
L 166.492454 60.688392 
L 167.858846 57.67762 
L 169.225237 54.635763 
L 170.591628 51.563423 
L 171.958019 48.461203 
L 173.32441 45.329705 
L 174.690801 42.169531 
L 176.057193 38.981284 
L 177.423584 35.765566 
L 178.789975 32.52298 
L 180.156366 29.254127 
L 181.522757 25.959612 
L 182.889149 22.640035 
L 184.25554 19.296 
" clip-path="url(#pe950e64a8e)" style="fill: none; stroke: #ff7f0e; stroke-width: 1.5; stroke-linecap: square"/>
   </g>
   <g id="line2d_18">
    <path d="M 184.25554 19.296 
L 184.802096 20.673367 
L 185.348653 22.046955 
L 185.895209 23.416804 
L 186.441766 24.782951 
L 186.988322 26.145436 
L 187.534879 27.504296 
L 188.081435 28.859571 
L 188.627992 30.211298 
L 189.174548 31.559517 
L 189.721105 32.904266 
L 190.267661 34.245584 
L 190.814217 35.583509 
L 191.360774 36.918079 
L 191.90733 38.249333 
L 192.453887 39.577311 
L 193.000443 40.90205 
L 193.547 42.223588 
L 194.093556 43.541965 
L 194.640113 44.857219 
L 195.186669 46.169389 
L 195.733226 47.478513 
L 196.279782 48.784629 
L 196.826339 50.087777 
L 197.372895 51.387994 
L 197.919452 52.68532 
L 198.466008 53.979793 
L 199.012565 55.271451 
L 199.559121 56.560333 
L 200.105678 57.846478 
L 200.652234 59.129924 
L 201.19879 60.410709 
L 201.745347 61.688873 
L 202.291903 62.964454 
L 202.83846 64.237489 
L 203.385016 65.508019 
L 203.931573 66.776081 
L 204.478129 68.041715 
L 205.024686 69.304958 
L 205.571242 70.565848 
L 206.117799 71.824426 
L 206.664355 73.080729 
L 207.210912 74.334795 
L 207.757468 75.586664 
L 208.304025 76.836374 
L 208.850581 78.083963 
L 209.397138 79.329471 
L 209.943694 80.572935 
L 210.490251 81.814394 
L 211.036807 83.053886 
L 211.583363 84.291451 
L 212.12992 85.527127 
L 212.676476 86.760952 
L 213.223033 87.992965 
L 213.769589 89.223204 
L 214.316146 90.451708 
L 214.862702 91.678516 
L 215.409259 92.903666 
L 215.955815 94.127197 
L 216.502372 95.349147 
L 217.048928 96.569554 
L 217.595485 97.788459 
L 218.142041 99.005897 
L 218.688598 100.22191 
L 219.235154 101.436534 
L 219.781711 102.649809 
L 220.328267 103.861773 
L 220.874824 105.072465 
L 221.42138 106.281923 
L 221.967936 107.490186 
L 222.514493 108.697292 
L 223.061049 109.90328 
L 223.607606 111.108188 
L 224.154162 112.312055 
L 224.700719 113.51492 
L 225.247275 114.716821 
L 225.793832 115.917797 
L 226.340388 117.117886 
L 226.886945 118.317127 
L 227.433501 119.515558 
L 227.980058 120.713218 
L 228.526614 121.910145 
L 229.073171 123.106379 
L 229.619727 124.301957 
L 230.166284 125.496918 
L 230.71284 126.691301 
L 231.259397 127.885144 
L 231.805953 129.078486 
L 232.352509 130.271365 
L 232.899066 131.46382 
L 233.445622 132.655889 
L 233.992179 133.847612 
L 234.538735 135.039026 
L 235.085292 136.23017 
L 235.631848 137.421082 
L 236.178405 138.611802 
L 236.724961 139.802368 
L 237.271518 140.992818 
L 237.818074 142.183191 
L 238.364631 143.373526 
" clip-path="url(#pe950e64a8e)" style="fill: none; stroke: #2ca02c; stroke-width: 1.5; stroke-linecap: square"/>
   </g>
   <g id="line2d_19">
    <path d="M 184.25554 19.296 
L 184.802096 20.673367 
L 185.348653 22.046955 
L 185.895209 23.416804 
L 186.441766 24.782951 
L 186.988322 26.145436 
L 187.534879 27.504296 
L 188.081435 28.859571 
L 188.627992 30.211298 
L 189.174548 31.559517 
L 189.721105 32.904266 
L 190.267661 34.245584 
L 190.814217 35.583509 
L 191.360774 36.918079 
L 191.90733 38.249333 
L 192.453887 39.577311 
L 193.000443 40.90205 
L 193.547 42.223588 
L 194.093556 43.541965 
L 194.640113 44.857219 
L 195.186669 46.169389 
L 195.733226 47.478513 
L 196.279782 48.784629 
L 196.826339 50.087777 
L 197.372895 51.387994 
L 197.919452 52.68532 
L 198.466008 53.979793 
L 199.012565 55.271451 
L 199.559121 56.560333 
L 200.105678 57.846478 
L 200.652234 59.129924 
L 201.19879 60.410709 
L 201.745347 61.688873 
L 202.291903 62.964454 
L 202.83846 64.237489 
L 203.385016 65.508019 
L 203.931573 66.776081 
L 204.478129 68.041715 
L 205.024686 69.304958 
L 205.571242 70.565848 
L 206.117799 71.824426 
L 206.664355 73.080729 
L 207.210912 74.334795 
L 207.757468 75.586664 
L 208.304025 76.836374 
L 208.850581 78.083963 
L 209.397138 79.329471 
L 209.943694 80.572935 
L 210.490251 81.814394 
L 211.036807 83.053886 
L 211.583363 84.291451 
L 212.12992 85.527127 
L 212.676476 86.760952 
L 213.223033 87.992965 
L 213.769589 89.223204 
L 214.316146 90.451708 
L 214.862702 91.678516 
L 215.409259 92.903666 
L 215.955815 94.127197 
L 216.502372 95.349147 
L 217.048928 96.569554 
L 217.595485 97.788459 
L 218.142041 99.005897 
L 218.688598 100.22191 
L 219.235154 101.436534 
L 219.781711 102.649809 
L 220.328267 103.861773 
L 220.874824 105.072465 
L 221.42138 106.281923 
L 221.967936 107.490186 
L 222.514493 108.697292 
L 223.061049 109.90328 
L 223.607606 111.108188 
L 224.154162 112.312055 
L 224.700719 113.51492 
L 225.247275 114.716821 
L 225.793832 115.917797 
L 226.340388 117.117886 
L 226.886945 118.317127 
L 227.433501 119.515558 
L 227.980058 120.713218 
L 228.526614 121.910145 
L 229.073171 123.106379 
L 229.619727 124.301957 
L 230.166284 125.496918 
L 230.71284 126.691301 
L 231.259397 127.885144 
L 231.805953 129.078486 
L 232.352509 130.271365 
L 232.899066 131.46382 
L 233.445622 132.655889 
L 233.992179 133.847612 
L 234.538735 135.039026 
L 235.085292 136.23017 
L 235.631848 137.421082 
L 236.178405 138.611802 
L 236.724961 139.802368 
L 237.271518 140.992818 
L 237.818074 142.183191 
L 238.364631 143.373526 
" clip-path="url(#pe950e64a8e)" style="fill: none; stroke: #d62728; stroke-width: 1.5; stroke-linecap: square"/>
   </g>
   <g id="line2d_20">
    <path d="M 238.364631 143.373526 
L 238.911187 144.563854 
L 239.457744 145.754182 
L 240.0043 146.94451 
L 240.550857 148.134838 
L 241.097413 149.325166 
L 241.64397 150.515494 
L 242.190526 151.705822 
L 242.737082 152.89615 
L 243.283639 154.086478 
L 243.830195 155.276806 
L 244.376752 156.467134 
L 244.923308 157.657462 
L 245.469865 158.84779 
L 246.016421 160.038118 
L 246.562978 161.228446 
L 247.109534 162.418774 
L 247.656091 163.609102 
L 248.202647 164.79943 
L 248.749204 165.989758 
L 249.29576 167.180086 
L 249.842317 168.370414 
L 250.388873 169.560742 
L 250.93543 170.75107 
L 251.481986 171.941398 
L 252.028543 173.131726 
L 252.575099 174.322054 
L 253.121655 175.512382 
L 253.668212 176.70271 
L 254.214768 177.893038 
L 254.761325 179.083366 
L 255.307881 180.273694 
L 255.854438 181.464022 
L 256.400994 182.654351 
L 256.947551 183.844679 
L 257.494107 185.035007 
L 258.040664 186.225335 
L 258.58722 187.415663 
L 259.133777 188.605991 
L 259.680333 189.796319 
L 260.22689 190.986647 
L 260.773446 192.176975 
L 261.320003 193.367303 
L 261.866559 194.557631 
L 262.413116 195.747959 
L 262.959672 196.938287 
L 263.506228 198.128615 
L 264.052785 199.318943 
L 264.599341 200.509271 
L 265.145898 201.699599 
L 265.692454 202.889927 
L 266.239011 204.080255 
L 266.785567 205.270583 
L 267.332124 206.460911 
L 267.87868 207.651239 
L 268.425237 208.841567 
L 268.971793 210.031895 
L 269.51835 211.222223 
L 270.064906 212.412551 
L 270.611463 213.602879 
L 271.158019 214.793207 
L 271.704576 215.983535 
L 272.251132 217.173863 
L 272.797689 218.364191 
L 273.344245 219.554519 
L 273.890801 220.744847 
L 274.437358 221.935175 
L 274.983914 223.125503 
L 275.530471 224.315831 
L 276.077027 225.506159 
L 276.623584 226.696487 
L 277.17014 227.886815 
L 277.716697 229.077143 
L 278.263253 230.267471 
L 278.80981 231.457799 
L 279.356366 232.648127 
L 279.902923 233.838455 
L 280.449479 235.028784 
L 280.996036 236.219112 
L 281.542592 237.40944 
L 282.089149 238.599768 
L 282.635705 239.790096 
L 283.182262 240.980424 
L 283.728818 242.170752 
L 284.275374 243.36108 
L 284.821931 244.551408 
L 285.368487 245.741736 
L 285.915044 246.932064 
L 286.4616 248.122392 
L 287.008157 249.31272 
L 287.554713 250.503048 
L 288.10127 251.693376 
L 288.647826 252.883704 
L 289.194383 254.074032 
L 289.740939 255.26436 
L 290.287496 256.454688 
L 290.834052 257.645016 
L 291.380609 258.835344 
L 291.927165 260.025672 
L 292.473722 261.216 
" clip-path="url(#pe950e64a8e)" style="fill: none; stroke: #9467bd; stroke-width: 1.5; stroke-linecap: square"/>
   </g>
   <g id="line2d_21">
    <path d="M 238.364631 143.373526 
L 238.911187 144.563854 
L 239.457744 145.754182 
L 240.0043 146.94451 
L 240.550857 148.134838 
L 241.097413 149.325166 
L 241.64397 150.515494 
L 242.190526 151.705822 
L 242.737082 152.89615 
L 243.283639 154.086478 
L 243.830195 155.276806 
L 244.376752 156.467134 
L 244.923308 157.657462 
L 245.469865 158.84779 
L 246.016421 160.038118 
L 246.562978 161.228446 
L 247.109534 162.418774 
L 247.656091 163.609102 
L 248.202647 164.79943 
L 248.749204 165.989758 
L 249.29576 167.180086 
L 249.842317 168.370414 
L 250.388873 169.560742 
L 250.93543 170.75107 
L 251.481986 171.941398 
L 252.028543 173.131726 
L 252.575099 174.322054 
L 253.121655 175.512382 
L 253.668212 176.70271 
L 254.214768 177.893038 
L 254.761325 179.083366 
L 255.307881 180.273694 
L 255.854438 181.464022 
L 256.400994 182.654351 
L 256.947551 183.844679 
L 257.494107 185.035007 
L 258.040664 186.225335 
L 258.58722 187.415663 
L 259.133777 188.605991 
L 259.680333 189.796319 
L 260.22689 190.986647 
L 260.773446 192.176975 
L 261.320003 193.367303 
L 261.866559 194.557631 
L 262.413116 195.747959 
L 262.959672 196.938287 
L 263.506228 198.128615 
L 264.052785 199.318943 
L 264.599341 200.509271 
L 265.145898 201.699599 
L 265.692454 202.889927 
L 266.239011 204.080255 
L 266.785567 205.270583 
L 267.332124 206.460911 
L 267.87868 207.651239 
L 268.425237 208.841567 
L 268.971793 210.031895 
L 269.51835 211.222223 
L 270.064906 212.412551 
L 270.611463 213.602879 
L 271.158019 214.793207 
L 271.704576 215.983535 
L 272.251132 217.173863 
L 272.797689 218.364191 
L 273.344245 219.554519 
L 273.890801 220.744847 
L 274.437358 221.935175 
L 274.983914 223.125503 
L 275.530471 224.315831 
L 276.077027 225.506159 
L 276.623584 226.696487 
L 277.17014 227.886815 
L 277.716697 229.077143 
L 278.263253 230.267471 
L 278.80981 231.457799 
L 279.356366 232.648127 
L 279.902923 233.838455 
L 280.449479 235.028784 
L 280.996036 236.219112 
L 281.542592 237.40944 
L 282.089149 238.599768 
L 282.635705 239.790096 
L 283.182262 240.980424 
L 283.728818 242.170752 
L 284.275374 243.36108 
L 284.821931 244.551408 
L 285.368487 245.741736 
L 285.915044 246.932064 
L 286.4616 248.122392 
L 287.008157 249.31272 
L 287.554713 250.503048 
L 288.10127 251.693376 
L 288.647826 252.883704 
L 289.194383 254.074032 
L 289.740939 255.26436 
L 290.287496 256.454688 
L 290.834052 257.645016 
L 291.380609 258.835344 
L 291.927165 260.025672 
L 292.473722 261.216 
" clip-path="url(#pe950e64a8e)" style="fill: none; stroke: #8c564b; stroke-width: 1.5; stroke-linecap: square"/>
   </g>
   <g id="line2d_22">
    <path d="M 292.473722 261.216 
L 293.293556 260.025672 
L 294.113391 258.835344 
L 294.933226 257.645016 
L 295.75306 256.454688 
L 296.572895 255.26436 
L 297.39273 254.074032 
L 298.212565 252.883704 
L 299.032399 251.693376 
L 299.852234 250.503048 
L 300.672069 249.31272 
L 301.491903 248.122392 
L 302.311738 246.932064 
L 303.131573 245.741736 
L 303.951408 244.551408 
L 304.771242 243.36108 
L 305.591077 242.170752 
L 306.410912 240.980424 
L 307.230746 239.790096 
L 308.050581 238.599768 
L 308.870416 237.40944 
L 309.690251 236.219112 
L 310.510085 235.028784 
L 311.32992 233.838455 
L 312.149755 232.648127 
L 312.969589 231.457799 
L 313.789424 230.267471 
L 314.609259 229.077143 
L 315.429093 227.886815 
L 316.248928 226.696487 
L 317.068763 225.506159 
L 317.888598 224.315831 
L 318.708432 223.125503 
L 319.528267 221.935175 
L 320.348102 220.744847 
L 321.167936 219.554519 
L 321.987771 218.364191 
L 322.807606 217.173863 
L 323.627441 215.983535 
L 324.447275 214.793207 
L 325.26711 213.602879 
L 326.086945 212.412551 
L 326.906779 211.222223 
L 327.726614 210.031895 
L 328.546449 208.841567 
L 329.366284 207.651239 
L 330.186118 206.460911 
L 331.005953 205.270583 
L 331.825788 204.080255 
L 332.645622 202.889927 
L 333.465457 201.699599 
L 334.285292 200.509271 
L 335.105127 199.318943 
L 335.924961 198.128615 
L 336.744796 196.938287 
L 337.564631 195.747959 
L 338.384465 194.557631 
L 339.2043 193.367303 
L 340.024135 192.176975 
L 340.84397 190.986647 
L 341.663804 189.796319 
L 342.483639 188.605991 
L 343.303474 187.415663 
L 344.123308 186.225335 
L 344.943143 185.035007 
L 345.762978 183.844679 
L 346.582813 182.654351 
L 347.402647 181.464022 
L 348.222482 180.273694 
L 349.042317 179.083366 
L 349.862151 177.893038 
L 350.681986 176.70271 
L 351.501821 175.512382 
L 352.321655 174.322054 
L 353.14149 173.131726 
L 353.961325 171.941398 
L 354.78116 170.75107 
L 355.600994 169.560742 
L 356.420829 168.370414 
L 357.240664 167.180086 
L 358.060498 165.989758 
L 358.880333 164.79943 
L 359.700168 163.609102 
L 360.520003 162.418774 
L 361.339837 161.228446 
L 362.159672 160.038118 
L 362.979507 158.84779 
L 363.799341 157.657462 
L 364.619176 156.467134 
L 365.439011 155.276806 
L 366.258846 154.086478 
L 367.07868 152.89615 
L 367.898515 151.705822 
L 368.71835 150.515494 
L 369.538184 149.325166 
L 370.358019 148.134838 
L 371.177854 146.94451 
L 371.997689 145.754182 
L 372.817523 144.563854 
L 373.637358 143.373526 
" clip-path="url(#pe950e64a8e)" style="fill: none; stroke: #e377c2; stroke-width: 1.5; stroke-linecap: square"/>
   </g>
   <g id="line2d_23">
    <path d="M 292.473722 261.216 
L 293.293556 260.025672 
L 294.113391 258.835344 
L 294.933226 257.645016 
L 295.75306 256.454688 
L 296.572895 255.26436 
L 297.39273 254.074032 
L 298.212565 252.883704 
L 299.032399 251.693376 
L 299.852234 250.503048 
L 300.672069 249.31272 
L 301.491903 248.122392 
L 302.311738 246.932064 
L 303.131573 245.741736 
L 303.951408 244.551408 
L 304.771242 243.36108 
L 305.591077 242.170752 
L 306.410912 240.980424 
L 307.230746 239.790096 
L 308.050581 238.599768 
L 308.870416 237.40944 
L 309.690251 236.219112 
L 310.510085 235.028784 
L 311.32992 233.838455 
L 312.149755 232.648127 
L 312.969589 231.457799 
L 313.789424 230.267471 
L 314.609259 229.077143 
L 315.429093 227.886815 
L 316.248928 226.696487 
L 317.068763 225.506159 
L 317.888598 224.315831 
L 318.708432 223.125503 
L 319.528267 221.935175 
L 320.348102 220.744847 
L 321.167936 219.554519 
L 321.987771 218.364191 
L 322.807606 217.173863 
L 323.627441 215.983535 
L 324.447275 214.793207 
L 325.26711 213.602879 
L 326.086945 212.412551 
L 326.906779 211.222223 
L 327.726614 210.031895 
L 328.546449 208.841567 
L 329.366284 207.651239 
L 330.186118 206.460911 
L 331.005953 205.270583 
L 331.825788 204.080255 
L 332.645622 202.889927 
L 333.465457 201.699599 
L 334.285292 200.509271 
L 335.105127 199.318943 
L 335.924961 198.128615 
L 336.744796 196.938287 
L 337.564631 195.747959 
L 338.384465 194.557631 
L 339.2043 193.367303 
L 340.024135 192.176975 
L 340.84397 190.986647 
L 341.663804 189.796319 
L 342.483639 188.605991 
L 343.303474 187.415663 
L 344.123308 186.225335 
L 344.943143 185.035007 
L 345.762978 183.844679 
L 346.582813 182.654351 
L 347.402647 181.464022 
L 348.222482 180.273694 
L 349.042317 179.083366 
L 349.862151 177.893038 
L 350.681986 176.70271 
L 351.501821 175.512382 
L 352.321655 174.322054 
L 353.14149 173.131726 
L 353.961325 171.941398 
L 354.78116 170.75107 
L 355.600994 169.560742 
L 356.420829 168.370414 
L 357.240664 167.180086 
L 358.060498 165.989758 
L 358.880333 164.79943 
L 359.700168 163.609102 
L 360.520003 162.418774 
L 361.339837 161.228446 
L 362.159672 160.038118 
L 362.979507 158.84779 
L 363.799341 157.657462 
L 364.619176 156.467134 
L 365.439011 155.276806 
L 366.258846 154.086478 
L 367.07868 152.89615 
L 367.898515 151.705822 
L 368.71835 150.515494 
L 369.538184 149.325166 
L 370.358019 148.134838 
L 371.177854 146.94451 
L 371.997689 145.754182 
L 372.817523 144.563854 
L 373.637358 143.373526 
" clip-path="url(#pe950e64a8e)" style="fill: none; stroke: #7f7f7f; stroke-width: 1.5; stroke-linecap: square"/>
   </g>
   <g id="patch_3">
    <path d="M 48.982812 273.312 
L 48.982812 7.2 
" style="fill: none; stroke: #000000; stroke-width: 0.8; stroke-linejoin: miter; stroke-linecap: square"/>
   </g>
   <g id="patch_4">
    <path d="M 389.870085 273.312 
L 389.870085 7.2 
" style="fill: none"/>
   </g>
   <g id="patch_5">
    <path d="M 32.750085 143.373526 
L 389.870085 143.373526 
" style="fill: none; stroke: #000000; stroke-width: 0.8; stroke-linejoin: miter; stroke-linecap: square"/>
   </g>
   <g id="patch_6">
    <path d="M 32.750085 7.2 
L 389.870085 7.2 
" style="fill: none"/>
   </g>
  </g>
 </g>
 <defs>
  <clipPath id="pe950e64a8e">
   <rect x="32.750085" y="7.2" width="357.12" height="266.112"/>
  </clipPath>
 </defs>
</svg>
