<?xml version="1.0" encoding="utf-8" standalone="no"?>
<!DOCTYPE svg PUBLIC "-//W3C//DTD SVG 1.1//EN"
  "http://www.w3.org/Graphics/SVG/1.1/DTD/svg11.dtd">
<svg xmlns:xlink="http://www.w3.org/1999/xlink" width="397.070085pt" height="285.942906pt" viewBox="0 0 397.070085 285.942906" xmlns="http://www.w3.org/2000/svg" version="1.1">
 <metadata>
  <rdf:RDF xmlns:dc="http://purl.org/dc/elements/1.1/" xmlns:cc="http://creativecommons.org/ns#" xmlns:rdf="http://www.w3.org/1999/02/22-rdf-syntax-ns#">
   <cc:Work>
    <dc:type rdf:resource="http://purl.org/dc/dcmitype/StillImage"/>
    <dc:date>2024-09-18T15:51:03.057443</dc:date>
    <dc:format>image/svg+xml</dc:format>
    <dc:creator>
     <cc:Agent>
      <dc:title>Matplotlib v3.8.0, https://matplotlib.org/</dc:title>
     </cc:Agent>
    </dc:creator>
   </cc:Work>
  </rdf:RDF>
 </metadata>
 <defs>
  <style type="text/css">*{stroke-linejoin: round; stroke-linecap: butt}</style>
 </defs>
 <g id="figure_1">
  <g id="patch_1">
   <path d="M 0 285.942906 
L 397.070085 285.942906 
L 397.070085 0 
L 0 0 
z
" style="fill: #ffffff"/>
  </g>
  <g id="axes_1">
   <g id="patch_2">
    <path d="M 32.750085 273.312 
L 389.870085 273.312 
L 389.870085 7.2 
L 32.750085 7.2 
z
" style="fill: #ffffff"/>
   </g>
   <g id="matplotlib.axis_1">
    <g id="xtick_1">
     <g id="line2d_1">
      <defs>
       <path id="maa7159cf52" d="M 0 0 
L 0 3.5 
" style="stroke: #000000; stroke-width: 0.8"/>
      </defs>
      <g>
       <use xlink:href="#maa7159cf52" x="48.982812" y="129.504" style="stroke: #000000; stroke-width: 0.8"/>
      </g>
     </g>
     <g id="text_1">
      <!-- 0 -->
      <g transform="translate(45.801562 144.102437) scale(0.1 -0.1)">
       <defs>
        <path id="DejaVuSans-30" d="M 2034 4250 
Q 1547 4250 1301 3770 
Q 1056 3291 1056 2328 
Q 1056 1369 1301 889 
Q 1547 409 2034 409 
Q 2525 409 2770 889 
Q 3016 1369 3016 2328 
Q 3016 3291 2770 3770 
Q 2525 4250 2034 4250 
z
M 2034 4750 
Q 2819 4750 3233 4129 
Q 3647 3509 3647 2328 
Q 3647 1150 3233 529 
Q 2819 -91 2034 -91 
Q 1250 -91 836 529 
Q 422 1150 422 2328 
Q 422 3509 836 4129 
Q 1250 4750 2034 4750 
z
" transform="scale(0.015625)"/>
       </defs>
       <use xlink:href="#DejaVuSans-30"/>
      </g>
     </g>
    </g>
    <g id="xtick_2">
     <g id="line2d_2">
      <g>
       <use xlink:href="#maa7159cf52" x="103.091903" y="129.504" style="stroke: #000000; stroke-width: 0.8"/>
      </g>
     </g>
     <g id="text_2">
      <!-- 2 -->
      <g transform="translate(99.910653 144.102437) scale(0.1 -0.1)">
       <defs>
        <path id="DejaVuSans-32" d="M 1228 531 
L 3431 531 
L 3431 0 
L 469 0 
L 469 531 
Q 828 903 1448 1529 
Q 2069 2156 2228 2338 
Q 2531 2678 2651 2914 
Q 2772 3150 2772 3378 
Q 2772 3750 2511 3984 
Q 2250 4219 1831 4219 
Q 1534 4219 1204 4116 
Q 875 4013 500 3803 
L 500 4441 
Q 881 4594 1212 4672 
Q 1544 4750 1819 4750 
Q 2544 4750 2975 4387 
Q 3406 4025 3406 3419 
Q 3406 3131 3298 2873 
Q 3191 2616 2906 2266 
Q 2828 2175 2409 1742 
Q 1991 1309 1228 531 
z
" transform="scale(0.015625)"/>
       </defs>
       <use xlink:href="#DejaVuSans-32"/>
      </g>
     </g>
    </g>
    <g id="xtick_3">
     <g id="line2d_3">
      <g>
       <use xlink:href="#maa7159cf52" x="157.200994" y="129.504" style="stroke: #000000; stroke-width: 0.8"/>
      </g>
     </g>
     <g id="text_3">
      <!-- 4 -->
      <g transform="translate(154.019744 144.102437) scale(0.1 -0.1)">
       <defs>
        <path id="DejaVuSans-34" d="M 2419 4116 
L 825 1625 
L 2419 1625 
L 2419 4116 
z
M 2253 4666 
L 3047 4666 
L 3047 1625 
L 3713 1625 
L 3713 1100 
L 3047 1100 
L 3047 0 
L 2419 0 
L 2419 1100 
L 313 1100 
L 313 1709 
L 2253 4666 
z
" transform="scale(0.015625)"/>
       </defs>
       <use xlink:href="#DejaVuSans-34"/>
      </g>
     </g>
    </g>
    <g id="xtick_4">
     <g id="line2d_4">
      <g>
       <use xlink:href="#maa7159cf52" x="211.310085" y="129.504" style="stroke: #000000; stroke-width: 0.8"/>
      </g>
     </g>
     <g id="text_4">
      <!-- 6 -->
      <g transform="translate(208.128835 144.102437) scale(0.1 -0.1)">
       <defs>
        <path id="DejaVuSans-36" d="M 2113 2584 
Q 1688 2584 1439 2293 
Q 1191 2003 1191 1497 
Q 1191 994 1439 701 
Q 1688 409 2113 409 
Q 2538 409 2786 701 
Q 3034 994 3034 1497 
Q 3034 2003 2786 2293 
Q 2538 2584 2113 2584 
z
M 3366 4563 
L 3366 3988 
Q 3128 4100 2886 4159 
Q 2644 4219 2406 4219 
Q 1781 4219 1451 3797 
Q 1122 3375 1075 2522 
Q 1259 2794 1537 2939 
Q 1816 3084 2150 3084 
Q 2853 3084 3261 2657 
Q 3669 2231 3669 1497 
Q 3669 778 3244 343 
Q 2819 -91 2113 -91 
Q 1303 -91 875 529 
Q 447 1150 447 2328 
Q 447 3434 972 4092 
Q 1497 4750 2381 4750 
Q 2619 4750 2861 4703 
Q 3103 4656 3366 4563 
z
" transform="scale(0.015625)"/>
       </defs>
       <use xlink:href="#DejaVuSans-36"/>
      </g>
     </g>
    </g>
    <g id="xtick_5">
     <g id="line2d_5">
      <g>
       <use xlink:href="#maa7159cf52" x="265.419176" y="129.504" style="stroke: #000000; stroke-width: 0.8"/>
      </g>
     </g>
     <g id="text_5">
      <!-- 8 -->
      <g transform="translate(262.237926 144.102437) scale(0.1 -0.1)">
       <defs>
        <path id="DejaVuSans-38" d="M 2034 2216 
Q 1584 2216 1326 1975 
Q 1069 1734 1069 1313 
Q 1069 891 1326 650 
Q 1584 409 2034 409 
Q 2484 409 2743 651 
Q 3003 894 3003 1313 
Q 3003 1734 2745 1975 
Q 2488 2216 2034 2216 
z
M 1403 2484 
Q 997 2584 770 2862 
Q 544 3141 544 3541 
Q 544 4100 942 4425 
Q 1341 4750 2034 4750 
Q 2731 4750 3128 4425 
Q 3525 4100 3525 3541 
Q 3525 3141 3298 2862 
Q 3072 2584 2669 2484 
Q 3125 2378 3379 2068 
Q 3634 1759 3634 1313 
Q 3634 634 3220 271 
Q 2806 -91 2034 -91 
Q 1263 -91 848 271 
Q 434 634 434 1313 
Q 434 1759 690 2068 
Q 947 2378 1403 2484 
z
M 1172 3481 
Q 1172 3119 1398 2916 
Q 1625 2713 2034 2713 
Q 2441 2713 2670 2916 
Q 2900 3119 2900 3481 
Q 2900 3844 2670 4047 
Q 2441 4250 2034 4250 
Q 1625 4250 1398 4047 
Q 1172 3844 1172 3481 
z
" transform="scale(0.015625)"/>
       </defs>
       <use xlink:href="#DejaVuSans-38"/>
      </g>
     </g>
    </g>
    <g id="xtick_6">
     <g id="line2d_6">
      <g>
       <use xlink:href="#maa7159cf52" x="319.528267" y="129.504" style="stroke: #000000; stroke-width: 0.8"/>
      </g>
     </g>
     <g id="text_6">
      <!-- 10 -->
      <g transform="translate(313.165767 144.102437) scale(0.1 -0.1)">
       <defs>
        <path id="DejaVuSans-31" d="M 794 531 
L 1825 531 
L 1825 4091 
L 703 3866 
L 703 4441 
L 1819 4666 
L 2450 4666 
L 2450 531 
L 3481 531 
L 3481 0 
L 794 0 
L 794 531 
z
" transform="scale(0.015625)"/>
       </defs>
       <use xlink:href="#DejaVuSans-31"/>
       <use xlink:href="#DejaVuSans-30" x="63.623047"/>
      </g>
     </g>
    </g>
    <g id="xtick_7">
     <g id="line2d_7">
      <g>
       <use xlink:href="#maa7159cf52" x="373.637358" y="129.504" style="stroke: #000000; stroke-width: 0.8"/>
      </g>
     </g>
     <g id="text_7">
      <!-- 12 -->
      <g transform="translate(367.274858 144.102437) scale(0.1 -0.1)">
       <use xlink:href="#DejaVuSans-31"/>
       <use xlink:href="#DejaVuSans-32" x="63.623047"/>
      </g>
     </g>
    </g>
    <g id="text_8">
     <!-- $x$ -->
     <g transform="translate(208.310085 157.780562) scale(0.1 -0.1)">
      <defs>
       <path id="DejaVuSans-Oblique-78" d="M 3841 3500 
L 2234 1784 
L 3219 0 
L 2559 0 
L 1819 1388 
L 531 0 
L -166 0 
L 1556 1844 
L 641 3500 
L 1300 3500 
L 1972 2234 
L 3144 3500 
L 3841 3500 
z
" transform="scale(0.015625)"/>
      </defs>
      <use xlink:href="#DejaVuSans-Oblique-78" transform="translate(0 0.3125)"/>
     </g>
    </g>
   </g>
   <g id="matplotlib.axis_2">
    <g id="ytick_1">
     <g id="line2d_8">
      <defs>
       <path id="m87ef304293" d="M 0 0 
L -3.5 0 
" style="stroke: #000000; stroke-width: 0.8"/>
      </defs>
      <g>
       <use xlink:href="#m87ef304293" x="48.982812" y="21.984" style="stroke: #000000; stroke-width: 0.8"/>
      </g>
     </g>
     <g id="text_9">
      <!-- −30 -->
      <g transform="translate(20.878125 25.783219) scale(0.1 -0.1)">
       <defs>
        <path id="DejaVuSans-2212" d="M 678 2272 
L 4684 2272 
L 4684 1741 
L 678 1741 
L 678 2272 
z
" transform="scale(0.015625)"/>
        <path id="DejaVuSans-33" d="M 2597 2516 
Q 3050 2419 3304 2112 
Q 3559 1806 3559 1356 
Q 3559 666 3084 287 
Q 2609 -91 1734 -91 
Q 1441 -91 1130 -33 
Q 819 25 488 141 
L 488 750 
Q 750 597 1062 519 
Q 1375 441 1716 441 
Q 2309 441 2620 675 
Q 2931 909 2931 1356 
Q 2931 1769 2642 2001 
Q 2353 2234 1838 2234 
L 1294 2234 
L 1294 2753 
L 1863 2753 
Q 2328 2753 2575 2939 
Q 2822 3125 2822 3475 
Q 2822 3834 2567 4026 
Q 2313 4219 1838 4219 
Q 1578 4219 1281 4162 
Q 984 4106 628 3988 
L 628 4550 
Q 988 4650 1302 4700 
Q 1616 4750 1894 4750 
Q 2613 4750 3031 4423 
Q 3450 4097 3450 3541 
Q 3450 3153 3228 2886 
Q 3006 2619 2597 2516 
z
" transform="scale(0.015625)"/>
       </defs>
       <use xlink:href="#DejaVuSans-2212"/>
       <use xlink:href="#DejaVuSans-33" x="83.789062"/>
       <use xlink:href="#DejaVuSans-30" x="147.412109"/>
      </g>
     </g>
    </g>
    <g id="ytick_2">
     <g id="line2d_9">
      <g>
       <use xlink:href="#m87ef304293" x="48.982812" y="57.824" style="stroke: #000000; stroke-width: 0.8"/>
      </g>
     </g>
     <g id="text_10">
      <!-- −20 -->
      <g transform="translate(20.878125 61.623219) scale(0.1 -0.1)">
       <use xlink:href="#DejaVuSans-2212"/>
       <use xlink:href="#DejaVuSans-32" x="83.789062"/>
       <use xlink:href="#DejaVuSans-30" x="147.412109"/>
      </g>
     </g>
    </g>
    <g id="ytick_3">
     <g id="line2d_10">
      <g>
       <use xlink:href="#m87ef304293" x="48.982812" y="93.664" style="stroke: #000000; stroke-width: 0.8"/>
      </g>
     </g>
     <g id="text_11">
      <!-- −10 -->
      <g transform="translate(20.878125 97.463219) scale(0.1 -0.1)">
       <use xlink:href="#DejaVuSans-2212"/>
       <use xlink:href="#DejaVuSans-31" x="83.789062"/>
       <use xlink:href="#DejaVuSans-30" x="147.412109"/>
      </g>
     </g>
    </g>
    <g id="ytick_4">
     <g id="line2d_11">
      <g>
       <use xlink:href="#m87ef304293" x="48.982812" y="129.504" style="stroke: #000000; stroke-width: 0.8"/>
      </g>
     </g>
     <g id="text_12">
      <!-- 0 -->
      <g transform="translate(35.620312 133.303219) scale(0.1 -0.1)">
       <use xlink:href="#DejaVuSans-30"/>
      </g>
     </g>
    </g>
    <g id="ytick_5">
     <g id="line2d_12">
      <g>
       <use xlink:href="#m87ef304293" x="48.982812" y="165.344" style="stroke: #000000; stroke-width: 0.8"/>
      </g>
     </g>
     <g id="text_13">
      <!-- 10 -->
      <g transform="translate(29.257812 169.143219) scale(0.1 -0.1)">
       <use xlink:href="#DejaVuSans-31"/>
       <use xlink:href="#DejaVuSans-30" x="63.623047"/>
      </g>
     </g>
    </g>
    <g id="ytick_6">
     <g id="line2d_13">
      <g>
       <use xlink:href="#m87ef304293" x="48.982812" y="201.184" style="stroke: #000000; stroke-width: 0.8"/>
      </g>
     </g>
     <g id="text_14">
      <!-- 20 -->
      <g transform="translate(29.257812 204.983219) scale(0.1 -0.1)">
       <use xlink:href="#DejaVuSans-32"/>
       <use xlink:href="#DejaVuSans-30" x="63.623047"/>
      </g>
     </g>
    </g>
    <g id="ytick_7">
     <g id="line2d_14">
      <g>
       <use xlink:href="#m87ef304293" x="48.982812" y="237.024" style="stroke: #000000; stroke-width: 0.8"/>
      </g>
     </g>
     <g id="text_15">
      <!-- 30 -->
      <g transform="translate(29.257812 240.823219) scale(0.1 -0.1)">
       <use xlink:href="#DejaVuSans-33"/>
       <use xlink:href="#DejaVuSans-30" x="63.623047"/>
      </g>
     </g>
    </g>
    <g id="ytick_8">
     <g id="line2d_15">
      <g>
       <use xlink:href="#m87ef304293" x="48.982812" y="272.864" style="stroke: #000000; stroke-width: 0.8"/>
      </g>
     </g>
     <g id="text_16">
      <!-- 40 -->
      <g transform="translate(29.257812 276.663219) scale(0.1 -0.1)">
       <use xlink:href="#DejaVuSans-34"/>
       <use xlink:href="#DejaVuSans-30" x="63.623047"/>
      </g>
     </g>
    </g>
    <g id="text_17">
     <!-- $V$ -->
     <g transform="translate(14.798437 143.706) rotate(-90) scale(0.1 -0.1)">
      <defs>
       <path id="DejaVuSans-Oblique-56" d="M 1319 0 
L 500 4666 
L 1119 4666 
L 1797 653 
L 4063 4666 
L 4750 4666 
L 2053 0 
L 1319 0 
z
" transform="scale(0.015625)"/>
      </defs>
      <use xlink:href="#DejaVuSans-Oblique-56" transform="translate(0 0.09375)"/>
     </g>
    </g>
   </g>
   <g id="line2d_16">
    <path d="M 48.982812 261.216 
L 50.349204 257.428501 
L 51.715595 253.668427 
L 53.081986 249.93578 
L 54.448377 246.230558 
L 55.814768 242.552762 
L 57.18116 238.902391 
L 58.547551 235.279447 
L 59.913942 231.683928 
L 61.280333 228.115835 
L 62.646724 224.575167 
L 64.013116 221.061926 
L 65.379507 217.57611 
L 66.745898 214.11772 
L 68.112289 210.686756 
L 69.47868 207.283218 
L 70.845071 203.907105 
L 72.211463 200.558418 
L 73.577854 197.237157 
L 74.944245 193.943322 
L 76.310636 190.676912 
L 77.677027 187.437928 
L 79.043419 184.22637 
L 80.40981 181.042238 
L 81.776201 177.885532 
L 83.142592 174.756251 
L 84.508983 171.654396 
L 85.875374 168.579967 
L 87.241766 165.532964 
L 88.608157 162.513386 
L 89.974548 159.521234 
L 91.340939 156.556508 
L 92.70733 153.619208 
L 94.073722 150.709333 
L 95.440113 147.826885 
L 96.806504 144.971862 
L 98.172895 142.144264 
L 99.539286 139.344093 
L 100.905678 136.571347 
L 102.272069 133.826028 
L 103.63846 131.108133 
L 105.004851 128.417665 
L 106.371242 125.754623 
L 107.737633 123.119006 
L 109.104025 120.510815 
L 110.470416 117.93005 
L 111.836807 115.37671 
L 113.203198 112.850796 
L 114.569589 110.352309 
L 115.935981 107.881246 
L 117.302372 105.43761 
L 118.668763 103.021399 
L 120.035154 100.632615 
L 121.401545 98.271256 
L 122.767936 95.937322 
L 124.134328 93.630815 
L 125.500719 91.351733 
L 126.86711 89.100077 
L 128.233501 86.875847 
L 129.599892 84.679043 
L 130.966284 82.509664 
L 132.332675 80.367711 
L 133.699066 78.253184 
L 135.065457 76.166083 
L 136.431848 74.106407 
L 137.798239 72.074157 
L 139.164631 70.069333 
L 140.531022 68.091935 
L 141.897413 66.141963 
L 143.263804 64.219416 
L 144.630195 62.324295 
L 145.996587 60.4566 
L 147.362978 58.616331 
L 148.729369 56.803487 
L 150.09576 55.018069 
L 151.462151 53.260077 
L 152.828543 51.529511 
L 154.194934 49.82637 
L 155.561325 48.150656 
L 156.927716 46.502367 
L 158.294107 44.881504 
L 159.660498 43.288066 
L 161.02689 41.722054 
L 162.393281 40.183469 
L 163.759672 38.672309 
L 165.126063 37.188574 
L 166.492454 35.732266 
L 167.858846 34.303383 
L 169.225237 32.901926 
L 170.591628 31.527895 
L 171.958019 30.181289 
L 173.32441 28.86211 
L 174.690801 27.570356 
L 176.057193 26.306028 
L 177.423584 25.069125 
L 178.789975 23.859649 
L 180.156366 22.677598 
L 181.522757 21.522973 
L 182.889149 20.395773 
L 184.25554 19.296 
" clip-path="url(#p91de04e413)" style="fill: none; stroke: #1f77b4; stroke-width: 1.5; stroke-linecap: square"/>
   </g>
   <g id="line2d_17">
    <path d="M 48.982812 261.216 
L 50.349204 257.428501 
L 51.715595 253.668427 
L 53.081986 249.93578 
L 54.448377 246.230558 
L 55.814768 242.552762 
L 57.18116 238.902391 
L 58.547551 235.279447 
L 59.913942 231.683928 
L 61.280333 228.115835 
L 62.646724 224.575167 
L 64.013116 221.061926 
L 65.379507 217.57611 
L 66.745898 214.11772 
L 68.112289 210.686756 
L 69.47868 207.283218 
L 70.845071 203.907105 
L 72.211463 200.558418 
L 73.577854 197.237157 
L 74.944245 193.943322 
L 76.310636 190.676912 
L 77.677027 187.437928 
L 79.043419 184.22637 
L 80.40981 181.042238 
L 81.776201 177.885532 
L 83.142592 174.756251 
L 84.508983 171.654396 
L 85.875374 168.579967 
L 87.241766 165.532964 
L 88.608157 162.513386 
L 89.974548 159.521234 
L 91.340939 156.556508 
L 92.70733 153.619208 
L 94.073722 150.709333 
L 95.440113 147.826885 
L 96.806504 144.971862 
L 98.172895 142.144264 
L 99.539286 139.344093 
L 100.905678 136.571347 
L 102.272069 133.826028 
L 103.63846 131.108133 
L 105.004851 128.417665 
L 106.371242 125.754623 
L 107.737633 123.119006 
L 109.104025 120.510815 
L 110.470416 117.93005 
L 111.836807 115.37671 
L 113.203198 112.850796 
L 114.569589 110.352309 
L 115.935981 107.881246 
L 117.302372 105.43761 
L 118.668763 103.021399 
L 120.035154 100.632615 
L 121.401545 98.271256 
L 122.767936 95.937322 
L 124.134328 93.630815 
L 125.500719 91.351733 
L 126.86711 89.100077 
L 128.233501 86.875847 
L 129.599892 84.679043 
L 130.966284 82.509664 
L 132.332675 80.367711 
L 133.699066 78.253184 
L 135.065457 76.166083 
L 136.431848 74.106407 
L 137.798239 72.074157 
L 139.164631 70.069333 
L 140.531022 68.091935 
L 141.897413 66.141963 
L 143.263804 64.219416 
L 144.630195 62.324295 
L 145.996587 60.4566 
L 147.362978 58.616331 
L 148.729369 56.803487 
L 150.09576 55.018069 
L 151.462151 53.260077 
L 152.828543 51.529511 
L 154.194934 49.82637 
L 155.561325 48.150656 
L 156.927716 46.502367 
L 158.294107 44.881504 
L 159.660498 43.288066 
L 161.02689 41.722054 
L 162.393281 40.183469 
L 163.759672 38.672309 
L 165.126063 37.188574 
L 166.492454 35.732266 
L 167.858846 34.303383 
L 169.225237 32.901926 
L 170.591628 31.527895 
L 171.958019 30.181289 
L 173.32441 28.86211 
L 174.690801 27.570356 
L 176.057193 26.306028 
L 177.423584 25.069125 
L 178.789975 23.859649 
L 180.156366 22.677598 
L 181.522757 21.522973 
L 182.889149 20.395773 
L 184.25554 19.296 
" clip-path="url(#p91de04e413)" style="fill: none; stroke: #ff7f0e; stroke-width: 1.5; stroke-linecap: square"/>
   </g>
   <g id="line2d_18">
    <path d="M 184.25554 215.52 
L 184.802096 215.08777 
L 185.348653 214.659928 
L 185.895209 214.236474 
L 186.441766 213.817408 
L 186.988322 213.40273 
L 187.534879 212.992441 
L 188.081435 212.586539 
L 188.627992 212.185026 
L 189.174548 211.787901 
L 189.721105 211.395164 
L 190.267661 211.006815 
L 190.814217 210.622854 
L 191.360774 210.243281 
L 191.90733 209.868097 
L 192.453887 209.4973 
L 193.000443 209.130892 
L 193.547 208.768872 
L 194.093556 208.41124 
L 194.640113 208.057996 
L 195.186669 207.70914 
L 195.733226 207.364672 
L 196.279782 207.024593 
L 196.826339 206.688901 
L 197.372895 206.357598 
L 197.919452 206.030683 
L 198.466008 205.708155 
L 199.012565 205.390017 
L 199.559121 205.076266 
L 200.105678 204.766903 
L 200.652234 204.461928 
L 201.19879 204.161342 
L 201.745347 203.865144 
L 202.291903 203.573333 
L 202.83846 203.285911 
L 203.385016 203.002877 
L 203.931573 202.724231 
L 204.478129 202.449974 
L 205.024686 202.180104 
L 205.571242 201.914623 
L 206.117799 201.653529 
L 206.664355 201.396824 
L 207.210912 201.144507 
L 207.757468 200.896578 
L 208.304025 200.653037 
L 208.850581 200.413884 
L 209.397138 200.17912 
L 209.943694 199.948743 
L 210.490251 199.722755 
L 211.036807 199.501155 
L 211.583363 199.283942 
L 212.12992 199.071118 
L 212.676476 198.862683 
L 213.223033 198.658635 
L 213.769589 198.458975 
L 214.316146 198.263704 
L 214.862702 198.07282 
L 215.409259 197.886325 
L 215.955815 197.704218 
L 216.502372 197.526499 
L 217.048928 197.353168 
L 217.595485 197.184225 
L 218.142041 197.019671 
L 218.688598 196.859504 
L 219.235154 196.703726 
L 219.781711 196.552335 
L 220.328267 196.405333 
L 220.874824 196.262719 
L 221.42138 196.124493 
L 221.967936 195.990656 
L 222.514493 195.861206 
L 223.061049 195.736144 
L 223.607606 195.615471 
L 224.154162 195.499186 
L 224.700719 195.387289 
L 225.247275 195.27978 
L 225.793832 195.176659 
L 226.340388 195.077926 
L 226.886945 194.983581 
L 227.433501 194.893625 
L 227.980058 194.808056 
L 228.526614 194.726876 
L 229.073171 194.650084 
L 229.619727 194.57768 
L 230.166284 194.509664 
L 230.71284 194.446036 
L 231.259397 194.386796 
L 231.805953 194.331945 
L 232.352509 194.281481 
L 232.899066 194.235406 
L 233.445622 194.193719 
L 233.992179 194.15642 
L 234.538735 194.123509 
L 235.085292 194.094986 
L 235.631848 194.070852 
L 236.178405 194.051105 
L 236.724961 194.035747 
L 237.271518 194.024776 
L 237.818074 194.018194 
L 238.364631 194.016 
" clip-path="url(#p91de04e413)" style="fill: none; stroke: #2ca02c; stroke-width: 1.5; stroke-linecap: square"/>
   </g>
   <g id="line2d_19">
    <path d="M 184.25554 215.52 
L 184.802096 215.08777 
L 185.348653 214.659928 
L 185.895209 214.236474 
L 186.441766 213.817408 
L 186.988322 213.40273 
L 187.534879 212.992441 
L 188.081435 212.586539 
L 188.627992 212.185026 
L 189.174548 211.787901 
L 189.721105 211.395164 
L 190.267661 211.006815 
L 190.814217 210.622854 
L 191.360774 210.243281 
L 191.90733 209.868097 
L 192.453887 209.4973 
L 193.000443 209.130892 
L 193.547 208.768872 
L 194.093556 208.41124 
L 194.640113 208.057996 
L 195.186669 207.70914 
L 195.733226 207.364672 
L 196.279782 207.024593 
L 196.826339 206.688901 
L 197.372895 206.357598 
L 197.919452 206.030683 
L 198.466008 205.708155 
L 199.012565 205.390017 
L 199.559121 205.076266 
L 200.105678 204.766903 
L 200.652234 204.461928 
L 201.19879 204.161342 
L 201.745347 203.865144 
L 202.291903 203.573333 
L 202.83846 203.285911 
L 203.385016 203.002877 
L 203.931573 202.724231 
L 204.478129 202.449974 
L 205.024686 202.180104 
L 205.571242 201.914623 
L 206.117799 201.653529 
L 206.664355 201.396824 
L 207.210912 201.144507 
L 207.757468 200.896578 
L 208.304025 200.653037 
L 208.850581 200.413884 
L 209.397138 200.17912 
L 209.943694 199.948743 
L 210.490251 199.722755 
L 211.036807 199.501155 
L 211.583363 199.283942 
L 212.12992 199.071118 
L 212.676476 198.862683 
L 213.223033 198.658635 
L 213.769589 198.458975 
L 214.316146 198.263704 
L 214.862702 198.07282 
L 215.409259 197.886325 
L 215.955815 197.704218 
L 216.502372 197.526499 
L 217.048928 197.353168 
L 217.595485 197.184225 
L 218.142041 197.019671 
L 218.688598 196.859504 
L 219.235154 196.703726 
L 219.781711 196.552335 
L 220.328267 196.405333 
L 220.874824 196.262719 
L 221.42138 196.124493 
L 221.967936 195.990656 
L 222.514493 195.861206 
L 223.061049 195.736144 
L 223.607606 195.615471 
L 224.154162 195.499186 
L 224.700719 195.387289 
L 225.247275 195.27978 
L 225.793832 195.176659 
L 226.340388 195.077926 
L 226.886945 194.983581 
L 227.433501 194.893625 
L 227.980058 194.808056 
L 228.526614 194.726876 
L 229.073171 194.650084 
L 229.619727 194.57768 
L 230.166284 194.509664 
L 230.71284 194.446036 
L 231.259397 194.386796 
L 231.805953 194.331945 
L 232.352509 194.281481 
L 232.899066 194.235406 
L 233.445622 194.193719 
L 233.992179 194.15642 
L 234.538735 194.123509 
L 235.085292 194.094986 
L 235.631848 194.070852 
L 236.178405 194.051105 
L 236.724961 194.035747 
L 237.271518 194.024776 
L 237.818074 194.018194 
L 238.364631 194.016 
" clip-path="url(#p91de04e413)" style="fill: none; stroke: #d62728; stroke-width: 1.5; stroke-linecap: square"/>
   </g>
   <g id="line2d_20">
    <path d="M 238.364631 194.016 
L 292.473722 194.016 
" clip-path="url(#p91de04e413)" style="fill: none; stroke: #9467bd; stroke-width: 1.5; stroke-linecap: square"/>
   </g>
   <g id="line2d_21">
    <path d="M 238.364631 194.016 
L 292.473722 194.016 
" clip-path="url(#p91de04e413)" style="fill: none; stroke: #8c564b; stroke-width: 1.5; stroke-linecap: square"/>
   </g>
   <g id="line2d_22">
    <path d="M 238.364631 194.016 
L 292.473722 194.016 
" clip-path="url(#p91de04e413)" style="fill: none; stroke: #e377c2; stroke-width: 1.5; stroke-linecap: square"/>
   </g>
   <g id="line2d_23">
    <path d="M 238.364631 194.016 
L 292.473722 194.016 
" clip-path="url(#p91de04e413)" style="fill: none; stroke: #7f7f7f; stroke-width: 1.5; stroke-linecap: square"/>
   </g>
   <g id="line2d_24">
    <path d="M 238.364631 194.016 
L 292.473722 194.016 
" clip-path="url(#p91de04e413)" style="fill: none; stroke: #bcbd22; stroke-width: 1.5; stroke-linecap: square"/>
   </g>
   <g id="line2d_25">
    <path d="M 238.364631 194.016 
L 292.473722 194.016 
" clip-path="url(#p91de04e413)" style="fill: none; stroke: #17becf; stroke-width: 1.5; stroke-linecap: square"/>
   </g>
   <g id="line2d_26">
    <path d="M 238.364631 194.016 
L 292.473722 194.016 
" clip-path="url(#p91de04e413)" style="fill: none; stroke: #1f77b4; stroke-width: 1.5; stroke-linecap: square"/>
   </g>
   <g id="line2d_27">
    <path d="M 238.364631 194.016 
L 292.473722 194.016 
" clip-path="url(#p91de04e413)" style="fill: none; stroke: #ff7f0e; stroke-width: 1.5; stroke-linecap: square"/>
   </g>
   <g id="line2d_28">
    <path d="M 238.364631 194.016 
L 292.473722 194.016 
" clip-path="url(#p91de04e413)" style="fill: none; stroke: #2ca02c; stroke-width: 1.5; stroke-linecap: square"/>
   </g>
   <g id="line2d_29">
    <path d="M 238.364631 194.016 
L 292.473722 194.016 
" clip-path="url(#p91de04e413)" style="fill: none; stroke: #d62728; stroke-width: 1.5; stroke-linecap: square"/>
   </g>
   <g id="line2d_30">
    <path d="M 238.364631 194.016 
L 292.473722 194.016 
" clip-path="url(#p91de04e413)" style="fill: none; stroke: #9467bd; stroke-width: 1.5; stroke-linecap: square"/>
   </g>
   <g id="line2d_31">
    <path d="M 238.364631 194.016 
L 292.473722 194.016 
" clip-path="url(#p91de04e413)" style="fill: none; stroke: #8c564b; stroke-width: 1.5; stroke-linecap: square"/>
   </g>
   <g id="line2d_32">
    <path d="M 238.364631 194.016 
L 292.473722 194.016 
" clip-path="url(#p91de04e413)" style="fill: none; stroke: #e377c2; stroke-width: 1.5; stroke-linecap: square"/>
   </g>
   <g id="line2d_33">
    <path d="M 238.364631 194.016 
L 292.473722 194.016 
" clip-path="url(#p91de04e413)" style="fill: none; stroke: #7f7f7f; stroke-width: 1.5; stroke-linecap: square"/>
   </g>
   <g id="line2d_34">
    <path d="M 238.364631 194.016 
L 292.473722 194.016 
" clip-path="url(#p91de04e413)" style="fill: none; stroke: #bcbd22; stroke-width: 1.5; stroke-linecap: square"/>
   </g>
   <g id="line2d_35">
    <path d="M 238.364631 194.016 
L 292.473722 194.016 
" clip-path="url(#p91de04e413)" style="fill: none; stroke: #17becf; stroke-width: 1.5; stroke-linecap: square"/>
   </g>
   <g id="line2d_36">
    <path d="M 238.364631 194.016 
L 292.473722 194.016 
" clip-path="url(#p91de04e413)" style="fill: none; stroke: #1f77b4; stroke-width: 1.5; stroke-linecap: square"/>
   </g>
   <g id="line2d_37">
    <path d="M 238.364631 194.016 
L 292.473722 194.016 
" clip-path="url(#p91de04e413)" style="fill: none; stroke: #ff7f0e; stroke-width: 1.5; stroke-linecap: square"/>
   </g>
   <g id="line2d_38">
    <path d="M 238.364631 194.016 
L 292.473722 194.016 
" clip-path="url(#p91de04e413)" style="fill: none; stroke: #2ca02c; stroke-width: 1.5; stroke-linecap: square"/>
   </g>
   <g id="line2d_39">
    <path d="M 238.364631 194.016 
L 292.473722 194.016 
" clip-path="url(#p91de04e413)" style="fill: none; stroke: #d62728; stroke-width: 1.5; stroke-linecap: square"/>
   </g>
   <g id="line2d_40">
    <path d="M 238.364631 194.016 
L 292.473722 194.016 
" clip-path="url(#p91de04e413)" style="fill: none; stroke: #9467bd; stroke-width: 1.5; stroke-linecap: square"/>
   </g>
   <g id="line2d_41">
    <path d="M 238.364631 194.016 
L 292.473722 194.016 
" clip-path="url(#p91de04e413)" style="fill: none; stroke: #8c564b; stroke-width: 1.5; stroke-linecap: square"/>
   </g>
   <g id="line2d_42">
    <path d="M 238.364631 194.016 
L 292.473722 194.016 
" clip-path="url(#p91de04e413)" style="fill: none; stroke: #e377c2; stroke-width: 1.5; stroke-linecap: square"/>
   </g>
   <g id="line2d_43">
    <path d="M 238.364631 194.016 
L 292.473722 194.016 
" clip-path="url(#p91de04e413)" style="fill: none; stroke: #7f7f7f; stroke-width: 1.5; stroke-linecap: square"/>
   </g>
   <g id="line2d_44">
    <path d="M 238.364631 194.016 
L 292.473722 194.016 
" clip-path="url(#p91de04e413)" style="fill: none; stroke: #bcbd22; stroke-width: 1.5; stroke-linecap: square"/>
   </g>
   <g id="line2d_45">
    <path d="M 238.364631 194.016 
L 292.473722 194.016 
" clip-path="url(#p91de04e413)" style="fill: none; stroke: #17becf; stroke-width: 1.5; stroke-linecap: square"/>
   </g>
   <g id="line2d_46">
    <path d="M 238.364631 194.016 
L 292.473722 194.016 
" clip-path="url(#p91de04e413)" style="fill: none; stroke: #1f77b4; stroke-width: 1.5; stroke-linecap: square"/>
   </g>
   <g id="line2d_47">
    <path d="M 238.364631 194.016 
L 292.473722 194.016 
" clip-path="url(#p91de04e413)" style="fill: none; stroke: #ff7f0e; stroke-width: 1.5; stroke-linecap: square"/>
   </g>
   <g id="line2d_48">
    <path d="M 238.364631 194.016 
L 292.473722 194.016 
" clip-path="url(#p91de04e413)" style="fill: none; stroke: #2ca02c; stroke-width: 1.5; stroke-linecap: square"/>
   </g>
   <g id="line2d_49">
    <path d="M 238.364631 194.016 
L 292.473722 194.016 
" clip-path="url(#p91de04e413)" style="fill: none; stroke: #d62728; stroke-width: 1.5; stroke-linecap: square"/>
   </g>
   <g id="line2d_50">
    <path d="M 238.364631 194.016 
L 292.473722 194.016 
" clip-path="url(#p91de04e413)" style="fill: none; stroke: #9467bd; stroke-width: 1.5; stroke-linecap: square"/>
   </g>
   <g id="line2d_51">
    <path d="M 238.364631 194.016 
L 292.473722 194.016 
" clip-path="url(#p91de04e413)" style="fill: none; stroke: #8c564b; stroke-width: 1.5; stroke-linecap: square"/>
   </g>
   <g id="line2d_52">
    <path d="M 238.364631 194.016 
L 292.473722 194.016 
" clip-path="url(#p91de04e413)" style="fill: none; stroke: #e377c2; stroke-width: 1.5; stroke-linecap: square"/>
   </g>
   <g id="line2d_53">
    <path d="M 238.364631 194.016 
L 292.473722 194.016 
" clip-path="url(#p91de04e413)" style="fill: none; stroke: #7f7f7f; stroke-width: 1.5; stroke-linecap: square"/>
   </g>
   <g id="line2d_54">
    <path d="M 238.364631 194.016 
L 292.473722 194.016 
" clip-path="url(#p91de04e413)" style="fill: none; stroke: #bcbd22; stroke-width: 1.5; stroke-linecap: square"/>
   </g>
   <g id="line2d_55">
    <path d="M 238.364631 194.016 
L 292.473722 194.016 
" clip-path="url(#p91de04e413)" style="fill: none; stroke: #17becf; stroke-width: 1.5; stroke-linecap: square"/>
   </g>
   <g id="line2d_56">
    <path d="M 238.364631 194.016 
L 292.473722 194.016 
" clip-path="url(#p91de04e413)" style="fill: none; stroke: #1f77b4; stroke-width: 1.5; stroke-linecap: square"/>
   </g>
   <g id="line2d_57">
    <path d="M 238.364631 194.016 
L 292.473722 194.016 
" clip-path="url(#p91de04e413)" style="fill: none; stroke: #ff7f0e; stroke-width: 1.5; stroke-linecap: square"/>
   </g>
   <g id="line2d_58">
    <path d="M 238.364631 194.016 
L 292.473722 194.016 
" clip-path="url(#p91de04e413)" style="fill: none; stroke: #2ca02c; stroke-width: 1.5; stroke-linecap: square"/>
   </g>
   <g id="line2d_59">
    <path d="M 238.364631 194.016 
L 292.473722 194.016 
" clip-path="url(#p91de04e413)" style="fill: none; stroke: #d62728; stroke-width: 1.5; stroke-linecap: square"/>
   </g>
   <g id="line2d_60">
    <path d="M 238.364631 194.016 
L 292.473722 194.016 
" clip-path="url(#p91de04e413)" style="fill: none; stroke: #9467bd; stroke-width: 1.5; stroke-linecap: square"/>
   </g>
   <g id="line2d_61">
    <path d="M 238.364631 194.016 
L 292.473722 194.016 
" clip-path="url(#p91de04e413)" style="fill: none; stroke: #8c564b; stroke-width: 1.5; stroke-linecap: square"/>
   </g>
   <g id="line2d_62">
    <path d="M 238.364631 194.016 
L 292.473722 194.016 
" clip-path="url(#p91de04e413)" style="fill: none; stroke: #e377c2; stroke-width: 1.5; stroke-linecap: square"/>
   </g>
   <g id="line2d_63">
    <path d="M 238.364631 194.016 
L 292.473722 194.016 
" clip-path="url(#p91de04e413)" style="fill: none; stroke: #7f7f7f; stroke-width: 1.5; stroke-linecap: square"/>
   </g>
   <g id="line2d_64">
    <path d="M 238.364631 194.016 
L 292.473722 194.016 
" clip-path="url(#p91de04e413)" style="fill: none; stroke: #bcbd22; stroke-width: 1.5; stroke-linecap: square"/>
   </g>
   <g id="line2d_65">
    <path d="M 238.364631 194.016 
L 292.473722 194.016 
" clip-path="url(#p91de04e413)" style="fill: none; stroke: #17becf; stroke-width: 1.5; stroke-linecap: square"/>
   </g>
   <g id="line2d_66">
    <path d="M 238.364631 194.016 
L 292.473722 194.016 
" clip-path="url(#p91de04e413)" style="fill: none; stroke: #1f77b4; stroke-width: 1.5; stroke-linecap: square"/>
   </g>
   <g id="line2d_67">
    <path d="M 238.364631 194.016 
L 292.473722 194.016 
" clip-path="url(#p91de04e413)" style="fill: none; stroke: #ff7f0e; stroke-width: 1.5; stroke-linecap: square"/>
   </g>
   <g id="line2d_68">
    <path d="M 238.364631 194.016 
L 292.473722 194.016 
" clip-path="url(#p91de04e413)" style="fill: none; stroke: #2ca02c; stroke-width: 1.5; stroke-linecap: square"/>
   </g>
   <g id="line2d_69">
    <path d="M 238.364631 194.016 
L 292.473722 194.016 
" clip-path="url(#p91de04e413)" style="fill: none; stroke: #d62728; stroke-width: 1.5; stroke-linecap: square"/>
   </g>
   <g id="line2d_70">
    <path d="M 238.364631 194.016 
L 292.473722 194.016 
" clip-path="url(#p91de04e413)" style="fill: none; stroke: #9467bd; stroke-width: 1.5; stroke-linecap: square"/>
   </g>
   <g id="line2d_71">
    <path d="M 238.364631 194.016 
L 292.473722 194.016 
" clip-path="url(#p91de04e413)" style="fill: none; stroke: #8c564b; stroke-width: 1.5; stroke-linecap: square"/>
   </g>
   <g id="line2d_72">
    <path d="M 238.364631 194.016 
L 292.473722 194.016 
" clip-path="url(#p91de04e413)" style="fill: none; stroke: #e377c2; stroke-width: 1.5; stroke-linecap: square"/>
   </g>
   <g id="line2d_73">
    <path d="M 238.364631 194.016 
L 292.473722 194.016 
" clip-path="url(#p91de04e413)" style="fill: none; stroke: #7f7f7f; stroke-width: 1.5; stroke-linecap: square"/>
   </g>
   <g id="line2d_74">
    <path d="M 238.364631 194.016 
L 292.473722 194.016 
" clip-path="url(#p91de04e413)" style="fill: none; stroke: #bcbd22; stroke-width: 1.5; stroke-linecap: square"/>
   </g>
   <g id="line2d_75">
    <path d="M 238.364631 194.016 
L 292.473722 194.016 
" clip-path="url(#p91de04e413)" style="fill: none; stroke: #17becf; stroke-width: 1.5; stroke-linecap: square"/>
   </g>
   <g id="line2d_76">
    <path d="M 238.364631 194.016 
L 292.473722 194.016 
" clip-path="url(#p91de04e413)" style="fill: none; stroke: #1f77b4; stroke-width: 1.5; stroke-linecap: square"/>
   </g>
   <g id="line2d_77">
    <path d="M 238.364631 194.016 
L 292.473722 194.016 
" clip-path="url(#p91de04e413)" style="fill: none; stroke: #ff7f0e; stroke-width: 1.5; stroke-linecap: square"/>
   </g>
   <g id="line2d_78">
    <path d="M 238.364631 194.016 
L 292.473722 194.016 
" clip-path="url(#p91de04e413)" style="fill: none; stroke: #2ca02c; stroke-width: 1.5; stroke-linecap: square"/>
   </g>
   <g id="line2d_79">
    <path d="M 238.364631 194.016 
L 292.473722 194.016 
" clip-path="url(#p91de04e413)" style="fill: none; stroke: #d62728; stroke-width: 1.5; stroke-linecap: square"/>
   </g>
   <g id="line2d_80">
    <path d="M 238.364631 194.016 
L 292.473722 194.016 
" clip-path="url(#p91de04e413)" style="fill: none; stroke: #9467bd; stroke-width: 1.5; stroke-linecap: square"/>
   </g>
   <g id="line2d_81">
    <path d="M 238.364631 194.016 
L 292.473722 194.016 
" clip-path="url(#p91de04e413)" style="fill: none; stroke: #8c564b; stroke-width: 1.5; stroke-linecap: square"/>
   </g>
   <g id="line2d_82">
    <path d="M 238.364631 194.016 
L 292.473722 194.016 
" clip-path="url(#p91de04e413)" style="fill: none; stroke: #e377c2; stroke-width: 1.5; stroke-linecap: square"/>
   </g>
   <g id="line2d_83">
    <path d="M 238.364631 194.016 
L 292.473722 194.016 
" clip-path="url(#p91de04e413)" style="fill: none; stroke: #7f7f7f; stroke-width: 1.5; stroke-linecap: square"/>
   </g>
   <g id="line2d_84">
    <path d="M 238.364631 194.016 
L 292.473722 194.016 
" clip-path="url(#p91de04e413)" style="fill: none; stroke: #bcbd22; stroke-width: 1.5; stroke-linecap: square"/>
   </g>
   <g id="line2d_85">
    <path d="M 238.364631 194.016 
L 292.473722 194.016 
" clip-path="url(#p91de04e413)" style="fill: none; stroke: #17becf; stroke-width: 1.5; stroke-linecap: square"/>
   </g>
   <g id="line2d_86">
    <path d="M 238.364631 194.016 
L 292.473722 194.016 
" clip-path="url(#p91de04e413)" style="fill: none; stroke: #1f77b4; stroke-width: 1.5; stroke-linecap: square"/>
   </g>
   <g id="line2d_87">
    <path d="M 238.364631 194.016 
L 292.473722 194.016 
" clip-path="url(#p91de04e413)" style="fill: none; stroke: #ff7f0e; stroke-width: 1.5; stroke-linecap: square"/>
   </g>
   <g id="line2d_88">
    <path d="M 238.364631 194.016 
L 292.473722 194.016 
" clip-path="url(#p91de04e413)" style="fill: none; stroke: #2ca02c; stroke-width: 1.5; stroke-linecap: square"/>
   </g>
   <g id="line2d_89">
    <path d="M 238.364631 194.016 
L 292.473722 194.016 
" clip-path="url(#p91de04e413)" style="fill: none; stroke: #d62728; stroke-width: 1.5; stroke-linecap: square"/>
   </g>
   <g id="line2d_90">
    <path d="M 238.364631 194.016 
L 292.473722 194.016 
" clip-path="url(#p91de04e413)" style="fill: none; stroke: #9467bd; stroke-width: 1.5; stroke-linecap: square"/>
   </g>
   <g id="line2d_91">
    <path d="M 238.364631 194.016 
L 292.473722 194.016 
" clip-path="url(#p91de04e413)" style="fill: none; stroke: #8c564b; stroke-width: 1.5; stroke-linecap: square"/>
   </g>
   <g id="line2d_92">
    <path d="M 238.364631 194.016 
L 292.473722 194.016 
" clip-path="url(#p91de04e413)" style="fill: none; stroke: #e377c2; stroke-width: 1.5; stroke-linecap: square"/>
   </g>
   <g id="line2d_93">
    <path d="M 238.364631 194.016 
L 292.473722 194.016 
" clip-path="url(#p91de04e413)" style="fill: none; stroke: #7f7f7f; stroke-width: 1.5; stroke-linecap: square"/>
   </g>
   <g id="line2d_94">
    <path d="M 238.364631 194.016 
L 292.473722 194.016 
" clip-path="url(#p91de04e413)" style="fill: none; stroke: #bcbd22; stroke-width: 1.5; stroke-linecap: square"/>
   </g>
   <g id="line2d_95">
    <path d="M 238.364631 194.016 
L 292.473722 194.016 
" clip-path="url(#p91de04e413)" style="fill: none; stroke: #17becf; stroke-width: 1.5; stroke-linecap: square"/>
   </g>
   <g id="line2d_96">
    <path d="M 238.364631 194.016 
L 292.473722 194.016 
" clip-path="url(#p91de04e413)" style="fill: none; stroke: #1f77b4; stroke-width: 1.5; stroke-linecap: square"/>
   </g>
   <g id="line2d_97">
    <path d="M 238.364631 194.016 
L 292.473722 194.016 
" clip-path="url(#p91de04e413)" style="fill: none; stroke: #ff7f0e; stroke-width: 1.5; stroke-linecap: square"/>
   </g>
   <g id="line2d_98">
    <path d="M 238.364631 194.016 
L 292.473722 194.016 
" clip-path="url(#p91de04e413)" style="fill: none; stroke: #2ca02c; stroke-width: 1.5; stroke-linecap: square"/>
   </g>
   <g id="line2d_99">
    <path d="M 238.364631 194.016 
L 292.473722 194.016 
" clip-path="url(#p91de04e413)" style="fill: none; stroke: #d62728; stroke-width: 1.5; stroke-linecap: square"/>
   </g>
   <g id="line2d_100">
    <path d="M 238.364631 194.016 
L 292.473722 194.016 
" clip-path="url(#p91de04e413)" style="fill: none; stroke: #9467bd; stroke-width: 1.5; stroke-linecap: square"/>
   </g>
   <g id="line2d_101">
    <path d="M 238.364631 194.016 
L 292.473722 194.016 
" clip-path="url(#p91de04e413)" style="fill: none; stroke: #8c564b; stroke-width: 1.5; stroke-linecap: square"/>
   </g>
   <g id="line2d_102">
    <path d="M 238.364631 194.016 
L 292.473722 194.016 
" clip-path="url(#p91de04e413)" style="fill: none; stroke: #e377c2; stroke-width: 1.5; stroke-linecap: square"/>
   </g>
   <g id="line2d_103">
    <path d="M 238.364631 194.016 
L 292.473722 194.016 
" clip-path="url(#p91de04e413)" style="fill: none; stroke: #7f7f7f; stroke-width: 1.5; stroke-linecap: square"/>
   </g>
   <g id="line2d_104">
    <path d="M 238.364631 194.016 
L 292.473722 194.016 
" clip-path="url(#p91de04e413)" style="fill: none; stroke: #bcbd22; stroke-width: 1.5; stroke-linecap: square"/>
   </g>
   <g id="line2d_105">
    <path d="M 238.364631 194.016 
L 292.473722 194.016 
" clip-path="url(#p91de04e413)" style="fill: none; stroke: #17becf; stroke-width: 1.5; stroke-linecap: square"/>
   </g>
   <g id="line2d_106">
    <path d="M 238.364631 194.016 
L 292.473722 194.016 
" clip-path="url(#p91de04e413)" style="fill: none; stroke: #1f77b4; stroke-width: 1.5; stroke-linecap: square"/>
   </g>
   <g id="line2d_107">
    <path d="M 238.364631 194.016 
L 292.473722 194.016 
" clip-path="url(#p91de04e413)" style="fill: none; stroke: #ff7f0e; stroke-width: 1.5; stroke-linecap: square"/>
   </g>
   <g id="line2d_108">
    <path d="M 238.364631 194.016 
L 292.473722 194.016 
" clip-path="url(#p91de04e413)" style="fill: none; stroke: #2ca02c; stroke-width: 1.5; stroke-linecap: square"/>
   </g>
   <g id="line2d_109">
    <path d="M 238.364631 194.016 
L 292.473722 194.016 
" clip-path="url(#p91de04e413)" style="fill: none; stroke: #d62728; stroke-width: 1.5; stroke-linecap: square"/>
   </g>
   <g id="line2d_110">
    <path d="M 238.364631 194.016 
L 292.473722 194.016 
" clip-path="url(#p91de04e413)" style="fill: none; stroke: #9467bd; stroke-width: 1.5; stroke-linecap: square"/>
   </g>
   <g id="line2d_111">
    <path d="M 238.364631 194.016 
L 292.473722 194.016 
" clip-path="url(#p91de04e413)" style="fill: none; stroke: #8c564b; stroke-width: 1.5; stroke-linecap: square"/>
   </g>
   <g id="line2d_112">
    <path d="M 238.364631 194.016 
L 292.473722 194.016 
" clip-path="url(#p91de04e413)" style="fill: none; stroke: #e377c2; stroke-width: 1.5; stroke-linecap: square"/>
   </g>
   <g id="line2d_113">
    <path d="M 238.364631 194.016 
L 292.473722 194.016 
" clip-path="url(#p91de04e413)" style="fill: none; stroke: #7f7f7f; stroke-width: 1.5; stroke-linecap: square"/>
   </g>
   <g id="line2d_114">
    <path d="M 238.364631 194.016 
L 292.473722 194.016 
" clip-path="url(#p91de04e413)" style="fill: none; stroke: #bcbd22; stroke-width: 1.5; stroke-linecap: square"/>
   </g>
   <g id="line2d_115">
    <path d="M 238.364631 194.016 
L 292.473722 194.016 
" clip-path="url(#p91de04e413)" style="fill: none; stroke: #17becf; stroke-width: 1.5; stroke-linecap: square"/>
   </g>
   <g id="line2d_116">
    <path d="M 238.364631 194.016 
L 292.473722 194.016 
" clip-path="url(#p91de04e413)" style="fill: none; stroke: #1f77b4; stroke-width: 1.5; stroke-linecap: square"/>
   </g>
   <g id="line2d_117">
    <path d="M 238.364631 194.016 
L 292.473722 194.016 
" clip-path="url(#p91de04e413)" style="fill: none; stroke: #ff7f0e; stroke-width: 1.5; stroke-linecap: square"/>
   </g>
   <g id="line2d_118">
    <path d="M 238.364631 194.016 
L 292.473722 194.016 
" clip-path="url(#p91de04e413)" style="fill: none; stroke: #2ca02c; stroke-width: 1.5; stroke-linecap: square"/>
   </g>
   <g id="line2d_119">
    <path d="M 238.364631 194.016 
L 292.473722 194.016 
" clip-path="url(#p91de04e413)" style="fill: none; stroke: #d62728; stroke-width: 1.5; stroke-linecap: square"/>
   </g>
   <g id="line2d_120">
    <path d="M 238.364631 194.016 
L 238.911187 194.016 
L 239.457744 194.016 
L 240.0043 194.016 
L 240.550857 194.016 
L 241.097413 194.016 
L 241.64397 194.016 
L 242.190526 194.016 
L 242.737082 194.016 
L 243.283639 194.016 
L 243.830195 194.016 
L 244.376752 194.016 
L 244.923308 194.016 
L 245.469865 194.016 
L 246.016421 194.016 
L 246.562978 194.016 
L 247.109534 194.016 
L 247.656091 194.016 
L 248.202647 194.016 
L 248.749204 194.016 
L 249.29576 194.016 
L 249.842317 194.016 
L 250.388873 194.016 
L 250.93543 194.016 
L 251.481986 194.016 
L 252.028543 194.016 
L 252.575099 194.016 
L 253.121655 194.016 
L 253.668212 194.016 
L 254.214768 194.016 
L 254.761325 194.016 
L 255.307881 194.016 
L 255.854438 194.016 
L 256.400994 194.016 
L 256.947551 194.016 
L 257.494107 194.016 
L 258.040664 194.016 
L 258.58722 194.016 
L 259.133777 194.016 
L 259.680333 194.016 
L 260.22689 194.016 
L 260.773446 194.016 
L 261.320003 194.016 
L 261.866559 194.016 
L 262.413116 194.016 
L 262.959672 194.016 
L 263.506228 194.016 
L 264.052785 194.016 
L 264.599341 194.016 
L 265.145898 194.016 
L 265.692454 194.016 
L 266.239011 194.016 
L 266.785567 194.016 
L 267.332124 194.016 
L 267.87868 194.016 
L 268.425237 194.016 
L 268.971793 194.016 
L 269.51835 194.016 
L 270.064906 194.016 
L 270.611463 194.016 
L 271.158019 194.016 
L 271.704576 194.016 
L 272.251132 194.016 
L 272.797689 194.016 
L 273.344245 194.016 
L 273.890801 194.016 
L 274.437358 194.016 
L 274.983914 194.016 
L 275.530471 194.016 
L 276.077027 194.016 
L 276.623584 194.016 
L 277.17014 194.016 
L 277.716697 194.016 
L 278.263253 194.016 
L 278.80981 194.016 
L 279.356366 194.016 
L 279.902923 194.016 
L 280.449479 194.016 
L 280.996036 194.016 
L 281.542592 194.016 
L 282.089149 194.016 
L 282.635705 194.016 
L 283.182262 194.016 
L 283.728818 194.016 
L 284.275374 194.016 
L 284.821931 194.016 
L 285.368487 194.016 
L 285.915044 194.016 
L 286.4616 194.016 
L 287.008157 194.016 
L 287.554713 194.016 
L 288.10127 194.016 
L 288.647826 194.016 
L 289.194383 194.016 
L 289.740939 194.016 
L 290.287496 194.016 
L 290.834052 194.016 
L 291.380609 194.016 
L 291.927165 194.016 
L 292.473722 194.016 
" clip-path="url(#p91de04e413)" style="fill: none; stroke: #9467bd; stroke-width: 1.5; stroke-linecap: square"/>
   </g>
   <g id="line2d_121">
    <path d="M 292.473722 86.496 
L 373.637358 86.496 
" clip-path="url(#p91de04e413)" style="fill: none; stroke: #8c564b; stroke-width: 1.5; stroke-linecap: square"/>
   </g>
   <g id="line2d_122">
    <path d="M 292.473722 86.496 
L 373.637358 86.496 
" clip-path="url(#p91de04e413)" style="fill: none; stroke: #e377c2; stroke-width: 1.5; stroke-linecap: square"/>
   </g>
   <g id="line2d_123">
    <path d="M 292.473722 86.496 
L 373.637358 86.496 
" clip-path="url(#p91de04e413)" style="fill: none; stroke: #7f7f7f; stroke-width: 1.5; stroke-linecap: square"/>
   </g>
   <g id="line2d_124">
    <path d="M 292.473722 86.496 
L 373.637358 86.496 
" clip-path="url(#p91de04e413)" style="fill: none; stroke: #bcbd22; stroke-width: 1.5; stroke-linecap: square"/>
   </g>
   <g id="line2d_125">
    <path d="M 292.473722 86.496 
L 373.637358 86.496 
" clip-path="url(#p91de04e413)" style="fill: none; stroke: #17becf; stroke-width: 1.5; stroke-linecap: square"/>
   </g>
   <g id="line2d_126">
    <path d="M 292.473722 86.496 
L 373.637358 86.496 
" clip-path="url(#p91de04e413)" style="fill: none; stroke: #1f77b4; stroke-width: 1.5; stroke-linecap: square"/>
   </g>
   <g id="line2d_127">
    <path d="M 292.473722 86.496 
L 373.637358 86.496 
" clip-path="url(#p91de04e413)" style="fill: none; stroke: #ff7f0e; stroke-width: 1.5; stroke-linecap: square"/>
   </g>
   <g id="line2d_128">
    <path d="M 292.473722 86.496 
L 373.637358 86.496 
" clip-path="url(#p91de04e413)" style="fill: none; stroke: #2ca02c; stroke-width: 1.5; stroke-linecap: square"/>
   </g>
   <g id="line2d_129">
    <path d="M 292.473722 86.496 
L 373.637358 86.496 
" clip-path="url(#p91de04e413)" style="fill: none; stroke: #d62728; stroke-width: 1.5; stroke-linecap: square"/>
   </g>
   <g id="line2d_130">
    <path d="M 292.473722 86.496 
L 373.637358 86.496 
" clip-path="url(#p91de04e413)" style="fill: none; stroke: #9467bd; stroke-width: 1.5; stroke-linecap: square"/>
   </g>
   <g id="line2d_131">
    <path d="M 292.473722 86.496 
L 373.637358 86.496 
" clip-path="url(#p91de04e413)" style="fill: none; stroke: #8c564b; stroke-width: 1.5; stroke-linecap: square"/>
   </g>
   <g id="line2d_132">
    <path d="M 292.473722 86.496 
L 373.637358 86.496 
" clip-path="url(#p91de04e413)" style="fill: none; stroke: #e377c2; stroke-width: 1.5; stroke-linecap: square"/>
   </g>
   <g id="line2d_133">
    <path d="M 292.473722 86.496 
L 373.637358 86.496 
" clip-path="url(#p91de04e413)" style="fill: none; stroke: #7f7f7f; stroke-width: 1.5; stroke-linecap: square"/>
   </g>
   <g id="line2d_134">
    <path d="M 292.473722 86.496 
L 373.637358 86.496 
" clip-path="url(#p91de04e413)" style="fill: none; stroke: #bcbd22; stroke-width: 1.5; stroke-linecap: square"/>
   </g>
   <g id="line2d_135">
    <path d="M 292.473722 86.496 
L 373.637358 86.496 
" clip-path="url(#p91de04e413)" style="fill: none; stroke: #17becf; stroke-width: 1.5; stroke-linecap: square"/>
   </g>
   <g id="line2d_136">
    <path d="M 292.473722 86.496 
L 373.637358 86.496 
" clip-path="url(#p91de04e413)" style="fill: none; stroke: #1f77b4; stroke-width: 1.5; stroke-linecap: square"/>
   </g>
   <g id="line2d_137">
    <path d="M 292.473722 86.496 
L 373.637358 86.496 
" clip-path="url(#p91de04e413)" style="fill: none; stroke: #ff7f0e; stroke-width: 1.5; stroke-linecap: square"/>
   </g>
   <g id="line2d_138">
    <path d="M 292.473722 86.496 
L 373.637358 86.496 
" clip-path="url(#p91de04e413)" style="fill: none; stroke: #2ca02c; stroke-width: 1.5; stroke-linecap: square"/>
   </g>
   <g id="line2d_139">
    <path d="M 292.473722 86.496 
L 373.637358 86.496 
" clip-path="url(#p91de04e413)" style="fill: none; stroke: #d62728; stroke-width: 1.5; stroke-linecap: square"/>
   </g>
   <g id="line2d_140">
    <path d="M 292.473722 86.496 
L 373.637358 86.496 
" clip-path="url(#p91de04e413)" style="fill: none; stroke: #9467bd; stroke-width: 1.5; stroke-linecap: square"/>
   </g>
   <g id="line2d_141">
    <path d="M 292.473722 86.496 
L 373.637358 86.496 
" clip-path="url(#p91de04e413)" style="fill: none; stroke: #8c564b; stroke-width: 1.5; stroke-linecap: square"/>
   </g>
   <g id="line2d_142">
    <path d="M 292.473722 86.496 
L 373.637358 86.496 
" clip-path="url(#p91de04e413)" style="fill: none; stroke: #e377c2; stroke-width: 1.5; stroke-linecap: square"/>
   </g>
   <g id="line2d_143">
    <path d="M 292.473722 86.496 
L 373.637358 86.496 
" clip-path="url(#p91de04e413)" style="fill: none; stroke: #7f7f7f; stroke-width: 1.5; stroke-linecap: square"/>
   </g>
   <g id="line2d_144">
    <path d="M 292.473722 86.496 
L 373.637358 86.496 
" clip-path="url(#p91de04e413)" style="fill: none; stroke: #bcbd22; stroke-width: 1.5; stroke-linecap: square"/>
   </g>
   <g id="line2d_145">
    <path d="M 292.473722 86.496 
L 373.637358 86.496 
" clip-path="url(#p91de04e413)" style="fill: none; stroke: #17becf; stroke-width: 1.5; stroke-linecap: square"/>
   </g>
   <g id="line2d_146">
    <path d="M 292.473722 86.496 
L 373.637358 86.496 
" clip-path="url(#p91de04e413)" style="fill: none; stroke: #1f77b4; stroke-width: 1.5; stroke-linecap: square"/>
   </g>
   <g id="line2d_147">
    <path d="M 292.473722 86.496 
L 373.637358 86.496 
" clip-path="url(#p91de04e413)" style="fill: none; stroke: #ff7f0e; stroke-width: 1.5; stroke-linecap: square"/>
   </g>
   <g id="line2d_148">
    <path d="M 292.473722 86.496 
L 373.637358 86.496 
" clip-path="url(#p91de04e413)" style="fill: none; stroke: #2ca02c; stroke-width: 1.5; stroke-linecap: square"/>
   </g>
   <g id="line2d_149">
    <path d="M 292.473722 86.496 
L 373.637358 86.496 
" clip-path="url(#p91de04e413)" style="fill: none; stroke: #d62728; stroke-width: 1.5; stroke-linecap: square"/>
   </g>
   <g id="line2d_150">
    <path d="M 292.473722 86.496 
L 373.637358 86.496 
" clip-path="url(#p91de04e413)" style="fill: none; stroke: #9467bd; stroke-width: 1.5; stroke-linecap: square"/>
   </g>
   <g id="line2d_151">
    <path d="M 292.473722 86.496 
L 373.637358 86.496 
" clip-path="url(#p91de04e413)" style="fill: none; stroke: #8c564b; stroke-width: 1.5; stroke-linecap: square"/>
   </g>
   <g id="line2d_152">
    <path d="M 292.473722 86.496 
L 373.637358 86.496 
" clip-path="url(#p91de04e413)" style="fill: none; stroke: #e377c2; stroke-width: 1.5; stroke-linecap: square"/>
   </g>
   <g id="line2d_153">
    <path d="M 292.473722 86.496 
L 373.637358 86.496 
" clip-path="url(#p91de04e413)" style="fill: none; stroke: #7f7f7f; stroke-width: 1.5; stroke-linecap: square"/>
   </g>
   <g id="line2d_154">
    <path d="M 292.473722 86.496 
L 373.637358 86.496 
" clip-path="url(#p91de04e413)" style="fill: none; stroke: #bcbd22; stroke-width: 1.5; stroke-linecap: square"/>
   </g>
   <g id="line2d_155">
    <path d="M 292.473722 86.496 
L 373.637358 86.496 
" clip-path="url(#p91de04e413)" style="fill: none; stroke: #17becf; stroke-width: 1.5; stroke-linecap: square"/>
   </g>
   <g id="line2d_156">
    <path d="M 292.473722 86.496 
L 373.637358 86.496 
" clip-path="url(#p91de04e413)" style="fill: none; stroke: #1f77b4; stroke-width: 1.5; stroke-linecap: square"/>
   </g>
   <g id="line2d_157">
    <path d="M 292.473722 86.496 
L 373.637358 86.496 
" clip-path="url(#p91de04e413)" style="fill: none; stroke: #ff7f0e; stroke-width: 1.5; stroke-linecap: square"/>
   </g>
   <g id="line2d_158">
    <path d="M 292.473722 86.496 
L 373.637358 86.496 
" clip-path="url(#p91de04e413)" style="fill: none; stroke: #2ca02c; stroke-width: 1.5; stroke-linecap: square"/>
   </g>
   <g id="line2d_159">
    <path d="M 292.473722 86.496 
L 373.637358 86.496 
" clip-path="url(#p91de04e413)" style="fill: none; stroke: #d62728; stroke-width: 1.5; stroke-linecap: square"/>
   </g>
   <g id="line2d_160">
    <path d="M 292.473722 86.496 
L 373.637358 86.496 
" clip-path="url(#p91de04e413)" style="fill: none; stroke: #9467bd; stroke-width: 1.5; stroke-linecap: square"/>
   </g>
   <g id="line2d_161">
    <path d="M 292.473722 86.496 
L 373.637358 86.496 
" clip-path="url(#p91de04e413)" style="fill: none; stroke: #8c564b; stroke-width: 1.5; stroke-linecap: square"/>
   </g>
   <g id="line2d_162">
    <path d="M 292.473722 86.496 
L 373.637358 86.496 
" clip-path="url(#p91de04e413)" style="fill: none; stroke: #e377c2; stroke-width: 1.5; stroke-linecap: square"/>
   </g>
   <g id="line2d_163">
    <path d="M 292.473722 86.496 
L 373.637358 86.496 
" clip-path="url(#p91de04e413)" style="fill: none; stroke: #7f7f7f; stroke-width: 1.5; stroke-linecap: square"/>
   </g>
   <g id="line2d_164">
    <path d="M 292.473722 86.496 
L 373.637358 86.496 
" clip-path="url(#p91de04e413)" style="fill: none; stroke: #bcbd22; stroke-width: 1.5; stroke-linecap: square"/>
   </g>
   <g id="line2d_165">
    <path d="M 292.473722 86.496 
L 373.637358 86.496 
" clip-path="url(#p91de04e413)" style="fill: none; stroke: #17becf; stroke-width: 1.5; stroke-linecap: square"/>
   </g>
   <g id="line2d_166">
    <path d="M 292.473722 86.496 
L 373.637358 86.496 
" clip-path="url(#p91de04e413)" style="fill: none; stroke: #1f77b4; stroke-width: 1.5; stroke-linecap: square"/>
   </g>
   <g id="line2d_167">
    <path d="M 292.473722 86.496 
L 373.637358 86.496 
" clip-path="url(#p91de04e413)" style="fill: none; stroke: #ff7f0e; stroke-width: 1.5; stroke-linecap: square"/>
   </g>
   <g id="line2d_168">
    <path d="M 292.473722 86.496 
L 373.637358 86.496 
" clip-path="url(#p91de04e413)" style="fill: none; stroke: #2ca02c; stroke-width: 1.5; stroke-linecap: square"/>
   </g>
   <g id="line2d_169">
    <path d="M 292.473722 86.496 
L 373.637358 86.496 
" clip-path="url(#p91de04e413)" style="fill: none; stroke: #d62728; stroke-width: 1.5; stroke-linecap: square"/>
   </g>
   <g id="line2d_170">
    <path d="M 292.473722 86.496 
L 373.637358 86.496 
" clip-path="url(#p91de04e413)" style="fill: none; stroke: #9467bd; stroke-width: 1.5; stroke-linecap: square"/>
   </g>
   <g id="line2d_171">
    <path d="M 292.473722 86.496 
L 373.637358 86.496 
" clip-path="url(#p91de04e413)" style="fill: none; stroke: #8c564b; stroke-width: 1.5; stroke-linecap: square"/>
   </g>
   <g id="line2d_172">
    <path d="M 292.473722 86.496 
L 373.637358 86.496 
" clip-path="url(#p91de04e413)" style="fill: none; stroke: #e377c2; stroke-width: 1.5; stroke-linecap: square"/>
   </g>
   <g id="line2d_173">
    <path d="M 292.473722 86.496 
L 373.637358 86.496 
" clip-path="url(#p91de04e413)" style="fill: none; stroke: #7f7f7f; stroke-width: 1.5; stroke-linecap: square"/>
   </g>
   <g id="line2d_174">
    <path d="M 292.473722 86.496 
L 373.637358 86.496 
" clip-path="url(#p91de04e413)" style="fill: none; stroke: #bcbd22; stroke-width: 1.5; stroke-linecap: square"/>
   </g>
   <g id="line2d_175">
    <path d="M 292.473722 86.496 
L 373.637358 86.496 
" clip-path="url(#p91de04e413)" style="fill: none; stroke: #17becf; stroke-width: 1.5; stroke-linecap: square"/>
   </g>
   <g id="line2d_176">
    <path d="M 292.473722 86.496 
L 373.637358 86.496 
" clip-path="url(#p91de04e413)" style="fill: none; stroke: #1f77b4; stroke-width: 1.5; stroke-linecap: square"/>
   </g>
   <g id="line2d_177">
    <path d="M 292.473722 86.496 
L 373.637358 86.496 
" clip-path="url(#p91de04e413)" style="fill: none; stroke: #ff7f0e; stroke-width: 1.5; stroke-linecap: square"/>
   </g>
   <g id="line2d_178">
    <path d="M 292.473722 86.496 
L 373.637358 86.496 
" clip-path="url(#p91de04e413)" style="fill: none; stroke: #2ca02c; stroke-width: 1.5; stroke-linecap: square"/>
   </g>
   <g id="line2d_179">
    <path d="M 292.473722 86.496 
L 373.637358 86.496 
" clip-path="url(#p91de04e413)" style="fill: none; stroke: #d62728; stroke-width: 1.5; stroke-linecap: square"/>
   </g>
   <g id="line2d_180">
    <path d="M 292.473722 86.496 
L 373.637358 86.496 
" clip-path="url(#p91de04e413)" style="fill: none; stroke: #9467bd; stroke-width: 1.5; stroke-linecap: square"/>
   </g>
   <g id="line2d_181">
    <path d="M 292.473722 86.496 
L 373.637358 86.496 
" clip-path="url(#p91de04e413)" style="fill: none; stroke: #8c564b; stroke-width: 1.5; stroke-linecap: square"/>
   </g>
   <g id="line2d_182">
    <path d="M 292.473722 86.496 
L 373.637358 86.496 
" clip-path="url(#p91de04e413)" style="fill: none; stroke: #e377c2; stroke-width: 1.5; stroke-linecap: square"/>
   </g>
   <g id="line2d_183">
    <path d="M 292.473722 86.496 
L 373.637358 86.496 
" clip-path="url(#p91de04e413)" style="fill: none; stroke: #7f7f7f; stroke-width: 1.5; stroke-linecap: square"/>
   </g>
   <g id="line2d_184">
    <path d="M 292.473722 86.496 
L 373.637358 86.496 
" clip-path="url(#p91de04e413)" style="fill: none; stroke: #bcbd22; stroke-width: 1.5; stroke-linecap: square"/>
   </g>
   <g id="line2d_185">
    <path d="M 292.473722 86.496 
L 373.637358 86.496 
" clip-path="url(#p91de04e413)" style="fill: none; stroke: #17becf; stroke-width: 1.5; stroke-linecap: square"/>
   </g>
   <g id="line2d_186">
    <path d="M 292.473722 86.496 
L 373.637358 86.496 
" clip-path="url(#p91de04e413)" style="fill: none; stroke: #1f77b4; stroke-width: 1.5; stroke-linecap: square"/>
   </g>
   <g id="line2d_187">
    <path d="M 292.473722 86.496 
L 373.637358 86.496 
" clip-path="url(#p91de04e413)" style="fill: none; stroke: #ff7f0e; stroke-width: 1.5; stroke-linecap: square"/>
   </g>
   <g id="line2d_188">
    <path d="M 292.473722 86.496 
L 373.637358 86.496 
" clip-path="url(#p91de04e413)" style="fill: none; stroke: #2ca02c; stroke-width: 1.5; stroke-linecap: square"/>
   </g>
   <g id="line2d_189">
    <path d="M 292.473722 86.496 
L 373.637358 86.496 
" clip-path="url(#p91de04e413)" style="fill: none; stroke: #d62728; stroke-width: 1.5; stroke-linecap: square"/>
   </g>
   <g id="line2d_190">
    <path d="M 292.473722 86.496 
L 373.637358 86.496 
" clip-path="url(#p91de04e413)" style="fill: none; stroke: #9467bd; stroke-width: 1.5; stroke-linecap: square"/>
   </g>
   <g id="line2d_191">
    <path d="M 292.473722 86.496 
L 373.637358 86.496 
" clip-path="url(#p91de04e413)" style="fill: none; stroke: #8c564b; stroke-width: 1.5; stroke-linecap: square"/>
   </g>
   <g id="line2d_192">
    <path d="M 292.473722 86.496 
L 373.637358 86.496 
" clip-path="url(#p91de04e413)" style="fill: none; stroke: #e377c2; stroke-width: 1.5; stroke-linecap: square"/>
   </g>
   <g id="line2d_193">
    <path d="M 292.473722 86.496 
L 373.637358 86.496 
" clip-path="url(#p91de04e413)" style="fill: none; stroke: #7f7f7f; stroke-width: 1.5; stroke-linecap: square"/>
   </g>
   <g id="line2d_194">
    <path d="M 292.473722 86.496 
L 373.637358 86.496 
" clip-path="url(#p91de04e413)" style="fill: none; stroke: #bcbd22; stroke-width: 1.5; stroke-linecap: square"/>
   </g>
   <g id="line2d_195">
    <path d="M 292.473722 86.496 
L 373.637358 86.496 
" clip-path="url(#p91de04e413)" style="fill: none; stroke: #17becf; stroke-width: 1.5; stroke-linecap: square"/>
   </g>
   <g id="line2d_196">
    <path d="M 292.473722 86.496 
L 373.637358 86.496 
" clip-path="url(#p91de04e413)" style="fill: none; stroke: #1f77b4; stroke-width: 1.5; stroke-linecap: square"/>
   </g>
   <g id="line2d_197">
    <path d="M 292.473722 86.496 
L 373.637358 86.496 
" clip-path="url(#p91de04e413)" style="fill: none; stroke: #ff7f0e; stroke-width: 1.5; stroke-linecap: square"/>
   </g>
   <g id="line2d_198">
    <path d="M 292.473722 86.496 
L 373.637358 86.496 
" clip-path="url(#p91de04e413)" style="fill: none; stroke: #2ca02c; stroke-width: 1.5; stroke-linecap: square"/>
   </g>
   <g id="line2d_199">
    <path d="M 292.473722 86.496 
L 373.637358 86.496 
" clip-path="url(#p91de04e413)" style="fill: none; stroke: #d62728; stroke-width: 1.5; stroke-linecap: square"/>
   </g>
   <g id="line2d_200">
    <path d="M 292.473722 86.496 
L 373.637358 86.496 
" clip-path="url(#p91de04e413)" style="fill: none; stroke: #9467bd; stroke-width: 1.5; stroke-linecap: square"/>
   </g>
   <g id="line2d_201">
    <path d="M 292.473722 86.496 
L 373.637358 86.496 
" clip-path="url(#p91de04e413)" style="fill: none; stroke: #8c564b; stroke-width: 1.5; stroke-linecap: square"/>
   </g>
   <g id="line2d_202">
    <path d="M 292.473722 86.496 
L 373.637358 86.496 
" clip-path="url(#p91de04e413)" style="fill: none; stroke: #e377c2; stroke-width: 1.5; stroke-linecap: square"/>
   </g>
   <g id="line2d_203">
    <path d="M 292.473722 86.496 
L 373.637358 86.496 
" clip-path="url(#p91de04e413)" style="fill: none; stroke: #7f7f7f; stroke-width: 1.5; stroke-linecap: square"/>
   </g>
   <g id="line2d_204">
    <path d="M 292.473722 86.496 
L 373.637358 86.496 
" clip-path="url(#p91de04e413)" style="fill: none; stroke: #bcbd22; stroke-width: 1.5; stroke-linecap: square"/>
   </g>
   <g id="line2d_205">
    <path d="M 292.473722 86.496 
L 373.637358 86.496 
" clip-path="url(#p91de04e413)" style="fill: none; stroke: #17becf; stroke-width: 1.5; stroke-linecap: square"/>
   </g>
   <g id="line2d_206">
    <path d="M 292.473722 86.496 
L 373.637358 86.496 
" clip-path="url(#p91de04e413)" style="fill: none; stroke: #1f77b4; stroke-width: 1.5; stroke-linecap: square"/>
   </g>
   <g id="line2d_207">
    <path d="M 292.473722 86.496 
L 373.637358 86.496 
" clip-path="url(#p91de04e413)" style="fill: none; stroke: #ff7f0e; stroke-width: 1.5; stroke-linecap: square"/>
   </g>
   <g id="line2d_208">
    <path d="M 292.473722 86.496 
L 373.637358 86.496 
" clip-path="url(#p91de04e413)" style="fill: none; stroke: #2ca02c; stroke-width: 1.5; stroke-linecap: square"/>
   </g>
   <g id="line2d_209">
    <path d="M 292.473722 86.496 
L 373.637358 86.496 
" clip-path="url(#p91de04e413)" style="fill: none; stroke: #d62728; stroke-width: 1.5; stroke-linecap: square"/>
   </g>
   <g id="line2d_210">
    <path d="M 292.473722 86.496 
L 373.637358 86.496 
" clip-path="url(#p91de04e413)" style="fill: none; stroke: #9467bd; stroke-width: 1.5; stroke-linecap: square"/>
   </g>
   <g id="line2d_211">
    <path d="M 292.473722 86.496 
L 373.637358 86.496 
" clip-path="url(#p91de04e413)" style="fill: none; stroke: #8c564b; stroke-width: 1.5; stroke-linecap: square"/>
   </g>
   <g id="line2d_212">
    <path d="M 292.473722 86.496 
L 373.637358 86.496 
" clip-path="url(#p91de04e413)" style="fill: none; stroke: #e377c2; stroke-width: 1.5; stroke-linecap: square"/>
   </g>
   <g id="line2d_213">
    <path d="M 292.473722 86.496 
L 373.637358 86.496 
" clip-path="url(#p91de04e413)" style="fill: none; stroke: #7f7f7f; stroke-width: 1.5; stroke-linecap: square"/>
   </g>
   <g id="line2d_214">
    <path d="M 292.473722 86.496 
L 373.637358 86.496 
" clip-path="url(#p91de04e413)" style="fill: none; stroke: #bcbd22; stroke-width: 1.5; stroke-linecap: square"/>
   </g>
   <g id="line2d_215">
    <path d="M 292.473722 86.496 
L 373.637358 86.496 
" clip-path="url(#p91de04e413)" style="fill: none; stroke: #17becf; stroke-width: 1.5; stroke-linecap: square"/>
   </g>
   <g id="line2d_216">
    <path d="M 292.473722 86.496 
L 373.637358 86.496 
" clip-path="url(#p91de04e413)" style="fill: none; stroke: #1f77b4; stroke-width: 1.5; stroke-linecap: square"/>
   </g>
   <g id="line2d_217">
    <path d="M 292.473722 86.496 
L 373.637358 86.496 
" clip-path="url(#p91de04e413)" style="fill: none; stroke: #ff7f0e; stroke-width: 1.5; stroke-linecap: square"/>
   </g>
   <g id="line2d_218">
    <path d="M 292.473722 86.496 
L 373.637358 86.496 
" clip-path="url(#p91de04e413)" style="fill: none; stroke: #2ca02c; stroke-width: 1.5; stroke-linecap: square"/>
   </g>
   <g id="line2d_219">
    <path d="M 292.473722 86.496 
L 373.637358 86.496 
" clip-path="url(#p91de04e413)" style="fill: none; stroke: #d62728; stroke-width: 1.5; stroke-linecap: square"/>
   </g>
   <g id="line2d_220">
    <path d="M 292.473722 86.496 
L 373.637358 86.496 
" clip-path="url(#p91de04e413)" style="fill: none; stroke: #9467bd; stroke-width: 1.5; stroke-linecap: square"/>
   </g>
   <g id="line2d_221">
    <path d="M 292.473722 86.496 
L 293.293556 86.496 
L 294.113391 86.496 
L 294.933226 86.496 
L 295.75306 86.496 
L 296.572895 86.496 
L 297.39273 86.496 
L 298.212565 86.496 
L 299.032399 86.496 
L 299.852234 86.496 
L 300.672069 86.496 
L 301.491903 86.496 
L 302.311738 86.496 
L 303.131573 86.496 
L 303.951408 86.496 
L 304.771242 86.496 
L 305.591077 86.496 
L 306.410912 86.496 
L 307.230746 86.496 
L 308.050581 86.496 
L 308.870416 86.496 
L 309.690251 86.496 
L 310.510085 86.496 
L 311.32992 86.496 
L 312.149755 86.496 
L 312.969589 86.496 
L 313.789424 86.496 
L 314.609259 86.496 
L 315.429093 86.496 
L 316.248928 86.496 
L 317.068763 86.496 
L 317.888598 86.496 
L 318.708432 86.496 
L 319.528267 86.496 
L 320.348102 86.496 
L 321.167936 86.496 
L 321.987771 86.496 
L 322.807606 86.496 
L 323.627441 86.496 
L 324.447275 86.496 
L 325.26711 86.496 
L 326.086945 86.496 
L 326.906779 86.496 
L 327.726614 86.496 
L 328.546449 86.496 
L 329.366284 86.496 
L 330.186118 86.496 
L 331.005953 86.496 
L 331.825788 86.496 
L 332.645622 86.496 
L 333.465457 86.496 
L 334.285292 86.496 
L 335.105127 86.496 
L 335.924961 86.496 
L 336.744796 86.496 
L 337.564631 86.496 
L 338.384465 86.496 
L 339.2043 86.496 
L 340.024135 86.496 
L 340.84397 86.496 
L 341.663804 86.496 
L 342.483639 86.496 
L 343.303474 86.496 
L 344.123308 86.496 
L 344.943143 86.496 
L 345.762978 86.496 
L 346.582813 86.496 
L 347.402647 86.496 
L 348.222482 86.496 
L 349.042317 86.496 
L 349.862151 86.496 
L 350.681986 86.496 
L 351.501821 86.496 
L 352.321655 86.496 
L 353.14149 86.496 
L 353.961325 86.496 
L 354.78116 86.496 
L 355.600994 86.496 
L 356.420829 86.496 
L 357.240664 86.496 
L 358.060498 86.496 
L 358.880333 86.496 
L 359.700168 86.496 
L 360.520003 86.496 
L 361.339837 86.496 
L 362.159672 86.496 
L 362.979507 86.496 
L 363.799341 86.496 
L 364.619176 86.496 
L 365.439011 86.496 
L 366.258846 86.496 
L 367.07868 86.496 
L 367.898515 86.496 
L 368.71835 86.496 
L 369.538184 86.496 
L 370.358019 86.496 
L 371.177854 86.496 
L 371.997689 86.496 
L 372.817523 86.496 
L 373.637358 86.496 
" clip-path="url(#p91de04e413)" style="fill: none; stroke: #8c564b; stroke-width: 1.5; stroke-linecap: square"/>
   </g>
   <g id="patch_3">
    <path d="M 48.982812 273.312 
L 48.982812 7.2 
" style="fill: none; stroke: #000000; stroke-width: 0.8; stroke-linejoin: miter; stroke-linecap: square"/>
   </g>
   <g id="patch_4">
    <path d="M 389.870085 273.312 
L 389.870085 7.2 
" style="fill: none"/>
   </g>
   <g id="patch_5">
    <path d="M 32.750085 129.504 
L 389.870085 129.504 
" style="fill: none; stroke: #000000; stroke-width: 0.8; stroke-linejoin: miter; stroke-linecap: square"/>
   </g>
   <g id="patch_6">
    <path d="M 32.750085 7.2 
L 389.870085 7.2 
" style="fill: none"/>
   </g>
  </g>
 </g>
 <defs>
  <clipPath id="p91de04e413">
   <rect x="32.750085" y="7.2" width="357.12" height="266.112"/>
  </clipPath>
 </defs>
</svg>
