<?xml version="1.0" encoding="utf-8" standalone="no"?>
<!DOCTYPE svg PUBLIC "-//W3C//DTD SVG 1.1//EN"
  "http://www.w3.org/Graphics/SVG/1.1/DTD/svg11.dtd">
<svg xmlns:xlink="http://www.w3.org/1999/xlink" width="398.231023pt" height="280.512pt" viewBox="0 0 398.231023 280.512" xmlns="http://www.w3.org/2000/svg" version="1.1">
 <metadata>
  <rdf:RDF xmlns:dc="http://purl.org/dc/elements/1.1/" xmlns:cc="http://creativecommons.org/ns#" xmlns:rdf="http://www.w3.org/1999/02/22-rdf-syntax-ns#">
   <cc:Work>
    <dc:type rdf:resource="http://purl.org/dc/dcmitype/StillImage"/>
    <dc:date>2024-09-18T15:51:03.169171</dc:date>
    <dc:format>image/svg+xml</dc:format>
    <dc:creator>
     <cc:Agent>
      <dc:title>Matplotlib v3.8.0, https://matplotlib.org/</dc:title>
     </cc:Agent>
    </dc:creator>
   </cc:Work>
  </rdf:RDF>
 </metadata>
 <defs>
  <style type="text/css">*{stroke-linejoin: round; stroke-linecap: butt}</style>
 </defs>
 <g id="figure_1">
  <g id="patch_1">
   <path d="M 0 280.512 
L 398.231023 280.512 
L 398.231023 0 
L 0 0 
z
" style="fill: #ffffff"/>
  </g>
  <g id="axes_1">
   <g id="patch_2">
    <path d="M 33.911023 273.312 
L 391.031023 273.312 
L 391.031023 7.2 
L 33.911023 7.2 
z
" style="fill: #ffffff"/>
   </g>
   <g id="matplotlib.axis_1">
    <g id="xtick_1">
     <g id="line2d_1">
      <defs>
       <path id="meed4ec9c28" d="M 0 0 
L 0 3.5 
" style="stroke: #000000; stroke-width: 0.8"/>
      </defs>
      <g>
       <use xlink:href="#meed4ec9c28" x="50.14375" y="28.769462" style="stroke: #000000; stroke-width: 0.8"/>
      </g>
     </g>
     <g id="text_1">
      <!-- 0 -->
      <g transform="translate(46.9625 43.3679) scale(0.1 -0.1)">
       <defs>
        <path id="DejaVuSans-30" d="M 2034 4250 
Q 1547 4250 1301 3770 
Q 1056 3291 1056 2328 
Q 1056 1369 1301 889 
Q 1547 409 2034 409 
Q 2525 409 2770 889 
Q 3016 1369 3016 2328 
Q 3016 3291 2770 3770 
Q 2525 4250 2034 4250 
z
M 2034 4750 
Q 2819 4750 3233 4129 
Q 3647 3509 3647 2328 
Q 3647 1150 3233 529 
Q 2819 -91 2034 -91 
Q 1250 -91 836 529 
Q 422 1150 422 2328 
Q 422 3509 836 4129 
Q 1250 4750 2034 4750 
z
" transform="scale(0.015625)"/>
       </defs>
       <use xlink:href="#DejaVuSans-30"/>
      </g>
     </g>
    </g>
    <g id="xtick_2">
     <g id="line2d_2">
      <g>
       <use xlink:href="#meed4ec9c28" x="104.252841" y="28.769462" style="stroke: #000000; stroke-width: 0.8"/>
      </g>
     </g>
     <g id="text_2">
      <!-- 2 -->
      <g transform="translate(101.071591 43.3679) scale(0.1 -0.1)">
       <defs>
        <path id="DejaVuSans-32" d="M 1228 531 
L 3431 531 
L 3431 0 
L 469 0 
L 469 531 
Q 828 903 1448 1529 
Q 2069 2156 2228 2338 
Q 2531 2678 2651 2914 
Q 2772 3150 2772 3378 
Q 2772 3750 2511 3984 
Q 2250 4219 1831 4219 
Q 1534 4219 1204 4116 
Q 875 4013 500 3803 
L 500 4441 
Q 881 4594 1212 4672 
Q 1544 4750 1819 4750 
Q 2544 4750 2975 4387 
Q 3406 4025 3406 3419 
Q 3406 3131 3298 2873 
Q 3191 2616 2906 2266 
Q 2828 2175 2409 1742 
Q 1991 1309 1228 531 
z
" transform="scale(0.015625)"/>
       </defs>
       <use xlink:href="#DejaVuSans-32"/>
      </g>
     </g>
    </g>
    <g id="xtick_3">
     <g id="line2d_3">
      <g>
       <use xlink:href="#meed4ec9c28" x="158.361932" y="28.769462" style="stroke: #000000; stroke-width: 0.8"/>
      </g>
     </g>
     <g id="text_3">
      <!-- 4 -->
      <g transform="translate(155.180682 43.3679) scale(0.1 -0.1)">
       <defs>
        <path id="DejaVuSans-34" d="M 2419 4116 
L 825 1625 
L 2419 1625 
L 2419 4116 
z
M 2253 4666 
L 3047 4666 
L 3047 1625 
L 3713 1625 
L 3713 1100 
L 3047 1100 
L 3047 0 
L 2419 0 
L 2419 1100 
L 313 1100 
L 313 1709 
L 2253 4666 
z
" transform="scale(0.015625)"/>
       </defs>
       <use xlink:href="#DejaVuSans-34"/>
      </g>
     </g>
    </g>
    <g id="xtick_4">
     <g id="line2d_4">
      <g>
       <use xlink:href="#meed4ec9c28" x="212.471023" y="28.769462" style="stroke: #000000; stroke-width: 0.8"/>
      </g>
     </g>
     <g id="text_4">
      <!-- 6 -->
      <g transform="translate(209.289773 43.3679) scale(0.1 -0.1)">
       <defs>
        <path id="DejaVuSans-36" d="M 2113 2584 
Q 1688 2584 1439 2293 
Q 1191 2003 1191 1497 
Q 1191 994 1439 701 
Q 1688 409 2113 409 
Q 2538 409 2786 701 
Q 3034 994 3034 1497 
Q 3034 2003 2786 2293 
Q 2538 2584 2113 2584 
z
M 3366 4563 
L 3366 3988 
Q 3128 4100 2886 4159 
Q 2644 4219 2406 4219 
Q 1781 4219 1451 3797 
Q 1122 3375 1075 2522 
Q 1259 2794 1537 2939 
Q 1816 3084 2150 3084 
Q 2853 3084 3261 2657 
Q 3669 2231 3669 1497 
Q 3669 778 3244 343 
Q 2819 -91 2113 -91 
Q 1303 -91 875 529 
Q 447 1150 447 2328 
Q 447 3434 972 4092 
Q 1497 4750 2381 4750 
Q 2619 4750 2861 4703 
Q 3103 4656 3366 4563 
z
" transform="scale(0.015625)"/>
       </defs>
       <use xlink:href="#DejaVuSans-36"/>
      </g>
     </g>
    </g>
    <g id="xtick_5">
     <g id="line2d_5">
      <g>
       <use xlink:href="#meed4ec9c28" x="266.580114" y="28.769462" style="stroke: #000000; stroke-width: 0.8"/>
      </g>
     </g>
     <g id="text_5">
      <!-- 8 -->
      <g transform="translate(263.398864 43.3679) scale(0.1 -0.1)">
       <defs>
        <path id="DejaVuSans-38" d="M 2034 2216 
Q 1584 2216 1326 1975 
Q 1069 1734 1069 1313 
Q 1069 891 1326 650 
Q 1584 409 2034 409 
Q 2484 409 2743 651 
Q 3003 894 3003 1313 
Q 3003 1734 2745 1975 
Q 2488 2216 2034 2216 
z
M 1403 2484 
Q 997 2584 770 2862 
Q 544 3141 544 3541 
Q 544 4100 942 4425 
Q 1341 4750 2034 4750 
Q 2731 4750 3128 4425 
Q 3525 4100 3525 3541 
Q 3525 3141 3298 2862 
Q 3072 2584 2669 2484 
Q 3125 2378 3379 2068 
Q 3634 1759 3634 1313 
Q 3634 634 3220 271 
Q 2806 -91 2034 -91 
Q 1263 -91 848 271 
Q 434 634 434 1313 
Q 434 1759 690 2068 
Q 947 2378 1403 2484 
z
M 1172 3481 
Q 1172 3119 1398 2916 
Q 1625 2713 2034 2713 
Q 2441 2713 2670 2916 
Q 2900 3119 2900 3481 
Q 2900 3844 2670 4047 
Q 2441 4250 2034 4250 
Q 1625 4250 1398 4047 
Q 1172 3844 1172 3481 
z
" transform="scale(0.015625)"/>
       </defs>
       <use xlink:href="#DejaVuSans-38"/>
      </g>
     </g>
    </g>
    <g id="xtick_6">
     <g id="line2d_6">
      <g>
       <use xlink:href="#meed4ec9c28" x="320.689205" y="28.769462" style="stroke: #000000; stroke-width: 0.8"/>
      </g>
     </g>
     <g id="text_6">
      <!-- 10 -->
      <g transform="translate(314.326705 43.3679) scale(0.1 -0.1)">
       <defs>
        <path id="DejaVuSans-31" d="M 794 531 
L 1825 531 
L 1825 4091 
L 703 3866 
L 703 4441 
L 1819 4666 
L 2450 4666 
L 2450 531 
L 3481 531 
L 3481 0 
L 794 0 
L 794 531 
z
" transform="scale(0.015625)"/>
       </defs>
       <use xlink:href="#DejaVuSans-31"/>
       <use xlink:href="#DejaVuSans-30" x="63.623047"/>
      </g>
     </g>
    </g>
    <g id="xtick_7">
     <g id="line2d_7">
      <g>
       <use xlink:href="#meed4ec9c28" x="374.798295" y="28.769462" style="stroke: #000000; stroke-width: 0.8"/>
      </g>
     </g>
     <g id="text_7">
      <!-- 12 -->
      <g transform="translate(368.435795 43.3679) scale(0.1 -0.1)">
       <use xlink:href="#DejaVuSans-31"/>
       <use xlink:href="#DejaVuSans-32" x="63.623047"/>
      </g>
     </g>
    </g>
    <g id="text_8">
     <!-- $x$ -->
     <g transform="translate(209.471023 57.046025) scale(0.1 -0.1)">
      <defs>
       <path id="DejaVuSans-Oblique-78" d="M 3841 3500 
L 2234 1784 
L 3219 0 
L 2559 0 
L 1819 1388 
L 531 0 
L -166 0 
L 1556 1844 
L 641 3500 
L 1300 3500 
L 1972 2234 
L 3144 3500 
L 3841 3500 
z
" transform="scale(0.015625)"/>
      </defs>
      <use xlink:href="#DejaVuSans-Oblique-78" transform="translate(0 0.3125)"/>
     </g>
    </g>
   </g>
   <g id="matplotlib.axis_2">
    <g id="ytick_1">
     <g id="line2d_8">
      <defs>
       <path id="mc6a8bd0ed4" d="M 0 0 
L -3.5 0 
" style="stroke: #000000; stroke-width: 0.8"/>
      </defs>
      <g>
       <use xlink:href="#mc6a8bd0ed4" x="50.14375" y="28.769462" style="stroke: #000000; stroke-width: 0.8"/>
      </g>
     </g>
     <g id="text_9">
      <!-- 0.00 -->
      <g transform="translate(20.878125 32.568681) scale(0.1 -0.1)">
       <defs>
        <path id="DejaVuSans-2e" d="M 684 794 
L 1344 794 
L 1344 0 
L 684 0 
L 684 794 
z
" transform="scale(0.015625)"/>
       </defs>
       <use xlink:href="#DejaVuSans-30"/>
       <use xlink:href="#DejaVuSans-2e" x="63.623047"/>
       <use xlink:href="#DejaVuSans-30" x="95.410156"/>
       <use xlink:href="#DejaVuSans-30" x="159.033203"/>
      </g>
     </g>
    </g>
    <g id="ytick_2">
     <g id="line2d_9">
      <g>
       <use xlink:href="#mc6a8bd0ed4" x="50.14375" y="84.250295" style="stroke: #000000; stroke-width: 0.8"/>
      </g>
     </g>
     <g id="text_10">
      <!-- 0.01 -->
      <g transform="translate(20.878125 88.049514) scale(0.1 -0.1)">
       <use xlink:href="#DejaVuSans-30"/>
       <use xlink:href="#DejaVuSans-2e" x="63.623047"/>
       <use xlink:href="#DejaVuSans-30" x="95.410156"/>
       <use xlink:href="#DejaVuSans-31" x="159.033203"/>
      </g>
     </g>
    </g>
    <g id="ytick_3">
     <g id="line2d_10">
      <g>
       <use xlink:href="#mc6a8bd0ed4" x="50.14375" y="139.731128" style="stroke: #000000; stroke-width: 0.8"/>
      </g>
     </g>
     <g id="text_11">
      <!-- 0.02 -->
      <g transform="translate(20.878125 143.530347) scale(0.1 -0.1)">
       <use xlink:href="#DejaVuSans-30"/>
       <use xlink:href="#DejaVuSans-2e" x="63.623047"/>
       <use xlink:href="#DejaVuSans-30" x="95.410156"/>
       <use xlink:href="#DejaVuSans-32" x="159.033203"/>
      </g>
     </g>
    </g>
    <g id="ytick_4">
     <g id="line2d_11">
      <g>
       <use xlink:href="#mc6a8bd0ed4" x="50.14375" y="195.211961" style="stroke: #000000; stroke-width: 0.8"/>
      </g>
     </g>
     <g id="text_12">
      <!-- 0.03 -->
      <g transform="translate(20.878125 199.011179) scale(0.1 -0.1)">
       <defs>
        <path id="DejaVuSans-33" d="M 2597 2516 
Q 3050 2419 3304 2112 
Q 3559 1806 3559 1356 
Q 3559 666 3084 287 
Q 2609 -91 1734 -91 
Q 1441 -91 1130 -33 
Q 819 25 488 141 
L 488 750 
Q 750 597 1062 519 
Q 1375 441 1716 441 
Q 2309 441 2620 675 
Q 2931 909 2931 1356 
Q 2931 1769 2642 2001 
Q 2353 2234 1838 2234 
L 1294 2234 
L 1294 2753 
L 1863 2753 
Q 2328 2753 2575 2939 
Q 2822 3125 2822 3475 
Q 2822 3834 2567 4026 
Q 2313 4219 1838 4219 
Q 1578 4219 1281 4162 
Q 984 4106 628 3988 
L 628 4550 
Q 988 4650 1302 4700 
Q 1616 4750 1894 4750 
Q 2613 4750 3031 4423 
Q 3450 4097 3450 3541 
Q 3450 3153 3228 2886 
Q 3006 2619 2597 2516 
z
" transform="scale(0.015625)"/>
       </defs>
       <use xlink:href="#DejaVuSans-30"/>
       <use xlink:href="#DejaVuSans-2e" x="63.623047"/>
       <use xlink:href="#DejaVuSans-30" x="95.410156"/>
       <use xlink:href="#DejaVuSans-33" x="159.033203"/>
      </g>
     </g>
    </g>
    <g id="ytick_5">
     <g id="line2d_12">
      <g>
       <use xlink:href="#mc6a8bd0ed4" x="50.14375" y="250.692794" style="stroke: #000000; stroke-width: 0.8"/>
      </g>
     </g>
     <g id="text_13">
      <!-- 0.04 -->
      <g transform="translate(20.878125 254.492012) scale(0.1 -0.1)">
       <use xlink:href="#DejaVuSans-30"/>
       <use xlink:href="#DejaVuSans-2e" x="63.623047"/>
       <use xlink:href="#DejaVuSans-30" x="95.410156"/>
       <use xlink:href="#DejaVuSans-34" x="159.033203"/>
      </g>
     </g>
    </g>
    <g id="text_14">
     <!-- $w$ -->
     <g transform="translate(14.798437 144.356) rotate(-90) scale(0.1 -0.1)">
      <defs>
       <path id="DejaVuSans-Oblique-77" d="M 544 3500 
L 1113 3500 
L 1259 684 
L 2566 3500 
L 3231 3500 
L 3425 684 
L 4666 3500 
L 5241 3500 
L 3641 0 
L 2969 0 
L 2797 2900 
L 1459 0 
L 781 0 
L 544 3500 
z
" transform="scale(0.015625)"/>
      </defs>
      <use xlink:href="#DejaVuSans-Oblique-77" transform="translate(0 0.3125)"/>
     </g>
    </g>
   </g>
   <g id="line2d_13">
    <path d="M 50.14375 28.769462 
L 51.510141 28.824031 
L 52.876532 28.982027 
L 54.242924 29.23507 
L 55.609315 29.575032 
L 56.975706 29.994029 
L 58.342097 30.484425 
L 59.708488 31.038825 
L 61.074879 31.650079 
L 62.441271 32.311274 
L 63.807662 33.015736 
L 65.174053 33.757028 
L 66.540444 34.528946 
L 67.906835 35.325521 
L 69.273227 36.141012 
L 70.639618 36.969909 
L 72.006009 37.806929 
L 73.3724 38.647013 
L 74.738791 39.485326 
L 76.105183 40.317257 
L 77.471574 41.13841 
L 78.837965 41.944613 
L 80.204356 42.731905 
L 81.570747 43.496543 
L 82.937138 44.234994 
L 84.30353 44.943937 
L 85.669921 45.620261 
L 87.036312 46.26106 
L 88.402703 46.863634 
L 89.769094 47.425488 
L 91.135486 47.944326 
L 92.501877 48.418054 
L 93.868268 48.844774 
L 95.234659 49.222787 
L 96.60105 49.550585 
L 97.967441 49.826856 
L 99.333833 50.050475 
L 100.700224 50.220509 
L 102.066615 50.33621 
L 103.433006 50.397017 
L 104.799397 50.402551 
L 106.165789 50.352615 
L 107.53218 50.247191 
L 108.898571 50.086441 
L 110.264962 49.870701 
L 111.631353 49.600482 
L 112.997744 49.276469 
L 114.364136 48.899514 
L 115.730527 48.470642 
L 117.096918 47.991043 
L 118.463309 47.462071 
L 119.8297 46.885245 
L 121.196092 46.262246 
L 122.562483 45.594913 
L 123.928874 44.885243 
L 125.295265 44.135392 
L 126.661656 43.347666 
L 128.028048 42.524526 
L 129.394439 41.668583 
L 130.76083 40.782597 
L 132.127221 39.869475 
L 133.493612 38.932268 
L 134.860003 37.974172 
L 136.226395 36.998522 
L 137.592786 36.008797 
L 138.959177 35.008608 
L 140.325568 34.001708 
L 141.691959 32.991979 
L 143.058351 31.983439 
L 144.424742 30.980235 
L 145.791133 29.986642 
L 147.157524 29.007064 
L 148.523915 28.046028 
L 149.890306 27.108186 
L 151.256698 26.198309 
L 152.623089 25.32129 
L 153.98948 24.482139 
L 155.355871 23.685982 
L 156.722262 22.938058 
L 158.088654 22.243721 
L 159.455045 21.608431 
L 160.821436 21.037763 
L 162.187827 20.537392 
L 163.554218 20.113103 
L 164.92061 19.770782 
L 166.287001 19.516416 
L 167.653392 19.356094 
L 169.019783 19.296 
L 170.386174 19.342415 
L 171.752565 19.501715 
L 173.118957 19.780366 
L 174.485348 20.184926 
L 175.851739 20.722041 
L 177.21813 21.398446 
L 178.584521 22.220957 
L 179.950913 23.196476 
L 181.317304 24.331985 
L 182.683695 25.634547 
L 184.050086 27.111301 
L 185.416477 28.769462 
" clip-path="url(#p1718e851e4)" style="fill: none; stroke: #1f77b4; stroke-width: 1.5; stroke-linecap: square"/>
   </g>
   <g id="line2d_14">
    <path d="M 50.14375 28.769462 
L 51.510141 28.824031 
L 52.876532 28.982027 
L 54.242924 29.23507 
L 55.609315 29.575032 
L 56.975706 29.994029 
L 58.342097 30.484425 
L 59.708488 31.038825 
L 61.074879 31.650079 
L 62.441271 32.311274 
L 63.807662 33.015736 
L 65.174053 33.757028 
L 66.540444 34.528946 
L 67.906835 35.325521 
L 69.273227 36.141012 
L 70.639618 36.969909 
L 72.006009 37.806929 
L 73.3724 38.647013 
L 74.738791 39.485326 
L 76.105183 40.317257 
L 77.471574 41.13841 
L 78.837965 41.944613 
L 80.204356 42.731905 
L 81.570747 43.496543 
L 82.937138 44.234994 
L 84.30353 44.943937 
L 85.669921 45.620261 
L 87.036312 46.26106 
L 88.402703 46.863634 
L 89.769094 47.425488 
L 91.135486 47.944326 
L 92.501877 48.418054 
L 93.868268 48.844774 
L 95.234659 49.222787 
L 96.60105 49.550585 
L 97.967441 49.826856 
L 99.333833 50.050475 
L 100.700224 50.220509 
L 102.066615 50.33621 
L 103.433006 50.397017 
L 104.799397 50.402551 
L 106.165789 50.352615 
L 107.53218 50.247191 
L 108.898571 50.086441 
L 110.264962 49.870701 
L 111.631353 49.600482 
L 112.997744 49.276469 
L 114.364136 48.899514 
L 115.730527 48.470642 
L 117.096918 47.991043 
L 118.463309 47.462071 
L 119.8297 46.885245 
L 121.196092 46.262246 
L 122.562483 45.594913 
L 123.928874 44.885243 
L 125.295265 44.135392 
L 126.661656 43.347666 
L 128.028048 42.524526 
L 129.394439 41.668583 
L 130.76083 40.782597 
L 132.127221 39.869475 
L 133.493612 38.932268 
L 134.860003 37.974172 
L 136.226395 36.998522 
L 137.592786 36.008797 
L 138.959177 35.008608 
L 140.325568 34.001708 
L 141.691959 32.991979 
L 143.058351 31.983439 
L 144.424742 30.980235 
L 145.791133 29.986642 
L 147.157524 29.007064 
L 148.523915 28.046028 
L 149.890306 27.108186 
L 151.256698 26.198309 
L 152.623089 25.32129 
L 153.98948 24.482139 
L 155.355871 23.685982 
L 156.722262 22.938058 
L 158.088654 22.243721 
L 159.455045 21.608431 
L 160.821436 21.037763 
L 162.187827 20.537392 
L 163.554218 20.113103 
L 164.92061 19.770782 
L 166.287001 19.516416 
L 167.653392 19.356094 
L 169.019783 19.296 
L 170.386174 19.342415 
L 171.752565 19.501715 
L 173.118957 19.780366 
L 174.485348 20.184926 
L 175.851739 20.722041 
L 177.21813 21.398446 
L 178.584521 22.220957 
L 179.950913 23.196476 
L 181.317304 24.331985 
L 182.683695 25.634547 
L 184.050086 27.111301 
L 185.416477 28.769462 
" clip-path="url(#p1718e851e4)" style="fill: none; stroke: #ff7f0e; stroke-width: 1.5; stroke-linecap: square"/>
   </g>
   <g id="line2d_15">
    <path d="M 185.416477 28.769462 
L 185.963034 29.485012 
L 186.50959 30.230388 
L 187.056147 31.005226 
L 187.602703 31.809165 
L 188.14926 32.641846 
L 188.695816 33.50291 
L 189.242373 34.392002 
L 189.788929 35.308768 
L 190.335486 36.252854 
L 190.882042 37.22391 
L 191.428598 38.221586 
L 191.975155 39.245535 
L 192.521711 40.295412 
L 193.068268 41.370871 
L 193.614824 42.47157 
L 194.161381 43.597168 
L 194.707937 44.747326 
L 195.254494 45.921705 
L 195.80105 47.119969 
L 196.347607 48.341783 
L 196.894163 49.586813 
L 197.44072 50.854728 
L 197.987276 52.145197 
L 198.533833 53.45789 
L 199.080389 54.792481 
L 199.626946 56.148644 
L 200.173502 57.526052 
L 200.720059 58.924382 
L 201.266615 60.343313 
L 201.813171 61.782524 
L 202.359728 63.241694 
L 202.906284 64.720507 
L 203.452841 66.218644 
L 203.999397 67.73579 
L 204.545954 69.27163 
L 205.09251 70.825852 
L 205.639067 72.398142 
L 206.185623 73.988191 
L 206.73218 75.595688 
L 207.278736 77.220325 
L 207.825293 78.861795 
L 208.371849 80.51979 
L 208.918406 82.194005 
L 209.464962 83.884137 
L 210.011519 85.589882 
L 210.558075 87.310938 
L 211.104632 89.047003 
L 211.651188 90.797778 
L 212.197744 92.562963 
L 212.744301 94.34226 
L 213.290857 96.135372 
L 213.837414 97.942002 
L 214.38397 99.761855 
L 214.930527 101.594636 
L 215.477083 103.440051 
L 216.02364 105.297808 
L 216.570196 107.167613 
L 217.116753 109.049177 
L 217.663309 110.942208 
L 218.209866 112.846416 
L 218.756422 114.761513 
L 219.302979 116.687211 
L 219.849535 118.623221 
L 220.396092 120.569257 
L 220.942648 122.525032 
L 221.489205 124.490261 
L 222.035761 126.46466 
L 222.582317 128.447943 
L 223.128874 130.439827 
L 223.67543 132.440029 
L 224.221987 134.448266 
L 224.768543 136.464257 
L 225.3151 138.487719 
L 225.861656 140.518372 
L 226.408213 142.555935 
L 226.954769 144.600128 
L 227.501326 146.650671 
L 228.047882 148.707286 
L 228.594439 150.769693 
L 229.140995 152.837615 
L 229.687552 154.910772 
L 230.234108 156.988888 
L 230.780665 159.071685 
L 231.327221 161.158886 
L 231.873778 163.250215 
L 232.420334 165.345395 
L 232.96689 167.444149 
L 233.513447 169.546202 
L 234.060003 171.651279 
L 234.60656 173.759103 
L 235.153116 175.8694 
L 235.699673 177.981894 
L 236.246229 180.09631 
L 236.792786 182.212374 
L 237.339342 184.329811 
L 237.885899 186.448345 
L 238.432455 188.567703 
L 238.979012 190.68761 
L 239.525568 192.807791 
" clip-path="url(#p1718e851e4)" style="fill: none; stroke: #2ca02c; stroke-width: 1.5; stroke-linecap: square"/>
   </g>
   <g id="line2d_16">
    <path d="M 185.416477 28.769462 
L 185.963034 29.485012 
L 186.50959 30.230388 
L 187.056147 31.005226 
L 187.602703 31.809165 
L 188.14926 32.641846 
L 188.695816 33.50291 
L 189.242373 34.392002 
L 189.788929 35.308768 
L 190.335486 36.252854 
L 190.882042 37.22391 
L 191.428598 38.221586 
L 191.975155 39.245535 
L 192.521711 40.295412 
L 193.068268 41.370871 
L 193.614824 42.47157 
L 194.161381 43.597168 
L 194.707937 44.747326 
L 195.254494 45.921705 
L 195.80105 47.119969 
L 196.347607 48.341783 
L 196.894163 49.586813 
L 197.44072 50.854728 
L 197.987276 52.145197 
L 198.533833 53.45789 
L 199.080389 54.792481 
L 199.626946 56.148644 
L 200.173502 57.526052 
L 200.720059 58.924382 
L 201.266615 60.343313 
L 201.813171 61.782524 
L 202.359728 63.241694 
L 202.906284 64.720507 
L 203.452841 66.218644 
L 203.999397 67.73579 
L 204.545954 69.27163 
L 205.09251 70.825852 
L 205.639067 72.398142 
L 206.185623 73.988191 
L 206.73218 75.595688 
L 207.278736 77.220325 
L 207.825293 78.861795 
L 208.371849 80.51979 
L 208.918406 82.194005 
L 209.464962 83.884137 
L 210.011519 85.589882 
L 210.558075 87.310938 
L 211.104632 89.047003 
L 211.651188 90.797778 
L 212.197744 92.562963 
L 212.744301 94.34226 
L 213.290857 96.135372 
L 213.837414 97.942002 
L 214.38397 99.761855 
L 214.930527 101.594636 
L 215.477083 103.440051 
L 216.02364 105.297808 
L 216.570196 107.167613 
L 217.116753 109.049177 
L 217.663309 110.942208 
L 218.209866 112.846416 
L 218.756422 114.761513 
L 219.302979 116.687211 
L 219.849535 118.623221 
L 220.396092 120.569257 
L 220.942648 122.525032 
L 221.489205 124.490261 
L 222.035761 126.46466 
L 222.582317 128.447943 
L 223.128874 130.439827 
L 223.67543 132.440029 
L 224.221987 134.448266 
L 224.768543 136.464257 
L 225.3151 138.487719 
L 225.861656 140.518372 
L 226.408213 142.555935 
L 226.954769 144.600128 
L 227.501326 146.650671 
L 228.047882 148.707286 
L 228.594439 150.769693 
L 229.140995 152.837615 
L 229.687552 154.910772 
L 230.234108 156.988888 
L 230.780665 159.071685 
L 231.327221 161.158886 
L 231.873778 163.250215 
L 232.420334 165.345395 
L 232.96689 167.444149 
L 233.513447 169.546202 
L 234.060003 171.651279 
L 234.60656 173.759103 
L 235.153116 175.8694 
L 235.699673 177.981894 
L 236.246229 180.09631 
L 236.792786 182.212374 
L 237.339342 184.329811 
L 237.885899 186.448345 
L 238.432455 188.567703 
L 238.979012 190.68761 
L 239.525568 192.807791 
" clip-path="url(#p1718e851e4)" style="fill: none; stroke: #d62728; stroke-width: 1.5; stroke-linecap: square"/>
   </g>
   <g id="line2d_17">
    <path d="M 239.525568 192.807791 
L 240.072125 193.938284 
L 240.618681 195.068503 
L 241.165238 196.198172 
L 241.711794 197.327019 
L 242.258351 198.454767 
L 242.804907 199.581143 
L 243.351463 200.705872 
L 243.89802 201.828681 
L 244.444576 202.949293 
L 244.991133 204.067435 
L 245.537689 205.182833 
L 246.084246 206.295212 
L 246.630802 207.404297 
L 247.177359 208.509814 
L 247.723915 209.611489 
L 248.270472 210.709046 
L 248.817028 211.802213 
L 249.363585 212.890713 
L 249.910141 213.974274 
L 250.456698 215.052619 
L 251.003254 216.125476 
L 251.549811 217.192569 
L 252.096367 218.253623 
L 252.642924 219.308365 
L 253.18948 220.35652 
L 253.736037 221.397814 
L 254.282593 222.431972 
L 254.829149 223.458719 
L 255.375706 224.477781 
L 255.922262 225.488884 
L 256.468819 226.491753 
L 257.015375 227.486114 
L 257.561932 228.471693 
L 258.108488 229.448214 
L 258.655045 230.415403 
L 259.201601 231.372986 
L 259.748158 232.320689 
L 260.294714 233.258237 
L 260.841271 234.185355 
L 261.387827 235.10177 
L 261.934384 236.007206 
L 262.48094 236.901389 
L 263.027497 237.784045 
L 263.574053 238.654899 
L 264.12061 239.513677 
L 264.667166 240.360104 
L 265.213722 241.193906 
L 265.760279 242.014808 
L 266.306835 242.822537 
L 266.853392 243.616816 
L 267.399948 244.397373 
L 267.946505 245.163933 
L 268.493061 245.91622 
L 269.039618 246.653961 
L 269.586174 247.376882 
L 270.132731 248.084707 
L 270.679287 248.777162 
L 271.225844 249.453973 
L 271.7724 250.114865 
L 272.318957 250.759565 
L 272.865513 251.387796 
L 273.41207 251.999286 
L 273.958626 252.593759 
L 274.505183 253.170941 
L 275.051739 253.730558 
L 275.598295 254.272335 
L 276.144852 254.795997 
L 276.691408 255.301271 
L 277.237965 255.787881 
L 277.784521 256.255554 
L 278.331078 256.704015 
L 278.877634 257.132989 
L 279.424191 257.542201 
L 279.970747 257.931379 
L 280.517304 258.300246 
L 281.06386 258.648529 
L 281.610417 258.975953 
L 282.156973 259.282243 
L 282.70353 259.567126 
L 283.250086 259.830326 
L 283.796643 260.071569 
L 284.343199 260.290581 
L 284.889756 260.487088 
L 285.436312 260.660814 
L 285.982868 260.811486 
L 286.529425 260.938829 
L 287.075981 261.042568 
L 287.622538 261.122429 
L 288.169094 261.178138 
L 288.715651 261.20942 
L 289.262207 261.216 
L 289.808764 261.197605 
L 290.35532 261.153959 
L 290.901877 261.084788 
L 291.448433 260.989819 
L 291.99499 260.868775 
L 292.541546 260.721384 
L 293.088103 260.54737 
L 293.634659 260.346459 
" clip-path="url(#p1718e851e4)" style="fill: none; stroke: #9467bd; stroke-width: 1.5; stroke-linecap: square"/>
   </g>
   <g id="line2d_18">
    <path d="M 239.525568 192.807791 
L 240.072125 193.938284 
L 240.618681 195.068503 
L 241.165238 196.198172 
L 241.711794 197.327019 
L 242.258351 198.454767 
L 242.804907 199.581143 
L 243.351463 200.705872 
L 243.89802 201.828681 
L 244.444576 202.949293 
L 244.991133 204.067435 
L 245.537689 205.182833 
L 246.084246 206.295212 
L 246.630802 207.404297 
L 247.177359 208.509814 
L 247.723915 209.611489 
L 248.270472 210.709046 
L 248.817028 211.802213 
L 249.363585 212.890713 
L 249.910141 213.974274 
L 250.456698 215.052619 
L 251.003254 216.125476 
L 251.549811 217.192569 
L 252.096367 218.253623 
L 252.642924 219.308365 
L 253.18948 220.35652 
L 253.736037 221.397814 
L 254.282593 222.431972 
L 254.829149 223.458719 
L 255.375706 224.477781 
L 255.922262 225.488884 
L 256.468819 226.491753 
L 257.015375 227.486114 
L 257.561932 228.471693 
L 258.108488 229.448214 
L 258.655045 230.415403 
L 259.201601 231.372986 
L 259.748158 232.320689 
L 260.294714 233.258237 
L 260.841271 234.185355 
L 261.387827 235.10177 
L 261.934384 236.007206 
L 262.48094 236.901389 
L 263.027497 237.784045 
L 263.574053 238.654899 
L 264.12061 239.513677 
L 264.667166 240.360104 
L 265.213722 241.193906 
L 265.760279 242.014808 
L 266.306835 242.822537 
L 266.853392 243.616816 
L 267.399948 244.397373 
L 267.946505 245.163933 
L 268.493061 245.91622 
L 269.039618 246.653961 
L 269.586174 247.376882 
L 270.132731 248.084707 
L 270.679287 248.777162 
L 271.225844 249.453973 
L 271.7724 250.114865 
L 272.318957 250.759565 
L 272.865513 251.387796 
L 273.41207 251.999286 
L 273.958626 252.593759 
L 274.505183 253.170941 
L 275.051739 253.730558 
L 275.598295 254.272335 
L 276.144852 254.795997 
L 276.691408 255.301271 
L 277.237965 255.787881 
L 277.784521 256.255554 
L 278.331078 256.704015 
L 278.877634 257.132989 
L 279.424191 257.542201 
L 279.970747 257.931379 
L 280.517304 258.300246 
L 281.06386 258.648529 
L 281.610417 258.975953 
L 282.156973 259.282243 
L 282.70353 259.567126 
L 283.250086 259.830326 
L 283.796643 260.071569 
L 284.343199 260.290581 
L 284.889756 260.487088 
L 285.436312 260.660814 
L 285.982868 260.811486 
L 286.529425 260.938829 
L 287.075981 261.042568 
L 287.622538 261.122429 
L 288.169094 261.178138 
L 288.715651 261.20942 
L 289.262207 261.216 
L 289.808764 261.197605 
L 290.35532 261.153959 
L 290.901877 261.084788 
L 291.448433 260.989819 
L 291.99499 260.868775 
L 292.541546 260.721384 
L 293.088103 260.54737 
L 293.634659 260.346459 
" clip-path="url(#p1718e851e4)" style="fill: none; stroke: #8c564b; stroke-width: 1.5; stroke-linecap: square"/>
   </g>
   <g id="line2d_19">
    <path d="M 293.634659 260.346459 
L 294.454494 259.994317 
L 295.274329 259.581657 
L 296.094163 259.109096 
L 296.913998 258.577251 
L 297.733833 257.986741 
L 298.553667 257.338183 
L 299.373502 256.632194 
L 300.193337 255.869392 
L 301.013171 255.050394 
L 301.833006 254.175818 
L 302.652841 253.246282 
L 303.472676 252.262402 
L 304.29251 251.224797 
L 305.112345 250.134085 
L 305.93218 248.990881 
L 306.752014 247.795805 
L 307.571849 246.549473 
L 308.391684 245.252504 
L 309.211519 243.905514 
L 310.031353 242.509122 
L 310.851188 241.063944 
L 311.671023 239.570599 
L 312.490857 238.029704 
L 313.310692 236.441875 
L 314.130527 234.807732 
L 314.950362 233.127892 
L 315.770196 231.402971 
L 316.590031 229.633588 
L 317.409866 227.82036 
L 318.2297 225.963904 
L 319.049535 224.064839 
L 319.86937 222.123781 
L 320.689205 220.141348 
L 321.509039 218.118158 
L 322.328874 216.054829 
L 323.148709 213.951977 
L 323.968543 211.810221 
L 324.788378 209.630177 
L 325.608213 207.412464 
L 326.428048 205.157699 
L 327.247882 202.866499 
L 328.067717 200.539482 
L 328.887552 198.177266 
L 329.707386 195.780468 
L 330.527221 193.349706 
L 331.347056 190.885596 
L 332.16689 188.388757 
L 332.986725 185.859807 
L 333.80656 183.299362 
L 334.626395 180.708041 
L 335.446229 178.08646 
L 336.266064 175.435238 
L 337.085899 172.754991 
L 337.905733 170.046338 
L 338.725568 167.309896 
L 339.545403 164.546283 
L 340.365238 161.756115 
L 341.185072 158.940011 
L 342.004907 156.098588 
L 342.824742 153.232464 
L 343.644576 150.342256 
L 344.464411 147.428582 
L 345.284246 144.492059 
L 346.104081 141.533304 
L 346.923915 138.552936 
L 347.74375 135.551572 
L 348.563585 132.529829 
L 349.383419 129.488325 
L 350.203254 126.427677 
L 351.023089 123.348504 
L 351.842924 120.251421 
L 352.662758 117.137048 
L 353.482593 114.006002 
L 354.302428 110.8589 
L 355.122262 107.696359 
L 355.942097 104.518997 
L 356.761932 101.327432 
L 357.581767 98.122282 
L 358.401601 94.904163 
L 359.221436 91.673693 
L 360.041271 88.431491 
L 360.861105 85.178172 
L 361.68094 81.914356 
L 362.500775 78.640659 
L 363.32061 75.357699 
L 364.140444 72.066094 
L 364.960279 68.76646 
L 365.780114 65.459416 
L 366.599948 62.14558 
L 367.419783 58.825568 
L 368.239618 55.499998 
L 369.059452 52.169488 
L 369.879287 48.834655 
L 370.699122 45.496117 
L 371.518957 42.154491 
L 372.338791 38.810395 
L 373.158626 35.464447 
L 373.978461 32.117263 
L 374.798295 28.769462 
" clip-path="url(#p1718e851e4)" style="fill: none; stroke: #e377c2; stroke-width: 1.5; stroke-linecap: square"/>
   </g>
   <g id="line2d_20">
    <path d="M 293.634659 260.346459 
L 294.454494 259.994317 
L 295.274329 259.581657 
L 296.094163 259.109096 
L 296.913998 258.577251 
L 297.733833 257.986741 
L 298.553667 257.338183 
L 299.373502 256.632194 
L 300.193337 255.869392 
L 301.013171 255.050394 
L 301.833006 254.175818 
L 302.652841 253.246282 
L 303.472676 252.262402 
L 304.29251 251.224797 
L 305.112345 250.134085 
L 305.93218 248.990881 
L 306.752014 247.795805 
L 307.571849 246.549473 
L 308.391684 245.252504 
L 309.211519 243.905514 
L 310.031353 242.509122 
L 310.851188 241.063944 
L 311.671023 239.570599 
L 312.490857 238.029704 
L 313.310692 236.441875 
L 314.130527 234.807732 
L 314.950362 233.127892 
L 315.770196 231.402971 
L 316.590031 229.633588 
L 317.409866 227.82036 
L 318.2297 225.963904 
L 319.049535 224.064839 
L 319.86937 222.123781 
L 320.689205 220.141348 
L 321.509039 218.118158 
L 322.328874 216.054829 
L 323.148709 213.951977 
L 323.968543 211.810221 
L 324.788378 209.630177 
L 325.608213 207.412464 
L 326.428048 205.157699 
L 327.247882 202.866499 
L 328.067717 200.539482 
L 328.887552 198.177266 
L 329.707386 195.780468 
L 330.527221 193.349706 
L 331.347056 190.885596 
L 332.16689 188.388757 
L 332.986725 185.859807 
L 333.80656 183.299362 
L 334.626395 180.708041 
L 335.446229 178.08646 
L 336.266064 175.435238 
L 337.085899 172.754991 
L 337.905733 170.046338 
L 338.725568 167.309896 
L 339.545403 164.546283 
L 340.365238 161.756115 
L 341.185072 158.940011 
L 342.004907 156.098588 
L 342.824742 153.232464 
L 343.644576 150.342256 
L 344.464411 147.428582 
L 345.284246 144.492059 
L 346.104081 141.533304 
L 346.923915 138.552936 
L 347.74375 135.551572 
L 348.563585 132.529829 
L 349.383419 129.488325 
L 350.203254 126.427677 
L 351.023089 123.348504 
L 351.842924 120.251421 
L 352.662758 117.137048 
L 353.482593 114.006002 
L 354.302428 110.8589 
L 355.122262 107.696359 
L 355.942097 104.518997 
L 356.761932 101.327432 
L 357.581767 98.122282 
L 358.401601 94.904163 
L 359.221436 91.673693 
L 360.041271 88.431491 
L 360.861105 85.178172 
L 361.68094 81.914356 
L 362.500775 78.640659 
L 363.32061 75.357699 
L 364.140444 72.066094 
L 364.960279 68.76646 
L 365.780114 65.459416 
L 366.599948 62.14558 
L 367.419783 58.825568 
L 368.239618 55.499998 
L 369.059452 52.169488 
L 369.879287 48.834655 
L 370.699122 45.496117 
L 371.518957 42.154491 
L 372.338791 38.810395 
L 373.158626 35.464447 
L 373.978461 32.117263 
L 374.798295 28.769462 
" clip-path="url(#p1718e851e4)" style="fill: none; stroke: #7f7f7f; stroke-width: 1.5; stroke-linecap: square"/>
   </g>
   <g id="patch_3">
    <path d="M 50.14375 273.312 
L 50.14375 7.2 
" style="fill: none; stroke: #000000; stroke-width: 0.8; stroke-linejoin: miter; stroke-linecap: square"/>
   </g>
   <g id="patch_4">
    <path d="M 391.031023 273.312 
L 391.031023 7.2 
" style="fill: none"/>
   </g>
   <g id="patch_5">
    <path d="M 33.911023 28.769462 
L 391.031023 28.769462 
" style="fill: none; stroke: #000000; stroke-width: 0.8; stroke-linejoin: miter; stroke-linecap: square"/>
   </g>
   <g id="patch_6">
    <path d="M 33.911023 7.2 
L 391.031023 7.2 
" style="fill: none"/>
   </g>
  </g>
 </g>
 <defs>
  <clipPath id="p1718e851e4">
   <rect x="33.911023" y="7.2" width="357.12" height="266.112"/>
  </clipPath>
 </defs>
</svg>
