<?xml version="1.0" encoding="utf-8" standalone="no"?>
<!DOCTYPE svg PUBLIC "-//W3C//DTD SVG 1.1//EN"
  "http://www.w3.org/Graphics/SVG/1.1/DTD/svg11.dtd">
<svg xmlns:xlink="http://www.w3.org/1999/xlink" width="398.231023pt" height="285.71359pt" viewBox="0 0 398.231023 285.71359" xmlns="http://www.w3.org/2000/svg" version="1.1">
 <metadata>
  <rdf:RDF xmlns:dc="http://purl.org/dc/elements/1.1/" xmlns:cc="http://creativecommons.org/ns#" xmlns:rdf="http://www.w3.org/1999/02/22-rdf-syntax-ns#">
   <cc:Work>
    <dc:type rdf:resource="http://purl.org/dc/dcmitype/StillImage"/>
    <dc:date>2024-08-09T09:27:55.800828</dc:date>
    <dc:format>image/svg+xml</dc:format>
    <dc:creator>
     <cc:Agent>
      <dc:title>Matplotlib v3.8.0, https://matplotlib.org/</dc:title>
     </cc:Agent>
    </dc:creator>
   </cc:Work>
  </rdf:RDF>
 </metadata>
 <defs>
  <style type="text/css">*{stroke-linejoin: round; stroke-linecap: butt}</style>
 </defs>
 <g id="figure_1">
  <g id="patch_1">
   <path d="M 0 285.71359 
L 398.231023 285.71359 
L 398.231023 0 
L 0 0 
z
" style="fill: #ffffff"/>
  </g>
  <g id="axes_1">
   <g id="patch_2">
    <path d="M 33.911023 273.312 
L 391.031023 273.312 
L 391.031023 7.2 
L 33.911023 7.2 
z
" style="fill: #ffffff"/>
   </g>
   <g id="matplotlib.axis_1">
    <g id="xtick_1">
     <g id="line2d_1">
      <defs>
       <path id="md569ba6e98" d="M 0 0 
L 0 3.5 
" style="stroke: #000000; stroke-width: 0.8"/>
      </defs>
      <g>
       <use xlink:href="#md569ba6e98" x="50.14375" y="45.480204" style="stroke: #000000; stroke-width: 0.8"/>
      </g>
     </g>
     <g id="text_1">
      <!-- 0 -->
      <g transform="translate(46.9625 60.078642) scale(0.1 -0.1)">
       <defs>
        <path id="DejaVuSans-30" d="M 2034 4250 
Q 1547 4250 1301 3770 
Q 1056 3291 1056 2328 
Q 1056 1369 1301 889 
Q 1547 409 2034 409 
Q 2525 409 2770 889 
Q 3016 1369 3016 2328 
Q 3016 3291 2770 3770 
Q 2525 4250 2034 4250 
z
M 2034 4750 
Q 2819 4750 3233 4129 
Q 3647 3509 3647 2328 
Q 3647 1150 3233 529 
Q 2819 -91 2034 -91 
Q 1250 -91 836 529 
Q 422 1150 422 2328 
Q 422 3509 836 4129 
Q 1250 4750 2034 4750 
z
" transform="scale(0.015625)"/>
       </defs>
       <use xlink:href="#DejaVuSans-30"/>
      </g>
     </g>
    </g>
    <g id="xtick_2">
     <g id="line2d_2">
      <g>
       <use xlink:href="#md569ba6e98" x="104.252841" y="45.480204" style="stroke: #000000; stroke-width: 0.8"/>
      </g>
     </g>
     <g id="text_2">
      <!-- 2 -->
      <g transform="translate(101.071591 60.078642) scale(0.1 -0.1)">
       <defs>
        <path id="DejaVuSans-32" d="M 1228 531 
L 3431 531 
L 3431 0 
L 469 0 
L 469 531 
Q 828 903 1448 1529 
Q 2069 2156 2228 2338 
Q 2531 2678 2651 2914 
Q 2772 3150 2772 3378 
Q 2772 3750 2511 3984 
Q 2250 4219 1831 4219 
Q 1534 4219 1204 4116 
Q 875 4013 500 3803 
L 500 4441 
Q 881 4594 1212 4672 
Q 1544 4750 1819 4750 
Q 2544 4750 2975 4387 
Q 3406 4025 3406 3419 
Q 3406 3131 3298 2873 
Q 3191 2616 2906 2266 
Q 2828 2175 2409 1742 
Q 1991 1309 1228 531 
z
" transform="scale(0.015625)"/>
       </defs>
       <use xlink:href="#DejaVuSans-32"/>
      </g>
     </g>
    </g>
    <g id="xtick_3">
     <g id="line2d_3">
      <g>
       <use xlink:href="#md569ba6e98" x="158.361932" y="45.480204" style="stroke: #000000; stroke-width: 0.8"/>
      </g>
     </g>
     <g id="text_3">
      <!-- 4 -->
      <g transform="translate(155.180682 60.078642) scale(0.1 -0.1)">
       <defs>
        <path id="DejaVuSans-34" d="M 2419 4116 
L 825 1625 
L 2419 1625 
L 2419 4116 
z
M 2253 4666 
L 3047 4666 
L 3047 1625 
L 3713 1625 
L 3713 1100 
L 3047 1100 
L 3047 0 
L 2419 0 
L 2419 1100 
L 313 1100 
L 313 1709 
L 2253 4666 
z
" transform="scale(0.015625)"/>
       </defs>
       <use xlink:href="#DejaVuSans-34"/>
      </g>
     </g>
    </g>
    <g id="xtick_4">
     <g id="line2d_4">
      <g>
       <use xlink:href="#md569ba6e98" x="212.471023" y="45.480204" style="stroke: #000000; stroke-width: 0.8"/>
      </g>
     </g>
     <g id="text_4">
      <!-- 6 -->
      <g transform="translate(209.289773 60.078642) scale(0.1 -0.1)">
       <defs>
        <path id="DejaVuSans-36" d="M 2113 2584 
Q 1688 2584 1439 2293 
Q 1191 2003 1191 1497 
Q 1191 994 1439 701 
Q 1688 409 2113 409 
Q 2538 409 2786 701 
Q 3034 994 3034 1497 
Q 3034 2003 2786 2293 
Q 2538 2584 2113 2584 
z
M 3366 4563 
L 3366 3988 
Q 3128 4100 2886 4159 
Q 2644 4219 2406 4219 
Q 1781 4219 1451 3797 
Q 1122 3375 1075 2522 
Q 1259 2794 1537 2939 
Q 1816 3084 2150 3084 
Q 2853 3084 3261 2657 
Q 3669 2231 3669 1497 
Q 3669 778 3244 343 
Q 2819 -91 2113 -91 
Q 1303 -91 875 529 
Q 447 1150 447 2328 
Q 447 3434 972 4092 
Q 1497 4750 2381 4750 
Q 2619 4750 2861 4703 
Q 3103 4656 3366 4563 
z
" transform="scale(0.015625)"/>
       </defs>
       <use xlink:href="#DejaVuSans-36"/>
      </g>
     </g>
    </g>
    <g id="xtick_5">
     <g id="line2d_5">
      <g>
       <use xlink:href="#md569ba6e98" x="266.580114" y="45.480204" style="stroke: #000000; stroke-width: 0.8"/>
      </g>
     </g>
     <g id="text_5">
      <!-- 8 -->
      <g transform="translate(263.398864 60.078642) scale(0.1 -0.1)">
       <defs>
        <path id="DejaVuSans-38" d="M 2034 2216 
Q 1584 2216 1326 1975 
Q 1069 1734 1069 1313 
Q 1069 891 1326 650 
Q 1584 409 2034 409 
Q 2484 409 2743 651 
Q 3003 894 3003 1313 
Q 3003 1734 2745 1975 
Q 2488 2216 2034 2216 
z
M 1403 2484 
Q 997 2584 770 2862 
Q 544 3141 544 3541 
Q 544 4100 942 4425 
Q 1341 4750 2034 4750 
Q 2731 4750 3128 4425 
Q 3525 4100 3525 3541 
Q 3525 3141 3298 2862 
Q 3072 2584 2669 2484 
Q 3125 2378 3379 2068 
Q 3634 1759 3634 1313 
Q 3634 634 3220 271 
Q 2806 -91 2034 -91 
Q 1263 -91 848 271 
Q 434 634 434 1313 
Q 434 1759 690 2068 
Q 947 2378 1403 2484 
z
M 1172 3481 
Q 1172 3119 1398 2916 
Q 1625 2713 2034 2713 
Q 2441 2713 2670 2916 
Q 2900 3119 2900 3481 
Q 2900 3844 2670 4047 
Q 2441 4250 2034 4250 
Q 1625 4250 1398 4047 
Q 1172 3844 1172 3481 
z
" transform="scale(0.015625)"/>
       </defs>
       <use xlink:href="#DejaVuSans-38"/>
      </g>
     </g>
    </g>
    <g id="xtick_6">
     <g id="line2d_6">
      <g>
       <use xlink:href="#md569ba6e98" x="320.689205" y="45.480204" style="stroke: #000000; stroke-width: 0.8"/>
      </g>
     </g>
     <g id="text_6">
      <!-- 10 -->
      <g transform="translate(314.326705 60.078642) scale(0.1 -0.1)">
       <defs>
        <path id="DejaVuSans-31" d="M 794 531 
L 1825 531 
L 1825 4091 
L 703 3866 
L 703 4441 
L 1819 4666 
L 2450 4666 
L 2450 531 
L 3481 531 
L 3481 0 
L 794 0 
L 794 531 
z
" transform="scale(0.015625)"/>
       </defs>
       <use xlink:href="#DejaVuSans-31"/>
       <use xlink:href="#DejaVuSans-30" x="63.623047"/>
      </g>
     </g>
    </g>
    <g id="xtick_7">
     <g id="line2d_7">
      <g>
       <use xlink:href="#md569ba6e98" x="374.798295" y="45.480204" style="stroke: #000000; stroke-width: 0.8"/>
      </g>
     </g>
     <g id="text_7">
      <!-- 12 -->
      <g transform="translate(368.435795 60.078642) scale(0.1 -0.1)">
       <use xlink:href="#DejaVuSans-31"/>
       <use xlink:href="#DejaVuSans-32" x="63.623047"/>
      </g>
     </g>
    </g>
    <g id="text_8">
     <!-- $x$ -->
     <g transform="translate(209.471023 73.756767) scale(0.1 -0.1)">
      <defs>
       <path id="DejaVuSans-Oblique-78" d="M 3841 3500 
L 2234 1784 
L 3219 0 
L 2559 0 
L 1819 1388 
L 531 0 
L -166 0 
L 1556 1844 
L 641 3500 
L 1300 3500 
L 1972 2234 
L 3144 3500 
L 3841 3500 
z
" transform="scale(0.015625)"/>
      </defs>
      <use xlink:href="#DejaVuSans-Oblique-78" transform="translate(0 0.3125)"/>
     </g>
    </g>
   </g>
   <g id="matplotlib.axis_2">
    <g id="ytick_1">
     <g id="line2d_8">
      <defs>
       <path id="ma61bd87cf9" d="M 0 0 
L -3.5 0 
" style="stroke: #000000; stroke-width: 0.8"/>
      </defs>
      <g>
       <use xlink:href="#ma61bd87cf9" x="50.14375" y="45.480204" style="stroke: #000000; stroke-width: 0.8"/>
      </g>
     </g>
     <g id="text_9">
      <!-- 0.00 -->
      <g transform="translate(20.878125 49.279423) scale(0.1 -0.1)">
       <defs>
        <path id="DejaVuSans-2e" d="M 684 794 
L 1344 794 
L 1344 0 
L 684 0 
L 684 794 
z
" transform="scale(0.015625)"/>
       </defs>
       <use xlink:href="#DejaVuSans-30"/>
       <use xlink:href="#DejaVuSans-2e" x="63.623047"/>
       <use xlink:href="#DejaVuSans-30" x="95.410156"/>
       <use xlink:href="#DejaVuSans-30" x="159.033203"/>
      </g>
     </g>
    </g>
    <g id="ytick_2">
     <g id="line2d_9">
      <g>
       <use xlink:href="#ma61bd87cf9" x="50.14375" y="90.9111" style="stroke: #000000; stroke-width: 0.8"/>
      </g>
     </g>
     <g id="text_10">
      <!-- 0.01 -->
      <g transform="translate(20.878125 94.710319) scale(0.1 -0.1)">
       <use xlink:href="#DejaVuSans-30"/>
       <use xlink:href="#DejaVuSans-2e" x="63.623047"/>
       <use xlink:href="#DejaVuSans-30" x="95.410156"/>
       <use xlink:href="#DejaVuSans-31" x="159.033203"/>
      </g>
     </g>
    </g>
    <g id="ytick_3">
     <g id="line2d_10">
      <g>
       <use xlink:href="#ma61bd87cf9" x="50.14375" y="136.341996" style="stroke: #000000; stroke-width: 0.8"/>
      </g>
     </g>
     <g id="text_11">
      <!-- 0.02 -->
      <g transform="translate(20.878125 140.141215) scale(0.1 -0.1)">
       <use xlink:href="#DejaVuSans-30"/>
       <use xlink:href="#DejaVuSans-2e" x="63.623047"/>
       <use xlink:href="#DejaVuSans-30" x="95.410156"/>
       <use xlink:href="#DejaVuSans-32" x="159.033203"/>
      </g>
     </g>
    </g>
    <g id="ytick_4">
     <g id="line2d_11">
      <g>
       <use xlink:href="#ma61bd87cf9" x="50.14375" y="181.772892" style="stroke: #000000; stroke-width: 0.8"/>
      </g>
     </g>
     <g id="text_12">
      <!-- 0.03 -->
      <g transform="translate(20.878125 185.57211) scale(0.1 -0.1)">
       <defs>
        <path id="DejaVuSans-33" d="M 2597 2516 
Q 3050 2419 3304 2112 
Q 3559 1806 3559 1356 
Q 3559 666 3084 287 
Q 2609 -91 1734 -91 
Q 1441 -91 1130 -33 
Q 819 25 488 141 
L 488 750 
Q 750 597 1062 519 
Q 1375 441 1716 441 
Q 2309 441 2620 675 
Q 2931 909 2931 1356 
Q 2931 1769 2642 2001 
Q 2353 2234 1838 2234 
L 1294 2234 
L 1294 2753 
L 1863 2753 
Q 2328 2753 2575 2939 
Q 2822 3125 2822 3475 
Q 2822 3834 2567 4026 
Q 2313 4219 1838 4219 
Q 1578 4219 1281 4162 
Q 984 4106 628 3988 
L 628 4550 
Q 988 4650 1302 4700 
Q 1616 4750 1894 4750 
Q 2613 4750 3031 4423 
Q 3450 4097 3450 3541 
Q 3450 3153 3228 2886 
Q 3006 2619 2597 2516 
z
" transform="scale(0.015625)"/>
       </defs>
       <use xlink:href="#DejaVuSans-30"/>
       <use xlink:href="#DejaVuSans-2e" x="63.623047"/>
       <use xlink:href="#DejaVuSans-30" x="95.410156"/>
       <use xlink:href="#DejaVuSans-33" x="159.033203"/>
      </g>
     </g>
    </g>
    <g id="ytick_5">
     <g id="line2d_12">
      <g>
       <use xlink:href="#ma61bd87cf9" x="50.14375" y="227.203787" style="stroke: #000000; stroke-width: 0.8"/>
      </g>
     </g>
     <g id="text_13">
      <!-- 0.04 -->
      <g transform="translate(20.878125 231.003006) scale(0.1 -0.1)">
       <use xlink:href="#DejaVuSans-30"/>
       <use xlink:href="#DejaVuSans-2e" x="63.623047"/>
       <use xlink:href="#DejaVuSans-30" x="95.410156"/>
       <use xlink:href="#DejaVuSans-34" x="159.033203"/>
      </g>
     </g>
    </g>
    <g id="ytick_6">
     <g id="line2d_13">
      <g>
       <use xlink:href="#ma61bd87cf9" x="50.14375" y="272.634683" style="stroke: #000000; stroke-width: 0.8"/>
      </g>
     </g>
     <g id="text_14">
      <!-- 0.05 -->
      <g transform="translate(20.878125 276.433902) scale(0.1 -0.1)">
       <defs>
        <path id="DejaVuSans-35" d="M 691 4666 
L 3169 4666 
L 3169 4134 
L 1269 4134 
L 1269 2991 
Q 1406 3038 1543 3061 
Q 1681 3084 1819 3084 
Q 2600 3084 3056 2656 
Q 3513 2228 3513 1497 
Q 3513 744 3044 326 
Q 2575 -91 1722 -91 
Q 1428 -91 1123 -41 
Q 819 9 494 109 
L 494 744 
Q 775 591 1075 516 
Q 1375 441 1709 441 
Q 2250 441 2565 725 
Q 2881 1009 2881 1497 
Q 2881 1984 2565 2268 
Q 2250 2553 1709 2553 
Q 1456 2553 1204 2497 
Q 953 2441 691 2322 
L 691 4666 
z
" transform="scale(0.015625)"/>
       </defs>
       <use xlink:href="#DejaVuSans-30"/>
       <use xlink:href="#DejaVuSans-2e" x="63.623047"/>
       <use xlink:href="#DejaVuSans-30" x="95.410156"/>
       <use xlink:href="#DejaVuSans-35" x="159.033203"/>
      </g>
     </g>
    </g>
    <g id="text_15">
     <!-- $w$ -->
     <g transform="translate(14.798437 144.356) rotate(-90) scale(0.1 -0.1)">
      <defs>
       <path id="DejaVuSans-Oblique-77" d="M 544 3500 
L 1113 3500 
L 1259 684 
L 2566 3500 
L 3231 3500 
L 3425 684 
L 4666 3500 
L 5241 3500 
L 3641 0 
L 2969 0 
L 2797 2900 
L 1459 0 
L 781 0 
L 544 3500 
z
" transform="scale(0.015625)"/>
      </defs>
      <use xlink:href="#DejaVuSans-Oblique-77" transform="translate(0 0.3125)"/>
     </g>
    </g>
   </g>
   <g id="line2d_14">
    <path d="M 50.14375 45.480204 
L 51.510141 45.483456 
L 52.876532 45.49172 
L 54.242924 45.502834 
L 55.609315 45.51473 
L 56.975706 45.525439 
L 58.342097 45.533086 
L 59.708488 45.535892 
L 61.074879 45.532172 
L 62.441271 45.520335 
L 63.807662 45.498881 
L 65.174053 45.466404 
L 66.540444 45.42159 
L 67.906835 45.363212 
L 69.273227 45.290138 
L 70.639618 45.201323 
L 72.006009 45.095808 
L 73.3724 44.972726 
L 74.738791 44.831296 
L 76.105183 44.670822 
L 77.471574 44.490695 
L 78.837965 44.29039 
L 80.204356 44.069467 
L 81.570747 43.827571 
L 82.937138 43.564427 
L 84.30353 43.279845 
L 85.669921 42.973713 
L 87.036312 42.646004 
L 88.402703 42.296768 
L 89.769094 41.926136 
L 91.135486 41.534316 
L 92.501877 41.121594 
L 93.868268 40.688336 
L 95.234659 40.234982 
L 96.60105 39.762047 
L 97.967441 39.270124 
L 99.333833 38.759877 
L 100.700224 38.232047 
L 102.066615 37.687445 
L 103.433006 37.126957 
L 104.799397 36.551537 
L 106.165789 35.962214 
L 107.53218 35.360083 
L 108.898571 34.746312 
L 110.264962 34.122135 
L 111.631353 33.488855 
L 112.997744 32.847843 
L 114.364136 32.200535 
L 115.730527 31.548433 
L 117.096918 30.893106 
L 118.463309 30.236186 
L 119.8297 29.579368 
L 121.196092 28.924411 
L 122.562483 28.273136 
L 123.928874 27.627426 
L 125.295265 26.989224 
L 126.661656 26.360534 
L 128.028048 25.743419 
L 129.394439 25.140001 
L 130.76083 24.552459 
L 132.127221 23.983031 
L 133.493612 23.43401 
L 134.860003 22.907746 
L 136.226395 22.406643 
L 137.592786 21.933161 
L 138.959177 21.489812 
L 140.325568 21.079163 
L 141.691959 20.703831 
L 143.058351 20.366488 
L 144.424742 20.069852 
L 145.791133 19.816696 
L 147.157524 19.609839 
L 148.523915 19.452152 
L 149.890306 19.34655 
L 151.256698 19.296 
L 152.623089 19.303512 
L 153.98948 19.372142 
L 155.355871 19.504995 
L 156.722262 19.705216 
L 158.088654 19.975996 
L 159.455045 20.320568 
L 160.821436 20.74221 
L 162.187827 21.244239 
L 163.554218 21.830013 
L 164.92061 22.502932 
L 166.287001 23.266434 
L 167.653392 24.123996 
L 169.019783 25.079133 
L 170.386174 26.1354 
L 171.752565 27.296384 
L 173.118957 28.565711 
L 174.485348 29.947043 
L 175.851739 31.444074 
L 177.21813 33.060534 
L 178.584521 34.800184 
L 179.950913 36.66682 
L 181.317304 38.664267 
L 182.683695 40.796384 
L 184.050086 43.067057 
L 185.416477 45.480204 
" clip-path="url(#pdbf2956c2d)" style="fill: none; stroke: #1f77b4; stroke-width: 1.5; stroke-linecap: square"/>
   </g>
   <g id="line2d_15">
    <path d="M 50.14375 45.480204 
L 51.510141 45.483456 
L 52.876532 45.49172 
L 54.242924 45.502834 
L 55.609315 45.51473 
L 56.975706 45.525439 
L 58.342097 45.533086 
L 59.708488 45.535892 
L 61.074879 45.532172 
L 62.441271 45.520335 
L 63.807662 45.498881 
L 65.174053 45.466404 
L 66.540444 45.42159 
L 67.906835 45.363212 
L 69.273227 45.290138 
L 70.639618 45.201323 
L 72.006009 45.095808 
L 73.3724 44.972726 
L 74.738791 44.831296 
L 76.105183 44.670822 
L 77.471574 44.490695 
L 78.837965 44.29039 
L 80.204356 44.069467 
L 81.570747 43.827571 
L 82.937138 43.564427 
L 84.30353 43.279845 
L 85.669921 42.973713 
L 87.036312 42.646004 
L 88.402703 42.296768 
L 89.769094 41.926136 
L 91.135486 41.534316 
L 92.501877 41.121594 
L 93.868268 40.688336 
L 95.234659 40.234982 
L 96.60105 39.762047 
L 97.967441 39.270124 
L 99.333833 38.759877 
L 100.700224 38.232047 
L 102.066615 37.687445 
L 103.433006 37.126957 
L 104.799397 36.551537 
L 106.165789 35.962214 
L 107.53218 35.360083 
L 108.898571 34.746312 
L 110.264962 34.122135 
L 111.631353 33.488855 
L 112.997744 32.847843 
L 114.364136 32.200535 
L 115.730527 31.548433 
L 117.096918 30.893106 
L 118.463309 30.236186 
L 119.8297 29.579368 
L 121.196092 28.924411 
L 122.562483 28.273136 
L 123.928874 27.627426 
L 125.295265 26.989224 
L 126.661656 26.360534 
L 128.028048 25.743419 
L 129.394439 25.140001 
L 130.76083 24.552459 
L 132.127221 23.983031 
L 133.493612 23.43401 
L 134.860003 22.907746 
L 136.226395 22.406643 
L 137.592786 21.933161 
L 138.959177 21.489812 
L 140.325568 21.079163 
L 141.691959 20.703831 
L 143.058351 20.366488 
L 144.424742 20.069852 
L 145.791133 19.816696 
L 147.157524 19.609839 
L 148.523915 19.452152 
L 149.890306 19.34655 
L 151.256698 19.296 
L 152.623089 19.303512 
L 153.98948 19.372142 
L 155.355871 19.504995 
L 156.722262 19.705216 
L 158.088654 19.975996 
L 159.455045 20.320568 
L 160.821436 20.74221 
L 162.187827 21.244239 
L 163.554218 21.830013 
L 164.92061 22.502932 
L 166.287001 23.266434 
L 167.653392 24.123996 
L 169.019783 25.079133 
L 170.386174 26.1354 
L 171.752565 27.296384 
L 173.118957 28.565711 
L 174.485348 29.947043 
L 175.851739 31.444074 
L 177.21813 33.060534 
L 178.584521 34.800184 
L 179.950913 36.66682 
L 181.317304 38.664267 
L 182.683695 40.796384 
L 184.050086 43.067057 
L 185.416477 45.480204 
" clip-path="url(#pdbf2956c2d)" style="fill: none; stroke: #ff7f0e; stroke-width: 1.5; stroke-linecap: square"/>
   </g>
   <g id="line2d_16">
    <path d="M 185.416477 45.480204 
L 185.963034 46.486153 
L 186.50959 47.515269 
L 187.056147 48.567292 
L 187.602703 49.641964 
L 188.14926 50.739027 
L 188.695816 51.858224 
L 189.242373 52.999297 
L 189.788929 54.161992 
L 190.335486 55.346053 
L 190.882042 56.551225 
L 191.428598 57.777255 
L 191.975155 59.023889 
L 192.521711 60.290875 
L 193.068268 61.577961 
L 193.614824 62.884894 
L 194.161381 64.211426 
L 194.707937 65.557305 
L 195.254494 66.922282 
L 195.80105 68.306107 
L 196.347607 69.708534 
L 196.894163 71.129314 
L 197.44072 72.568199 
L 197.987276 74.024944 
L 198.533833 75.499301 
L 199.080389 76.991027 
L 199.626946 78.499875 
L 200.173502 80.025601 
L 200.720059 81.567962 
L 201.266615 83.126713 
L 201.813171 84.701613 
L 202.359728 86.292419 
L 202.906284 87.898889 
L 203.452841 89.520782 
L 203.999397 91.157857 
L 204.545954 92.809873 
L 205.09251 94.476591 
L 205.639067 96.157771 
L 206.185623 97.853175 
L 206.73218 99.562563 
L 207.278736 101.285698 
L 207.825293 103.022342 
L 208.371849 104.772258 
L 208.918406 106.535208 
L 209.464962 108.310958 
L 210.011519 110.099271 
L 210.558075 111.89991 
L 211.104632 113.712642 
L 211.651188 115.537231 
L 212.197744 117.373443 
L 212.744301 119.221044 
L 213.290857 121.0798 
L 213.837414 122.949478 
L 214.38397 124.829844 
L 214.930527 126.720667 
L 215.477083 128.621715 
L 216.02364 130.532754 
L 216.570196 132.453554 
L 217.116753 134.383882 
L 217.663309 136.323509 
L 218.209866 138.272204 
L 218.756422 140.229735 
L 219.302979 142.195873 
L 219.849535 144.170388 
L 220.396092 146.153051 
L 220.942648 148.143632 
L 221.489205 150.141901 
L 222.035761 152.147631 
L 222.582317 154.160592 
L 223.128874 156.180557 
L 223.67543 158.207296 
L 224.221987 160.240583 
L 224.768543 162.280189 
L 225.3151 164.325888 
L 225.861656 166.377451 
L 226.408213 168.434651 
L 226.954769 170.497262 
L 227.501326 172.565057 
L 228.047882 174.637809 
L 228.594439 176.715292 
L 229.140995 178.79728 
L 229.687552 180.883546 
L 230.234108 182.973865 
L 230.780665 185.06801 
L 231.327221 187.165756 
L 231.873778 189.266877 
L 232.420334 191.371148 
L 232.96689 193.478344 
L 233.513447 195.588238 
L 234.060003 197.700607 
L 234.60656 199.815223 
L 235.153116 201.931864 
L 235.699673 204.050303 
L 236.246229 206.170316 
L 236.792786 208.291677 
L 237.339342 210.414162 
L 237.885899 212.537547 
L 238.432455 214.661605 
L 238.979012 216.786113 
L 239.525568 218.910846 
" clip-path="url(#pdbf2956c2d)" style="fill: none; stroke: #2ca02c; stroke-width: 1.5; stroke-linecap: square"/>
   </g>
   <g id="line2d_17">
    <path d="M 185.416477 45.480204 
L 185.963034 46.486153 
L 186.50959 47.515269 
L 187.056147 48.567292 
L 187.602703 49.641964 
L 188.14926 50.739027 
L 188.695816 51.858224 
L 189.242373 52.999297 
L 189.788929 54.161992 
L 190.335486 55.346053 
L 190.882042 56.551225 
L 191.428598 57.777255 
L 191.975155 59.023889 
L 192.521711 60.290875 
L 193.068268 61.577961 
L 193.614824 62.884894 
L 194.161381 64.211426 
L 194.707937 65.557305 
L 195.254494 66.922282 
L 195.80105 68.306107 
L 196.347607 69.708534 
L 196.894163 71.129314 
L 197.44072 72.568199 
L 197.987276 74.024944 
L 198.533833 75.499301 
L 199.080389 76.991027 
L 199.626946 78.499875 
L 200.173502 80.025601 
L 200.720059 81.567962 
L 201.266615 83.126713 
L 201.813171 84.701613 
L 202.359728 86.292419 
L 202.906284 87.898889 
L 203.452841 89.520782 
L 203.999397 91.157857 
L 204.545954 92.809873 
L 205.09251 94.476591 
L 205.639067 96.157771 
L 206.185623 97.853175 
L 206.73218 99.562563 
L 207.278736 101.285698 
L 207.825293 103.022342 
L 208.371849 104.772258 
L 208.918406 106.535208 
L 209.464962 108.310958 
L 210.011519 110.099271 
L 210.558075 111.89991 
L 211.104632 113.712642 
L 211.651188 115.537231 
L 212.197744 117.373443 
L 212.744301 119.221044 
L 213.290857 121.0798 
L 213.837414 122.949478 
L 214.38397 124.829844 
L 214.930527 126.720667 
L 215.477083 128.621715 
L 216.02364 130.532754 
L 216.570196 132.453554 
L 217.116753 134.383882 
L 217.663309 136.323509 
L 218.209866 138.272204 
L 218.756422 140.229735 
L 219.302979 142.195873 
L 219.849535 144.170388 
L 220.396092 146.153051 
L 220.942648 148.143632 
L 221.489205 150.141901 
L 222.035761 152.147631 
L 222.582317 154.160592 
L 223.128874 156.180557 
L 223.67543 158.207296 
L 224.221987 160.240583 
L 224.768543 162.280189 
L 225.3151 164.325888 
L 225.861656 166.377451 
L 226.408213 168.434651 
L 226.954769 170.497262 
L 227.501326 172.565057 
L 228.047882 174.637809 
L 228.594439 176.715292 
L 229.140995 178.79728 
L 229.687552 180.883546 
L 230.234108 182.973865 
L 230.780665 185.06801 
L 231.327221 187.165756 
L 231.873778 189.266877 
L 232.420334 191.371148 
L 232.96689 193.478344 
L 233.513447 195.588238 
L 234.060003 197.700607 
L 234.60656 199.815223 
L 235.153116 201.931864 
L 235.699673 204.050303 
L 236.246229 206.170316 
L 236.792786 208.291677 
L 237.339342 210.414162 
L 237.885899 212.537547 
L 238.432455 214.661605 
L 238.979012 216.786113 
L 239.525568 218.910846 
" clip-path="url(#pdbf2956c2d)" style="fill: none; stroke: #d62728; stroke-width: 1.5; stroke-linecap: square"/>
   </g>
   <g id="line2d_18">
    <path d="M 239.525568 218.910846 
L 240.072125 219.678552 
L 240.618681 220.446034 
L 241.165238 221.213065 
L 241.711794 221.979423 
L 242.258351 222.744882 
L 242.804907 223.509217 
L 243.351463 224.272203 
L 243.89802 225.033616 
L 244.444576 225.793232 
L 244.991133 226.550824 
L 245.537689 227.306169 
L 246.084246 228.059042 
L 246.630802 228.809219 
L 247.177359 229.556473 
L 247.723915 230.300581 
L 248.270472 231.041318 
L 248.817028 231.778459 
L 249.363585 232.511779 
L 249.910141 233.241054 
L 250.456698 233.966059 
L 251.003254 234.686569 
L 251.549811 235.402359 
L 252.096367 236.113205 
L 252.642924 236.818882 
L 253.18948 237.519165 
L 253.736037 238.21383 
L 254.282593 238.902651 
L 254.829149 239.585404 
L 255.375706 240.261864 
L 255.922262 240.931807 
L 256.468819 241.595007 
L 257.015375 242.251241 
L 257.561932 242.900282 
L 258.108488 243.541907 
L 258.655045 244.175891 
L 259.201601 244.802009 
L 259.748158 245.420036 
L 260.294714 246.029747 
L 260.841271 246.630918 
L 261.387827 247.223325 
L 261.934384 247.806741 
L 262.48094 248.380943 
L 263.027497 248.945706 
L 263.574053 249.500805 
L 264.12061 250.046015 
L 264.667166 250.581111 
L 265.213722 251.10587 
L 265.760279 251.620065 
L 266.306835 252.123473 
L 266.853392 252.615869 
L 267.399948 253.097027 
L 267.946505 253.566723 
L 268.493061 254.024733 
L 269.039618 254.470831 
L 269.586174 254.904793 
L 270.132731 255.326394 
L 270.679287 255.73541 
L 271.225844 256.131615 
L 271.7724 256.514785 
L 272.318957 256.884696 
L 272.865513 257.241121 
L 273.41207 257.583838 
L 273.958626 257.91262 
L 274.505183 258.227243 
L 275.051739 258.527483 
L 275.598295 258.813114 
L 276.144852 259.083913 
L 276.691408 259.339653 
L 277.237965 259.580111 
L 277.784521 259.805062 
L 278.331078 260.014281 
L 278.877634 260.207543 
L 279.424191 260.384623 
L 279.970747 260.545297 
L 280.517304 260.689341 
L 281.06386 260.816528 
L 281.610417 260.926635 
L 282.156973 261.019436 
L 282.70353 261.094708 
L 283.250086 261.152225 
L 283.796643 261.191762 
L 284.343199 261.213096 
L 284.889756 261.216 
L 285.436312 261.200251 
L 285.982868 261.165623 
L 286.529425 261.111892 
L 287.075981 261.038833 
L 287.622538 260.946221 
L 288.169094 260.833832 
L 288.715651 260.701441 
L 289.262207 260.548822 
L 289.808764 260.375753 
L 290.35532 260.182006 
L 290.901877 259.967359 
L 291.448433 259.731586 
L 291.99499 259.474462 
L 292.541546 259.195763 
L 293.088103 258.895263 
L 293.634659 258.572739 
" clip-path="url(#pdbf2956c2d)" style="fill: none; stroke: #9467bd; stroke-width: 1.5; stroke-linecap: square"/>
   </g>
   <g id="line2d_19">
    <path d="M 239.525568 218.910846 
L 240.072125 219.678552 
L 240.618681 220.446034 
L 241.165238 221.213065 
L 241.711794 221.979423 
L 242.258351 222.744882 
L 242.804907 223.509217 
L 243.351463 224.272203 
L 243.89802 225.033616 
L 244.444576 225.793232 
L 244.991133 226.550824 
L 245.537689 227.306169 
L 246.084246 228.059042 
L 246.630802 228.809219 
L 247.177359 229.556473 
L 247.723915 230.300581 
L 248.270472 231.041318 
L 248.817028 231.778459 
L 249.363585 232.511779 
L 249.910141 233.241054 
L 250.456698 233.966059 
L 251.003254 234.686569 
L 251.549811 235.402359 
L 252.096367 236.113205 
L 252.642924 236.818882 
L 253.18948 237.519165 
L 253.736037 238.21383 
L 254.282593 238.902651 
L 254.829149 239.585404 
L 255.375706 240.261864 
L 255.922262 240.931807 
L 256.468819 241.595007 
L 257.015375 242.251241 
L 257.561932 242.900282 
L 258.108488 243.541907 
L 258.655045 244.175891 
L 259.201601 244.802009 
L 259.748158 245.420036 
L 260.294714 246.029747 
L 260.841271 246.630918 
L 261.387827 247.223325 
L 261.934384 247.806741 
L 262.48094 248.380943 
L 263.027497 248.945706 
L 263.574053 249.500805 
L 264.12061 250.046015 
L 264.667166 250.581111 
L 265.213722 251.10587 
L 265.760279 251.620065 
L 266.306835 252.123473 
L 266.853392 252.615869 
L 267.399948 253.097027 
L 267.946505 253.566723 
L 268.493061 254.024733 
L 269.039618 254.470831 
L 269.586174 254.904793 
L 270.132731 255.326394 
L 270.679287 255.73541 
L 271.225844 256.131615 
L 271.7724 256.514785 
L 272.318957 256.884696 
L 272.865513 257.241121 
L 273.41207 257.583838 
L 273.958626 257.91262 
L 274.505183 258.227243 
L 275.051739 258.527483 
L 275.598295 258.813114 
L 276.144852 259.083913 
L 276.691408 259.339653 
L 277.237965 259.580111 
L 277.784521 259.805062 
L 278.331078 260.014281 
L 278.877634 260.207543 
L 279.424191 260.384623 
L 279.970747 260.545297 
L 280.517304 260.689341 
L 281.06386 260.816528 
L 281.610417 260.926635 
L 282.156973 261.019436 
L 282.70353 261.094708 
L 283.250086 261.152225 
L 283.796643 261.191762 
L 284.343199 261.213096 
L 284.889756 261.216 
L 285.436312 261.200251 
L 285.982868 261.165623 
L 286.529425 261.111892 
L 287.075981 261.038833 
L 287.622538 260.946221 
L 288.169094 260.833832 
L 288.715651 260.701441 
L 289.262207 260.548822 
L 289.808764 260.375753 
L 290.35532 260.182006 
L 290.901877 259.967359 
L 291.448433 259.731586 
L 291.99499 259.474462 
L 292.541546 259.195763 
L 293.088103 258.895263 
L 293.634659 258.572739 
" clip-path="url(#pdbf2956c2d)" style="fill: none; stroke: #8c564b; stroke-width: 1.5; stroke-linecap: square"/>
   </g>
   <g id="line2d_20">
    <path d="M 293.634659 258.572739 
L 294.454494 258.047376 
L 295.274329 257.472456 
L 296.094163 256.848486 
L 296.913998 256.175971 
L 297.733833 255.455418 
L 298.553667 254.687331 
L 299.373502 253.872217 
L 300.193337 253.010581 
L 301.013171 252.102929 
L 301.833006 251.149766 
L 302.652841 250.151598 
L 303.472676 249.108931 
L 304.29251 248.022271 
L 305.112345 246.892122 
L 305.93218 245.718992 
L 306.752014 244.503385 
L 307.571849 243.245807 
L 308.391684 241.946764 
L 309.211519 240.606762 
L 310.031353 239.226305 
L 310.851188 237.805901 
L 311.671023 236.346054 
L 312.490857 234.84727 
L 313.310692 233.310056 
L 314.130527 231.734915 
L 314.950362 230.122355 
L 315.770196 228.472881 
L 316.590031 226.786999 
L 317.409866 225.065213 
L 318.2297 223.308031 
L 319.049535 221.515957 
L 319.86937 219.689498 
L 320.689205 217.829158 
L 321.509039 215.935444 
L 322.328874 214.008861 
L 323.148709 212.049916 
L 323.968543 210.059112 
L 324.788378 208.036958 
L 325.608213 205.983957 
L 326.428048 203.900615 
L 327.247882 201.78744 
L 328.067717 199.644935 
L 328.887552 197.473606 
L 329.707386 195.27396 
L 330.527221 193.046502 
L 331.347056 190.791738 
L 332.16689 188.510173 
L 332.986725 186.202313 
L 333.80656 183.868664 
L 334.626395 181.509731 
L 335.446229 179.12602 
L 336.266064 176.718037 
L 337.085899 174.286288 
L 337.905733 171.831277 
L 338.725568 169.353511 
L 339.545403 166.853495 
L 340.365238 164.331736 
L 341.185072 161.788738 
L 342.004907 159.225008 
L 342.824742 156.641051 
L 343.644576 154.037372 
L 344.464411 151.414478 
L 345.284246 148.772875 
L 346.104081 146.113066 
L 346.923915 143.43556 
L 347.74375 140.74086 
L 348.563585 138.029474 
L 349.383419 135.301905 
L 350.203254 132.558661 
L 351.023089 129.800247 
L 351.842924 127.027168 
L 352.662758 124.239931 
L 353.482593 121.43904 
L 354.302428 118.625002 
L 355.122262 115.798322 
L 355.942097 112.959505 
L 356.761932 110.109059 
L 357.581767 107.247487 
L 358.401601 104.375297 
L 359.221436 101.492993 
L 360.041271 98.601081 
L 360.861105 95.700067 
L 361.68094 92.790456 
L 362.500775 89.872755 
L 363.32061 86.947469 
L 364.140444 84.015103 
L 364.960279 81.076164 
L 365.780114 78.131157 
L 366.599948 75.180587 
L 367.419783 72.22496 
L 368.239618 69.264783 
L 369.059452 66.300559 
L 369.879287 63.332797 
L 370.699122 60.362 
L 371.518957 57.388675 
L 372.338791 54.413327 
L 373.158626 51.436462 
L 373.978461 48.458586 
L 374.798295 45.480204 
" clip-path="url(#pdbf2956c2d)" style="fill: none; stroke: #e377c2; stroke-width: 1.5; stroke-linecap: square"/>
   </g>
   <g id="line2d_21">
    <path d="M 293.634659 258.572739 
L 294.454494 258.047376 
L 295.274329 257.472456 
L 296.094163 256.848486 
L 296.913998 256.175971 
L 297.733833 255.455418 
L 298.553667 254.687331 
L 299.373502 253.872217 
L 300.193337 253.010581 
L 301.013171 252.102929 
L 301.833006 251.149766 
L 302.652841 250.151598 
L 303.472676 249.108931 
L 304.29251 248.022271 
L 305.112345 246.892122 
L 305.93218 245.718992 
L 306.752014 244.503385 
L 307.571849 243.245807 
L 308.391684 241.946764 
L 309.211519 240.606762 
L 310.031353 239.226305 
L 310.851188 237.805901 
L 311.671023 236.346054 
L 312.490857 234.84727 
L 313.310692 233.310056 
L 314.130527 231.734915 
L 314.950362 230.122355 
L 315.770196 228.472881 
L 316.590031 226.786999 
L 317.409866 225.065213 
L 318.2297 223.308031 
L 319.049535 221.515957 
L 319.86937 219.689498 
L 320.689205 217.829158 
L 321.509039 215.935444 
L 322.328874 214.008861 
L 323.148709 212.049916 
L 323.968543 210.059112 
L 324.788378 208.036958 
L 325.608213 205.983957 
L 326.428048 203.900615 
L 327.247882 201.78744 
L 328.067717 199.644935 
L 328.887552 197.473606 
L 329.707386 195.27396 
L 330.527221 193.046502 
L 331.347056 190.791738 
L 332.16689 188.510173 
L 332.986725 186.202313 
L 333.80656 183.868664 
L 334.626395 181.509731 
L 335.446229 179.12602 
L 336.266064 176.718037 
L 337.085899 174.286288 
L 337.905733 171.831277 
L 338.725568 169.353511 
L 339.545403 166.853495 
L 340.365238 164.331736 
L 341.185072 161.788738 
L 342.004907 159.225008 
L 342.824742 156.641051 
L 343.644576 154.037372 
L 344.464411 151.414478 
L 345.284246 148.772875 
L 346.104081 146.113066 
L 346.923915 143.43556 
L 347.74375 140.74086 
L 348.563585 138.029474 
L 349.383419 135.301905 
L 350.203254 132.558661 
L 351.023089 129.800247 
L 351.842924 127.027168 
L 352.662758 124.239931 
L 353.482593 121.43904 
L 354.302428 118.625002 
L 355.122262 115.798322 
L 355.942097 112.959505 
L 356.761932 110.109059 
L 357.581767 107.247487 
L 358.401601 104.375297 
L 359.221436 101.492993 
L 360.041271 98.601081 
L 360.861105 95.700067 
L 361.68094 92.790456 
L 362.500775 89.872755 
L 363.32061 86.947469 
L 364.140444 84.015103 
L 364.960279 81.076164 
L 365.780114 78.131157 
L 366.599948 75.180587 
L 367.419783 72.22496 
L 368.239618 69.264783 
L 369.059452 66.300559 
L 369.879287 63.332797 
L 370.699122 60.362 
L 371.518957 57.388675 
L 372.338791 54.413327 
L 373.158626 51.436462 
L 373.978461 48.458586 
L 374.798295 45.480204 
" clip-path="url(#pdbf2956c2d)" style="fill: none; stroke: #7f7f7f; stroke-width: 1.5; stroke-linecap: square"/>
   </g>
   <g id="patch_3">
    <path d="M 50.14375 273.312 
L 50.14375 7.2 
" style="fill: none; stroke: #000000; stroke-width: 0.8; stroke-linejoin: miter; stroke-linecap: square"/>
   </g>
   <g id="patch_4">
    <path d="M 391.031023 273.312 
L 391.031023 7.2 
" style="fill: none"/>
   </g>
   <g id="patch_5">
    <path d="M 33.911023 45.480204 
L 391.031023 45.480204 
" style="fill: none; stroke: #000000; stroke-width: 0.8; stroke-linejoin: miter; stroke-linecap: square"/>
   </g>
   <g id="patch_6">
    <path d="M 33.911023 7.2 
L 391.031023 7.2 
" style="fill: none"/>
   </g>
  </g>
 </g>
 <defs>
  <clipPath id="pdbf2956c2d">
   <rect x="33.911023" y="7.2" width="357.12" height="266.112"/>
  </clipPath>
 </defs>
</svg>
