<?xml version="1.0" encoding="UTF-8" standalone="no"?>
<!DOCTYPE svg PUBLIC "-//W3C//DTD SVG 1.1//EN" "http://www.w3.org/Graphics/SVG/1.1/DTD/svg11.dtd">
<!-- Gegenereerd door Microsoft Visio, SVG Export displacement2.svg Pagina-1 -->
<svg xmlns="http://www.w3.org/2000/svg" xmlns:xlink="http://www.w3.org/1999/xlink" xmlns:ev="http://www.w3.org/2001/xml-events"
		xmlns:v="http://schemas.microsoft.com/visio/2003/SVGExtensions/" width="2.00089in" height="1.7771in"
		viewBox="0 0 144.064 127.951" xml:space="preserve" color-interpolation-filters="sRGB" class="st5">
	<v:documentProperties v:langID="1043" v:metric="true" v:viewMarkup="false"/>

	<style type="text/css">
	<![CDATA[
		.st1 {stroke:#000000;stroke-linecap:round;stroke-linejoin:round;stroke-width:1.2}
		.st2 {stroke:#000000;stroke-linecap:round;stroke-linejoin:round;stroke-width:0.75}
		.st3 {stroke:#000000;stroke-linecap:round;stroke-linejoin:round;stroke-width:0.25}
		.st4 {stroke:#000000;stroke-linecap:round;stroke-linejoin:round;stroke-width:2}
		.st5 {fill:none;fill-rule:evenodd;font-size:12px;overflow:visible;stroke-linecap:square;stroke-miterlimit:3}
	]]>
	</style>

	<g v:mID="0" v:index="1" v:groupContext="foregroundPage">
		<title>Pagina-1</title>
		<v:pageProperties v:drawingScale="0.0393701" v:pageScale="0.0393701" v:drawingUnits="24" v:shadowOffsetX="8.50394"
				v:shadowOffsetY="-8.50394"/>
		<g id="group220-1" transform="translate(-26.5314,127.576) rotate(-90)" v:mID="220" v:groupContext="group">
			<title>Inklemming.220</title>
			<g id="shape221-2" v:mID="221" v:groupContext="shape" transform="translate(139.29,99.6045) rotate(90)">
				<title>Blad.221</title>
				<path d="M0 127.95 L28.35 127.95" class="st1"/>
			</g>
			<g id="shape222-5" v:mID="222" v:groupContext="shape" transform="translate(98.9789,9.12951) rotate(45)">
				<title>Blad.222</title>
				<path d="M0 127.95 L4.01 127.95" class="st2"/>
			</g>
			<g id="shape223-8" v:mID="223" v:groupContext="shape" transform="translate(96.1443,9.12951) rotate(45)">
				<title>Blad.223</title>
				<path d="M0 127.95 L8.02 127.95" class="st2"/>
			</g>
			<g id="shape224-11" v:mID="224" v:groupContext="shape" transform="translate(93.3096,9.12951) rotate(45)">
				<title>Blad.224</title>
				<path d="M0 127.95 L12.03 127.95" class="st2"/>
			</g>
			<g id="shape225-14" v:mID="225" v:groupContext="shape" transform="translate(90.475,9.12951) rotate(45)">
				<title>Blad.225</title>
				<path d="M0 127.95 L16.04 127.95" class="st2"/>
			</g>
			<g id="shape226-17" v:mID="226" v:groupContext="shape" transform="translate(90.475,11.9642) rotate(45)">
				<title>Blad.226</title>
				<path d="M0 127.95 L16.04 127.95" class="st2"/>
			</g>
			<g id="shape227-20" v:mID="227" v:groupContext="shape" transform="translate(90.475,14.7988) rotate(45)">
				<title>Blad.227</title>
				<path d="M0 127.95 L16.04 127.95" class="st2"/>
			</g>
			<g id="shape228-23" v:mID="228" v:groupContext="shape" transform="translate(90.475,17.6334) rotate(45)">
				<title>Blad.228</title>
				<path d="M0 127.95 L16.04 127.95" class="st2"/>
			</g>
			<g id="shape229-26" v:mID="229" v:groupContext="shape" transform="translate(90.475,20.4681) rotate(45)">
				<title>Blad.229</title>
				<path d="M0 127.95 L16.04 127.95" class="st2"/>
			</g>
			<g id="shape230-29" v:mID="230" v:groupContext="shape" transform="translate(90.475,23.3027) rotate(45)">
				<title>Blad.230</title>
				<path d="M0 127.95 L16.04 127.95" class="st2"/>
			</g>
			<g id="shape231-32" v:mID="231" v:groupContext="shape" transform="translate(90.475,26.1374) rotate(45)">
				<title>Blad.231</title>
				<path d="M0 127.95 L16.04 127.95" class="st2"/>
			</g>
			<g id="shape232-35" v:mID="232" v:groupContext="shape" transform="translate(90.475,28.972) rotate(45)">
				<title>Blad.232</title>
				<path d="M0 127.95 L12.03 127.95" class="st2"/>
			</g>
			<g id="shape233-38" v:mID="233" v:groupContext="shape" transform="translate(90.475,31.8067) rotate(45)">
				<title>Blad.233</title>
				<path d="M0 127.95 L8.02 127.95" class="st2"/>
			</g>
			<g id="shape234-41" v:mID="234" v:groupContext="shape" transform="translate(90.475,34.6413) rotate(45)">
				<title>Blad.234</title>
				<path d="M0 127.95 L4.01 127.95" class="st2"/>
			</g>
		</g>
		<g id="shape235-44" v:mID="235" v:groupContext="shape" transform="translate(-40.7046,116.237) rotate(-90)">
			<title>Ligger, 2 pt.235</title>
			<path d="M0 127.95 L113.39 127.95" class="st3"/>
		</g>
		<g id="shape236-47" v:mID="236" v:groupContext="shape" transform="translate(53.4643,150.019) rotate(-135)">
			<title>Ligger, 2 pt.236</title>
			<path d="M0 127.95 L80.18 127.95" class="st3"/>
		</g>
		<g id="shape237-50" v:mID="237" v:groupContext="shape" transform="translate(87.2463,130.802) rotate(180)">
			<title>Ligger, 2 pt.237</title>
			<path d="M0 127.95 L56.69 127.95" class="st3"/>
		</g>
		<g id="shape266-53" v:mID="266" v:groupContext="shape" transform="translate(-32.3536,149.127) rotate(-105.376)">
			<title>Blad.266</title>
			<path d="M0 124.04 C41 135.31 85.12 119.09 117.6 124.04" class="st4"/>
		</g>
		<g id="shape273-56" v:mID="273" v:groupContext="shape" transform="translate(163.357,-66.8622) rotate(56.9858)">
			<title>Blad.273</title>
			<path d="M0 127.95 C32.46 116.97 74.09 125.98 84.64 127.95" class="st4"/>
		</g>
		<g id="shape276-59" v:mID="276" v:groupContext="shape" transform="translate(93.4001,122.665) rotate(162.693)">
			<title>Blad.276</title>
			<path d="M0 125.5 C28.31 130.79 49.57 125.95 57.68 125.5" class="st4"/>
		</g>
	</g>
</svg>
