<?xml version="1.0" encoding="UTF-8" standalone="no"?>
<!DOCTYPE svg PUBLIC "-//W3C//DTD SVG 1.1//EN" "http://www.w3.org/Graphics/SVG/1.1/DTD/svg11.dtd">
<!-- Gegenereerd door Microsoft Visio, SVG Export bending.svg Pagina-1 -->
<svg xmlns="http://www.w3.org/2000/svg" xmlns:xlink="http://www.w3.org/1999/xlink" xmlns:ev="http://www.w3.org/2001/xml-events"
		xmlns:v="http://schemas.microsoft.com/visio/2003/SVGExtensions/" width="5.01042in" height="2.25104in"
		viewBox="0 0 360.75 162.075" xml:space="preserve" color-interpolation-filters="sRGB" class="st13">
	<v:documentProperties v:langID="1043" v:metric="true" v:viewMarkup="false"/>

	<style type="text/css">
	<![CDATA[
		.st1 {stroke:#000000;stroke-linecap:round;stroke-linejoin:round;stroke-width:0.25}
		.st2 {fill:#00cc99;stroke:#000000;stroke-linecap:round;stroke-linejoin:round;stroke-width:0.75}
		.st3 {stroke:#000000;stroke-linecap:round;stroke-linejoin:round;stroke-width:0.75}
		.st4 {stroke:#000000;stroke-linecap:round;stroke-linejoin:round;stroke-width:2}
		.st5 {fill:#ffffff;stroke:#000000;stroke-linecap:round;stroke-linejoin:round;stroke-width:0.75}
		.st6 {marker-end:url(#mrkr1-57);stroke:#000000;stroke-linecap:butt;stroke-width:3}
		.st7 {fill:#000000;fill-opacity:1;stroke:#000000;stroke-opacity:1;stroke-width:0.67567567567568}
		.st8 {fill:none;stroke:none;stroke-linecap:round;stroke-linejoin:round;stroke-width:0.24}
		.st9 {fill:#000000;font-family:Times New Roman;font-size:1.00001em;font-style:italic}
		.st10 {baseline-shift:-32.4941%;font-size:0.649882em;font-style:normal}
		.st11 {baseline-shift:32.4941%;font-size:0.649882em;font-style:normal}
		.st12 {stroke:#000000;stroke-dasharray:1.75,1.25;stroke-linecap:round;stroke-linejoin:round;stroke-width:0.25}
		.st13 {fill:none;fill-rule:evenodd;font-size:12px;overflow:visible;stroke-linecap:square;stroke-miterlimit:3}
	]]>
	</style>

	<defs id="Markers">
		<g id="lend1">
			<path d="M 1 -1 L 0 0 L 1 1 " style="stroke-linecap:round;stroke-linejoin:round;fill:none"/>
		</g>
		<marker id="mrkr1-57" class="st7" v:arrowType="1" v:arrowSize="0" orient="auto" markerUnits="strokeWidth"
				overflow="visible">
			<use xlink:href="#lend1" transform="scale(-1.48,-1.48) "/>
		</marker>
	</defs>
	<g v:mID="0" v:index="1" v:groupContext="foregroundPage">
		<title>Pagina-1</title>
		<v:pageProperties v:drawingScale="0.0393701" v:pageScale="0.0393701" v:drawingUnits="24" v:shadowOffsetX="8.50394"
				v:shadowOffsetY="-8.50394"/>
		<g id="shape228-1" v:mID="228" v:groupContext="shape" transform="translate(10.427,-36.9754)">
			<title>Blad.228</title>
			<path d="M340.03 48.69 L226.64 162.07 L0 162.07" class="st1"/>
		</g>
		<g id="group187-4" transform="translate(0.375,-22.8022)" v:mID="187" v:groupContext="group">
			<title>Rol.187</title>
			<g id="group188-5" transform="translate(0.261477,-2.83465)" v:mID="188" v:groupContext="group">
				<title>Scharnier</title>
				<g id="shape189-6" v:mID="189" v:groupContext="shape" transform="translate(2.79729,0)">
					<title>Blad.189</title>
					<path d="M0 162.07 L13.99 162.07 L6.99 150.74 L0 162.07 Z" class="st2"/>
				</g>
				<g id="shape190-8" v:mID="190" v:groupContext="shape" transform="translate(2.79729,324.15) rotate(180)">
					<title>Blad.190</title>
					<path d="M0 162.07 L2.8 162.07" class="st3"/>
				</g>
				<g id="shape191-11" v:mID="191" v:groupContext="shape" transform="translate(16.7838,0)">
					<title>Blad.191</title>
					<path d="M0 162.07 L2.8 162.07" class="st3"/>
				</g>
			</g>
			<g id="shape192-14" v:mID="192" v:groupContext="shape">
				<title>Blad.192</title>
				<path d="M0 162.07 L19.84 162.07" class="st3"/>
			</g>
		</g>
		<g id="group195-17" transform="translate(113.761,-22.8022)" v:mID="195" v:groupContext="group">
			<title>Rol.195</title>
			<g id="group196-18" transform="translate(0.261477,-2.83465)" v:mID="196" v:groupContext="group">
				<title>Scharnier</title>
				<g id="shape197-19" v:mID="197" v:groupContext="shape" transform="translate(2.79729,0)">
					<title>Blad.197</title>
					<path d="M0 162.07 L13.99 162.07 L6.99 150.74 L0 162.07 Z" class="st2"/>
				</g>
				<g id="shape198-21" v:mID="198" v:groupContext="shape" transform="translate(2.79729,324.15) rotate(180)">
					<title>Blad.198</title>
					<path d="M0 162.07 L2.8 162.07" class="st3"/>
				</g>
				<g id="shape199-24" v:mID="199" v:groupContext="shape" transform="translate(16.7838,0)">
					<title>Blad.199</title>
					<path d="M0 162.07 L2.8 162.07" class="st3"/>
				</g>
			</g>
			<g id="shape200-27" v:mID="200" v:groupContext="shape">
				<title>Blad.200</title>
				<path d="M0 162.07 L19.84 162.07" class="st3"/>
			</g>
		</g>
		<g id="group202-30" transform="translate(360.375,162.45) rotate(180)" v:mID="202" v:groupContext="group">
			<title>Scharnieroplegging.202</title>
			<g id="shape203-31" v:mID="203" v:groupContext="shape" transform="translate(2.83465,0)">
				<title>Blad.203</title>
				<path d="M0 162.07 L14.17 162.07 L7.09 150.74 L0 162.07 Z" class="st2"/>
			</g>
			<g id="shape204-33" v:mID="204" v:groupContext="shape" transform="translate(2.83465,324.15) rotate(180)">
				<title>Blad.204</title>
				<path d="M0 162.07 L2.83 162.07" class="st3"/>
			</g>
			<g id="shape205-36" v:mID="205" v:groupContext="shape" transform="translate(17.0079,0)">
				<title>Blad.205</title>
				<path d="M0 162.07 L2.83 162.07" class="st3"/>
			</g>
		</g>
		<g id="shape221-39" v:mID="221" v:groupContext="shape" transform="translate(123.682,287.174) rotate(180)">
			<title>Blad.221</title>
			<path d="M0 162.07 C21.28 133.73 85.14 154.99 113.39 162.07" class="st4"/>
		</g>
		<g id="shape229-42" v:mID="229" v:groupContext="shape" transform="translate(122.464,10.4953) rotate(-45)">
			<title>Blad.229</title>
			<path d="M0 162.07 C36.08 146.04 122.27 148.04 160.35 162.07" class="st4"/>
		</g>
		<g id="shape230-45" v:mID="230" v:groupContext="shape" transform="translate(123.813,-26.8226)">
			<title>Blad.230</title>
			<path d="M0 151.92 C21.13 123.58 100.36 185.45 113.26 151.92" class="st4"/>
		</g>
		<g id="shape215-48" v:mID="215" v:groupContext="shape" transform="translate(121.556,-34.8494)">
			<title>Scharnier.215</title>
			<ellipse cx="2.12598" cy="159.949" rx="2.12598" ry="2.12598" class="st5"/>
		</g>
		<g id="shape218-50" v:mID="218" v:groupContext="shape" transform="translate(234.942,-34.8495)">
			<title>Scharnier.218</title>
			<ellipse cx="2.12598" cy="159.949" rx="2.12598" ry="2.12598" class="st5"/>
		</g>
		<g id="shape235-52" v:mID="235" v:groupContext="shape" transform="translate(-46.5813,195.431) rotate(64.2819) scale(1,-1)">
			<title>Hoekverdraaiing.235</title>
			<path d="M0 162.07 C7.6 158.26 14.68 159.89 21.85 162.07" class="st6"/>
		</g>
		<g id="shape239-58" v:mID="239" v:groupContext="shape" transform="translate(82.3266,214.936) rotate(56.3382) scale(1,-1)">
			<title>Hoekverdraaiing.239</title>
			<path d="M0 162.07 C7.08 157.36 16.9 159.33 22.69 162.07" class="st6"/>
		</g>
		<g id="shape240-63" v:mID="240" v:groupContext="shape" transform="translate(294.704,66.8715) rotate(68.9449) scale(-1,1)">
			<title>Hoekverdraaiing.240</title>
			<path d="M0 162.07 C5.26 159.97 12.9 160.07 18.66 162.07" class="st6"/>
		</g>
		<g id="shape241-68" v:mID="241" v:groupContext="shape" transform="translate(353.399,-27.8297) rotate(35.812) scale(-1,1)">
			<title>Hoekverdraaiing.241</title>
			<path d="M0 162.07 C4.5 160.37 7.98 160.58 12.77 162.07" class="st6"/>
		</g>
		<g id="shape338-73" v:mID="338" v:groupContext="shape" transform="translate(93.9183,-2.95964)">
			<title>Punt A.338</title>
			<desc>φBAB</desc>
			<v:textBlock v:margins="rect(4,4,4,4)" v:tabSpace="42.5197"/>
			<v:textRect cx="21.2598" cy="154.988" width="42.52" height="14.1732"/>
			<rect x="0" y="147.902" width="42.5197" height="14.1732" class="st8"/>
			<text x="9.92" y="158.59" class="st9" v:langID="1043"><v:paragraph v:horizAlign="1"/><v:tabList/>φ<tspan dy="-0.279em"
						class="st10" v:baseFontSize="12">B</tspan><tspan dy="0.081em" class="st11" v:baseFontSize="12">AB</tspan></text>		</g>
		<g id="shape339-78" v:mID="339" v:groupContext="shape" transform="translate(108.092,-52.5659)">
			<title>Punt A.339</title>
			<desc>φBBD</desc>
			<v:textBlock v:margins="rect(4,4,4,4)" v:tabSpace="42.5197"/>
			<v:textRect cx="21.2598" cy="154.988" width="42.52" height="14.1732"/>
			<rect x="0" y="147.902" width="42.5197" height="14.1732" class="st8"/>
			<text x="9.92" y="158.59" class="st9" v:langID="1043"><v:paragraph v:horizAlign="1"/><v:tabList/>φ<tspan dy="-0.279em"
						class="st10" v:baseFontSize="12">B</tspan><tspan dy="0.081em" class="st11" v:baseFontSize="12">BD</tspan> </text>		</g>
		<g id="shape341-83" v:mID="341" v:groupContext="shape" transform="translate(215.525,-59.6526)">
			<title>Punt A.341</title>
			<desc>φDDC</desc>
			<v:textBlock v:margins="rect(4,4,4,4)" v:tabSpace="42.5197"/>
			<v:textRect cx="21.2598" cy="154.988" width="42.52" height="14.1732"/>
			<rect x="0" y="147.902" width="42.5197" height="14.1732" class="st8"/>
			<text x="9.71" y="158.59" class="st9" v:langID="1043"><v:paragraph v:horizAlign="1"/><v:tabList/>φ<tspan dy="-0.279em"
						class="st10" v:baseFontSize="12">D</tspan><tspan dy="0.081em" class="st11" v:baseFontSize="12">DC</tspan> </text>		</g>
		<g id="shape342-88" v:mID="342" v:groupContext="shape" transform="translate(221.477,-4.37697)">
			<title>Punt A.342</title>
			<desc>φDBD</desc>
			<v:textBlock v:margins="rect(4,4,4,4)" v:tabSpace="42.5197"/>
			<v:textRect cx="21.2598" cy="154.988" width="42.52" height="14.1732"/>
			<rect x="0" y="147.902" width="42.5197" height="14.1732" class="st8"/>
			<text x="9.71" y="158.59" class="st9" v:langID="1043"><v:paragraph v:horizAlign="1"/><v:tabList/>φ<tspan dy="-0.279em"
						class="st10" v:baseFontSize="12">D</tspan><tspan dy="0.081em" class="st11" v:baseFontSize="12">BD</tspan></text>		</g>
		<g id="shape346-93" v:mID="346" v:groupContext="shape" transform="translate(253.342,222.344) rotate(126.87)">
			<title>Blad.346</title>
			<path d="M0 162.07 L35.43 162.07" class="st12"/>
		</g>
		<g id="shape347-96" v:mID="347" v:groupContext="shape" transform="translate(274.602,193.998) rotate(126.87)">
			<title>Blad.347</title>
			<path d="M0 162.07 L35.43 162.07" class="st12"/>
		</g>
		<g id="shape348-99" v:mID="348" v:groupContext="shape" transform="translate(388.34,183.281) rotate(111.038)">
			<title>Blad.348</title>
			<path d="M0 162.07 L39.48 162.07" class="st12"/>
		</g>
		<g id="shape349-102" v:mID="349" v:groupContext="shape" transform="translate(402.513,146.431) rotate(111.038)">
			<title>Blad.349</title>
			<path d="M0 162.07 L39.48 162.07" class="st12"/>
		</g>
	</g>
</svg>
