<?xml version="1.0" encoding="UTF-8" standalone="no"?>
<!DOCTYPE svg PUBLIC "-//W3C//DTD SVG 1.1//EN" "http://www.w3.org/Graphics/SVG/1.1/DTD/svg11.dtd">
<!-- Gegenereerd door Microsoft Visio, SVG Export mechanism.svg Pagina-1 -->
<svg xmlns="http://www.w3.org/2000/svg" xmlns:xlink="http://www.w3.org/1999/xlink" xmlns:ev="http://www.w3.org/2001/xml-events"
		xmlns:v="http://schemas.microsoft.com/visio/2003/SVGExtensions/" width="5.00694in" height="3.42229in"
		viewBox="0 0 360.5 246.405" xml:space="preserve" color-interpolation-filters="sRGB" class="st15">
	<v:documentProperties v:langID="1043" v:metric="true" v:viewMarkup="false"/>

	<style type="text/css">
	<![CDATA[
		.st1 {stroke:#000000;stroke-dasharray:1.75,1.25;stroke-linecap:round;stroke-linejoin:round;stroke-width:0.25}
		.st2 {fill:#ffffff;stroke:#000000;stroke-linecap:round;stroke-linejoin:round;stroke-width:0.25}
		.st3 {fill:#00cc99;stroke:#000000;stroke-linecap:round;stroke-linejoin:round;stroke-width:0.75}
		.st4 {stroke:#000000;stroke-linecap:round;stroke-linejoin:round;stroke-width:0.75}
		.st5 {stroke:#000000;stroke-linecap:round;stroke-linejoin:round;stroke-width:0.25}
		.st6 {fill:#00cc99;fill-opacity:0.46;stroke:#000000;stroke-linecap:round;stroke-linejoin:round;stroke-width:0.25}
		.st7 {stroke:#000000;stroke-linecap:round;stroke-linejoin:round;stroke-width:2}
		.st8 {fill:#ffffff;stroke:#000000;stroke-linecap:round;stroke-linejoin:round;stroke-width:0.75}
		.st9 {marker-end:url(#mrkr1-99);stroke:#000000;stroke-linecap:butt;stroke-width:3}
		.st10 {fill:#000000;fill-opacity:1;stroke:#000000;stroke-opacity:1;stroke-width:0.67567567567568}
		.st11 {fill:none;stroke:none;stroke-linecap:round;stroke-linejoin:round;stroke-width:0.24}
		.st12 {fill:#000000;font-family:Times New Roman;font-size:1.00001em;font-style:italic}
		.st13 {fill:#000000;font-family:Times New Roman;font-size:1.00001em}
		.st14 {baseline-shift:-32.4941%;font-size:0.649882em}
		.st15 {fill:none;fill-rule:evenodd;font-size:12px;overflow:visible;stroke-linecap:square;stroke-miterlimit:3}
	]]>
	</style>

	<defs id="Markers">
		<g id="lend1">
			<path d="M 1 -1 L 0 0 L 1 1 " style="stroke-linecap:round;stroke-linejoin:round;fill:none"/>
		</g>
		<marker id="mrkr1-99" class="st10" v:arrowType="1" v:arrowSize="0" orient="auto" markerUnits="strokeWidth"
				overflow="visible">
			<use xlink:href="#lend1" transform="scale(-1.48,-1.48) "/>
		</marker>
	</defs>
	<g v:mID="0" v:index="1" v:groupContext="foregroundPage">
		<title>Pagina-1</title>
		<v:pageProperties v:drawingScale="0.0393701" v:pageScale="0.0393701" v:drawingUnits="24" v:shadowOffsetX="8.50394"
				v:shadowOffsetY="-8.50394"/>
		<g id="shape250-1" v:mID="250" v:groupContext="shape" transform="translate(390.826,184.861) rotate(104.036)">
			<title>Blad.250</title>
			<path d="M0 246.4 L116.88 246.4" class="st1"/>
		</g>
		<g id="shape249-4" v:mID="249" v:groupContext="shape" transform="translate(391.939,364.736) rotate(149.036)">
			<title>Blad.249</title>
			<path d="M0 246.4 L165.29 246.4" class="st1"/>
		</g>
		<g id="shape247-7" v:mID="247" v:groupContext="shape" transform="translate(411.052,299.334) rotate(135)">
			<title>Blad.247</title>
			<path d="M0 246.4 L160.35 246.4" class="st1"/>
		</g>
		<g id="shape248-10" v:mID="248" v:groupContext="shape" transform="translate(-122.973,238.485) rotate(-90)">
			<title>Blad.248</title>
			<path d="M0 246.4 L113.39 246.4" class="st1"/>
		</g>
		<g id="shape185-13" v:mID="185" v:groupContext="shape" transform="translate(121.306,-119.179)">
			<title>Scharnier.185</title>
			<ellipse cx="2.12598" cy="244.279" rx="2.12598" ry="2.12598" class="st2"/>
		</g>
		<g id="group179-15" transform="translate(141.857,-107.132)" v:mID="179" v:groupContext="group">
			<title>Rol.179</title>
			<g id="group180-16" transform="translate(0.261477,-2.83465)" v:mID="180" v:groupContext="group">
				<title>Scharnier</title>
				<g id="shape181-17" v:mID="181" v:groupContext="shape" transform="translate(2.79729,0)">
					<title>Blad.181</title>
					<path d="M0 246.4 L13.99 246.4 L6.99 235.07 L0 246.4 Z" class="st3"/>
				</g>
				<g id="shape182-19" v:mID="182" v:groupContext="shape" transform="translate(2.79729,492.809) rotate(180)">
					<title>Blad.182</title>
					<path d="M0 246.4 L2.8 246.4" class="st4"/>
				</g>
				<g id="shape183-22" v:mID="183" v:groupContext="shape" transform="translate(16.7838,0)">
					<title>Blad.183</title>
					<path d="M0 246.4 L2.8 246.4" class="st4"/>
				</g>
			</g>
			<g id="shape184-25" v:mID="184" v:groupContext="shape">
				<title>Blad.184</title>
				<path d="M0 246.4 L19.84 246.4" class="st4"/>
			</g>
		</g>
		<g id="shape170-28" v:mID="170" v:groupContext="shape" transform="translate(10.1116,-121.305)">
			<title>Blad.170</title>
			<path d="M340.03 133.02 L226.64 246.4 L0 246.4" class="st5"/>
		</g>
		<g id="group133-31" transform="translate(0.125,-107.132)" v:mID="133" v:groupContext="group">
			<title>Rol.133</title>
			<g id="group134-32" transform="translate(0.261477,-2.83465)" v:mID="134" v:groupContext="group">
				<title>Scharnier</title>
				<g id="shape135-33" v:mID="135" v:groupContext="shape" transform="translate(2.79729,0)">
					<title>Blad.135</title>
					<path d="M0 246.4 L13.99 246.4 L6.99 235.07 L0 246.4 Z" class="st6"/>
				</g>
				<g id="shape136-35" v:mID="136" v:groupContext="shape" transform="translate(2.79729,492.809) rotate(180)">
					<title>Blad.136</title>
					<path d="M0 246.4 L2.8 246.4" class="st5"/>
				</g>
				<g id="shape137-38" v:mID="137" v:groupContext="shape" transform="translate(16.7838,0)">
					<title>Blad.137</title>
					<path d="M0 246.4 L2.8 246.4" class="st5"/>
				</g>
			</g>
			<g id="shape138-41" v:mID="138" v:groupContext="shape">
				<title>Blad.138</title>
				<path d="M0 246.4 L19.84 246.4" class="st5"/>
			</g>
		</g>
		<g id="shape139-44" v:mID="139" v:groupContext="shape" transform="translate(38.3927,-121.305)">
			<title>Ligger, 2 pt.139</title>
			<path d="M0 246.4 L113.39 246.4" class="st7"/>
		</g>
		<g id="shape140-47" v:mID="140" v:groupContext="shape" transform="translate(211.54,-113.948) rotate(14.0362)">
			<title>Ligger, 2 pt.140</title>
			<path d="M0 246.4 L116.88 246.4" class="st7"/>
		</g>
		<g id="group141-50" transform="translate(113.511,-107.132)" v:mID="141" v:groupContext="group">
			<title>Rol.141</title>
			<g id="group142-51" transform="translate(0.261477,-2.83465)" v:mID="142" v:groupContext="group">
				<title>Scharnier</title>
				<g id="shape143-52" v:mID="143" v:groupContext="shape" transform="translate(2.79729,0)">
					<title>Blad.143</title>
					<path d="M0 246.4 L13.99 246.4 L6.99 235.07 L0 246.4 Z" class="st6"/>
				</g>
				<g id="shape144-54" v:mID="144" v:groupContext="shape" transform="translate(2.79729,492.809) rotate(180)">
					<title>Blad.144</title>
					<path d="M0 246.4 L2.8 246.4" class="st5"/>
				</g>
				<g id="shape145-57" v:mID="145" v:groupContext="shape" transform="translate(16.7838,0)">
					<title>Blad.145</title>
					<path d="M0 246.4 L2.8 246.4" class="st5"/>
				</g>
			</g>
			<g id="shape146-60" v:mID="146" v:groupContext="shape">
				<title>Blad.146</title>
				<path d="M0 246.4 L19.84 246.4" class="st5"/>
			</g>
		</g>
		<g id="shape147-63" v:mID="147" v:groupContext="shape" transform="translate(53.8741,26.6718) rotate(-59.0363)">
			<title>Ligger, 2 pt.147</title>
			<path d="M0 246.4 L165.29 246.4" class="st7"/>
		</g>
		<g id="group148-66" transform="translate(360.125,246.78) rotate(180)" v:mID="148" v:groupContext="group">
			<title>Scharnieroplegging.148</title>
			<g id="shape149-67" v:mID="149" v:groupContext="shape" transform="translate(2.83465,0)">
				<title>Blad.149</title>
				<path d="M0 246.4 L14.17 246.4 L7.09 235.07 L0 246.4 Z" class="st3"/>
			</g>
			<g id="shape150-69" v:mID="150" v:groupContext="shape" transform="translate(2.83465,492.809) rotate(180)">
				<title>Blad.150</title>
				<path d="M0 246.4 L2.83 246.4" class="st4"/>
			</g>
			<g id="shape151-72" v:mID="151" v:groupContext="shape" transform="translate(17.0079,0)">
				<title>Blad.151</title>
				<path d="M0 246.4 L2.83 246.4" class="st4"/>
			</g>
		</g>
		<g id="shape164-75" v:mID="164" v:groupContext="shape" transform="translate(149.653,-119.179)">
			<title>Scharnier.164</title>
			<ellipse cx="2.12598" cy="244.279" rx="2.12598" ry="2.12598" class="st8"/>
		</g>
		<g id="shape167-77" v:mID="167" v:groupContext="shape" transform="translate(263.038,-90.8327)">
			<title>Scharnier.167</title>
			<ellipse cx="2.12598" cy="244.279" rx="2.12598" ry="2.12598" class="st8"/>
		</g>
		<g id="group173-79" transform="translate(28.4715,-107.132)" v:mID="173" v:groupContext="group">
			<title>Rol.173</title>
			<g id="group174-80" transform="translate(0.261477,-2.83465)" v:mID="174" v:groupContext="group">
				<title>Scharnier</title>
				<g id="shape175-81" v:mID="175" v:groupContext="shape" transform="translate(2.79729,0)">
					<title>Blad.175</title>
					<path d="M0 246.4 L13.99 246.4 L6.99 235.07 L0 246.4 Z" class="st3"/>
				</g>
				<g id="shape176-83" v:mID="176" v:groupContext="shape" transform="translate(2.79729,492.809) rotate(180)">
					<title>Blad.176</title>
					<path d="M0 246.4 L2.8 246.4" class="st4"/>
				</g>
				<g id="shape177-86" v:mID="177" v:groupContext="shape" transform="translate(16.7838,0)">
					<title>Blad.177</title>
					<path d="M0 246.4 L2.8 246.4" class="st4"/>
				</g>
			</g>
			<g id="shape178-89" v:mID="178" v:groupContext="shape">
				<title>Blad.178</title>
				<path d="M0 246.4 L19.84 246.4" class="st4"/>
			</g>
		</g>
		<g id="shape186-92" v:mID="186" v:groupContext="shape" transform="translate(234.692,-119.179)">
			<title>Scharnier.186</title>
			<ellipse cx="2.12598" cy="244.279" rx="2.12598" ry="2.12598" class="st2"/>
		</g>
		<g id="shape231-94" v:mID="231" v:groupContext="shape" transform="translate(171.017,272.523) rotate(31.4426) scale(1,-1)">
			<title>Hoekverdraaiing</title>
			<path d="M0 246.4 C7.26 244.68 11.23 245.03 17.41 246.4" class="st9"/>
		</g>
		<g id="shape232-100" v:mID="232" v:groupContext="shape"
				transform="translate(-26.1843,81.1382) rotate(-79.6933) scale(-1,1)">
			<title>Hoekverdraaiing.232</title>
			<path d="M0 245.71 C4.74 246.57 10.47 246.75 15.5 245.71" class="st9"/>
		</g>
		<g id="shape233-105" v:mID="233" v:groupContext="shape" transform="translate(279.338,-185.085)">
			<title>Punt A.233</title>
			<desc>θ</desc>
			<v:textBlock v:margins="rect(4,4,4,4)" v:tabSpace="42.5197"/>
			<v:textRect cx="14.1732" cy="239.318" width="28.35" height="14.1732"/>
			<rect x="0" y="232.231" width="28.3465" height="14.1732" class="st11"/>
			<text x="11.23" y="242.92" class="st12" v:langID="1043"><v:paragraph v:horizAlign="1"/><v:tabList/>θ  </text>		</g>
		<g id="shape234-108" v:mID="234" v:groupContext="shape" transform="translate(201.385,-121.305)">
			<title>Punt A.234</title>
			<desc>θ</desc>
			<v:textBlock v:margins="rect(4,4,4,4)" v:tabSpace="42.5197"/>
			<v:textRect cx="14.1732" cy="239.318" width="28.35" height="14.1732"/>
			<rect x="0" y="232.231" width="28.3465" height="14.1732" class="st11"/>
			<text x="11.23" y="242.92" class="st12" v:langID="1043"><v:paragraph v:horizAlign="1"/><v:tabList/>θ  </text>		</g>
		<g id="shape251-111" v:mID="251" v:groupContext="shape" transform="translate(80.3455,-0.832723)">
			<title>Punt A.251</title>
			<desc>RCBD</desc>
			<v:textBlock v:margins="rect(4,4,4,4)" v:tabSpace="42.5197"/>
			<v:textRect cx="21.8268" cy="239.318" width="43.66" height="14.1732"/>
			<rect x="0" y="232.231" width="43.6535" height="14.1732" class="st11"/>
			<text x="8.41" y="242.92" class="st13" v:langID="1043"><v:paragraph v:horizAlign="1"/><v:tabList/>RC<tspan
						dy="-0.279em" class="st14" v:baseFontSize="12">BD</tspan></text>		</g>
		<g id="shape252-115" v:mID="252" v:groupContext="shape" transform="translate(293.143,59.8422) rotate(43.5312)">
			<title>Blad.252</title>
			<path d="M0 246.4 L2.83 246.4" class="st5"/>
		</g>
		<g id="shape253-118" v:mID="253" v:groupContext="shape" transform="translate(291.088,57.8898) rotate(43.5312)">
			<title>Blad.253</title>
			<path d="M0 246.4 L2.83 246.4" class="st5"/>
		</g>
		<g id="shape255-121" v:mID="255" v:groupContext="shape" transform="translate(297.666,412.72) rotate(135)">
			<title>Blad.255</title>
			<path d="M0 246.4 L2.83 246.4" class="st5"/>
		</g>
		<g id="shape256-124" v:mID="256" v:groupContext="shape" transform="translate(299.671,410.715) rotate(135)">
			<title>Blad.256</title>
			<path d="M0 246.4 L2.83 246.4" class="st5"/>
		</g>
		<g id="shape257-127" v:mID="257" v:groupContext="shape" transform="translate(56.9578,411.02) rotate(15.7111) scale(1,-1)">
			<title>Hoekverdraaiing.257</title>
			<path d="M0 245.49 C5.46 247.02 11.53 246.37 15.48 245.49" class="st9"/>
		</g>
		<g id="shape258-132" v:mID="258" v:groupContext="shape" transform="translate(-30.2989,336.948) rotate(54.1483) scale(1,-1)">
			<title>Hoekverdraaiing.258</title>
			<path d="M0 245.81 C5.97 246.55 10.62 246.69 15.66 245.81" class="st9"/>
		</g>
		<g id="shape259-137" v:mID="259" v:groupContext="shape" transform="translate(95.0856,-64.6123)">
			<title>Punt A.259</title>
			<desc>θ</desc>
			<v:textBlock v:margins="rect(4,4,4,4)" v:tabSpace="42.5197"/>
			<v:textRect cx="14.1732" cy="239.318" width="28.35" height="14.1732"/>
			<rect x="0" y="232.231" width="28.3465" height="14.1732" class="st11"/>
			<text x="11.23" y="242.92" class="st12" v:langID="1043"><v:paragraph v:horizAlign="1"/><v:tabList/>θ  </text>		</g>
		<g id="shape260-140" v:mID="260" v:groupContext="shape" transform="translate(180.125,-29.1792)">
			<title>Punt A.260</title>
			<desc>θ</desc>
			<v:textBlock v:margins="rect(4,4,4,4)" v:tabSpace="42.5197"/>
			<v:textRect cx="14.1732" cy="239.318" width="28.35" height="14.1732"/>
			<rect x="0" y="232.231" width="28.3465" height="14.1732" class="st11"/>
			<text x="11.23" y="242.92" class="st12" v:langID="1043"><v:paragraph v:horizAlign="1"/><v:tabList/>θ  </text>		</g>
	</g>
</svg>
