<?xml version="1.0" encoding="UTF-8" standalone="no"?>
<!DOCTYPE svg PUBLIC "-//W3C//DTD SVG 1.1//EN" "http://www.w3.org/Graphics/SVG/1.1/DTD/svg11.dtd">
<!-- Gegenereerd door Microsoft Visio, SVG Export Mlijn2.svg Pagina-1 -->
<svg xmlns="http://www.w3.org/2000/svg" xmlns:xlink="http://www.w3.org/1999/xlink" xmlns:ev="http://www.w3.org/2001/xml-events"
		xmlns:v="http://schemas.microsoft.com/visio/2003/SVGExtensions/" width="5.33798in" height="3.48386in"
		viewBox="0 0 384.334 250.838" xml:space="preserve" color-interpolation-filters="sRGB" class="st9">
	<v:documentProperties v:langID="1043" v:metric="true" v:viewMarkup="false"/>

	<style type="text/css">
	<![CDATA[
		.st1 {stroke:#000000;stroke-linecap:round;stroke-linejoin:round;stroke-width:0.75}
		.st2 {stroke:#000000;stroke-linecap:round;stroke-linejoin:round;stroke-width:0.25}
		.st3 {stroke:#000000;stroke-dasharray:1.75,1.25;stroke-linecap:round;stroke-linejoin:round;stroke-width:0.25}
		.st4 {stroke:#000000;stroke-linecap:round;stroke-linejoin:round;stroke-width:2.25}
		.st5 {stroke:#000000;stroke-linecap:round;stroke-linejoin:round;stroke-width:1.25}
		.st6 {fill:none;stroke:none;stroke-linecap:round;stroke-linejoin:round;stroke-width:0.24}
		.st7 {fill:#000000;font-family:Times New Roman;font-size:1.00001em}
		.st8 {stroke:#000000;stroke-linecap:round;stroke-linejoin:round;stroke-width:1.2}
		.st9 {fill:none;fill-rule:evenodd;font-size:12px;overflow:visible;stroke-linecap:square;stroke-miterlimit:3}
	]]>
	</style>

	<g v:mID="0" v:index="1" v:groupContext="foregroundPage">
		<title>Pagina-1</title>
		<v:pageProperties v:drawingScale="0.0393701" v:pageScale="0.0393701" v:drawingUnits="24" v:shadowOffsetX="8.50394"
				v:shadowOffsetY="-8.50394"/>
		<g id="shape448-1" v:mID="448" v:groupContext="shape" transform="translate(21.3799,-124.576)">
			<title>Ligger, 2 pt.448</title>
			<path d="M0 250.84 L113.39 250.84" class="st1"/>
		</g>
		<g id="shape449-4" v:mID="449" v:groupContext="shape" transform="translate(134.766,-124.576)">
			<title>Ligger, 2 pt.449</title>
			<path d="M0 250.84 L113.39 250.84" class="st1"/>
		</g>
		<g id="shape450-7" v:mID="450" v:groupContext="shape" transform="translate(70.7826,-51.1072) rotate(-45)">
			<title>Ligger, 2 pt.450</title>
			<path d="M0 250.84 L160.35 250.84" class="st1"/>
		</g>
		<g id="shape451-10" v:mID="451" v:groupContext="shape" transform="translate(-116.072,126.262) rotate(-90)">
			<title>Blad.451</title>
			<path d="M0 250.84 L2.83 250.84" class="st2"/>
		</g>
		<g id="shape452-13" v:mID="452" v:groupContext="shape" transform="translate(385.603,126.262) rotate(90)">
			<title>Blad.452</title>
			<path d="M0 250.84 L2.83 250.84" class="st2"/>
		</g>
		<g id="shape453-16" v:mID="453" v:groupContext="shape" transform="translate(337.627,-106.313) rotate(53.9726)">
			<title>Blad.453</title>
			<path d="M0 250.84 L192.78 250.84" class="st3"/>
		</g>
		<g id="shape454-19" v:mID="454" v:groupContext="shape" transform="translate(-129.123,-74.4083) rotate(-36.8699)">
			<title>Blad.454</title>
			<path d="M0 250.84 L141.73 250.84" class="st4"/>
		</g>
		<g id="shape455-22" v:mID="455" v:groupContext="shape" transform="translate(425.52,-51.1072) rotate(45)">
			<title>Blad.455</title>
			<path d="M0 250.84 L70.87 250.84" class="st4"/>
		</g>
		<g id="shape456-25" v:mID="456" v:groupContext="shape" transform="translate(64.3322,85.8367) rotate(-68.8426)">
			<title>Blad.456</title>
			<path d="M0 250.84 L175.31 250.84" class="st4"/>
		</g>
		<g id="shape457-28" v:mID="457" v:groupContext="shape" transform="translate(-59.3789,175.868) rotate(-90)">
			<title>Blad.457</title>
			<path d="M0 250.84 L56.69 250.84" class="st2"/>
		</g>
		<g id="shape458-31" v:mID="458" v:groupContext="shape" transform="translate(394.32,28.3325) rotate(53.9726)">
			<title>Blad.458</title>
			<path d="M0 250.84 L42.52 250.84" class="st3"/>
		</g>
		<g id="shape459-34" v:mID="459" v:groupContext="shape" transform="translate(369.311,-6.05473) rotate(53.9726)">
			<title>Blad.459</title>
			<path d="M0 250.84 L42.52 250.84" class="st3"/>
		</g>
		<g id="shape460-37" v:mID="460" v:groupContext="shape" transform="translate(375.268,-30.0377) rotate(73.4956)">
			<title>Blad.460</title>
			<path d="M0 250.84 L199.56 250.84" class="st3"/>
		</g>
		<g id="shape461-40" v:mID="461" v:groupContext="shape" transform="translate(58.5149,19.8511) rotate(-32.0054)">
			<title>Blad.461</title>
			<path d="M0 250.84 L66.85 250.84" class="st3"/>
		</g>
		<g id="shape462-43" v:mID="462" v:groupContext="shape" transform="translate(310.707,-86.7352) rotate(53.9726)">
			<title>Blad.462</title>
			<path d="M0 217.55 C36.26 230.41 166.07 276.6 189.78 231.68 C191.15 229.07 192.17 226.16 192.78 217.55" class="st4"/>
		</g>
		<g id="shape463-46" v:mID="463" v:groupContext="shape" transform="translate(-2.68605,197.128) rotate(-90)">
			<title>Blad.463</title>
			<path d="M0 250.84 L70.87 250.84" class="st4"/>
		</g>
		<g id="shape464-49" v:mID="464" v:groupContext="shape" transform="translate(14.0897,-58.1938) rotate(-45)">
			<title>Blad.464</title>
			<path d="M0 250.84 L2.83 250.84" class="st2"/>
		</g>
		<g id="shape465-52" v:mID="465" v:groupContext="shape" transform="translate(12.0853,-56.1894) rotate(-45)">
			<title>Blad.465</title>
			<path d="M0 250.84 L2.83 250.84" class="st2"/>
		</g>
		<g id="shape466-55" v:mID="466" v:groupContext="shape" transform="translate(368.828,-58.1938) rotate(45)">
			<title>Blad.466</title>
			<path d="M0 250.84 L2.83 250.84" class="st2"/>
		</g>
		<g id="shape467-58" v:mID="467" v:groupContext="shape" transform="translate(366.823,-60.1982) rotate(45)">
			<title>Blad.467</title>
			<path d="M0 250.84 L2.83 250.84" class="st2"/>
		</g>
		<g id="shape468-61" v:mID="468" v:groupContext="shape" transform="translate(14.0897,-1.50092) rotate(-45)">
			<title>Blad.468</title>
			<path d="M0 250.84 L2.83 250.84" class="st2"/>
		</g>
		<g id="shape469-64" v:mID="469" v:groupContext="shape" transform="translate(12.0853,0.503481) rotate(-45)">
			<title>Blad.469</title>
			<path d="M0 250.84 L2.83 250.84" class="st2"/>
		</g>
		<g id="shape470-67" v:mID="470" v:groupContext="shape" transform="translate(14.0897,55.192) rotate(-45)">
			<title>Blad.470</title>
			<path d="M0 250.84 L2.83 250.84" class="st2"/>
		</g>
		<g id="shape471-70" v:mID="471" v:groupContext="shape" transform="translate(12.0853,57.1964) rotate(-45)">
			<title>Blad.471</title>
			<path d="M0 250.84 L2.83 250.84" class="st2"/>
		</g>
		<g id="shape472-73" v:mID="472" v:groupContext="shape" transform="translate(368.828,55.192) rotate(45)">
			<title>Blad.472</title>
			<path d="M0 250.84 L2.83 250.84" class="st2"/>
		</g>
		<g id="shape473-76" v:mID="473" v:groupContext="shape" transform="translate(366.823,53.1876) rotate(45)">
			<title>Blad.473</title>
			<path d="M0 250.84 L2.83 250.84" class="st2"/>
		</g>
		<g id="shape474-79" v:mID="474" v:groupContext="shape" transform="translate(106.419,-138.749)">
			<title>Momentvervormingsteken.474</title>
			<path d="M0 250.84 A14.1732 14.1732 0 0 1 14.17 236.66 A14.1732 14.1732 0 0 1 28.35 250.84" class="st5"/>
		</g>
		<g id="shape475-82" v:mID="475" v:groupContext="shape" transform="translate(241.065,384.186) rotate(180)">
			<title>Momentvervormingsteken.475</title>
			<path d="M0 250.84 A14.1732 14.1732 0 0 1 14.17 236.66 A14.1732 14.1732 0 0 1 28.35 250.84" class="st5"/>
		</g>
		<g id="shape476-85" v:mID="476" v:groupContext="shape" transform="translate(473.911,270.273) rotate(135)">
			<title>Momentvervormingsteken.476</title>
			<path d="M0 250.84 A14.1732 14.1732 0 0 1 14.17 236.66 A14.1732 14.1732 0 0 1 28.35 250.84" class="st5"/>
		</g>
		<g id="shape477-88" v:mID="477" v:groupContext="shape" transform="translate(120.592,-209.615)">
			<title>Punt A.477</title>
			<desc>60</desc>
			<v:textBlock v:margins="rect(4,4,4,4)" v:tabSpace="42.5197"/>
			<v:textRect cx="14.1732" cy="243.751" width="28.35" height="14.1732"/>
			<rect x="0" y="236.664" width="28.3465" height="14.1732" class="st6"/>
			<text x="8.17" y="247.35" class="st7" v:langID="1043"><v:paragraph v:horizAlign="1"/><v:tabList/>60</text>		</g>
		<g id="shape478-91" v:mID="478" v:groupContext="shape" transform="translate(184.372,-131.662)">
			<title>Punt A.478</title>
			<desc>5</desc>
			<v:textBlock v:margins="rect(4,4,4,4)" v:tabSpace="42.5197"/>
			<v:textRect cx="14.1732" cy="243.751" width="28.35" height="14.1732"/>
			<rect x="0" y="236.664" width="28.3465" height="14.1732" class="st6"/>
			<text x="11.17" y="247.35" class="st7" v:langID="1043"><v:paragraph v:horizAlign="1"/><v:tabList/>5</text>		</g>
		<g id="shape479-94" v:mID="479" v:groupContext="shape" transform="translate(184.372,-74.9695)">
			<title>Punt A.479</title>
			<desc>35</desc>
			<v:textBlock v:margins="rect(4,4,4,4)" v:tabSpace="42.5197"/>
			<v:textRect cx="14.1732" cy="243.751" width="28.35" height="14.1732"/>
			<rect x="0" y="236.664" width="28.3465" height="14.1732" class="st6"/>
			<text x="8.17" y="247.35" class="st7" v:langID="1043"><v:paragraph v:horizAlign="1"/><v:tabList/>35</text>		</g>
		<g id="shape480-97" v:mID="480" v:groupContext="shape" transform="translate(163.112,-0.12)">
			<title>Punt A.480</title>
			<desc>75</desc>
			<v:textBlock v:margins="rect(4,4,4,4)" v:tabSpace="42.5197"/>
			<v:textRect cx="14.1732" cy="243.751" width="28.35" height="14.1732"/>
			<rect x="0" y="236.664" width="28.3465" height="14.1732" class="st6"/>
			<text x="8.17" y="247.35" class="st7" v:langID="1043"><v:paragraph v:horizAlign="1"/><v:tabList/>75</text>		</g>
		<g id="shape481-100" v:mID="481" v:groupContext="shape" transform="translate(233.978,-39.5365)">
			<title>Punt A.481</title>
			<desc>50</desc>
			<v:textBlock v:margins="rect(4,4,4,4)" v:tabSpace="42.5197"/>
			<v:textRect cx="14.1732" cy="243.751" width="28.35" height="14.1732"/>
			<rect x="0" y="236.664" width="28.3465" height="14.1732" class="st6"/>
			<text x="8.17" y="247.35" class="st7" v:langID="1043"><v:paragraph v:horizAlign="1"/><v:tabList/>50</text>		</g>
		<g id="shape482-103" v:mID="482" v:groupContext="shape" transform="translate(121.605,20.6187) rotate(-45)">
			<title>Punt A.482</title>
			<desc>50</desc>
			<v:textBlock v:margins="rect(4,4,4,4)" v:tabSpace="42.5197"/>
			<v:textRect cx="14.1732" cy="243.751" width="28.35" height="14.1732"/>
			<rect x="0" y="236.664" width="28.3465" height="14.1732" class="st6"/>
			<text x="8.17" y="247.35" class="st7" v:langID="1043"><v:paragraph v:horizAlign="1"/><v:tabList/>50</text>		</g>
		<g id="shape483-106" v:mID="483" v:groupContext="shape" transform="translate(-59.3789,232.561) rotate(-90)">
			<title>Blad.483</title>
			<path d="M0 250.84 L56.69 250.84" class="st2"/>
		</g>
		<g id="shape484-109" v:mID="484" v:groupContext="shape" transform="translate(186.802,-141.816) rotate(-45)">
			<title>Punt A.484</title>
			<desc>0</desc>
			<v:textBlock v:margins="rect(4,4,4,4)" v:tabSpace="42.5197"/>
			<v:textRect cx="14.1732" cy="243.751" width="28.35" height="14.1732"/>
			<rect x="0" y="236.664" width="28.3465" height="14.1732" class="st6"/>
			<text x="11.17" y="247.35" class="st7" v:langID="1043"><v:paragraph v:horizAlign="1"/><v:tabList/>0</text>		</g>
		<g id="shape485-112" v:mID="485" v:groupContext="shape" transform="translate(160.277,-236.544)">
			<title>Punt A.485</title>
			<desc>M-line (kNm)</desc>
			<v:textBlock v:margins="rect(4,4,4,4)" v:tabSpace="42.5197"/>
			<v:textRect cx="48.189" cy="243.751" width="96.38" height="14.1732"/>
			<rect x="0" y="236.664" width="96.378" height="14.1732" class="st6"/>
			<text x="14.36" y="247.35" class="st7" v:langID="1043"><v:paragraph v:horizAlign="1"/><v:tabList/>M-line (kNm)</text>		</g>
		<g id="shape486-115" v:mID="486" v:groupContext="shape" transform="translate(0.12,-124.576)">
			<title>Punt A.486</title>
			<desc>0</desc>
			<v:textBlock v:margins="rect(4,4,4,4)" v:tabSpace="42.5197"/>
			<v:textRect cx="14.1732" cy="243.751" width="28.35" height="14.1732"/>
			<rect x="0" y="236.664" width="28.3465" height="14.1732" class="st6"/>
			<text x="11.17" y="247.35" class="st7" v:langID="1043"><v:paragraph v:horizAlign="1"/><v:tabList/>0</text>		</g>
		<g id="shape487-118" v:mID="487" v:groupContext="shape" transform="translate(64.6082,-162.135)">
			<title>Dwarskrachtvervormingsteken negatief</title>
			<path d="M0 250.84 L14.17 250.84 L14.17 236.66 L28.35 236.66" class="st8"/>
		</g>
		<g id="shape488-121" v:mID="488" v:groupContext="shape" transform="translate(206.34,-28.1979)">
			<title>Dwarskrachtvervormingsteken negatief.488</title>
			<path d="M0 250.84 L14.17 250.84 L14.17 236.66 L28.35 236.66" class="st8"/>
		</g>
		<g id="shape489-124" v:mID="489" v:groupContext="shape" transform="translate(156.734,418.202) scale(1,-1)">
			<title>Dwarskrachtvervormingsteken positief</title>
			<path d="M0 250.84 L14.17 250.84 L14.17 236.66 L28.35 236.66" class="st8"/>
		</g>
		<g id="shape490-127" v:mID="490" v:groupContext="shape" transform="translate(146.509,-66.3956) rotate(-45)">
			<title>Dwarskrachtvervormingsteken negatief.490</title>
			<path d="M0 250.84 L14.17 250.84 L14.17 236.66 L28.35 236.66" class="st8"/>
		</g>
	</g>
</svg>
