<?xml version="1.0" encoding="UTF-8" standalone="no"?>
<!DOCTYPE svg PUBLIC "-//W3C//DTD SVG 1.1//EN" "http://www.w3.org/Graphics/SVG/1.1/DTD/svg11.dtd">
<!-- Gegenereerd door Microsoft Visio, SVG Export Mlijn.svg Pagina-1 -->
<svg xmlns="http://www.w3.org/2000/svg" xmlns:xlink="http://www.w3.org/1999/xlink" xmlns:ev="http://www.w3.org/2001/xml-events"
		xmlns:v="http://schemas.microsoft.com/visio/2003/SVGExtensions/" width="5.33798in" height="3.48386in"
		viewBox="0 0 384.334 250.838" xml:space="preserve" color-interpolation-filters="sRGB" class="st8">
	<v:documentProperties v:langID="1043" v:metric="true" v:viewMarkup="false"/>

	<style type="text/css">
	<![CDATA[
		.st1 {stroke:#000000;stroke-linecap:round;stroke-linejoin:round;stroke-width:0.75}
		.st2 {stroke:#000000;stroke-linecap:round;stroke-linejoin:round;stroke-width:0.25}
		.st3 {stroke:#000000;stroke-dasharray:1.75,1.25;stroke-linecap:round;stroke-linejoin:round;stroke-width:0.25}
		.st4 {stroke:#000000;stroke-linecap:round;stroke-linejoin:round;stroke-width:2.25}
		.st5 {stroke:#000000;stroke-linecap:round;stroke-linejoin:round;stroke-width:1.25}
		.st6 {fill:none;stroke:none;stroke-linecap:round;stroke-linejoin:round;stroke-width:0.24}
		.st7 {fill:#000000;font-family:Times New Roman;font-size:1.00001em}
		.st8 {fill:none;fill-rule:evenodd;font-size:12px;overflow:visible;stroke-linecap:square;stroke-miterlimit:3}
	]]>
	</style>

	<g v:mID="0" v:index="1" v:groupContext="foregroundPage">
		<title>Pagina-1</title>
		<v:pageProperties v:drawingScale="0.0393701" v:pageScale="0.0393701" v:drawingUnits="24" v:shadowOffsetX="8.50394"
				v:shadowOffsetY="-8.50394"/>
		<g id="shape356-1" v:mID="356" v:groupContext="shape" transform="translate(21.3799,-124.576)">
			<title>Ligger, 2 pt.356</title>
			<path d="M0 250.84 L113.39 250.84" class="st1"/>
		</g>
		<g id="shape357-4" v:mID="357" v:groupContext="shape" transform="translate(134.766,-124.576)">
			<title>Ligger, 2 pt.357</title>
			<path d="M0 250.84 L113.39 250.84" class="st1"/>
		</g>
		<g id="shape364-7" v:mID="364" v:groupContext="shape" transform="translate(70.7826,-51.1072) rotate(-45)">
			<title>Ligger, 2 pt.364</title>
			<path d="M0 250.84 L160.35 250.84" class="st1"/>
		</g>
		<g id="shape409-10" v:mID="409" v:groupContext="shape" transform="translate(-116.072,126.262) rotate(-90)">
			<title>Blad.409</title>
			<path d="M0 250.84 L2.83 250.84" class="st2"/>
		</g>
		<g id="shape410-13" v:mID="410" v:groupContext="shape" transform="translate(385.603,126.262) rotate(90)">
			<title>Blad.410</title>
			<path d="M0 250.84 L2.83 250.84" class="st2"/>
		</g>
		<g id="shape411-16" v:mID="411" v:groupContext="shape" transform="translate(337.627,-106.313) rotate(53.9726)">
			<title>Blad.411</title>
			<path d="M0 250.84 L192.78 250.84" class="st3"/>
		</g>
		<g id="shape412-19" v:mID="412" v:groupContext="shape" transform="translate(-129.123,-74.4083) rotate(-36.8699)">
			<title>Blad.412</title>
			<path d="M0 250.84 L141.73 250.84" class="st4"/>
		</g>
		<g id="shape413-22" v:mID="413" v:groupContext="shape" transform="translate(425.52,-51.1072) rotate(45)">
			<title>Blad.413</title>
			<path d="M0 250.84 L70.87 250.84" class="st4"/>
		</g>
		<g id="shape414-25" v:mID="414" v:groupContext="shape" transform="translate(64.3322,85.8367) rotate(-68.8426)">
			<title>Blad.414</title>
			<path d="M0 250.84 L175.31 250.84" class="st4"/>
		</g>
		<g id="shape415-28" v:mID="415" v:groupContext="shape" transform="translate(-59.3789,175.868) rotate(-90)">
			<title>Blad.415</title>
			<path d="M0 250.84 L56.69 250.84" class="st2"/>
		</g>
		<g id="shape417-31" v:mID="417" v:groupContext="shape" transform="translate(394.32,28.3325) rotate(53.9726)">
			<title>Blad.417</title>
			<path d="M0 250.84 L42.52 250.84" class="st3"/>
		</g>
		<g id="shape418-34" v:mID="418" v:groupContext="shape" transform="translate(369.311,-6.05473) rotate(53.9726)">
			<title>Blad.418</title>
			<path d="M0 250.84 L42.52 250.84" class="st3"/>
		</g>
		<g id="shape419-37" v:mID="419" v:groupContext="shape" transform="translate(375.268,-30.0377) rotate(73.4956)">
			<title>Blad.419</title>
			<path d="M0 250.84 L199.56 250.84" class="st3"/>
		</g>
		<g id="shape420-40" v:mID="420" v:groupContext="shape" transform="translate(58.5149,19.8511) rotate(-32.0054)">
			<title>Blad.420</title>
			<path d="M0 250.84 L66.85 250.84" class="st3"/>
		</g>
		<g id="shape421-43" v:mID="421" v:groupContext="shape" transform="translate(310.707,-86.7352) rotate(53.9726)">
			<title>Blad.421</title>
			<path d="M0 217.55 C36.26 230.41 166.07 276.6 189.78 231.68 C191.15 229.07 192.17 226.16 192.78 217.55" class="st4"/>
		</g>
		<g id="shape423-46" v:mID="423" v:groupContext="shape" transform="translate(-2.68605,197.128) rotate(-90)">
			<title>Blad.423</title>
			<path d="M0 250.84 L70.87 250.84" class="st4"/>
		</g>
		<g id="shape424-49" v:mID="424" v:groupContext="shape" transform="translate(14.0897,-58.1938) rotate(-45)">
			<title>Blad.424</title>
			<path d="M0 250.84 L2.83 250.84" class="st2"/>
		</g>
		<g id="shape425-52" v:mID="425" v:groupContext="shape" transform="translate(12.0853,-56.1894) rotate(-45)">
			<title>Blad.425</title>
			<path d="M0 250.84 L2.83 250.84" class="st2"/>
		</g>
		<g id="shape426-55" v:mID="426" v:groupContext="shape" transform="translate(368.828,-58.1938) rotate(45)">
			<title>Blad.426</title>
			<path d="M0 250.84 L2.83 250.84" class="st2"/>
		</g>
		<g id="shape427-58" v:mID="427" v:groupContext="shape" transform="translate(366.823,-60.1982) rotate(45)">
			<title>Blad.427</title>
			<path d="M0 250.84 L2.83 250.84" class="st2"/>
		</g>
		<g id="shape429-61" v:mID="429" v:groupContext="shape" transform="translate(14.0897,-1.50092) rotate(-45)">
			<title>Blad.429</title>
			<path d="M0 250.84 L2.83 250.84" class="st2"/>
		</g>
		<g id="shape430-64" v:mID="430" v:groupContext="shape" transform="translate(12.0853,0.503481) rotate(-45)">
			<title>Blad.430</title>
			<path d="M0 250.84 L2.83 250.84" class="st2"/>
		</g>
		<g id="shape431-67" v:mID="431" v:groupContext="shape" transform="translate(14.0897,55.192) rotate(-45)">
			<title>Blad.431</title>
			<path d="M0 250.84 L2.83 250.84" class="st2"/>
		</g>
		<g id="shape432-70" v:mID="432" v:groupContext="shape" transform="translate(12.0853,57.1964) rotate(-45)">
			<title>Blad.432</title>
			<path d="M0 250.84 L2.83 250.84" class="st2"/>
		</g>
		<g id="shape433-73" v:mID="433" v:groupContext="shape" transform="translate(368.828,55.192) rotate(45)">
			<title>Blad.433</title>
			<path d="M0 250.84 L2.83 250.84" class="st2"/>
		</g>
		<g id="shape434-76" v:mID="434" v:groupContext="shape" transform="translate(366.823,53.1876) rotate(45)">
			<title>Blad.434</title>
			<path d="M0 250.84 L2.83 250.84" class="st2"/>
		</g>
		<g id="shape435-79" v:mID="435" v:groupContext="shape" transform="translate(106.419,-138.749)">
			<title>Momentvervormingsteken</title>
			<path d="M0 250.84 A14.1732 14.1732 0 0 1 14.17 236.66 A14.1732 14.1732 0 0 1 28.35 250.84" class="st5"/>
		</g>
		<g id="shape436-82" v:mID="436" v:groupContext="shape" transform="translate(241.065,384.186) rotate(180)">
			<title>Momentvervormingsteken.436</title>
			<path d="M0 250.84 A14.1732 14.1732 0 0 1 14.17 236.66 A14.1732 14.1732 0 0 1 28.35 250.84" class="st5"/>
		</g>
		<g id="shape437-85" v:mID="437" v:groupContext="shape" transform="translate(473.911,270.273) rotate(135)">
			<title>Momentvervormingsteken.437</title>
			<path d="M0 250.84 A14.1732 14.1732 0 0 1 14.17 236.66 A14.1732 14.1732 0 0 1 28.35 250.84" class="st5"/>
		</g>
		<g id="shape438-88" v:mID="438" v:groupContext="shape" transform="translate(120.592,-209.615)">
			<title>Punt A.438</title>
			<desc>60</desc>
			<v:textBlock v:margins="rect(4,4,4,4)" v:tabSpace="42.5197"/>
			<v:textRect cx="14.1732" cy="243.751" width="28.35" height="14.1732"/>
			<rect x="0" y="236.664" width="28.3465" height="14.1732" class="st6"/>
			<text x="8.17" y="247.35" class="st7" v:langID="1043"><v:paragraph v:horizAlign="1"/><v:tabList/>60</text>		</g>
		<g id="shape439-91" v:mID="439" v:groupContext="shape" transform="translate(184.372,-131.662)">
			<title>Punt A.439</title>
			<desc>5</desc>
			<v:textBlock v:margins="rect(4,4,4,4)" v:tabSpace="42.5197"/>
			<v:textRect cx="14.1732" cy="243.751" width="28.35" height="14.1732"/>
			<rect x="0" y="236.664" width="28.3465" height="14.1732" class="st6"/>
			<text x="11.17" y="247.35" class="st7" v:langID="1043"><v:paragraph v:horizAlign="1"/><v:tabList/>5</text>		</g>
		<g id="shape440-94" v:mID="440" v:groupContext="shape" transform="translate(184.372,-74.9695)">
			<title>Punt A.440</title>
			<desc>35</desc>
			<v:textBlock v:margins="rect(4,4,4,4)" v:tabSpace="42.5197"/>
			<v:textRect cx="14.1732" cy="243.751" width="28.35" height="14.1732"/>
			<rect x="0" y="236.664" width="28.3465" height="14.1732" class="st6"/>
			<text x="8.17" y="247.35" class="st7" v:langID="1043"><v:paragraph v:horizAlign="1"/><v:tabList/>35</text>		</g>
		<g id="shape441-97" v:mID="441" v:groupContext="shape" transform="translate(163.112,-0.12)">
			<title>Punt A.441</title>
			<desc>75</desc>
			<v:textBlock v:margins="rect(4,4,4,4)" v:tabSpace="42.5197"/>
			<v:textRect cx="14.1732" cy="243.751" width="28.35" height="14.1732"/>
			<rect x="0" y="236.664" width="28.3465" height="14.1732" class="st6"/>
			<text x="8.17" y="247.35" class="st7" v:langID="1043"><v:paragraph v:horizAlign="1"/><v:tabList/>75</text>		</g>
		<g id="shape442-100" v:mID="442" v:groupContext="shape" transform="translate(233.978,-39.5365)">
			<title>Punt A.442</title>
			<desc>50</desc>
			<v:textBlock v:margins="rect(4,4,4,4)" v:tabSpace="42.5197"/>
			<v:textRect cx="14.1732" cy="243.751" width="28.35" height="14.1732"/>
			<rect x="0" y="236.664" width="28.3465" height="14.1732" class="st6"/>
			<text x="8.17" y="247.35" class="st7" v:langID="1043"><v:paragraph v:horizAlign="1"/><v:tabList/>50</text>		</g>
		<g id="shape443-103" v:mID="443" v:groupContext="shape" transform="translate(121.605,20.6187) rotate(-45)">
			<title>Punt A.443</title>
			<desc>50</desc>
			<v:textBlock v:margins="rect(4,4,4,4)" v:tabSpace="42.5197"/>
			<v:textRect cx="14.1732" cy="243.751" width="28.35" height="14.1732"/>
			<rect x="0" y="236.664" width="28.3465" height="14.1732" class="st6"/>
			<text x="8.17" y="247.35" class="st7" v:langID="1043"><v:paragraph v:horizAlign="1"/><v:tabList/>50</text>		</g>
		<g id="shape444-106" v:mID="444" v:groupContext="shape" transform="translate(-59.3789,232.561) rotate(-90)">
			<title>Blad.444</title>
			<path d="M0 250.84 L56.69 250.84" class="st2"/>
		</g>
		<g id="shape445-109" v:mID="445" v:groupContext="shape" transform="translate(186.802,-141.816) rotate(-45)">
			<title>Punt A.445</title>
			<desc>0</desc>
			<v:textBlock v:margins="rect(4,4,4,4)" v:tabSpace="42.5197"/>
			<v:textRect cx="14.1732" cy="243.751" width="28.35" height="14.1732"/>
			<rect x="0" y="236.664" width="28.3465" height="14.1732" class="st6"/>
			<text x="11.17" y="247.35" class="st7" v:langID="1043"><v:paragraph v:horizAlign="1"/><v:tabList/>0</text>		</g>
		<g id="shape446-112" v:mID="446" v:groupContext="shape" transform="translate(160.277,-236.544)">
			<title>Punt A.446</title>
			<desc>M-line (kNm)</desc>
			<v:textBlock v:margins="rect(4,4,4,4)" v:tabSpace="42.5197"/>
			<v:textRect cx="48.189" cy="243.751" width="96.38" height="14.1732"/>
			<rect x="0" y="236.664" width="96.378" height="14.1732" class="st6"/>
			<text x="14.36" y="247.35" class="st7" v:langID="1043"><v:paragraph v:horizAlign="1"/><v:tabList/>M-line (kNm)</text>		</g>
		<g id="shape447-115" v:mID="447" v:groupContext="shape" transform="translate(0.12,-124.576)">
			<title>Punt A.447</title>
			<desc>0</desc>
			<v:textBlock v:margins="rect(4,4,4,4)" v:tabSpace="42.5197"/>
			<v:textRect cx="14.1732" cy="243.751" width="28.35" height="14.1732"/>
			<rect x="0" y="236.664" width="28.3465" height="14.1732" class="st6"/>
			<text x="11.17" y="247.35" class="st7" v:langID="1043"><v:paragraph v:horizAlign="1"/><v:tabList/>0</text>		</g>
	</g>
</svg>
