<?xml version="1.0" encoding="UTF-8" standalone="no"?>
<!DOCTYPE svg PUBLIC "-//W3C//DTD SVG 1.1//EN" "http://www.w3.org/Graphics/SVG/1.1/DTD/svg11.dtd">
<!-- Gegenereerd door Microsoft Visio, SVG Export statically_determinate.svg Pagina-1 -->
<svg xmlns="http://www.w3.org/2000/svg" xmlns:xlink="http://www.w3.org/1999/xlink" xmlns:ev="http://www.w3.org/2001/xml-events"
		xmlns:v="http://schemas.microsoft.com/visio/2003/SVGExtensions/" width="5.01042in" height="2.24121in"
		viewBox="0 0 360.75 161.367" xml:space="preserve" color-interpolation-filters="sRGB" class="st16">
	<v:documentProperties v:langID="1043" v:metric="true" v:viewMarkup="false"/>

	<style type="text/css">
	<![CDATA[
		.st1 {fill:#00cc99;stroke:#000000;stroke-linecap:round;stroke-linejoin:round;stroke-width:0.75}
		.st2 {stroke:#000000;stroke-linecap:round;stroke-linejoin:round;stroke-width:0.75}
		.st3 {stroke:#000000;stroke-linecap:round;stroke-linejoin:round;stroke-width:2}
		.st4 {marker-end:url(#mrkr5-52);stroke:#800000;stroke-linecap:round;stroke-linejoin:round;stroke-width:1.2}
		.st5 {fill:#800000;fill-opacity:1;stroke:#800000;stroke-opacity:1;stroke-width:0.45454545454545}
		.st6 {stroke:#800000;stroke-linecap:round;stroke-linejoin:round;stroke-width:1.2}
		.st7 {fill:none;stroke:none;stroke-linecap:round;stroke-linejoin:round;stroke-width:0.24}
		.st8 {fill:#000000;font-family:Times New Roman;font-size:1.00001em}
		.st9 {fill:#ffffff;stroke:#000000;stroke-linecap:round;stroke-linejoin:round;stroke-width:0.75}
		.st10 {marker-end:url(#mrkr5-86);stroke:#800000;stroke-linecap:round;stroke-linejoin:round;stroke-width:2}
		.st11 {fill:#800000;fill-opacity:1;stroke:#800000;stroke-opacity:1;stroke-width:0.44247787610619}
		.st12 {fill:#000000;font-family:Times New Roman;font-size:1.00001em;font-style:italic}
		.st13 {baseline-shift:-32.4941%;font-size:0.649882em;font-style:normal}
		.st14 {baseline-shift:32.4941%;font-size:0.649882em;font-style:normal}
		.st15 {font-size:1em;font-style:normal}
		.st16 {fill:none;fill-rule:evenodd;font-size:12px;overflow:visible;stroke-linecap:square;stroke-miterlimit:3}
	]]>
	</style>

	<defs id="Markers">
		<g id="lend5">
			<path d="M 2 1 L 0 0 L 1.98117 -0.993387 C 1.67173 -0.364515 1.67301 0.372641 1.98465 1.00043 " style="stroke:none"/>
		</g>
		<marker id="mrkr5-52" class="st5" v:arrowType="5" v:arrowSize="0" v:setback="3.85" refX="-3.85" orient="auto"
				markerUnits="strokeWidth" overflow="visible">
			<use xlink:href="#lend5" transform="scale(-2.2,-2.2) "/>
		</marker>
		<marker id="mrkr5-86" class="st11" v:arrowType="5" v:arrowSize="2" v:setback="3.775" refX="-3.775" orient="auto"
				markerUnits="strokeWidth" overflow="visible">
			<use xlink:href="#lend5" transform="scale(-2.26,-2.26) "/>
		</marker>
	</defs>
	<g v:mID="0" v:index="1" v:groupContext="foregroundPage">
		<title>Pagina-1</title>
		<v:pageProperties v:drawingScale="0.0393701" v:pageScale="0.0393701" v:drawingUnits="24" v:shadowOffsetX="8.50394"
				v:shadowOffsetY="-8.50394"/>
		<g id="group68-1" transform="translate(0.375,-22.0948)" v:mID="68" v:groupContext="group">
			<title>Rol.68</title>
			<g id="group69-2" transform="translate(0.261477,-2.83465)" v:mID="69" v:groupContext="group">
				<title>Scharnier</title>
				<g id="shape70-3" v:mID="70" v:groupContext="shape" transform="translate(2.79729,0)">
					<title>Blad.70</title>
					<path d="M0 161.37 L13.99 161.37 L6.99 150.03 L0 161.37 Z" class="st1"/>
				</g>
				<g id="shape71-5" v:mID="71" v:groupContext="shape" transform="translate(2.79729,322.735) rotate(180)">
					<title>Blad.71</title>
					<path d="M0 161.37 L2.8 161.37" class="st2"/>
				</g>
				<g id="shape72-8" v:mID="72" v:groupContext="shape" transform="translate(16.7838,0)">
					<title>Blad.72</title>
					<path d="M0 161.37 L2.8 161.37" class="st2"/>
				</g>
			</g>
			<g id="shape73-11" v:mID="73" v:groupContext="shape">
				<title>Blad.73</title>
				<path d="M0 161.37 L19.84 161.37" class="st2"/>
			</g>
		</g>
		<g id="shape74-14" v:mID="74" v:groupContext="shape" transform="translate(10.2963,-36.268)">
			<title>Ligger, 2 pt.74</title>
			<path d="M0 161.37 L113.39 161.37" class="st3"/>
		</g>
		<g id="shape75-17" v:mID="75" v:groupContext="shape" transform="translate(123.682,-36.268)">
			<title>Ligger, 2 pt.75</title>
			<path d="M0 161.37 L113.39 161.37" class="st3"/>
		</g>
		<g id="group76-20" transform="translate(113.761,-22.0948)" v:mID="76" v:groupContext="group">
			<title>Rol.76</title>
			<g id="group77-21" transform="translate(0.261477,-2.83465)" v:mID="77" v:groupContext="group">
				<title>Scharnier</title>
				<g id="shape78-22" v:mID="78" v:groupContext="shape" transform="translate(2.79729,0)">
					<title>Blad.78</title>
					<path d="M0 161.37 L13.99 161.37 L6.99 150.03 L0 161.37 Z" class="st1"/>
				</g>
				<g id="shape79-24" v:mID="79" v:groupContext="shape" transform="translate(2.79729,322.735) rotate(180)">
					<title>Blad.79</title>
					<path d="M0 161.37 L2.8 161.37" class="st2"/>
				</g>
				<g id="shape80-27" v:mID="80" v:groupContext="shape" transform="translate(16.7838,0)">
					<title>Blad.80</title>
					<path d="M0 161.37 L2.8 161.37" class="st2"/>
				</g>
			</g>
			<g id="shape81-30" v:mID="81" v:groupContext="shape">
				<title>Blad.81</title>
				<path d="M0 161.37 L19.84 161.37" class="st2"/>
			</g>
		</g>
		<g id="shape82-33" v:mID="82" v:groupContext="shape" transform="translate(122.964,10.9955) rotate(-45)">
			<title>Ligger, 2 pt.82</title>
			<path d="M0 161.37 L160.35 161.37" class="st3"/>
		</g>
		<g id="group83-36" transform="translate(360.375,161.742) rotate(180)" v:mID="83" v:groupContext="group">
			<title>Scharnieroplegging.83</title>
			<g id="shape84-37" v:mID="84" v:groupContext="shape" transform="translate(2.83465,0)">
				<title>Blad.84</title>
				<path d="M0 161.37 L14.17 161.37 L7.09 150.03 L0 161.37 Z" class="st1"/>
			</g>
			<g id="shape85-39" v:mID="85" v:groupContext="shape" transform="translate(2.83465,322.735) rotate(180)">
				<title>Blad.85</title>
				<path d="M0 161.37 L2.83 161.37" class="st2"/>
			</g>
			<g id="shape86-42" v:mID="86" v:groupContext="shape" transform="translate(17.0079,0)">
				<title>Blad.86</title>
				<path d="M0 161.37 L2.83 161.37" class="st2"/>
			</g>
		</g>
		<g id="group87-45" transform="translate(123.682,-36.268)" v:mID="87" v:groupContext="group">
			<title>q-last constnt.87</title>
			<g id="group88-46" v:mID="88" v:groupContext="group">
				<title>q-last, recht.51</title>
				<g id="shape89-47" v:mID="89" v:groupContext="shape" transform="translate(161.367,147.194) rotate(90)">
					<title>Kracht.5</title>
					<path d="M0 161.37 L9.55 161.37" class="st4"/>
				</g>
				<g id="shape90-53" v:mID="90" v:groupContext="shape" transform="translate(1.59872E-14,-14.1732)">
					<title>Blad.90</title>
					<path d="M0 161.37 L113.39 161.37" class="st6"/>
				</g>
				<g id="shape91-56" v:mID="91" v:groupContext="shape" transform="translate(181.983,147.194) rotate(90)">
					<title>Kracht.4</title>
					<path d="M0 161.37 L9.55 161.37" class="st4"/>
				</g>
				<g id="shape92-61" v:mID="92" v:groupContext="shape" transform="translate(202.599,147.194) rotate(90)">
					<title>Kracht.9</title>
					<path d="M0 161.37 L9.55 161.37" class="st4"/>
				</g>
				<g id="shape93-66" v:mID="93" v:groupContext="shape" transform="translate(274.753,147.194) rotate(90)">
					<title>Kracht.6</title>
					<path d="M0 161.37 L9.55 161.37" class="st4"/>
				</g>
				<g id="shape94-71" v:mID="94" v:groupContext="shape" transform="translate(254.138,147.194) rotate(90)">
					<title>Kracht.7</title>
					<path d="M0 161.37 L9.55 161.37" class="st4"/>
				</g>
			</g>
			<g id="shape95-76" v:mID="95" v:groupContext="shape" transform="translate(-1.59872E-14,-14.1732)">
				<title>A.58</title>
				<desc>20 kN/m</desc>
				<v:textBlock v:margins="rect(4,4,4,4)" v:tabSpace="42.5197"/>
				<v:textRect cx="56.6929" cy="154.281" width="113.39" height="14.1732"/>
				<rect x="0" y="147.194" width="113.386" height="14.1732" class="st7"/>
				<text x="35.53" y="157.88" class="st8" v:langID="1043"><v:paragraph v:horizAlign="1"/><v:tabList/>20 kN/m</text>			</g>
		</g>
		<g id="shape127-79" v:mID="127" v:groupContext="shape" transform="translate(121.556,-34.142)">
			<title>Scharnier</title>
			<ellipse cx="2.12598" cy="159.241" rx="2.12598" ry="2.12598" class="st9"/>
		</g>
		<g id="shape128-81" v:mID="128" v:groupContext="shape" transform="translate(-19.2602,139.273) rotate(-90)">
			<title>Moment</title>
			<path d="M-0 161.37 A14.1732 14.1732 0 0 1 14.17 147.19 A14.1732 14.1732 0 0 1 26.14 153.77 L26.24 154.12" class="st10"/>
		</g>
		<g id="shape129-87" v:mID="129" v:groupContext="shape" transform="translate(266.624,139.273) rotate(90) scale(-1,1)">
			<title>Moment.129</title>
			<path d="M-0 161.37 A14.1732 14.1732 0 0 1 14.17 147.19 A14.1732 14.1732 0 0 1 26.14 153.77 L26.24 154.12" class="st10"/>
		</g>
		<g id="shape130-92" v:mID="130" v:groupContext="shape" transform="translate(234.942,-34.142)">
			<title>Scharnier.130</title>
			<ellipse cx="2.12598" cy="159.241" rx="2.12598" ry="2.12598" class="st9"/>
		</g>
		<g id="shape131-94" v:mID="131" v:groupContext="shape" transform="translate(146.4,235.811) rotate(-135)">
			<title>Moment.131</title>
			<path d="M-0 161.37 A14.1732 14.1732 0 0 1 14.17 147.19 A14.1732 14.1732 0 0 1 26.14 153.77 L26.24 154.12" class="st10"/>
		</g>
		<g id="shape132-99" v:mID="132" v:groupContext="shape" transform="translate(380.01,139.273) rotate(90) scale(-1,1)">
			<title>Moment.132</title>
			<path d="M-0 161.37 A14.1732 14.1732 0 0 1 14.17 147.19 A14.1732 14.1732 0 0 1 26.14 153.77 L26.24 154.12" class="st10"/>
		</g>
		<g id="shape224-104" v:mID="224" v:groupContext="shape" transform="translate(123.682,-50.4412)">
			<title>Punt A.224</title>
			<desc>MB</desc>
			<v:textBlock v:margins="rect(4,4,4,4)" v:tabSpace="42.5197"/>
			<v:textRect cx="14.1732" cy="154.281" width="28.35" height="14.1732"/>
			<rect x="0" y="147.194" width="28.3465" height="14.1732" class="st7"/>
			<text x="6.57" y="157.88" class="st12" v:langID="1043"><v:paragraph v:horizAlign="1"/><v:tabList/>M<tspan dy="-0.279em"
						class="st13" v:baseFontSize="12">B</tspan></text>		</g>
		<g id="shape225-108" v:mID="225" v:groupContext="shape" transform="translate(222.895,-57.5278)">
			<title>Punt A.225</title>
			<desc>MD</desc>
			<v:textBlock v:margins="rect(4,4,4,4)" v:tabSpace="42.5197"/>
			<v:textRect cx="14.1732" cy="154.281" width="28.35" height="14.1732"/>
			<rect x="0" y="147.194" width="28.3465" height="14.1732" class="st7"/>
			<text x="6.36" y="157.88" class="st12" v:langID="1043"><v:paragraph v:horizAlign="1"/><v:tabList/>M<tspan dy="-0.279em"
						class="st13" v:baseFontSize="12">D</tspan></text>		</g>
		<g id="shape226-112" v:mID="226" v:groupContext="shape" transform="translate(91.0837,-50.4412)">
			<title>Punt A.226</title>
			<desc>MB</desc>
			<v:textBlock v:margins="rect(4,4,4,4)" v:tabSpace="42.5197"/>
			<v:textRect cx="14.1732" cy="154.281" width="28.35" height="14.1732"/>
			<rect x="0" y="147.194" width="28.3465" height="14.1732" class="st7"/>
			<text x="6.57" y="157.88" class="st12" v:langID="1043"><v:paragraph v:horizAlign="1"/><v:tabList/>M<tspan dy="-0.279em"
						class="st13" v:baseFontSize="12">B</tspan></text>		</g>
		<g id="shape227-116" v:mID="227" v:groupContext="shape" transform="translate(205.887,-50.4412)">
			<title>Punt A.227</title>
			<desc>MD</desc>
			<v:textBlock v:margins="rect(4,4,4,4)" v:tabSpace="42.5197"/>
			<v:textRect cx="14.1732" cy="154.281" width="28.35" height="14.1732"/>
			<rect x="0" y="147.194" width="28.3465" height="14.1732" class="st7"/>
			<text x="6.36" y="157.88" class="st12" v:langID="1043"><v:paragraph v:horizAlign="1"/><v:tabList/>M<tspan dy="-0.279em"
						class="st13" v:baseFontSize="12">D</tspan></text>		</g>
		<g id="shape335-120" v:mID="335" v:groupContext="shape" transform="translate(83.1467,-0.83492)">
			<title>Punt A.335</title>
			<desc>φBAB = φBBD</desc>
			<v:textBlock v:margins="rect(4,4,4,4)" v:tabSpace="42.5197"/>
			<v:textRect cx="40.5354" cy="154.281" width="81.08" height="14.1732"/>
			<rect x="0" y="147.194" width="81.0709" height="14.1732" class="st7"/>
			<text x="10.81" y="157.88" class="st12" v:langID="1043"><v:paragraph v:horizAlign="1"/><v:tabList/>φ<tspan
						dy="-0.279em" class="st13" v:baseFontSize="12">B</tspan><tspan dy="0.081em" class="st14"
						v:baseFontSize="12">AB</tspan><tspan dy="0.129em" class="st15"> </tspan>= φ<tspan dy="-0.279em"
						class="st13" v:baseFontSize="12">B</tspan><tspan dy="0.081em" class="st14" v:baseFontSize="12">BD</tspan> </text>		</g>
		<g id="shape337-128" v:mID="337" v:groupContext="shape" transform="translate(196.532,-0.83492)">
			<title>Punt A.337</title>
			<desc>φDBD = φDDC</desc>
			<v:textBlock v:margins="rect(4,4,4,4)" v:tabSpace="42.5197"/>
			<v:textRect cx="40.5354" cy="154.281" width="81.08" height="14.1732"/>
			<rect x="0" y="147.194" width="81.0709" height="14.1732" class="st7"/>
			<text x="10.38" y="157.88" class="st12" v:langID="1043"><v:paragraph v:horizAlign="1"/><v:tabList/>φ<tspan
						dy="-0.279em" class="st13" v:baseFontSize="12">D</tspan><tspan dy="0.081em" class="st14"
						v:baseFontSize="12">BD</tspan><tspan dy="0.129em" class="st15"> </tspan>= φ<tspan dy="-0.279em"
						class="st13" v:baseFontSize="12">D</tspan><tspan dy="0.081em" class="st14" v:baseFontSize="12">DC</tspan> </text>		</g>
	</g>
</svg>
