<?xml version="1.0" encoding="UTF-8" standalone="no"?>
<!DOCTYPE svg PUBLIC "-//W3C//DTD SVG 1.1//EN" "http://www.w3.org/Graphics/SVG/1.1/DTD/svg11.dtd">
<!-- Gegenereerd door Microsoft Visio, SVG Export virtual_work.svg Pagina-1 -->
<svg xmlns="http://www.w3.org/2000/svg" xmlns:xlink="http://www.w3.org/1999/xlink" xmlns:ev="http://www.w3.org/2001/xml-events"
		xmlns:v="http://schemas.microsoft.com/visio/2003/SVGExtensions/" width="5.00694in" height="3.42229in"
		viewBox="0 0 360.5 246.405" xml:space="preserve" color-interpolation-filters="sRGB" class="st21">
	<v:documentProperties v:langID="1043" v:metric="true" v:viewMarkup="false"/>

	<style type="text/css">
	<![CDATA[
		.st1 {stroke:#000000;stroke-dasharray:1.75,1.25;stroke-linecap:round;stroke-linejoin:round;stroke-width:0.25}
		.st2 {fill:#ffffff;stroke:#000000;stroke-linecap:round;stroke-linejoin:round;stroke-width:0.25}
		.st3 {fill:#00cc99;stroke:#000000;stroke-linecap:round;stroke-linejoin:round;stroke-width:0.75}
		.st4 {stroke:#000000;stroke-linecap:round;stroke-linejoin:round;stroke-width:0.75}
		.st5 {stroke:#000000;stroke-linecap:round;stroke-linejoin:round;stroke-width:0.25}
		.st6 {fill:#00cc99;fill-opacity:0.46;stroke:#000000;stroke-linecap:round;stroke-linejoin:round;stroke-width:0.25}
		.st7 {stroke:#000000;stroke-linecap:round;stroke-linejoin:round;stroke-width:2}
		.st8 {fill:#ffffff;stroke:#000000;stroke-linecap:round;stroke-linejoin:round;stroke-width:0.75}
		.st9 {marker-end:url(#mrkr1-99);stroke:#000000;stroke-linecap:butt;stroke-width:3}
		.st10 {fill:#000000;fill-opacity:1;stroke:#000000;stroke-opacity:1;stroke-width:0.67567567567568}
		.st11 {fill:none;stroke:none;stroke-linecap:round;stroke-linejoin:round;stroke-width:0.24}
		.st12 {fill:#000000;font-family:Times New Roman;font-size:1.00001em;font-style:italic}
		.st13 {fill:#000000;font-family:Times New Roman;font-size:1.00001em}
		.st14 {baseline-shift:-32.4941%;font-size:0.649882em}
		.st15 {marker-end:url(#mrkr5-148);stroke:#800000;stroke-linecap:round;stroke-linejoin:round;stroke-width:1.2}
		.st16 {fill:#800000;fill-opacity:1;stroke:#800000;stroke-opacity:1;stroke-width:0.45454545454545}
		.st17 {stroke:#800000;stroke-linecap:round;stroke-linejoin:round;stroke-width:1.2}
		.st18 {marker-end:url(#mrkr5-180);stroke:#800000;stroke-linecap:round;stroke-linejoin:round;stroke-width:2}
		.st19 {fill:#800000;fill-opacity:1;stroke:#800000;stroke-opacity:1;stroke-width:0.44247787610619}
		.st20 {baseline-shift:-32.4941%;font-size:0.649882em;font-style:normal}
		.st21 {fill:none;fill-rule:evenodd;font-size:12px;overflow:visible;stroke-linecap:square;stroke-miterlimit:3}
	]]>
	</style>

	<defs id="Markers">
		<g id="lend1">
			<path d="M 1 -1 L 0 0 L 1 1 " style="stroke-linecap:round;stroke-linejoin:round;fill:none"/>
		</g>
		<marker id="mrkr1-99" class="st10" v:arrowType="1" v:arrowSize="0" orient="auto" markerUnits="strokeWidth"
				overflow="visible">
			<use xlink:href="#lend1" transform="scale(-1.48,-1.48) "/>
		</marker>
		<g id="lend5">
			<path d="M 2 1 L 0 0 L 1.98117 -0.993387 C 1.67173 -0.364515 1.67301 0.372641 1.98465 1.00043 " style="stroke:none"/>
		</g>
		<marker id="mrkr5-148" class="st16" v:arrowType="5" v:arrowSize="0" v:setback="3.85" refX="-3.85" orient="auto"
				markerUnits="strokeWidth" overflow="visible">
			<use xlink:href="#lend5" transform="scale(-2.2,-2.2) "/>
		</marker>
		<marker id="mrkr5-180" class="st19" v:arrowType="5" v:arrowSize="2" v:setback="3.775" refX="-3.775" orient="auto"
				markerUnits="strokeWidth" overflow="visible">
			<use xlink:href="#lend5" transform="scale(-2.26,-2.26) "/>
		</marker>
	</defs>
	<g v:mID="0" v:index="1" v:groupContext="foregroundPage">
		<title>Pagina-1</title>
		<v:pageProperties v:drawingScale="0.0393701" v:pageScale="0.0393701" v:drawingUnits="24" v:shadowOffsetX="8.50394"
				v:shadowOffsetY="-8.50394"/>
		<g id="shape261-1" v:mID="261" v:groupContext="shape" transform="translate(390.826,184.861) rotate(104.036)">
			<title>Blad.261</title>
			<path d="M0 246.4 L116.88 246.4" class="st1"/>
		</g>
		<g id="shape262-4" v:mID="262" v:groupContext="shape" transform="translate(391.939,364.736) rotate(149.036)">
			<title>Blad.262</title>
			<path d="M0 246.4 L165.29 246.4" class="st1"/>
		</g>
		<g id="shape263-7" v:mID="263" v:groupContext="shape" transform="translate(411.052,299.334) rotate(135)">
			<title>Blad.263</title>
			<path d="M0 246.4 L160.35 246.4" class="st1"/>
		</g>
		<g id="shape264-10" v:mID="264" v:groupContext="shape" transform="translate(-122.973,238.485) rotate(-90)">
			<title>Blad.264</title>
			<path d="M0 246.4 L113.39 246.4" class="st1"/>
		</g>
		<g id="shape265-13" v:mID="265" v:groupContext="shape" transform="translate(121.306,-119.179)">
			<title>Scharnier.265</title>
			<ellipse cx="2.12598" cy="244.279" rx="2.12598" ry="2.12598" class="st2"/>
		</g>
		<g id="group266-15" transform="translate(141.857,-107.132)" v:mID="266" v:groupContext="group">
			<title>Rol.266</title>
			<g id="group267-16" transform="translate(0.261477,-2.83465)" v:mID="267" v:groupContext="group">
				<title>Scharnier</title>
				<g id="shape268-17" v:mID="268" v:groupContext="shape" transform="translate(2.79729,2.84217E-14)">
					<title>Blad.268</title>
					<path d="M0 246.4 L13.99 246.4 L6.99 235.07 L0 246.4 Z" class="st3"/>
				</g>
				<g id="shape269-19" v:mID="269" v:groupContext="shape" transform="translate(2.79729,492.809) rotate(180)">
					<title>Blad.269</title>
					<path d="M0 246.4 L2.8 246.4" class="st4"/>
				</g>
				<g id="shape270-22" v:mID="270" v:groupContext="shape" transform="translate(16.7838,2.84217E-14)">
					<title>Blad.270</title>
					<path d="M0 246.4 L2.8 246.4" class="st4"/>
				</g>
			</g>
			<g id="shape271-25" v:mID="271" v:groupContext="shape">
				<title>Blad.271</title>
				<path d="M0 246.4 L19.84 246.4" class="st4"/>
			</g>
		</g>
		<g id="shape272-28" v:mID="272" v:groupContext="shape" transform="translate(10.1116,-121.305)">
			<title>Blad.272</title>
			<path d="M340.03 133.02 L226.64 246.4 L0 246.4" class="st5"/>
		</g>
		<g id="group273-31" transform="translate(0.125,-107.132)" v:mID="273" v:groupContext="group">
			<title>Rol.273</title>
			<g id="group274-32" transform="translate(0.261477,-2.83465)" v:mID="274" v:groupContext="group">
				<title>Scharnier</title>
				<g id="shape275-33" v:mID="275" v:groupContext="shape" transform="translate(2.79729,2.84217E-14)">
					<title>Blad.275</title>
					<path d="M0 246.4 L13.99 246.4 L6.99 235.07 L0 246.4 Z" class="st6"/>
				</g>
				<g id="shape276-35" v:mID="276" v:groupContext="shape" transform="translate(2.79729,492.809) rotate(180)">
					<title>Blad.276</title>
					<path d="M0 246.4 L2.8 246.4" class="st5"/>
				</g>
				<g id="shape277-38" v:mID="277" v:groupContext="shape" transform="translate(16.7838,2.84217E-14)">
					<title>Blad.277</title>
					<path d="M0 246.4 L2.8 246.4" class="st5"/>
				</g>
			</g>
			<g id="shape278-41" v:mID="278" v:groupContext="shape">
				<title>Blad.278</title>
				<path d="M0 246.4 L19.84 246.4" class="st5"/>
			</g>
		</g>
		<g id="shape279-44" v:mID="279" v:groupContext="shape" transform="translate(38.3927,-121.305)">
			<title>Ligger, 2 pt.279</title>
			<path d="M0 246.4 L113.39 246.4" class="st7"/>
		</g>
		<g id="shape280-47" v:mID="280" v:groupContext="shape" transform="translate(211.54,-113.948) rotate(14.0362)">
			<title>Ligger, 2 pt.280</title>
			<path d="M0 246.4 L116.88 246.4" class="st7"/>
		</g>
		<g id="group281-50" transform="translate(113.511,-107.132)" v:mID="281" v:groupContext="group">
			<title>Rol.281</title>
			<g id="group282-51" transform="translate(0.261477,-2.83465)" v:mID="282" v:groupContext="group">
				<title>Scharnier</title>
				<g id="shape283-52" v:mID="283" v:groupContext="shape" transform="translate(2.79729,2.84217E-14)">
					<title>Blad.283</title>
					<path d="M0 246.4 L13.99 246.4 L6.99 235.07 L0 246.4 Z" class="st6"/>
				</g>
				<g id="shape284-54" v:mID="284" v:groupContext="shape" transform="translate(2.79729,492.809) rotate(180)">
					<title>Blad.284</title>
					<path d="M0 246.4 L2.8 246.4" class="st5"/>
				</g>
				<g id="shape285-57" v:mID="285" v:groupContext="shape" transform="translate(16.7838,2.84217E-14)">
					<title>Blad.285</title>
					<path d="M0 246.4 L2.8 246.4" class="st5"/>
				</g>
			</g>
			<g id="shape286-60" v:mID="286" v:groupContext="shape">
				<title>Blad.286</title>
				<path d="M0 246.4 L19.84 246.4" class="st5"/>
			</g>
		</g>
		<g id="shape287-63" v:mID="287" v:groupContext="shape" transform="translate(53.8741,26.6718) rotate(-59.0363)">
			<title>Ligger, 2 pt.287</title>
			<path d="M0 246.4 L165.29 246.4" class="st7"/>
		</g>
		<g id="group288-66" transform="translate(360.125,246.78) rotate(180)" v:mID="288" v:groupContext="group">
			<title>Scharnieroplegging.288</title>
			<g id="shape289-67" v:mID="289" v:groupContext="shape" transform="translate(2.83465,2.84217E-14)">
				<title>Blad.289</title>
				<path d="M0 246.4 L14.17 246.4 L7.09 235.07 L0 246.4 Z" class="st3"/>
			</g>
			<g id="shape290-69" v:mID="290" v:groupContext="shape" transform="translate(2.83465,492.809) rotate(180)">
				<title>Blad.290</title>
				<path d="M0 246.4 L2.83 246.4" class="st4"/>
			</g>
			<g id="shape291-72" v:mID="291" v:groupContext="shape" transform="translate(17.0079,2.84217E-14)">
				<title>Blad.291</title>
				<path d="M0 246.4 L2.83 246.4" class="st4"/>
			</g>
		</g>
		<g id="shape292-75" v:mID="292" v:groupContext="shape" transform="translate(149.653,-119.179)">
			<title>Scharnier.292</title>
			<ellipse cx="2.12598" cy="244.279" rx="2.12598" ry="2.12598" class="st8"/>
		</g>
		<g id="shape293-77" v:mID="293" v:groupContext="shape" transform="translate(263.038,-90.8327)">
			<title>Scharnier.293</title>
			<ellipse cx="2.12598" cy="244.279" rx="2.12598" ry="2.12598" class="st8"/>
		</g>
		<g id="group294-79" transform="translate(28.4715,-107.132)" v:mID="294" v:groupContext="group">
			<title>Rol.294</title>
			<g id="group295-80" transform="translate(0.261477,-2.83465)" v:mID="295" v:groupContext="group">
				<title>Scharnier</title>
				<g id="shape296-81" v:mID="296" v:groupContext="shape" transform="translate(2.79729,2.84217E-14)">
					<title>Blad.296</title>
					<path d="M0 246.4 L13.99 246.4 L6.99 235.07 L0 246.4 Z" class="st3"/>
				</g>
				<g id="shape297-83" v:mID="297" v:groupContext="shape" transform="translate(2.79729,492.809) rotate(180)">
					<title>Blad.297</title>
					<path d="M0 246.4 L2.8 246.4" class="st4"/>
				</g>
				<g id="shape298-86" v:mID="298" v:groupContext="shape" transform="translate(16.7838,2.84217E-14)">
					<title>Blad.298</title>
					<path d="M0 246.4 L2.8 246.4" class="st4"/>
				</g>
			</g>
			<g id="shape299-89" v:mID="299" v:groupContext="shape">
				<title>Blad.299</title>
				<path d="M0 246.4 L19.84 246.4" class="st4"/>
			</g>
		</g>
		<g id="shape300-92" v:mID="300" v:groupContext="shape" transform="translate(234.692,-119.179)">
			<title>Scharnier.300</title>
			<ellipse cx="2.12598" cy="244.279" rx="2.12598" ry="2.12598" class="st2"/>
		</g>
		<g id="shape301-94" v:mID="301" v:groupContext="shape" transform="translate(171.017,272.523) rotate(31.4426) scale(1,-1)">
			<title>Hoekverdraaiing.301</title>
			<path d="M0 246.4 C7.26 244.68 11.23 245.03 17.41 246.4" class="st9"/>
		</g>
		<g id="shape302-100" v:mID="302" v:groupContext="shape"
				transform="translate(-26.1843,81.1382) rotate(-79.6933) scale(-1,1)">
			<title>Hoekverdraaiing.302</title>
			<path d="M0 245.71 C4.74 246.57 10.47 246.75 15.5 245.71" class="st9"/>
		</g>
		<g id="shape303-105" v:mID="303" v:groupContext="shape" transform="translate(279.338,-185.085)">
			<title>Punt A.303</title>
			<desc>δθ</desc>
			<v:textBlock v:margins="rect(4,4,4,4)" v:tabSpace="42.5197"/>
			<v:textRect cx="14.1732" cy="239.318" width="28.35" height="14.1732"/>
			<rect x="0" y="232.231" width="28.3465" height="14.1732" class="st11"/>
			<text x="8.44" y="242.92" class="st12" v:langID="1043"><v:paragraph v:horizAlign="1"/><v:tabList/>δθ  </text>		</g>
		<g id="shape304-108" v:mID="304" v:groupContext="shape" transform="translate(201.385,-121.305)">
			<title>Punt A.304</title>
			<desc>δθ</desc>
			<v:textBlock v:margins="rect(4,4,4,4)" v:tabSpace="42.5197"/>
			<v:textRect cx="14.1732" cy="239.318" width="28.35" height="14.1732"/>
			<rect x="0" y="232.231" width="28.3465" height="14.1732" class="st11"/>
			<text x="8.44" y="242.92" class="st12" v:langID="1043"><v:paragraph v:horizAlign="1"/><v:tabList/>δθ  </text>		</g>
		<g id="shape305-111" v:mID="305" v:groupContext="shape" transform="translate(80.3455,-0.832723)">
			<title>Punt A.305</title>
			<desc>RCBD</desc>
			<v:textBlock v:margins="rect(4,4,4,4)" v:tabSpace="42.5197"/>
			<v:textRect cx="21.8268" cy="239.318" width="43.66" height="14.1732"/>
			<rect x="0" y="232.231" width="43.6535" height="14.1732" class="st11"/>
			<text x="8.41" y="242.92" class="st13" v:langID="1043"><v:paragraph v:horizAlign="1"/><v:tabList/>RC<tspan
						dy="-0.279em" class="st14" v:baseFontSize="12">BD</tspan></text>		</g>
		<g id="shape306-115" v:mID="306" v:groupContext="shape" transform="translate(293.143,59.8422) rotate(43.5312)">
			<title>Blad.306</title>
			<path d="M0 246.4 L2.83 246.4" class="st5"/>
		</g>
		<g id="shape307-118" v:mID="307" v:groupContext="shape" transform="translate(291.088,57.8898) rotate(43.5312)">
			<title>Blad.307</title>
			<path d="M0 246.4 L2.83 246.4" class="st5"/>
		</g>
		<g id="shape308-121" v:mID="308" v:groupContext="shape" transform="translate(297.666,412.72) rotate(135)">
			<title>Blad.308</title>
			<path d="M0 246.4 L2.83 246.4" class="st5"/>
		</g>
		<g id="shape309-124" v:mID="309" v:groupContext="shape" transform="translate(299.671,410.715) rotate(135)">
			<title>Blad.309</title>
			<path d="M0 246.4 L2.83 246.4" class="st5"/>
		</g>
		<g id="shape310-127" v:mID="310" v:groupContext="shape" transform="translate(56.9578,411.02) rotate(15.7111) scale(1,-1)">
			<title>Hoekverdraaiing.310</title>
			<path d="M0 245.49 C5.46 247.02 11.53 246.37 15.48 245.49" class="st9"/>
		</g>
		<g id="shape311-132" v:mID="311" v:groupContext="shape" transform="translate(-30.2989,336.948) rotate(54.1483) scale(1,-1)">
			<title>Hoekverdraaiing.311</title>
			<path d="M0 245.81 C5.97 246.55 10.62 246.69 15.66 245.81" class="st9"/>
		</g>
		<g id="shape312-137" v:mID="312" v:groupContext="shape" transform="translate(95.0856,-64.6123)">
			<title>Punt A.312</title>
			<desc>δθ</desc>
			<v:textBlock v:margins="rect(4,4,4,4)" v:tabSpace="42.5197"/>
			<v:textRect cx="14.1732" cy="239.318" width="28.35" height="14.1732"/>
			<rect x="0" y="232.231" width="28.3465" height="14.1732" class="st11"/>
			<text x="8.44" y="242.92" class="st12" v:langID="1043"><v:paragraph v:horizAlign="1"/><v:tabList/>δθ  </text>		</g>
		<g id="shape313-140" v:mID="313" v:groupContext="shape" transform="translate(180.125,-29.1792)">
			<title>Punt A.313</title>
			<desc>δθ</desc>
			<v:textBlock v:margins="rect(4,4,4,4)" v:tabSpace="42.5197"/>
			<v:textRect cx="14.1732" cy="239.318" width="28.35" height="14.1732"/>
			<rect x="0" y="232.231" width="28.3465" height="14.1732" class="st11"/>
			<text x="8.44" y="242.92" class="st12" v:langID="1043"><v:paragraph v:horizAlign="1"/><v:tabList/>δθ</text>		</g>
		<g id="shape319-143" v:mID="319" v:groupContext="shape" transform="translate(398.183,110.926) rotate(90)">
			<title>Kracht.5</title>
			<path d="M0 246.4 L9.55 246.4" class="st15"/>
		</g>
		<g id="shape320-149" v:mID="320" v:groupContext="shape" transform="translate(211.541,-128.121) rotate(14.0363)">
			<title>Blad.320</title>
			<path d="M0 246.4 L116.88 246.4" class="st17"/>
		</g>
		<g id="shape321-152" v:mID="321" v:groupContext="shape" transform="translate(418.799,116.007) rotate(90)">
			<title>Kracht.4</title>
			<path d="M0 246.4 L9.55 246.4" class="st15"/>
		</g>
		<g id="shape322-157" v:mID="322" v:groupContext="shape" transform="translate(439.414,121.414) rotate(90)">
			<title>Kracht.9</title>
			<path d="M0 246.4 L9.55 246.4" class="st15"/>
		</g>
		<g id="shape323-162" v:mID="323" v:groupContext="shape" transform="translate(511.569,139.273) rotate(90)">
			<title>Kracht.6</title>
			<path d="M0 246.4 L9.55 246.4" class="st15"/>
		</g>
		<g id="shape324-167" v:mID="324" v:groupContext="shape" transform="translate(490.953,133.603) rotate(90)">
			<title>Kracht.7</title>
			<path d="M0 246.4 L9.55 246.4" class="st15"/>
		</g>
		<g id="shape325-172" v:mID="325" v:groupContext="shape" transform="translate(151.779,-135.478)">
			<title>A.58</title>
			<desc>20 kN/m</desc>
			<v:textBlock v:margins="rect(4,4,4,4)" v:tabSpace="42.5197"/>
			<v:textRect cx="56.6929" cy="239.318" width="113.39" height="14.1732"/>
			<rect x="0" y="232.231" width="113.386" height="14.1732" class="st11"/>
			<text x="35.53" y="242.92" class="st13" v:langID="1043"><v:paragraph v:horizAlign="1"/><v:tabList/>20 kN/m</text>		</g>
		<g id="shape326-175" v:mID="326" v:groupContext="shape" transform="translate(-70.5124,80.4721) rotate(-75.1)">
			<title>Moment.326</title>
			<path d="M-0 246.4 A14.1732 14.1732 0 0 1 14.17 232.23 A14.1732 14.1732 0 0 1 26.14 238.81 L26.24 239.15" class="st18"/>
		</g>
		<g id="shape327-181" v:mID="327" v:groupContext="shape" transform="translate(376.923,139.273) rotate(90) scale(-1,1)">
			<title>Moment.327</title>
			<path d="M-0 246.4 A14.1732 14.1732 0 0 1 14.17 232.23 A14.1732 14.1732 0 0 1 26.14 238.81 L26.24 239.15" class="st18"/>
		</g>
		<g id="shape328-186" v:mID="328" v:groupContext="shape" transform="translate(157.267,353.619) rotate(-148)">
			<title>Moment.328</title>
			<path d="M-0 246.4 A14.1732 14.1732 0 0 1 14.17 232.23 A14.1732 14.1732 0 0 1 26.14 238.81 L26.24 239.15" class="st18"/>
		</g>
		<g id="shape329-191" v:mID="329" v:groupContext="shape" transform="translate(482.112,222.063) rotate(-76) scale(1,-1)">
			<title>Moment.329</title>
			<path d="M-0 246.4 A14.1732 14.1732 0 0 1 14.17 232.23 A14.1732 14.1732 0 0 1 26.14 238.81 L26.24 239.15" class="st18"/>
		</g>
		<g id="shape330-196" v:mID="330" v:groupContext="shape" transform="translate(151.779,-107.132)">
			<title>Blad.330</title>
			<path d="M0 218.06 L113.39 218.06 L113.39 246.4" class="st5"/>
		</g>
		<g id="shape331-199" v:mID="331" v:groupContext="shape" transform="translate(154.613,-136.896)">
			<title>Punt A.331</title>
			<desc>MB</desc>
			<v:textBlock v:margins="rect(4,4,4,4)" v:tabSpace="42.5197"/>
			<v:textRect cx="14.1732" cy="239.318" width="28.35" height="14.1732"/>
			<rect x="0" y="232.231" width="28.3465" height="14.1732" class="st11"/>
			<text x="6.57" y="242.92" class="st12" v:langID="1043"><v:paragraph v:horizAlign="1"/><v:tabList/>M<tspan dy="-0.279em"
						class="st20" v:baseFontSize="12">B</tspan></text>		</g>
		<g id="shape332-203" v:mID="332" v:groupContext="shape" transform="translate(258.361,-116.77)">
			<title>Punt A.332</title>
			<desc>MD</desc>
			<v:textBlock v:margins="rect(4,4,4,4)" v:tabSpace="42.5197"/>
			<v:textRect cx="14.1732" cy="239.318" width="28.35" height="14.1732"/>
			<rect x="0" y="232.231" width="28.3465" height="14.1732" class="st11"/>
			<text x="6.36" y="242.92" class="st12" v:langID="1043"><v:paragraph v:horizAlign="1"/><v:tabList/>M<tspan dy="-0.279em"
						class="st20" v:baseFontSize="12">D</tspan></text>		</g>
		<g id="shape333-207" v:mID="333" v:groupContext="shape" transform="translate(117.763,-139.73)">
			<title>Punt A.333</title>
			<desc>MB</desc>
			<v:textBlock v:margins="rect(4,4,4,4)" v:tabSpace="42.5197"/>
			<v:textRect cx="14.1732" cy="239.318" width="28.35" height="14.1732"/>
			<rect x="0" y="232.231" width="28.3465" height="14.1732" class="st11"/>
			<text x="6.57" y="242.92" class="st12" v:langID="1043"><v:paragraph v:horizAlign="1"/><v:tabList/>M<tspan dy="-0.279em"
						class="st20" v:baseFontSize="12">B</tspan></text>		</g>
		<g id="shape334-211" v:mID="334" v:groupContext="shape" transform="translate(233.983,-112.801)">
			<title>Punt A.334</title>
			<desc>MD</desc>
			<v:textBlock v:margins="rect(4,4,4,4)" v:tabSpace="42.5197"/>
			<v:textRect cx="14.1732" cy="239.318" width="28.35" height="14.1732"/>
			<rect x="0" y="232.231" width="28.3465" height="14.1732" class="st11"/>
			<text x="6.36" y="242.92" class="st12" v:langID="1043"><v:paragraph v:horizAlign="1"/><v:tabList/>M<tspan dy="-0.279em"
						class="st20" v:baseFontSize="12">D</tspan></text>		</g>
	</g>
</svg>
