<?xml version="1.0" encoding="UTF-8" standalone="no"?>
<!DOCTYPE svg PUBLIC "-//W3C//DTD SVG 1.1//EN" "http://www.w3.org/Graphics/SVG/1.1/DTD/svg11.dtd">
<!-- Gegenereerd door Microsoft Visio, SVG Export displaced.svg Pagina-1 -->
<svg xmlns="http://www.w3.org/2000/svg" xmlns:xlink="http://www.w3.org/1999/xlink" xmlns:ev="http://www.w3.org/2001/xml-events"
		xmlns:v="http://schemas.microsoft.com/visio/2003/SVGExtensions/" width="2.74451in" height="0.994669in"
		viewBox="0 0 197.605 71.6161" xml:space="preserve" color-interpolation-filters="sRGB" class="st5">
	<v:documentProperties v:langID="1043" v:metric="true" v:viewMarkup="false"/>

	<style type="text/css">
	<![CDATA[
		.st1 {fill:#00cc99;stroke:#000000;stroke-linecap:round;stroke-linejoin:round;stroke-width:0.75}
		.st2 {stroke:#000000;stroke-linecap:round;stroke-linejoin:round;stroke-width:0.75}
		.st3 {stroke:#000000;stroke-linecap:round;stroke-linejoin:round;stroke-width:2}
		.st4 {fill:#ffffff;stroke:#000000;stroke-linecap:round;stroke-linejoin:round;stroke-width:0.75}
		.st5 {fill:none;fill-rule:evenodd;font-size:12px;overflow:visible;stroke-linecap:square;stroke-miterlimit:3}
	]]>
	</style>

	<g v:mID="0" v:index="1" v:groupContext="foregroundPage">
		<title>Pagina-1</title>
		<v:pageProperties v:drawingScale="0.0393701" v:pageScale="0.0393701" v:drawingUnits="24" v:shadowOffsetX="8.50394"
				v:shadowOffsetY="-8.50394"/>
		<g id="group654-1" transform="translate(177.388,-0.375)" v:mID="654" v:groupContext="group">
			<title>Rol.654</title>
			<g id="group655-2" transform="translate(0.261477,-2.83465)" v:mID="655" v:groupContext="group">
				<title>Scharnier</title>
				<g id="shape656-3" v:mID="656" v:groupContext="shape" transform="translate(2.79729,0)">
					<title>Blad.656</title>
					<path d="M0 71.62 L13.99 71.62 L6.99 60.28 L0 71.62 Z" class="st1"/>
				</g>
				<g id="shape657-5" v:mID="657" v:groupContext="shape" transform="translate(2.79729,143.232) rotate(180)">
					<title>Blad.657</title>
					<path d="M0 71.62 L2.8 71.62" class="st2"/>
				</g>
				<g id="shape658-8" v:mID="658" v:groupContext="shape" transform="translate(16.7838,-1.42109E-14)">
					<title>Blad.658</title>
					<path d="M0 71.62 L2.8 71.62" class="st2"/>
				</g>
			</g>
			<g id="shape659-11" v:mID="659" v:groupContext="shape">
				<title>Blad.659</title>
				<path d="M0 71.62 L19.84 71.62" class="st2"/>
			</g>
		</g>
		<g id="shape660-14" v:mID="660" v:groupContext="shape" transform="translate(192.923,-42.1916) rotate(47.1535)">
			<title>Ligger, 2 pt.660</title>
			<path d="M0 71.62 L68.96 71.62" class="st3"/>
		</g>
		<g id="shape661-17" v:mID="661" v:groupContext="shape" transform="translate(106.543,67.0295) rotate(138.166)">
			<title>Ligger, 2 pt.661</title>
			<path d="M0 71.62 L65.07 71.62" class="st3"/>
		</g>
		<g id="shape662-20" v:mID="662" v:groupContext="shape" transform="translate(52.5212,-57.673) rotate(-5.01183)">
			<title>Ligger, 2 pt.662</title>
			<path d="M0 71.62 L81.95 71.62" class="st3"/>
		</g>
		<g id="shape663-23" v:mID="663" v:groupContext="shape" transform="translate(91.3971,-2.92015) rotate(-7.25243)">
			<title>Ligger, 2 pt.663</title>
			<path d="M0 71.62 L87.57 71.62" class="st3"/>
		</g>
		<g id="shape664-26" v:mID="664" v:groupContext="shape" transform="translate(19.0141,-14.0156) rotate(6.99193)">
			<title>Ligger, 2 pt.664</title>
			<path d="M0 71.62 L90.82 71.62" class="st3"/>
		</g>
		<g id="shape665-29" v:mID="665" v:groupContext="shape" transform="translate(115.657,-29.8466) rotate(52.5819)">
			<title>Ligger, 2 pt.665</title>
			<path d="M0 71.62 L68.56 71.62" class="st3"/>
		</g>
		<g id="shape666-32" v:mID="666" v:groupContext="shape" transform="translate(200.493,45.4913) rotate(122.977)">
			<title>Ligger, 2 pt.666</title>
			<path d="M0 71.62 L73.45 71.62" class="st3"/>
		</g>
		<g id="group667-35" transform="translate(0.375,-3.20966)" v:mID="667" v:groupContext="group">
			<title>Scharnieroplegging.667</title>
			<g id="shape668-36" v:mID="668" v:groupContext="shape" transform="translate(2.83465,0)">
				<title>Blad.668</title>
				<path d="M0 71.62 L14.17 71.62 L7.09 60.28 L0 71.62 Z" class="st1"/>
			</g>
			<g id="shape669-38" v:mID="669" v:groupContext="shape" transform="translate(2.83465,143.232) rotate(180)">
				<title>Blad.669</title>
				<path d="M0 71.62 L2.83 71.62" class="st2"/>
			</g>
			<g id="shape670-41" v:mID="670" v:groupContext="shape" transform="translate(17.0079,-1.42109E-14)">
				<title>Blad.670</title>
				<path d="M0 71.62 L2.83 71.62" class="st2"/>
			</g>
		</g>
		<g id="shape693-44" v:mID="693" v:groupContext="shape" transform="translate(52.5212,-57.673) rotate(-5.01183)">
			<title>Blad.693</title>
			<path d="M0 71.62 L81.95 71.62" class="st2"/>
		</g>
		<g id="shape694-47" v:mID="694" v:groupContext="shape" transform="translate(180.506,-14.5482)">
			<title>Blad.694</title>
			<path d="M0 71.62 L6.8 71.62" class="st2"/>
		</g>
		<g id="shape695-50" v:mID="695" v:groupContext="shape" transform="translate(10.2963,-14.5482)">
			<title>Blad.695</title>
			<path d="M0 71.62 L42.52 14.92 L127.56 14.92 L170.21 71.62 L85.04 71.62" class="st2"/>
		</g>
		<g id="shape696-53" v:mID="696" v:groupContext="shape" transform="translate(38.0427,100.038) rotate(-126.87)">
			<title>Blad.696</title>
			<path d="M0 71.62 L70.87 71.62" class="st2"/>
		</g>
		<g id="shape697-56" v:mID="697" v:groupContext="shape" transform="translate(195.148,43.3447) rotate(126.87)">
			<title>Blad.697</title>
			<path d="M0 71.62 L70.87 71.62" class="st2"/>
		</g>
		<g id="shape698-59" v:mID="698" v:groupContext="shape" transform="translate(10.2963,-14.5482) rotate(2.77559E-06)">
			<title>Blad.698</title>
			<path d="M0 71.62 L85.04 71.62" class="st2"/>
		</g>
		<g id="shape673-62" v:mID="673" v:groupContext="shape" transform="translate(56.6518,-55.821)">
			<title>Scharnier.673</title>
			<ellipse cx="2.12598" cy="69.4902" rx="2.12598" ry="2.12598" class="st4"/>
		</g>
		<g id="shape672-64" v:mID="672" v:groupContext="shape" transform="translate(138.29,-62.9801)">
			<title>Scharnier.672</title>
			<ellipse cx="2.12598" cy="69.4902" rx="2.12598" ry="2.12598" class="st4"/>
		</g>
		<g id="shape674-66" v:mID="674" v:groupContext="shape" transform="translate(98.312,-1.36713)">
			<title>Scharnier.674</title>
			<ellipse cx="2.12598" cy="69.4902" rx="2.12598" ry="2.12598" class="st4"/>
		</g>
		<g id="shape675-68" v:mID="675" v:groupContext="shape" transform="translate(185.183,-12.4223)">
			<title>Scharnier.675</title>
			<ellipse cx="2.12598" cy="69.4902" rx="2.12598" ry="2.12598" class="st4"/>
		</g>
		<g id="shape671-70" v:mID="671" v:groupContext="shape" transform="translate(8.17028,-12.4223)">
			<title>Scharnier.671</title>
			<ellipse cx="2.12598" cy="69.4902" rx="2.12598" ry="2.12598" class="st4"/>
		</g>
	</g>
</svg>
