<?xml version="1.0" encoding="UTF-8" standalone="no"?>
<!DOCTYPE svg PUBLIC "-//W3C//DTD SVG 1.1//EN" "http://www.w3.org/Graphics/SVG/1.1/DTD/svg11.dtd">
<!-- Gegenereerd door Microsoft Visio, SVG Export displaced3.svg Pagina-1 -->
<svg xmlns="http://www.w3.org/2000/svg" xmlns:xlink="http://www.w3.org/1999/xlink" xmlns:ev="http://www.w3.org/2001/xml-events"
		xmlns:v="http://schemas.microsoft.com/visio/2003/SVGExtensions/" width="2.64821in" height="0.994669in"
		viewBox="0 0 190.671 71.6161" xml:space="preserve" color-interpolation-filters="sRGB" class="st5">
	<v:documentProperties v:langID="1043" v:metric="true" v:viewMarkup="false"/>

	<style type="text/css">
	<![CDATA[
		.st1 {fill:#00cc99;stroke:#000000;stroke-linecap:round;stroke-linejoin:round;stroke-width:0.75}
		.st2 {stroke:#000000;stroke-linecap:round;stroke-linejoin:round;stroke-width:0.75}
		.st3 {stroke:#000000;stroke-linecap:round;stroke-linejoin:round;stroke-width:2}
		.st4 {fill:#ffffff;stroke:#000000;stroke-linecap:round;stroke-linejoin:round;stroke-width:0.75}
		.st5 {fill:none;fill-rule:evenodd;font-size:12px;overflow:visible;stroke-linecap:square;stroke-miterlimit:3}
	]]>
	</style>

	<g v:mID="0" v:index="1" v:groupContext="foregroundPage">
		<title>Pagina-1</title>
		<v:pageProperties v:drawingScale="0.0393701" v:pageScale="0.0393701" v:drawingUnits="24" v:shadowOffsetX="8.50394"
				v:shadowOffsetY="-8.50394"/>
		<g id="group836-1" transform="translate(170.454,-0.375)" v:mID="836" v:groupContext="group">
			<title>Rol.836</title>
			<g id="group837-2" transform="translate(0.261477,-2.83465)" v:mID="837" v:groupContext="group">
				<title>Scharnier</title>
				<g id="shape838-3" v:mID="838" v:groupContext="shape" transform="translate(2.79729,0)">
					<title>Blad.838</title>
					<path d="M0 71.62 L13.99 71.62 L6.99 60.28 L0 71.62 Z" class="st1"/>
				</g>
				<g id="shape839-5" v:mID="839" v:groupContext="shape" transform="translate(2.79729,143.232) rotate(180)">
					<title>Blad.839</title>
					<path d="M0 71.62 L2.8 71.62" class="st2"/>
				</g>
				<g id="shape840-8" v:mID="840" v:groupContext="shape" transform="translate(16.7838,-1.42109E-14)">
					<title>Blad.840</title>
					<path d="M0 71.62 L2.8 71.62" class="st2"/>
				</g>
			</g>
			<g id="shape841-11" v:mID="841" v:groupContext="shape">
				<title>Blad.841</title>
				<path d="M0 71.62 L19.84 71.62" class="st2"/>
			</g>
		</g>
		<g id="shape842-14" v:mID="842" v:groupContext="shape" transform="translate(194.225,-37.4306) rotate(49.7611)">
			<title>Ligger, 2 pt.842</title>
			<path d="M0 71.62 L63.19 71.62" class="st3"/>
		</g>
		<g id="shape843-17" v:mID="843" v:groupContext="shape" transform="translate(-40.815,6.90313) rotate(-45.5355)">
			<title>Ligger, 2 pt.843</title>
			<path d="M0 71.62 L64.34 71.62" class="st3"/>
		</g>
		<g id="shape844-20" v:mID="844" v:groupContext="shape" transform="translate(53.3986,-60.4424) rotate(-1.57508)">
			<title>Ligger, 2 pt.844</title>
			<path d="M0 71.62 L84.22 71.62" class="st3"/>
		</g>
		<g id="shape845-23" v:mID="845" v:groupContext="shape" transform="translate(89.0283,-5.73296) rotate(-5.73605)">
			<title>Ligger, 2 pt.845</title>
			<path d="M0 71.62 L84.61 71.62" class="st3"/>
		</g>
		<g id="shape846-26" v:mID="846" v:groupContext="shape" transform="translate(17.1724,-14.2047) rotate(5.61472)">
			<title>Ligger, 2 pt.846</title>
			<path d="M0 71.62 L86.44 71.62" class="st3"/>
		</g>
		<g id="shape847-29" v:mID="847" v:groupContext="shape" transform="translate(112.642,-31.8469) rotate(53.1062)">
			<title>Ligger, 2 pt.847</title>
			<path d="M0 71.62 L67.99 71.62" class="st3"/>
		</g>
		<g id="shape848-32" v:mID="848" v:groupContext="shape" transform="translate(196.437,52.3455) rotate(127.416)">
			<title>Ligger, 2 pt.848</title>
			<path d="M0 71.62 L71.38 71.62" class="st3"/>
		</g>
		<g id="group849-35" transform="translate(0.375,-3.20966)" v:mID="849" v:groupContext="group">
			<title>Scharnieroplegging.849</title>
			<g id="shape850-36" v:mID="850" v:groupContext="shape" transform="translate(2.83465,0)">
				<title>Blad.850</title>
				<path d="M0 71.62 L14.17 71.62 L7.09 60.28 L0 71.62 Z" class="st1"/>
			</g>
			<g id="shape851-38" v:mID="851" v:groupContext="shape" transform="translate(2.83465,143.232) rotate(180)">
				<title>Blad.851</title>
				<path d="M0 71.62 L2.83 71.62" class="st2"/>
			</g>
			<g id="shape852-41" v:mID="852" v:groupContext="shape" transform="translate(17.0079,-1.42109E-14)">
				<title>Blad.852</title>
				<path d="M0 71.62 L2.83 71.62" class="st2"/>
			</g>
		</g>
		<g id="shape853-44" v:mID="853" v:groupContext="shape" transform="translate(38.0427,100.038) rotate(-126.87)">
			<title>Blad.853</title>
			<path d="M0 71.62 L70.87 71.62" class="st2"/>
		</g>
		<g id="shape854-47" v:mID="854" v:groupContext="shape" transform="translate(195.148,43.3447) rotate(126.87)">
			<title>Blad.854</title>
			<path d="M0 71.62 L70.87 71.62" class="st2"/>
		</g>
		<g id="shape855-50" v:mID="855" v:groupContext="shape" transform="translate(10.2963,-14.5482) rotate(2.77559E-06)">
			<title>Blad.855</title>
			<path d="M0 71.62 L85.04 71.62" class="st2"/>
		</g>
		<g id="shape856-53" v:mID="856" v:groupContext="shape" transform="translate(10.1656,-14.5482)">
			<title>Blad.856</title>
			<path d="M0 71.62 L42.65 14.92 L127.69 14.92 L170.21 71.62 L85.17 71.62" class="st2"/>
		</g>
		<g id="shape857-56" v:mID="857" v:groupContext="shape" transform="translate(8.17028,-12.4223)">
			<title>Scharnier.857</title>
			<ellipse cx="2.12598" cy="69.4902" rx="2.12598" ry="2.12598" class="st4"/>
		</g>
		<g id="shape858-58" v:mID="858" v:groupContext="shape" transform="translate(137.43,-60.6586)">
			<title>Scharnier.858</title>
			<ellipse cx="2.12598" cy="69.4902" rx="2.12598" ry="2.12598" class="st4"/>
		</g>
		<g id="shape859-60" v:mID="859" v:groupContext="shape" transform="translate(94.06,-3.96566)">
			<title>Scharnier.859</title>
			<ellipse cx="2.12598" cy="69.4902" rx="2.12598" ry="2.12598" class="st4"/>
		</g>
		<g id="shape860-62" v:mID="860" v:groupContext="shape" transform="translate(180.375,128.684) rotate(180)">
			<title>Blad.860</title>
			<path d="M0 71.62 L18.14 71.62" class="st2"/>
		</g>
		<g id="shape861-65" v:mID="861" v:groupContext="shape" transform="translate(178.249,-12.4222)">
			<title>Scharnier.861</title>
			<ellipse cx="2.12598" cy="69.4902" rx="2.12598" ry="2.12598" class="st4"/>
		</g>
		<g id="shape862-67" v:mID="862" v:groupContext="shape" transform="translate(53.2411,-58.3435)">
			<title>Scharnier.862</title>
			<ellipse cx="2.12598" cy="69.4902" rx="2.12598" ry="2.12598" class="st4"/>
		</g>
	</g>
</svg>
