<?xml version="1.0" encoding="UTF-8" standalone="no"?>
<!DOCTYPE svg PUBLIC "-//W3C//DTD SVG 1.1//EN" "http://www.w3.org/Graphics/SVG/1.1/DTD/svg11.dtd">
<!-- Gegenereerd door Microsoft Visio, SVG Export structure.svg Pagina-1 -->
<svg xmlns="http://www.w3.org/2000/svg" xmlns:xlink="http://www.w3.org/1999/xlink" xmlns:ev="http://www.w3.org/2001/xml-events"
		xmlns:v="http://schemas.microsoft.com/visio/2003/SVGExtensions/" width="3.35687in" height="2.31094in"
		viewBox="0 0 241.695 166.388" xml:space="preserve" color-interpolation-filters="sRGB" class="st14">
	<v:documentProperties v:langID="1043" v:metric="true" v:viewMarkup="false"/>

	<style type="text/css">
	<![CDATA[
		.st1 {stroke:#000000;stroke-linecap:round;stroke-linejoin:round;stroke-width:2}
		.st2 {marker-start:url(#mrkr5-21);stroke:#800000;stroke-linecap:round;stroke-linejoin:round;stroke-width:2}
		.st3 {fill:#800000;fill-opacity:1;stroke:#800000;stroke-opacity:1;stroke-width:0.44247787610619}
		.st4 {fill:#00cc99;stroke:#000000;stroke-linecap:round;stroke-linejoin:round;stroke-width:0.75}
		.st5 {stroke:#000000;stroke-linecap:round;stroke-linejoin:round;stroke-width:0.75}
		.st6 {fill:none;stroke:none;stroke-linecap:round;stroke-linejoin:round;stroke-width:0.75}
		.st7 {fill:#000000;font-family:Times New Roman;font-size:1.00001em}
		.st8 {fill:#ffffff;stroke:#000000;stroke-linecap:round;stroke-linejoin:round;stroke-width:0.75}
		.st9 {fill:#000000;font-family:Times New Roman;font-size:1.00001em;font-style:italic}
		.st10 {font-size:1em;font-style:normal}
		.st11 {stroke:#000000;stroke-linecap:round;stroke-linejoin:round;stroke-width:0.25}
		.st12 {marker-end:url(#mrkr4-95);marker-start:url(#mrkr4-93);stroke:#000000;stroke-linecap:round;stroke-linejoin:round;stroke-width:0.25}
		.st13 {fill:#000000;fill-opacity:1;stroke:#000000;stroke-opacity:1;stroke-width:0.12195121951219}
		.st14 {fill:none;fill-rule:evenodd;font-size:12px;overflow:visible;stroke-linecap:square;stroke-miterlimit:3}
	]]>
	</style>

	<defs id="Markers">
		<g id="lend5">
			<path d="M 2 1 L 0 0 L 1.98117 -0.993387 C 1.67173 -0.364515 1.67301 0.372641 1.98465 1.00043 " style="stroke:none"/>
		</g>
		<marker id="mrkr5-21" class="st3" v:arrowType="5" v:arrowSize="2" v:setback="3.775" refX="3.775" orient="auto"
				markerUnits="strokeWidth" overflow="visible">
			<use xlink:href="#lend5" transform="scale(2.26) "/>
		</marker>
		<g id="lend4">
			<path d="M 2 1 L 0 0 L 2 -1 L 2 1 " style="stroke:none"/>
		</g>
		<marker id="mrkr4-93" class="st13" v:arrowType="4" v:arrowSize="1" v:setback="14.96" refX="14.96" orient="auto"
				markerUnits="strokeWidth" overflow="visible">
			<use xlink:href="#lend4" transform="scale(8.2) "/>
		</marker>
		<marker id="mrkr4-95" class="st13" v:arrowType="4" v:arrowSize="1" v:setback="16.4" refX="-16.4" orient="auto"
				markerUnits="strokeWidth" overflow="visible">
			<use xlink:href="#lend4" transform="scale(-8.2,-8.2) "/>
		</marker>
	</defs>
	<g v:mID="0" v:index="1" v:groupContext="foregroundPage">
		<title>Pagina-1</title>
		<v:pageProperties v:drawingScale="0.0393701" v:pageScale="0.0393701" v:drawingUnits="24" v:shadowOffsetX="8.50394"
				v:shadowOffsetY="-8.50394"/>
		<g id="shape25-1" v:mID="25" v:groupContext="shape" transform="translate(275.217,-61.379) rotate(53.1301)">
			<title>Ligger, 2 pt.25</title>
			<path d="M0 166.39 L70.87 166.39" class="st1"/>
		</g>
		<g id="shape26-4" v:mID="26" v:groupContext="shape" transform="translate(190.178,138.286) rotate(126.87)">
			<title>Ligger, 2 pt.26</title>
			<path d="M0 166.39 L70.87 166.39" class="st1"/>
		</g>
		<g id="shape27-7" v:mID="27" v:groupContext="shape" transform="translate(57.0679,-127.934)">
			<title>Ligger, 2 pt.27</title>
			<path d="M0 166.39 L85.04 166.39" class="st1"/>
		</g>
		<g id="shape28-10" v:mID="28" v:groupContext="shape" transform="translate(85.4144,-71.2411)">
			<title>Ligger, 2 pt.28</title>
			<path d="M0 166.39 L99.21 166.39" class="st1"/>
		</g>
		<g id="shape29-13" v:mID="29" v:groupContext="shape" transform="translate(14.5482,-71.2411)">
			<title>Ligger, 2 pt.29</title>
			<path d="M0 166.39 L70.87 166.39" class="st1"/>
		</g>
		<g id="shape32-16" v:mID="32" v:groupContext="shape" transform="translate(-109.32,38.4535) rotate(-90)">
			<title>Kracht.32</title>
			<path d="M7.55 166.39 L7.91 166.39 L28.35 166.39" class="st2"/>
		</g>
		<g id="shape33-22" v:mID="33" v:groupContext="shape" transform="translate(190.178,-61.379) rotate(53.1301)">
			<title>Ligger, 2 pt.33</title>
			<path d="M0 166.39 L70.87 166.39" class="st1"/>
		</g>
		<g id="shape34-25" v:mID="34" v:groupContext="shape" transform="translate(275.217,138.286) rotate(126.87)">
			<title>Ligger, 2 pt.34</title>
			<path d="M0 166.39 L70.87 166.39" class="st1"/>
		</g>
		<g id="group35-28" transform="translate(174.706,-59.9026)" v:mID="35" v:groupContext="group">
			<title>Scharnieroplegging.35</title>
			<g id="shape36-29" v:mID="36" v:groupContext="shape" transform="translate(2.83465,2.84217E-14)">
				<title>Blad.36</title>
				<path d="M0 166.39 L14.17 166.39 L7.09 155.05 L0 166.39 Z" class="st4"/>
			</g>
			<g id="shape37-31" v:mID="37" v:groupContext="shape" transform="translate(2.83465,332.775) rotate(180)">
				<title>Blad.37</title>
				<path d="M0 166.39 L2.83 166.39" class="st5"/>
			</g>
			<g id="shape38-34" v:mID="38" v:groupContext="shape" transform="translate(17.0079,2.84217E-14)">
				<title>Blad.38</title>
				<path d="M0 166.39 L2.83 166.39" class="st5"/>
			</g>
		</g>
		<g id="shape39-37" v:mID="39" v:groupContext="shape" transform="translate(57.0679,-142.107)">
			<title>Blad.39</title>
			<desc>20 kN</desc>
			<v:textBlock v:margins="rect(4,4,4,4)" v:tabSpace="42.5197"/>
			<v:textRect cx="21.2598" cy="159.301" width="42.52" height="14.1732"/>
			<rect x="0" y="152.214" width="42.5197" height="14.1732" class="st6"/>
			<text x="6.43" y="162.9" class="st7" v:langID="1043"><v:paragraph v:horizAlign="1"/><v:tabList/>20 kN</text>		</g>
		<g id="group40-40" transform="translate(4.62697,-59.9026)" v:mID="40" v:groupContext="group">
			<title>Scharnieroplegging.40</title>
			<g id="shape41-41" v:mID="41" v:groupContext="shape" transform="translate(2.83465,2.84217E-14)">
				<title>Blad.41</title>
				<path d="M0 166.39 L14.17 166.39 L7.09 155.05 L0 166.39 Z" class="st4"/>
			</g>
			<g id="shape42-43" v:mID="42" v:groupContext="shape" transform="translate(2.83465,332.775) rotate(180)">
				<title>Blad.42</title>
				<path d="M0 166.39 L2.83 166.39" class="st5"/>
			</g>
			<g id="shape43-46" v:mID="43" v:groupContext="shape" transform="translate(17.0079,2.84217E-14)">
				<title>Blad.43</title>
				<path d="M0 166.39 L2.83 166.39" class="st5"/>
			</g>
		</g>
		<g id="shape44-49" v:mID="44" v:groupContext="shape" transform="translate(12.4222,-69.1152)">
			<title>Scharnier.44</title>
			<ellipse cx="2.12598" cy="164.262" rx="2.12598" ry="2.12598" class="st8"/>
		</g>
		<g id="shape49-51" v:mID="49" v:groupContext="shape" transform="translate(139.981,-125.808)">
			<title>Scharnier.49</title>
			<ellipse cx="2.12598" cy="164.262" rx="2.12598" ry="2.12598" class="st8"/>
		</g>
		<g id="shape50-53" v:mID="50" v:groupContext="shape" transform="translate(54.9419,-125.808)">
			<title>Scharnier.50</title>
			<ellipse cx="2.12598" cy="164.262" rx="2.12598" ry="2.12598" class="st8"/>
		</g>
		<g id="shape51-55" v:mID="51" v:groupContext="shape" transform="translate(97.4616,-69.1152)">
			<title>Scharnier.51</title>
			<ellipse cx="2.12598" cy="164.262" rx="2.12598" ry="2.12598" class="st8"/>
		</g>
		<g id="shape52-57" v:mID="52" v:groupContext="shape" transform="translate(182.501,-69.1152)">
			<title>Scharnier.52</title>
			<ellipse cx="2.12598" cy="164.262" rx="2.12598" ry="2.12598" class="st8"/>
		</g>
		<g id="shape53-59" v:mID="53" v:groupContext="shape" transform="translate(14.5482,-0.375)">
			<title>Blad.53</title>
			<desc>EA = 2000 kN</desc>
			<v:textBlock v:margins="rect(4,4,4,4)" v:tabSpace="42.5197"/>
			<v:textRect cx="85.0394" cy="159.301" width="170.08" height="14.1732"/>
			<rect x="0" y="152.214" width="170.079" height="14.1732" class="st6"/>
			<text x="50.49" y="162.9" class="st9" v:langID="1043"><v:paragraph v:horizAlign="1"/><v:tabList/>EA<tspan class="st10"> </tspan><tspan
						class="st10">= 2000 kN</tspan></text>		</g>
		<g id="shape54-64" v:mID="54" v:groupContext="shape" transform="translate(0.375,-71.2411)">
			<title>Blad.54</title>
			<desc>A</desc>
			<v:textBlock v:margins="rect(4,4,4,4)" v:tabSpace="42.5197"/>
			<v:textRect cx="7.08661" cy="159.301" width="14.18" height="14.1732"/>
			<rect x="0" y="152.214" width="14.1732" height="14.1732" class="st6"/>
			<text x="4" y="162.9" class="st7" v:langID="1043"><v:paragraph v:horizAlign="1"/><v:tabList/>A</text>		</g>
		<g id="shape55-67" v:mID="55" v:groupContext="shape" transform="translate(184.627,-71.2411)">
			<title>Blad.55</title>
			<desc>B</desc>
			<v:textBlock v:margins="rect(4,4,4,4)" v:tabSpace="42.5197"/>
			<v:textRect cx="7.08661" cy="159.301" width="14.18" height="14.1732"/>
			<rect x="0" y="152.214" width="14.1732" height="14.1732" class="st6"/>
			<text x="4" y="162.9" class="st7" v:langID="1043"><v:paragraph v:horizAlign="1"/><v:tabList/>B</text>		</g>
		<g id="shape56-70" v:mID="56" v:groupContext="shape" transform="translate(38.6427,-120.847)">
			<title>Blad.56</title>
			<desc>C</desc>
			<v:textBlock v:margins="rect(4,4,4,4)" v:tabSpace="42.5197"/>
			<v:textRect cx="7.08661" cy="159.301" width="14.18" height="14.1732"/>
			<rect x="0" y="152.214" width="14.1732" height="14.1732" class="st6"/>
			<text x="4" y="162.9" class="st7" v:langID="1043"><v:paragraph v:horizAlign="1"/><v:tabList/>C</text>		</g>
		<g id="shape57-73" v:mID="57" v:groupContext="shape" transform="translate(92.501,-57.0679)">
			<title>Blad.57</title>
			<desc>D</desc>
			<v:textBlock v:margins="rect(4,4,4,4)" v:tabSpace="42.5197"/>
			<v:textRect cx="7.08661" cy="159.301" width="14.18" height="14.1732"/>
			<rect x="0" y="152.214" width="14.1732" height="14.1732" class="st6"/>
			<text x="4" y="162.9" class="st7" v:langID="1043"><v:paragraph v:horizAlign="1"/><v:tabList/>D</text>		</g>
		<g id="shape58-76" v:mID="58" v:groupContext="shape" transform="translate(135.021,-127.934)">
			<title>Blad.58</title>
			<desc>E</desc>
			<v:textBlock v:margins="rect(4,4,4,4)" v:tabSpace="42.5197"/>
			<v:textRect cx="7.08661" cy="159.301" width="14.18" height="14.1732"/>
			<rect x="0" y="152.214" width="14.1732" height="14.1732" class="st6"/>
			<text x="4" y="162.9" class="st7" v:langID="1043"><v:paragraph v:horizAlign="1"/><v:tabList/>E</text>		</g>
		<g id="group59-79" transform="translate(208.721,-71.2411)" v:mID="59" v:groupContext="group">
			<title>Maatlijn verticaal</title>
			<g id="group60-80" transform="translate(-157.884,166.388) rotate(-90)" v:mID="60" v:groupContext="group">
				<title>Maatlijn.31</title>
				<g id="shape61-81" v:mID="61" v:groupContext="shape" transform="translate(166.388,157.884) rotate(90)">
					<title>Blad.61</title>
					<path d="M0 166.39 L8.5 166.39" class="st11"/>
				</g>
				<g id="shape62-84" v:mID="62" v:groupContext="shape" transform="translate(223.08,157.884) rotate(90)">
					<title>Blad.62</title>
					<path d="M0 166.39 L8.5 166.39" class="st11"/>
				</g>
				<g id="shape63-87" v:mID="63" v:groupContext="shape" transform="translate(0,-4.25197)">
					<title>Blad.63</title>
					<path d="M3.74 166.39 L4.1 166.39 L52.59 166.39" class="st12"/>
				</g>
			</g>
			<g id="shape64-96" v:mID="64" v:groupContext="shape" transform="translate(4.25197,-22.6772)">
				<title>Blad.64</title>
				<desc>4 m</desc>
				<v:textBlock v:margins="rect(4,4,4,4)" v:tabSpace="42.5197"/>
				<v:textRect cx="14.1732" cy="160.718" width="28.35" height="11.3386"/>
				<rect x="0" y="155.049" width="28.3465" height="11.3386" class="st6"/>
				<text x="5.01" y="164.32" class="st7" v:langID="1043"><v:paragraph v:horizAlign="1"/><v:tabList/>4 m</text>			</g>
		</g>
		<g id="group65-99" transform="translate(14.5482,-28.7215)" v:mID="65" v:groupContext="group">
			<title>Maatlijn</title>
			<g id="group66-100" transform="translate(0,-9.92126)" v:mID="66" v:groupContext="group">
				<title>Maatlijn.31</title>
				<g id="shape67-101" v:mID="67" v:groupContext="shape" transform="translate(166.388,157.884) rotate(90)">
					<title>Blad.67</title>
					<path d="M0 166.39 L8.5 166.39" class="st11"/>
				</g>
				<g id="shape68-104" v:mID="68" v:groupContext="shape" transform="translate(208.907,157.884) rotate(90)">
					<title>Blad.68</title>
					<path d="M0 166.39 L8.5 166.39" class="st11"/>
				</g>
				<g id="shape69-107" v:mID="69" v:groupContext="shape" transform="translate(0,-4.25197)">
					<title>Blad.69</title>
					<path d="M3.74 166.39 L4.1 166.39 L38.42 166.39" class="st12"/>
				</g>
			</g>
			<g id="shape70-114" v:mID="70" v:groupContext="shape">
				<title>Blad.70</title>
				<desc>3 m</desc>
				<v:textBlock v:margins="rect(4,4,4,4)" v:tabSpace="42.5197"/>
				<v:textRect cx="21.2598" cy="159.301" width="42.52" height="14.1732"/>
				<rect x="0" y="152.214" width="42.5197" height="14.1732" class="st6"/>
				<text x="12.09" y="162.9" class="st7" v:langID="1043"><v:paragraph v:horizAlign="1"/><v:tabList/>3 m</text>			</g>
		</g>
		<g id="group71-117" transform="translate(57.0679,-28.7215)" v:mID="71" v:groupContext="group">
			<title>Maatlijn.71</title>
			<g id="group72-118" transform="translate(0,-9.92126)" v:mID="72" v:groupContext="group">
				<title>Maatlijn.31</title>
				<g id="shape73-119" v:mID="73" v:groupContext="shape" transform="translate(166.388,157.884) rotate(90)">
					<title>Blad.73</title>
					<path d="M0 166.39 L8.5 166.39" class="st11"/>
				</g>
				<g id="shape74-122" v:mID="74" v:groupContext="shape" transform="translate(208.907,157.884) rotate(90)">
					<title>Blad.74</title>
					<path d="M0 166.39 L8.5 166.39" class="st11"/>
				</g>
				<g id="shape75-125" v:mID="75" v:groupContext="shape" transform="translate(0,-4.25197)">
					<title>Blad.75</title>
					<path d="M3.74 166.39 L4.1 166.39 L38.42 166.39" class="st12"/>
				</g>
			</g>
			<g id="shape76-132" v:mID="76" v:groupContext="shape">
				<title>Blad.76</title>
				<desc>3 m</desc>
				<v:textBlock v:margins="rect(4,4,4,4)" v:tabSpace="42.5197"/>
				<v:textRect cx="21.2598" cy="159.301" width="42.52" height="14.1732"/>
				<rect x="0" y="152.214" width="42.5197" height="14.1732" class="st6"/>
				<text x="12.09" y="162.9" class="st7" v:langID="1043"><v:paragraph v:horizAlign="1"/><v:tabList/>3 m</text>			</g>
		</g>
		<g id="group77-135" transform="translate(99.5876,-28.7215)" v:mID="77" v:groupContext="group">
			<title>Maatlijn.77</title>
			<g id="group78-136" transform="translate(0,-9.92126)" v:mID="78" v:groupContext="group">
				<title>Maatlijn.31</title>
				<g id="shape79-137" v:mID="79" v:groupContext="shape" transform="translate(166.388,157.884) rotate(90)">
					<title>Blad.79</title>
					<path d="M0 166.39 L8.5 166.39" class="st11"/>
				</g>
				<g id="shape80-140" v:mID="80" v:groupContext="shape" transform="translate(208.907,157.884) rotate(90)">
					<title>Blad.80</title>
					<path d="M0 166.39 L8.5 166.39" class="st11"/>
				</g>
				<g id="shape81-143" v:mID="81" v:groupContext="shape" transform="translate(0,-4.25197)">
					<title>Blad.81</title>
					<path d="M3.74 166.39 L4.1 166.39 L38.42 166.39" class="st12"/>
				</g>
			</g>
			<g id="shape82-150" v:mID="82" v:groupContext="shape">
				<title>Blad.82</title>
				<desc>3 m</desc>
				<v:textBlock v:margins="rect(4,4,4,4)" v:tabSpace="42.5197"/>
				<v:textRect cx="21.2598" cy="159.301" width="42.52" height="14.1732"/>
				<rect x="0" y="152.214" width="42.5197" height="14.1732" class="st6"/>
				<text x="12.09" y="162.9" class="st7" v:langID="1043"><v:paragraph v:horizAlign="1"/><v:tabList/>3 m</text>			</g>
		</g>
		<g id="group83-153" transform="translate(142.107,-28.7215)" v:mID="83" v:groupContext="group">
			<title>Maatlijn.83</title>
			<g id="group84-154" transform="translate(0,-9.92126)" v:mID="84" v:groupContext="group">
				<title>Maatlijn.31</title>
				<g id="shape85-155" v:mID="85" v:groupContext="shape" transform="translate(166.388,157.884) rotate(90)">
					<title>Blad.85</title>
					<path d="M0 166.39 L8.5 166.39" class="st11"/>
				</g>
				<g id="shape86-158" v:mID="86" v:groupContext="shape" transform="translate(208.907,157.884) rotate(90)">
					<title>Blad.86</title>
					<path d="M0 166.39 L8.5 166.39" class="st11"/>
				</g>
				<g id="shape87-161" v:mID="87" v:groupContext="shape" transform="translate(0,-4.25197)">
					<title>Blad.87</title>
					<path d="M3.74 166.39 L4.1 166.39 L38.42 166.39" class="st12"/>
				</g>
			</g>
			<g id="shape88-168" v:mID="88" v:groupContext="shape">
				<title>Blad.88</title>
				<desc>3 m</desc>
				<v:textBlock v:margins="rect(4,4,4,4)" v:tabSpace="42.5197"/>
				<v:textRect cx="21.2598" cy="159.301" width="42.52" height="14.1732"/>
				<rect x="0" y="152.214" width="42.5197" height="14.1732" class="st6"/>
				<text x="12.09" y="162.9" class="st7" v:langID="1043"><v:paragraph v:horizAlign="1"/><v:tabList/>3 m</text>			</g>
		</g>
	</g>
</svg>
