<?xml version="1.0" encoding="UTF-8" standalone="no"?>
<!DOCTYPE svg PUBLIC "-//W3C//DTD SVG 1.1//EN" "http://www.w3.org/Graphics/SVG/1.1/DTD/svg11.dtd">
<!-- Gegenereerd door Microsoft Visio, SVG Export williot.svg Pagina-1 -->
<svg xmlns="http://www.w3.org/2000/svg" xmlns:xlink="http://www.w3.org/1999/xlink" xmlns:ev="http://www.w3.org/2001/xml-events"
		xmlns:v="http://schemas.microsoft.com/visio/2003/SVGExtensions/" width="2.53962in" height="5.67246in"
		viewBox="0 0 182.852 408.417" xml:space="preserve" color-interpolation-filters="sRGB" class="st7">
	<v:documentProperties v:langID="1043" v:metric="true" v:viewMarkup="false"/>

	<style type="text/css">
	<![CDATA[
		.st1 {stroke:#000000;stroke-linecap:round;stroke-linejoin:round;stroke-width:0.75}
		.st2 {marker-end:url(#mrkr1-12);stroke:#000000;stroke-linecap:butt;stroke-width:3}
		.st3 {fill:#000000;fill-opacity:1;stroke:#000000;stroke-opacity:1;stroke-width:0.67567567567568}
		.st4 {fill:none;stroke:none;stroke-linecap:round;stroke-linejoin:round;stroke-width:0.75}
		.st5 {fill:#000000;font-family:Times New Roman;font-size:1.00001em}
		.st6 {stroke:#000000;stroke-dasharray:5.25,3.75;stroke-linecap:round;stroke-linejoin:round;stroke-width:0.75}
		.st7 {fill:none;fill-rule:evenodd;font-size:12px;overflow:visible;stroke-linecap:square;stroke-miterlimit:3}
	]]>
	</style>

	<defs id="Markers">
		<g id="lend1">
			<path d="M 1 -1 L 0 0 L 1 1 " style="stroke-linecap:round;stroke-linejoin:round;fill:none"/>
		</g>
		<marker id="mrkr1-12" class="st3" v:arrowType="1" v:arrowSize="0" orient="auto" markerUnits="strokeWidth"
				overflow="visible">
			<use xlink:href="#lend1" transform="scale(-1.48,-1.48) "/>
		</marker>
	</defs>
	<g v:mID="0" v:index="1" v:groupContext="foregroundPage">
		<title>Pagina-1</title>
		<v:pageProperties v:drawingScale="0.0393701" v:pageScale="0.0393701" v:drawingUnits="24" v:shadowOffsetX="8.50394"
				v:shadowOffsetY="-8.50394"/>
		<g id="shape555-1" v:mID="555" v:groupContext="shape" transform="translate(-194.191,623.657) rotate(-135)">
			<title>Blad.555</title>
			<path d="M0 408.42 L8.05 408.42" class="st1"/>
		</g>
		<g id="shape556-4" v:mID="556" v:groupContext="shape" transform="translate(-199.86,46.0689) rotate(-45)">
			<title>Blad.556</title>
			<path d="M0 408.42 L7.84 408.42" class="st1"/>
		</g>
		<g id="shape557-7" v:mID="557" v:groupContext="shape" transform="translate(439.031,547) rotate(121.759)">
			<title>verplaatsing</title>
			<path d="M0 408.42 L70.87 408.42" class="st2"/>
		</g>
		<g id="shape559-13" v:mID="559" v:groupContext="shape" transform="translate(-234.326,681.078) rotate(-135)">
			<title>Blad.559</title>
			<path d="M0 408.42 L4.04 408.42" class="st1"/>
		</g>
		<g id="shape560-16" v:mID="560" v:groupContext="shape" transform="translate(-237.161,106.324) rotate(-45)">
			<title>Blad.560</title>
			<path d="M0 408.42 L4.01 408.42" class="st1"/>
		</g>
		<g id="shape561-19" v:mID="561" v:groupContext="shape" transform="translate(-231.466,683.938) rotate(-135)">
			<title>Blad.561</title>
			<path d="M0 408.42 L4.04 408.42" class="st1"/>
		</g>
		<g id="shape562-22" v:mID="562" v:groupContext="shape" transform="translate(-234.326,103.489) rotate(-45)">
			<title>Blad.562</title>
			<path d="M0 408.42 L4.01 408.42" class="st1"/>
		</g>
		<g id="shape563-25" v:mID="563" v:groupContext="shape" transform="translate(91.7688,-76.3882)">
			<title>Blad.563</title>
			<desc>O = A</desc>
			<v:textBlock v:margins="rect(4,4,4,4)" v:tabSpace="42.5197"/>
			<v:textRect cx="19.8425" cy="402.039" width="39.69" height="12.7559"/>
			<rect x="0" y="395.661" width="39.685" height="12.7559" class="st4"/>
			<text x="4.79" y="405.64" class="st5" v:langID="1043"><v:paragraph v:horizAlign="1"/><v:tabList/>O = A</text>		</g>
		<g id="shape564-28" v:mID="564" v:groupContext="shape" transform="translate(37.9105,-0.375)">
			<title>Blad.564</title>
			<desc>C’</desc>
			<v:textBlock v:margins="rect(4,4,4,4)" v:tabSpace="42.5197"/>
			<v:textRect cx="11.3386" cy="401.33" width="22.68" height="14.1732"/>
			<rect x="0" y="394.244" width="22.6772" height="14.1732" class="st4"/>
			<text x="5.34" y="404.93" class="st5" v:langID="1043"><v:paragraph v:horizAlign="1"/><v:tabList/>C’</text>		</g>
		<g id="shape565-31" v:mID="565" v:groupContext="shape" transform="translate(-272.265,637.334) rotate(-126.87)">
			<title>verplaatsing.565</title>
			<path d="M0 408.42 L23.62 408.42" class="st2"/>
		</g>
		<g id="shape566-36" v:mID="566" v:groupContext="shape" transform="translate(-146.002,585.39) rotate(-135)">
			<title>Blad.566</title>
			<path d="M0 408.42 L4.04 408.42" class="st1"/>
		</g>
		<g id="shape567-39" v:mID="567" v:groupContext="shape" transform="translate(-148.837,10.6358) rotate(-45)">
			<title>Blad.567</title>
			<path d="M0 408.42 L4.01 408.42" class="st1"/>
		</g>
		<g id="shape568-42" v:mID="568" v:groupContext="shape" transform="translate(-143.142,588.25) rotate(-135)">
			<title>Blad.568</title>
			<path d="M0 408.42 L4.04 408.42" class="st1"/>
		</g>
		<g id="shape569-45" v:mID="569" v:groupContext="shape" transform="translate(-146.002,7.8012) rotate(-45)">
			<title>Blad.569</title>
			<path d="M0 408.42 L4.01 408.42" class="st1"/>
		</g>
		<g id="shape570-48" v:mID="570" v:groupContext="shape" transform="translate(91.7688,-76.3882)">
			<title>verplaatsing.570</title>
			<path d="M0 408.42 L51.02 408.42" class="st2"/>
		</g>
		<g id="shape571-53" v:mID="571" v:groupContext="shape" transform="translate(-204.755,46.6525) rotate(-36.8699)">
			<title>Blad.571</title>
			<path d="M0 408.42 L141.73 408.42" class="st6"/>
		</g>
		<g id="shape573-56" v:mID="573" v:groupContext="shape" transform="translate(-216.094,55.1564) rotate(-36.8699)">
			<title>Blad.573</title>
			<path d="M0 408.42 L14.17 408.42" class="st6"/>
		</g>
		<g id="shape574-59" v:mID="574" v:groupContext="shape" transform="translate(-265.624,332.029) rotate(-90)">
			<title>Blad.574</title>
			<path d="M0 408.42 L62.36 408.42" class="st6"/>
		</g>
		<g id="shape575-62" v:mID="575" v:groupContext="shape" transform="translate(-265.624,394.391) rotate(-90)">
			<title>Blad.575</title>
			<path d="M0 408.42 L62.36 408.42" class="st6"/>
		</g>
		<g id="shape578-65" v:mID="578" v:groupContext="shape" transform="translate(121.533,-108.987)">
			<title>Blad.578</title>
			<desc>D’</desc>
			<v:textBlock v:margins="rect(4,4,4,4)" v:tabSpace="42.5197"/>
			<v:textRect cx="11.3386" cy="401.33" width="22.68" height="14.1732"/>
			<rect x="0" y="394.244" width="22.6772" height="14.1732" class="st4"/>
			<text x="5.01" y="404.93" class="st5" v:langID="1043"><v:paragraph v:horizAlign="1"/><v:tabList/>D’</text>		</g>
		<g id="shape579-68" v:mID="579" v:groupContext="shape" transform="translate(54.4681,800.7) rotate(180)">
			<title>verplaatsing.579</title>
			<path d="M0 408.42 L34.02 408.42" class="st2"/>
		</g>
		<g id="shape580-73" v:mID="580" v:groupContext="shape" transform="translate(-183.941,51.5454) rotate(-53.1301)">
			<title>verplaatsing.580</title>
			<path d="M0 408.42 L23.62 408.42" class="st2"/>
		</g>
		<g id="shape581-78" v:mID="581" v:groupContext="shape" transform="translate(253.695,-160.276) rotate(36.8699)">
			<title>Blad.581</title>
			<path d="M0 408.42 L185.4 408.42" class="st6"/>
		</g>
		<g id="shape582-81" v:mID="582" v:groupContext="shape" transform="translate(402.016,-49.0356) rotate(36.8699)">
			<title>Blad.582</title>
			<path d="M0 408.42 L14.17 408.42" class="st6"/>
		</g>
		<g id="shape583-84" v:mID="583" v:groupContext="shape" transform="translate(-387.964,392.284) rotate(-90)">
			<title>Blad.583</title>
			<path d="M0 408.42 L240.94 408.42" class="st6"/>
		</g>
		<g id="shape585-87" v:mID="585" v:groupContext="shape" transform="translate(-268.342,464.107) rotate(-135)">
			<title>Blad.585</title>
			<path d="M0 408.42 L4.04 408.42" class="st1"/>
		</g>
		<g id="shape586-90" v:mID="586" v:groupContext="shape" transform="translate(-271.177,-110.647) rotate(-45)">
			<title>Blad.586</title>
			<path d="M0 408.42 L4.01 408.42" class="st1"/>
		</g>
		<g id="shape587-93" v:mID="587" v:groupContext="shape" transform="translate(-265.482,466.967) rotate(-135)">
			<title>Blad.587</title>
			<path d="M0 408.42 L4.04 408.42" class="st1"/>
		</g>
		<g id="shape588-96" v:mID="588" v:groupContext="shape" transform="translate(-268.342,-113.481) rotate(-45)">
			<title>Blad.588</title>
			<path d="M0 408.42 L4.01 408.42" class="st1"/>
		</g>
		<g id="shape589-99" v:mID="589" v:groupContext="shape" transform="translate(1.06014,-220.955)">
			<title>Blad.589</title>
			<desc>E’</desc>
			<v:textBlock v:margins="rect(4,4,4,4)" v:tabSpace="42.5197"/>
			<v:textRect cx="11.3386" cy="401.33" width="22.68" height="14.1732"/>
			<rect x="0" y="394.244" width="22.6772" height="14.1732" class="st4"/>
			<text x="5.68" y="404.93" class="st5" v:langID="1043"><v:paragraph v:horizAlign="1"/><v:tabList/>E’</text>		</g>
		<g id="shape590-102" v:mID="590" v:groupContext="shape" transform="translate(142.792,-111.821)">
			<title>verplaatsing.590</title>
			<path d="M0 408.42 L17.01 408.42" class="st2"/>
		</g>
		<g id="shape591-107" v:mID="591" v:groupContext="shape" transform="translate(-248.617,296.595) rotate(-90)">
			<title>Blad.591</title>
			<path d="M0 408.42 L296.22 408.42" class="st6"/>
		</g>
		<g id="shape592-110" v:mID="592" v:groupContext="shape" transform="translate(-248.617,324.942) rotate(-90)">
			<title>Blad.592</title>
			<path d="M0 408.42 L28.35 408.42" class="st6"/>
		</g>
		<g id="shape593-113" v:mID="593" v:groupContext="shape" transform="translate(-306.281,420.363) rotate(-126.87)">
			<title>verplaatsing.593</title>
			<path d="M0 408.42 L23.62 408.42" class="st2"/>
		</g>
		<g id="shape634-118" v:mID="634" v:groupContext="shape" transform="translate(-238.771,-170.318) rotate(-36.8699)">
			<title>Blad.634</title>
			<path d="M0 408.42 L198.43 408.42" class="st6"/>
		</g>
		<g id="shape637-121" v:mID="637" v:groupContext="shape" transform="translate(-128.994,330.069) rotate(-135)">
			<title>Blad.637</title>
			<path d="M0 408.42 L4.04 408.42" class="st1"/>
		</g>
		<g id="shape638-124" v:mID="638" v:groupContext="shape" transform="translate(-128.994,-247.52) rotate(-45)">
			<title>Blad.638</title>
			<path d="M0 408.42 L4.01 408.42" class="st1"/>
		</g>
		<g id="shape639-127" v:mID="639" v:groupContext="shape" transform="translate(-131.829,-244.685) rotate(-45)">
			<title>Blad.639</title>
			<path d="M0 408.42 L4.01 408.42" class="st1"/>
		</g>
		<g id="shape640-130" v:mID="640" v:groupContext="shape" transform="translate(-126.134,332.929) rotate(-135)">
			<title>Blad.640</title>
			<path d="M0 408.42 L4.04 408.42" class="st1"/>
		</g>
		<g id="shape641-133" v:mID="641" v:groupContext="shape" transform="translate(159.8,-365.522)">
			<title>Blad.641</title>
			<desc>B’</desc>
			<v:textBlock v:margins="rect(4,4,4,4)" v:tabSpace="42.5197"/>
			<v:textRect cx="11.3386" cy="401.33" width="22.68" height="14.1732"/>
			<rect x="0" y="394.244" width="22.6772" height="14.1732" class="st4"/>
			<text x="5.34" y="404.93" class="st5" v:langID="1043"><v:paragraph v:horizAlign="1"/><v:tabList/>B’</text>		</g>
	</g>
</svg>
