<?xml version="1.0" encoding="UTF-8" standalone="no"?>
<!DOCTYPE svg PUBLIC "-//W3C//DTD SVG 1.1//EN" "http://www.w3.org/Graphics/SVG/1.1/DTD/svg11.dtd">
<!-- Gegenereerd door Microsoft Visio, SVG Export structure.svg Pagina-1 -->
<svg xmlns="http://www.w3.org/2000/svg" xmlns:xlink="http://www.w3.org/1999/xlink" xmlns:ev="http://www.w3.org/2001/xml-events"
		xmlns:v="http://schemas.microsoft.com/visio/2003/SVGExtensions/" width="3.74703in" height="2.784in"
		viewBox="0 0 269.786 200.448" xml:space="preserve" color-interpolation-filters="sRGB" class="st18">
	<v:documentProperties v:langID="1043" v:metric="true" v:viewMarkup="false"/>

	<style type="text/css">
	<![CDATA[
		.st1 {fill:#ffffff;stroke:#000000;stroke-linecap:round;stroke-linejoin:round;stroke-width:0.25}
		.st2 {stroke:#000000;stroke-linecap:round;stroke-linejoin:round;stroke-width:1}
		.st3 {fill:#00cc99;stroke:#000000;stroke-linecap:round;stroke-linejoin:round;stroke-width:0.75}
		.st4 {stroke:#000000;stroke-linecap:round;stroke-linejoin:round;stroke-width:0.75}
		.st5 {stroke:#000000;stroke-linecap:round;stroke-linejoin:round;stroke-width:2}
		.st6 {fill:#ffffff;stroke:#000000;stroke-linecap:round;stroke-linejoin:round;stroke-width:0.75}
		.st7 {marker-start:url(#mrkr5-72);stroke:#800000;stroke-linecap:round;stroke-linejoin:round;stroke-width:2}
		.st8 {fill:#800000;fill-opacity:1;stroke:#800000;stroke-opacity:1;stroke-width:0.4424778761062}
		.st9 {stroke:#000000;stroke-linecap:round;stroke-linejoin:round;stroke-width:0.25}
		.st10 {marker-end:url(#mrkr4-94);marker-start:url(#mrkr4-92);stroke:#000000;stroke-linecap:round;stroke-linejoin:round;stroke-width:0.25}
		.st11 {fill:#000000;fill-opacity:1;stroke:#000000;stroke-opacity:1;stroke-width:0.12195121951219}
		.st12 {fill:none;stroke:none;stroke-linecap:round;stroke-linejoin:round;stroke-width:0.75}
		.st13 {fill:#000000;font-family:Times New Roman;font-size:1.00001em}
		.st14 {fill:none;stroke:none;stroke-linecap:round;stroke-linejoin:round;stroke-width:0.24}
		.st15 {fill:#000000;font-family:Times New Roman;font-size:1.00001em;font-style:italic}
		.st16 {font-size:1em;font-style:normal}
		.st17 {font-size:1em}
		.st18 {fill:none;fill-rule:evenodd;font-size:12px;overflow:visible;stroke-linecap:square;stroke-miterlimit:3}
	]]>
	</style>

	<defs id="Markers">
		<g id="lend5">
			<path d="M 2 1 L 0 0 L 1.98117 -0.993387 C 1.67173 -0.364515 1.67301 0.372641 1.98465 1.00043 " style="stroke:none"/>
		</g>
		<marker id="mrkr5-72" class="st8" v:arrowType="5" v:arrowSize="2" v:setback="3.775" refX="3.775" orient="auto"
				markerUnits="strokeWidth" overflow="visible">
			<use xlink:href="#lend5" transform="scale(2.26) "/>
		</marker>
		<g id="lend4">
			<path d="M 2 1 L 0 0 L 2 -1 L 2 1 " style="stroke:none"/>
		</g>
		<marker id="mrkr4-92" class="st11" v:arrowType="4" v:arrowSize="1" v:setback="14.96" refX="14.96" orient="auto"
				markerUnits="strokeWidth" overflow="visible">
			<use xlink:href="#lend4" transform="scale(8.2) "/>
		</marker>
		<marker id="mrkr4-94" class="st11" v:arrowType="4" v:arrowSize="1" v:setback="16.4" refX="-16.4" orient="auto"
				markerUnits="strokeWidth" overflow="visible">
			<use xlink:href="#lend4" transform="scale(-8.2,-8.2) "/>
		</marker>
	</defs>
	<g v:mID="0" v:index="1" v:groupContext="foregroundPage">
		<title>Pagina-1</title>
		<v:pageProperties v:drawingScale="0.0393701" v:pageScale="0.0393701" v:drawingUnits="24" v:shadowOffsetX="8.50394"
				v:shadowOffsetY="-8.50394"/>
		<g id="shape103-1" v:mID="103" v:groupContext="shape" transform="translate(14.2932,-85.4144)">
			<title>Scharnier.103</title>
			<ellipse cx="14.1732" cy="186.275" rx="14.1732" ry="14.1732" class="st1"/>
		</g>
		<g id="shape5-3" v:mID="5" v:groupContext="shape" transform="translate(-16.0759,157.553) rotate(-90)">
			<title>Vakwerk, 1 pt.27</title>
			<path d="M0 200.45 L56.69 200.45" class="st2"/>
		</g>
		<g id="shape6-6" v:mID="6" v:groupContext="shape" transform="translate(12.2706,100.86) rotate(-90)">
			<title>Vakwerk, 1 pt.26</title>
			<path d="M0 200.45 L56.69 200.45" class="st2"/>
		</g>
		<g id="shape7-9" v:mID="7" v:groupContext="shape" transform="translate(-101.115,100.86) rotate(-90)">
			<title>Vakwerk, 1 pt.24</title>
			<path d="M0 200.45 L28.35 200.45" class="st2"/>
		</g>
		<g id="shape8-12" v:mID="8" v:groupContext="shape" transform="translate(-129.462,72.5138) rotate(-90)">
			<title>Vakwerk, 1 pt.23</title>
			<path d="M0 200.45 L28.35 200.45" class="st2"/>
		</g>
		<g id="group10-15" transform="translate(24.2145,233.277) rotate(180)" v:mID="10" v:groupContext="group">
			<title>Scharnieroplegging</title>
			<g id="shape11-16" v:mID="11" v:groupContext="shape" transform="translate(2.83465,0)">
				<title>Blad.11</title>
				<path d="M0 200.45 L14.17 200.45 L7.09 189.11 L0 200.45 Z" class="st3"/>
			</g>
			<g id="shape12-18" v:mID="12" v:groupContext="shape" transform="translate(2.83465,400.896) rotate(180)">
				<title>Blad.12</title>
				<path d="M0 200.45 L2.83 200.45" class="st4"/>
			</g>
			<g id="shape13-21" v:mID="13" v:groupContext="shape" transform="translate(17.0079,0)">
				<title>Blad.13</title>
				<path d="M0 200.45 L2.83 200.45" class="st4"/>
			</g>
		</g>
		<g id="group14-24" transform="translate(80.9074,233.277) rotate(180)" v:mID="14" v:groupContext="group">
			<title>Scharnieroplegging.5</title>
			<g id="shape15-25" v:mID="15" v:groupContext="shape" transform="translate(2.83465,0)">
				<title>Blad.15</title>
				<path d="M0 200.45 L14.17 200.45 L7.09 189.11 L0 200.45 Z" class="st3"/>
			</g>
			<g id="shape16-27" v:mID="16" v:groupContext="shape" transform="translate(2.83465,400.896) rotate(180)">
				<title>Blad.16</title>
				<path d="M0 200.45 L2.83 200.45" class="st4"/>
			</g>
			<g id="shape17-30" v:mID="17" v:groupContext="shape" transform="translate(17.0079,0)">
				<title>Blad.17</title>
				<path d="M0 200.45 L2.83 200.45" class="st4"/>
			</g>
		</g>
		<g id="shape18-33" v:mID="18" v:groupContext="shape" transform="translate(70.9861,-127.934)">
			<title>Ligger, 2 pt</title>
			<path d="M0 200.45 L141.73 200.45" class="st5"/>
		</g>
		<g id="shape19-36" v:mID="19" v:groupContext="shape" transform="translate(99.3326,-99.5876)">
			<title>Ligger, 2 pt.10</title>
			<path d="M0 200.45 L113.39 200.45" class="st5"/>
		</g>
		<g id="shape20-39" v:mID="20" v:groupContext="shape" transform="translate(28.4664,-42.8947)">
			<title>Ligger, 2 pt.11</title>
			<path d="M0 200.45 L155.91 200.45" class="st5"/>
		</g>
		<g id="group21-42" transform="translate(222.64,233.277) rotate(180)" v:mID="21" v:groupContext="group">
			<title>Scharnieroplegging.12</title>
			<g id="shape22-43" v:mID="22" v:groupContext="shape" transform="translate(2.83465,0)">
				<title>Blad.22</title>
				<path d="M0 200.45 L14.17 200.45 L7.09 189.11 L0 200.45 Z" class="st3"/>
			</g>
			<g id="shape23-45" v:mID="23" v:groupContext="shape" transform="translate(2.83465,400.896) rotate(180)">
				<title>Blad.23</title>
				<path d="M0 200.45 L2.83 200.45" class="st4"/>
			</g>
			<g id="shape24-48" v:mID="24" v:groupContext="shape" transform="translate(17.0079,0)">
				<title>Blad.24</title>
				<path d="M0 200.45 L2.83 200.45" class="st4"/>
			</g>
		</g>
		<g id="shape25-51" v:mID="25" v:groupContext="shape" transform="translate(68.8602,-125.808)">
			<title>Scharnier</title>
			<ellipse cx="2.12598" cy="198.322" rx="2.12598" ry="2.12598" class="st6"/>
		</g>
		<g id="shape26-53" v:mID="26" v:groupContext="shape" transform="translate(210.592,-125.808)">
			<title>Scharnier.17</title>
			<ellipse cx="2.12598" cy="198.322" rx="2.12598" ry="2.12598" class="st6"/>
		</g>
		<g id="shape27-55" v:mID="27" v:groupContext="shape" transform="translate(97.2066,-97.4616)">
			<title>Scharnier.18</title>
			<ellipse cx="2.12598" cy="198.322" rx="2.12598" ry="2.12598" class="st6"/>
		</g>
		<g id="shape28-57" v:mID="28" v:groupContext="shape" transform="translate(210.592,-97.4616)">
			<title>Scharnier.19</title>
			<ellipse cx="2.12598" cy="198.322" rx="2.12598" ry="2.12598" class="st6"/>
		</g>
		<g id="shape29-59" v:mID="29" v:groupContext="shape" transform="translate(26.3405,-40.7687)">
			<title>Scharnier.20</title>
			<ellipse cx="2.12598" cy="198.322" rx="2.12598" ry="2.12598" class="st6"/>
		</g>
		<g id="shape30-61" v:mID="30" v:groupContext="shape" transform="translate(182.246,-40.7687)">
			<title>Scharnier.21</title>
			<ellipse cx="2.12598" cy="198.322" rx="2.12598" ry="2.12598" class="st6"/>
		</g>
		<g id="shape31-63" v:mID="31" v:groupContext="shape" transform="translate(97.2066,-122.973)">
			<title>Scharnier.25</title>
			<ellipse cx="2.12598" cy="198.322" rx="2.12598" ry="2.12598" class="st6"/>
		</g>
		<g id="shape32-65" v:mID="32" v:groupContext="shape" transform="translate(182.246,-95.3356)">
			<title>Scharnier.28</title>
			<ellipse cx="2.12598" cy="198.322" rx="2.12598" ry="2.12598" class="st6"/>
		</g>
		<g id="shape33-67" v:mID="33" v:groupContext="shape" transform="translate(-101.115,157.553) rotate(-90)">
			<title>Kracht</title>
			<path d="M7.55 200.45 L7.91 200.45 L28.35 200.45" class="st7"/>
		</g>
		<g id="shape34-73" v:mID="34" v:groupContext="shape" transform="translate(-16.0759,72.5138) rotate(-90)">
			<title>Kracht.30</title>
			<path d="M7.55 200.45 L7.91 200.45 L28.35 200.45" class="st7"/>
		</g>
		<g id="group35-78" transform="translate(42.6397,-0.375)" v:mID="35" v:groupContext="group">
			<title>Maatlijn</title>
			<g id="group36-79" transform="translate(0,-9.92126)" v:mID="36" v:groupContext="group">
				<title>Maatlijn.31</title>
				<g id="shape37-80" v:mID="37" v:groupContext="shape" transform="translate(200.448,191.944) rotate(90)">
					<title>Blad.37</title>
					<path d="M0 200.45 L8.5 200.45" class="st9"/>
				</g>
				<g id="shape38-83" v:mID="38" v:groupContext="shape" transform="translate(228.794,191.944) rotate(90)">
					<title>Blad.38</title>
					<path d="M0 200.45 L8.5 200.45" class="st9"/>
				</g>
				<g id="shape39-86" v:mID="39" v:groupContext="shape" transform="translate(0,-4.25197)">
					<title>Blad.39</title>
					<path d="M3.74 200.45 L4.1 200.45 L24.25 200.45" class="st10"/>
				</g>
			</g>
			<g id="shape40-95" v:mID="40" v:groupContext="shape">
				<title>Blad.40</title>
				<desc>2 m</desc>
				<v:textBlock v:margins="rect(4,4,4,4)" v:tabSpace="42.5197"/>
				<v:textRect cx="14.1732" cy="193.361" width="28.35" height="14.1732"/>
				<rect x="0" y="186.275" width="28.3465" height="14.1732" class="st12"/>
				<text x="5.01" y="196.96" class="st13" v:langID="1043"><v:paragraph v:horizAlign="1"/><v:tabList/>2 m</text>			</g>
		</g>
		<g id="group41-98" transform="translate(70.9861,-0.375)" v:mID="41" v:groupContext="group">
			<title>Maatlijn.37</title>
			<g id="group42-99" transform="translate(0,-9.92126)" v:mID="42" v:groupContext="group">
				<title>Maatlijn.31</title>
				<g id="shape43-100" v:mID="43" v:groupContext="shape" transform="translate(200.448,191.944) rotate(90)">
					<title>Blad.43</title>
					<path d="M0 200.45 L8.5 200.45" class="st9"/>
				</g>
				<g id="shape44-103" v:mID="44" v:groupContext="shape" transform="translate(228.794,191.944) rotate(90)">
					<title>Blad.44</title>
					<path d="M0 200.45 L8.5 200.45" class="st9"/>
				</g>
				<g id="shape45-106" v:mID="45" v:groupContext="shape" transform="translate(0,-4.25197)">
					<title>Blad.45</title>
					<path d="M3.74 200.45 L4.1 200.45 L24.25 200.45" class="st10"/>
				</g>
			</g>
			<g id="shape46-113" v:mID="46" v:groupContext="shape">
				<title>Blad.46</title>
				<desc>2 m</desc>
				<v:textBlock v:margins="rect(4,4,4,4)" v:tabSpace="42.5197"/>
				<v:textRect cx="14.1732" cy="193.361" width="28.35" height="14.1732"/>
				<rect x="0" y="186.275" width="28.3465" height="14.1732" class="st12"/>
				<text x="5.01" y="196.96" class="st13" v:langID="1043"><v:paragraph v:horizAlign="1"/><v:tabList/>2 m</text>			</g>
		</g>
		<g id="group47-116" transform="translate(99.3326,-0.375)" v:mID="47" v:groupContext="group">
			<title>Maatlijn.43</title>
			<g id="group48-117" transform="translate(0,-9.92126)" v:mID="48" v:groupContext="group">
				<title>Maatlijn.31</title>
				<g id="shape49-118" v:mID="49" v:groupContext="shape" transform="translate(200.448,191.944) rotate(90)">
					<title>Blad.49</title>
					<path d="M0 200.45 L8.5 200.45" class="st9"/>
				</g>
				<g id="shape50-121" v:mID="50" v:groupContext="shape" transform="translate(285.487,191.944) rotate(90)">
					<title>Blad.50</title>
					<path d="M0 200.45 L8.5 200.45" class="st9"/>
				</g>
				<g id="shape51-124" v:mID="51" v:groupContext="shape" transform="translate(0,-4.25197)">
					<title>Blad.51</title>
					<path d="M3.74 200.45 L4.1 200.45 L80.94 200.45" class="st10"/>
				</g>
			</g>
			<g id="shape52-131" v:mID="52" v:groupContext="shape">
				<title>Blad.52</title>
				<desc>6 m</desc>
				<v:textBlock v:margins="rect(4,4,4,4)" v:tabSpace="42.5197"/>
				<v:textRect cx="42.5197" cy="193.361" width="85.04" height="14.1732"/>
				<rect x="0" y="186.275" width="85.0394" height="14.1732" class="st12"/>
				<text x="33.35" y="196.96" class="st13" v:langID="1043"><v:paragraph v:horizAlign="1"/><v:tabList/>6 m</text>			</g>
		</g>
		<g id="group53-134" transform="translate(184.372,-0.375)" v:mID="53" v:groupContext="group">
			<title>Maatlijn.55</title>
			<g id="group54-135" transform="translate(0,-9.92126)" v:mID="54" v:groupContext="group">
				<title>Maatlijn.31</title>
				<g id="shape55-136" v:mID="55" v:groupContext="shape" transform="translate(200.448,191.944) rotate(90)">
					<title>Blad.55</title>
					<path d="M0 200.45 L8.5 200.45" class="st9"/>
				</g>
				<g id="shape56-139" v:mID="56" v:groupContext="shape" transform="translate(228.794,191.944) rotate(90)">
					<title>Blad.56</title>
					<path d="M0 200.45 L8.5 200.45" class="st9"/>
				</g>
				<g id="shape57-142" v:mID="57" v:groupContext="shape" transform="translate(0,-4.25197)">
					<title>Blad.57</title>
					<path d="M3.74 200.45 L4.1 200.45 L24.25 200.45" class="st10"/>
				</g>
			</g>
			<g id="shape58-149" v:mID="58" v:groupContext="shape">
				<title>Blad.58</title>
				<desc>2 m</desc>
				<v:textBlock v:margins="rect(4,4,4,4)" v:tabSpace="42.5197"/>
				<v:textRect cx="14.1732" cy="193.361" width="28.35" height="14.1732"/>
				<rect x="0" y="186.275" width="28.3465" height="14.1732" class="st12"/>
				<text x="5.01" y="196.96" class="st13" v:langID="1043"><v:paragraph v:horizAlign="1"/><v:tabList/>2 m</text>			</g>
		</g>
		<g id="group59-152" transform="translate(236.813,-127.934)" v:mID="59" v:groupContext="group">
			<title>Maatlijn verticaal</title>
			<g id="group60-153" transform="translate(-191.944,200.448) rotate(-90)" v:mID="60" v:groupContext="group">
				<title>Maatlijn.31</title>
				<g id="shape61-154" v:mID="61" v:groupContext="shape" transform="translate(200.448,191.944) rotate(90)">
					<title>Blad.61</title>
					<path d="M0 200.45 L8.5 200.45" class="st9"/>
				</g>
				<g id="shape62-157" v:mID="62" v:groupContext="shape" transform="translate(228.794,191.944) rotate(90)">
					<title>Blad.62</title>
					<path d="M0 200.45 L8.5 200.45" class="st9"/>
				</g>
				<g id="shape63-160" v:mID="63" v:groupContext="shape" transform="translate(0,-4.25197)">
					<title>Blad.63</title>
					<path d="M3.74 200.45 L4.1 200.45 L24.25 200.45" class="st10"/>
				</g>
			</g>
			<g id="shape64-167" v:mID="64" v:groupContext="shape" transform="translate(4.25197,-11.3386)">
				<title>Blad.64</title>
				<desc>2 m</desc>
				<v:textBlock v:margins="rect(4,4,4,4)" v:tabSpace="42.5197"/>
				<v:textRect cx="14.1732" cy="197.613" width="28.35" height="5.66929"/>
				<rect x="0" y="194.779" width="28.3465" height="5.66929" class="st12"/>
				<text x="5.01" y="201.21" class="st13" v:langID="1043"><v:paragraph v:horizAlign="1"/><v:tabList/>2 m</text>			</g>
		</g>
		<g id="group65-170" transform="translate(236.813,-99.5876)" v:mID="65" v:groupContext="group">
			<title>Maatlijn verticaal.67</title>
			<g id="group66-171" transform="translate(-191.944,200.448) rotate(-90)" v:mID="66" v:groupContext="group">
				<title>Maatlijn.31</title>
				<g id="shape67-172" v:mID="67" v:groupContext="shape" transform="translate(200.448,191.944) rotate(90)">
					<title>Blad.67</title>
					<path d="M0 200.45 L8.5 200.45" class="st9"/>
				</g>
				<g id="shape68-175" v:mID="68" v:groupContext="shape" transform="translate(228.794,191.944) rotate(90)">
					<title>Blad.68</title>
					<path d="M0 200.45 L8.5 200.45" class="st9"/>
				</g>
				<g id="shape69-178" v:mID="69" v:groupContext="shape" transform="translate(0,-4.25197)">
					<title>Blad.69</title>
					<path d="M3.74 200.45 L4.1 200.45 L24.25 200.45" class="st10"/>
				</g>
			</g>
			<g id="shape70-185" v:mID="70" v:groupContext="shape" transform="translate(4.25197,-11.3386)">
				<title>Blad.70</title>
				<desc>2 m</desc>
				<v:textBlock v:margins="rect(4,4,4,4)" v:tabSpace="42.5197"/>
				<v:textRect cx="14.1732" cy="197.613" width="28.35" height="5.66929"/>
				<rect x="0" y="194.779" width="28.3465" height="5.66929" class="st12"/>
				<text x="5.01" y="201.21" class="st13" v:langID="1043"><v:paragraph v:horizAlign="1"/><v:tabList/>2 m</text>			</g>
		</g>
		<g id="group71-188" transform="translate(236.813,-42.8947)" v:mID="71" v:groupContext="group">
			<title>Maatlijn verticaal.73</title>
			<g id="group72-189" transform="translate(-191.944,200.448) rotate(-90)" v:mID="72" v:groupContext="group">
				<title>Maatlijn.31</title>
				<g id="shape73-190" v:mID="73" v:groupContext="shape" transform="translate(200.448,191.944) rotate(90)">
					<title>Blad.73</title>
					<path d="M0 200.45 L8.5 200.45" class="st9"/>
				</g>
				<g id="shape74-193" v:mID="74" v:groupContext="shape" transform="translate(257.141,191.944) rotate(90)">
					<title>Blad.74</title>
					<path d="M0 200.45 L8.5 200.45" class="st9"/>
				</g>
				<g id="shape75-196" v:mID="75" v:groupContext="shape" transform="translate(0,-4.25197)">
					<title>Blad.75</title>
					<path d="M3.74 200.45 L4.1 200.45 L52.59 200.45" class="st10"/>
				</g>
			</g>
			<g id="shape76-203" v:mID="76" v:groupContext="shape" transform="translate(4.25197,-22.6772)">
				<title>Blad.76</title>
				<desc>4 m</desc>
				<v:textBlock v:margins="rect(4,4,4,4)" v:tabSpace="42.5197"/>
				<v:textRect cx="14.1732" cy="194.779" width="28.35" height="11.3386"/>
				<rect x="0" y="189.109" width="28.3465" height="11.3386" class="st12"/>
				<text x="5.01" y="198.38" class="st13" v:langID="1043"><v:paragraph v:horizAlign="1"/><v:tabList/>4 m</text>			</g>
		</g>
		<g id="shape77-206" v:mID="77" v:groupContext="shape" transform="translate(0.12,-142.107)">
			<title>Punt A</title>
			<desc>B</desc>
			<v:textBlock v:margins="rect(4,4,4,4)" v:tabSpace="42.5197"/>
			<v:textRect cx="7.08661" cy="193.361" width="14.18" height="14.1732"/>
			<rect x="0" y="186.275" width="14.1732" height="14.1732" class="st14"/>
			<text x="4" y="196.96" class="st13" v:langID="1043"><v:paragraph v:horizAlign="1"/><v:tabList/>B</text>		</g>
		<g id="shape78-209" v:mID="78" v:groupContext="shape" transform="translate(28.4665,-142.107)">
			<title>Punt A.78</title>
			<desc>C</desc>
			<v:textBlock v:margins="rect(4,4,4,4)" v:tabSpace="42.5197"/>
			<v:textRect cx="7.08661" cy="193.361" width="14.18" height="14.1732"/>
			<rect x="0" y="186.275" width="14.1732" height="14.1732" class="st14"/>
			<text x="4" y="196.96" class="st13" v:langID="1043"><v:paragraph v:horizAlign="1"/><v:tabList/>C</text>		</g>
		<g id="shape79-212" v:mID="79" v:groupContext="shape" transform="translate(56.8129,-142.107)">
			<title>Punt A.79</title>
			<desc>D</desc>
			<v:textBlock v:margins="rect(4,4,4,4)" v:tabSpace="42.5197"/>
			<v:textRect cx="7.08661" cy="193.361" width="14.18" height="14.1732"/>
			<rect x="0" y="186.275" width="14.1732" height="14.1732" class="st14"/>
			<text x="4" y="196.96" class="st13" v:langID="1043"><v:paragraph v:horizAlign="1"/><v:tabList/>D</text>		</g>
		<g id="shape80-215" v:mID="80" v:groupContext="shape" transform="translate(198.545,-142.107)">
			<title>Punt A.80</title>
			<desc>G</desc>
			<v:textBlock v:margins="rect(4,4,4,4)" v:tabSpace="42.5197"/>
			<v:textRect cx="7.08661" cy="193.361" width="14.18" height="14.1732"/>
			<rect x="0" y="186.275" width="14.1732" height="14.1732" class="st14"/>
			<text x="4" y="196.96" class="st13" v:langID="1043"><v:paragraph v:horizAlign="1"/><v:tabList/>G</text>		</g>
		<g id="shape81-218" v:mID="81" v:groupContext="shape" transform="translate(14.2932,-28.7215)">
			<title>Punt A.81</title>
			<desc>Q</desc>
			<v:textBlock v:margins="rect(4,4,4,4)" v:tabSpace="42.5197"/>
			<v:textRect cx="7.08661" cy="193.361" width="14.18" height="14.1732"/>
			<rect x="0" y="186.275" width="14.1732" height="14.1732" class="st14"/>
			<text x="4" y="196.96" class="st13" v:langID="1043"><v:paragraph v:horizAlign="1"/><v:tabList/>Q</text>		</g>
		<g id="shape82-221" v:mID="82" v:groupContext="shape" transform="translate(170.199,-28.7215)">
			<title>Punt A.82</title>
			<desc>R</desc>
			<v:textBlock v:margins="rect(4,4,4,4)" v:tabSpace="42.5197"/>
			<v:textRect cx="7.08661" cy="193.361" width="14.18" height="14.1732"/>
			<rect x="0" y="186.275" width="14.1732" height="14.1732" class="st14"/>
			<text x="4" y="196.96" class="st13" v:langID="1043"><v:paragraph v:horizAlign="1"/><v:tabList/>R</text>		</g>
		<g id="shape84-224" v:mID="84" v:groupContext="shape" transform="translate(134.766,-142.107)">
			<title>Punt A.87</title>
			<desc>180 kN</desc>
			<v:textBlock v:margins="rect(4,4,4,4)" v:tabSpace="42.5197"/>
			<v:textRect cx="24.8031" cy="193.361" width="49.61" height="14.1732"/>
			<rect x="0" y="186.275" width="49.6063" height="14.1732" class="st14"/>
			<text x="6.97" y="196.96" class="st13" v:langID="1043"><v:paragraph v:horizAlign="1"/><v:tabList/>180 kN</text>		</g>
		<g id="group105-227" transform="translate(52.5609,233.277) rotate(180)" v:mID="105" v:groupContext="group">
			<title>Scharnieroplegging.105</title>
			<g id="shape106-228" v:mID="106" v:groupContext="shape" transform="translate(2.83465,0)">
				<title>Blad.106</title>
				<path d="M0 200.45 L14.17 200.45 L7.09 189.11 L0 200.45 Z" class="st3"/>
			</g>
			<g id="shape107-230" v:mID="107" v:groupContext="shape" transform="translate(2.83465,400.896) rotate(180)">
				<title>Blad.107</title>
				<path d="M0 200.45 L2.83 200.45" class="st4"/>
			</g>
			<g id="shape108-233" v:mID="108" v:groupContext="shape" transform="translate(17.0079,0)">
				<title>Blad.108</title>
				<path d="M0 200.45 L2.83 200.45" class="st4"/>
			</g>
		</g>
		<g id="shape111-236" v:mID="111" v:groupContext="shape" transform="translate(-157.808,100.86) rotate(-90)">
			<title>Vakwerk, 1 pt.111</title>
			<path d="M0 200.45 L56.69 200.45" class="st2"/>
		</g>
		<g id="shape116-239" v:mID="116" v:groupContext="shape" transform="translate(26.3405,-97.4616)">
			<title>Scharnier.116</title>
			<ellipse cx="2.12598" cy="198.322" rx="2.12598" ry="2.12598" class="st6"/>
		</g>
		<g id="shape118-241" v:mID="118" v:groupContext="shape" transform="translate(14.2932,-85.4144)">
			<title>Blad.118</title>
			<path d="M28.35 186.27 A14.1732 14.1732 90 0 1 14.17 200.45 A14.1732 14.1732 90 0 1 0 186.27 L0 157.93" class="st2"/>
		</g>
		<g id="shape112-244" v:mID="112" v:groupContext="shape" transform="translate(-186.155,72.5138) rotate(-90)">
			<title>Vakwerk, 1 pt.112</title>
			<path d="M0 200.45 L28.35 200.45" class="st2"/>
		</g>
		<g id="group125-247" transform="translate(28.4665,-0.375)" v:mID="125" v:groupContext="group">
			<title>Maatlijn.125</title>
			<g id="group126-248" transform="translate(0,-9.92126)" v:mID="126" v:groupContext="group">
				<title>Maatlijn.31</title>
				<g id="shape127-249" v:mID="127" v:groupContext="shape" transform="translate(200.448,191.944) rotate(90)">
					<title>Blad.127</title>
					<path d="M0 200.45 L8.5 200.45" class="st9"/>
				</g>
				<g id="shape128-252" v:mID="128" v:groupContext="shape" transform="translate(214.621,191.944) rotate(90)">
					<title>Blad.128</title>
					<path d="M0 200.45 L8.5 200.45" class="st9"/>
				</g>
				<g id="shape129-255" v:mID="129" v:groupContext="shape" transform="translate(0,-4.25197)">
					<title>Blad.129</title>
					<path d="M3.74 200.45 L4.1 200.45 L10.07 200.45" class="st10"/>
				</g>
			</g>
			<g id="shape130-262" v:mID="130" v:groupContext="shape" transform="translate(-5.66929,2.84217E-14)">
				<title>Blad.130</title>
				<rect x="0" y="186.275" width="28.3465" height="14.1732" class="st12"/>
			</g>
		</g>
		<g id="shape145-264" v:mID="145" v:groupContext="shape" transform="translate(214.741,181.648) rotate(90)">
			<title>Blad.145</title>
			<path d="M0 200.45 L8.5 200.45" class="st9"/>
		</g>
		<g id="shape154-267" v:mID="154" v:groupContext="shape" transform="translate(-171.981,155.427) rotate(-90)">
			<title>Vakwerk, 1 pt.154</title>
			<path d="M0 200.45 L52.44 200.45" class="st2"/>
		</g>
		<g id="group155-270" transform="translate(14.2932,-0.375)" v:mID="155" v:groupContext="group">
			<title>Maatlijn.155</title>
			<g id="group156-271" transform="translate(0,-9.92126)" v:mID="156" v:groupContext="group">
				<title>Maatlijn.31</title>
				<g id="shape157-272" v:mID="157" v:groupContext="shape" transform="translate(200.448,191.944) rotate(90)">
					<title>Blad.157</title>
					<path d="M0 200.45 L8.5 200.45" class="st9"/>
				</g>
				<g id="shape158-275" v:mID="158" v:groupContext="shape" transform="translate(214.621,191.944) rotate(90)">
					<title>Blad.158</title>
					<path d="M0 200.45 L8.5 200.45" class="st9"/>
				</g>
				<g id="shape159-278" v:mID="159" v:groupContext="shape" transform="translate(0,-4.25197)">
					<title>Blad.159</title>
					<path d="M3.74 200.45 L4.1 200.45 L10.07 200.45" class="st10"/>
				</g>
			</g>
			<g id="shape160-285" v:mID="160" v:groupContext="shape" transform="translate(-13.0394,2.84217E-14)">
				<title>Blad.160</title>
				<desc>2 × 1 m</desc>
				<v:textBlock v:margins="rect(4,4,4,4)" v:tabSpace="42.5197"/>
				<v:textRect cx="23.5276" cy="193.361" width="47.06" height="14.1732"/>
				<rect x="0" y="186.275" width="47.0551" height="14.1732" class="st12"/>
				<text x="4.98" y="196.96" class="st13" v:langID="1043"><v:paragraph v:horizAlign="1"/><v:tabList/>2 × 1 m</text>			</g>
		</g>
		<g id="shape162-288" v:mID="162" v:groupContext="shape" transform="translate(56.8129,-113.761)">
			<title>Punt A.162</title>
			<desc>H</desc>
			<v:textBlock v:margins="rect(4,4,4,4)" v:tabSpace="42.5197"/>
			<v:textRect cx="7.08661" cy="193.361" width="14.18" height="14.1732"/>
			<rect x="0" y="186.275" width="14.1732" height="14.1732" class="st14"/>
			<text x="4" y="196.96" class="st13" v:langID="1043"><v:paragraph v:horizAlign="1"/><v:tabList/>H</text>		</g>
		<g id="shape163-291" v:mID="163" v:groupContext="shape" transform="translate(85.1594,-113.052)">
			<title>Punt A.163</title>
			<desc>I</desc>
			<v:textBlock v:margins="rect(4,4,4,4)" v:tabSpace="42.5197"/>
			<v:textRect cx="7.08661" cy="193.361" width="14.18" height="14.1732"/>
			<rect x="0" y="186.275" width="14.1732" height="14.1732" class="st14"/>
			<text x="5.09" y="196.96" class="st13" v:langID="1043"><v:paragraph v:horizAlign="1"/><v:tabList/>I</text>		</g>
		<g id="shape164-294" v:mID="164" v:groupContext="shape" transform="translate(198.545,-113.052)">
			<title>Punt A.164</title>
			<desc>J</desc>
			<v:textBlock v:margins="rect(4,4,4,4)" v:tabSpace="42.5197"/>
			<v:textRect cx="7.08661" cy="193.361" width="14.18" height="14.1732"/>
			<rect x="0" y="186.275" width="14.1732" height="14.1732" class="st14"/>
			<text x="4.75" y="196.96" class="st13" v:langID="1043"><v:paragraph v:horizAlign="1"/><v:tabList/>J</text>		</g>
		<g id="shape165-297" v:mID="165" v:groupContext="shape" transform="translate(14.2932,-85.4144)">
			<title>Punt A.165</title>
			<desc>K</desc>
			<v:textBlock v:margins="rect(4,4,4,4)" v:tabSpace="42.5197"/>
			<v:textRect cx="7.08661" cy="193.361" width="14.18" height="14.1732"/>
			<rect x="0" y="186.275" width="14.1732" height="14.1732" class="st14"/>
			<text x="4" y="196.96" class="st13" v:langID="1043"><v:paragraph v:horizAlign="1"/><v:tabList/>K</text>		</g>
		<g id="shape166-300" v:mID="166" v:groupContext="shape" transform="translate(85.1594,-85.4144)">
			<title>Punt A.166</title>
			<desc>M</desc>
			<v:textBlock v:margins="rect(4,4,4,4)" v:tabSpace="42.5197"/>
			<v:textRect cx="7.08661" cy="193.361" width="14.18" height="14.1732"/>
			<rect x="0" y="186.275" width="14.1732" height="14.1732" class="st14"/>
			<text x="4" y="196.96" class="st13" v:langID="1043"><v:paragraph v:horizAlign="1"/><v:tabList/>M</text>		</g>
		<g id="shape167-303" v:mID="167" v:groupContext="shape" transform="translate(170.199,-85.4144)">
			<title>Punt A.167</title>
			<desc>O</desc>
			<v:textBlock v:margins="rect(4,4,4,4)" v:tabSpace="42.5197"/>
			<v:textRect cx="7.08661" cy="193.361" width="14.18" height="14.1732"/>
			<rect x="0" y="186.275" width="14.1732" height="14.1732" class="st14"/>
			<text x="4" y="196.96" class="st13" v:langID="1043"><v:paragraph v:horizAlign="1"/><v:tabList/>O</text>		</g>
		<g id="shape168-306" v:mID="168" v:groupContext="shape" transform="translate(198.545,-85.4144)">
			<title>Punt A.168</title>
			<desc>P</desc>
			<v:textBlock v:margins="rect(4,4,4,4)" v:tabSpace="42.5197"/>
			<v:textRect cx="7.08661" cy="193.361" width="14.18" height="14.1732"/>
			<rect x="0" y="186.275" width="14.1732" height="14.1732" class="st14"/>
			<text x="4" y="196.96" class="st13" v:langID="1043"><v:paragraph v:horizAlign="1"/><v:tabList/>P</text>		</g>
		<g id="shape657-309" v:mID="657" v:groupContext="shape" transform="translate(70.9861,-173.288)">
			<title>Blad.657</title>
			<desc>EA = 8000 kN EI = ∞</desc>
			<v:textBlock v:margins="rect(4,4,4,4)" v:tabSpace="42.5197"/>
			<v:textRect cx="42.5197" cy="187.692" width="85.04" height="25.5118"/>
			<rect x="0" y="174.936" width="85.0394" height="25.5118" class="st12"/>
			<text x="7.97" y="184.09" class="st15" v:langID="1043"><v:paragraph v:horizAlign="1"/><v:tabList/>EA<tspan class="st16"> </tspan><tspan
						class="st16">= 8000 kN<v:newlineChar/></tspan><tspan x="26.2" dy="1.2em" class="st17">EI</tspan><tspan
						class="st16"> </tspan><tspan class="st16">= </tspan><tspan class="st16">∞ </tspan> </text>		</g>
		<g id="shape658-318" v:mID="658" v:groupContext="shape" transform="translate(49.7263,-57.0679)">
			<title>Punt A.658</title>
			<desc>176 kN</desc>
			<v:textBlock v:margins="rect(4,4,4,4)" v:tabSpace="42.5197"/>
			<v:textRect cx="24.8031" cy="193.361" width="49.61" height="14.1732"/>
			<rect x="0" y="186.275" width="49.6063" height="14.1732" class="st14"/>
			<text x="6.97" y="196.96" class="st13" v:langID="1043"><v:paragraph v:horizAlign="1"/><v:tabList/>176 kN</text>		</g>
	</g>
</svg>
