<?xml version="1.0" encoding="UTF-8" standalone="no"?>
<!DOCTYPE svg PUBLIC "-//W3C//DTD SVG 1.1//EN" "http://www.w3.org/Graphics/SVG/1.1/DTD/svg11.dtd">
<!-- Gegenereerd door Microsoft Visio, SVG Export disp_deter_sun.svg Pagina-1 -->
<svg xmlns="http://www.w3.org/2000/svg" xmlns:xlink="http://www.w3.org/1999/xlink" xmlns:ev="http://www.w3.org/2001/xml-events"
		xmlns:v="http://schemas.microsoft.com/visio/2003/SVGExtensions/" width="2.56092in" height="0.81136in"
		viewBox="0 0 184.386 58.4179" xml:space="preserve" color-interpolation-filters="sRGB" class="st5">
	<v:documentProperties v:langID="1043" v:metric="true" v:viewMarkup="false"/>

	<style type="text/css">
	<![CDATA[
		.st1 {stroke:#000000;stroke-linecap:round;stroke-linejoin:round;stroke-width:1.2}
		.st2 {stroke:#000000;stroke-linecap:round;stroke-linejoin:round;stroke-width:0.75}
		.st3 {stroke:#000000;stroke-linecap:round;stroke-linejoin:round;stroke-width:2.25}
		.st4 {stroke:#000000;stroke-dasharray:5.25,3.75;stroke-linecap:round;stroke-linejoin:round;stroke-width:0.75}
		.st5 {fill:none;fill-rule:evenodd;font-size:12px;overflow:visible;stroke-linecap:square;stroke-miterlimit:3}
	]]>
	</style>

	<g v:mID="0" v:index="1" v:groupContext="foregroundPage">
		<title>Pagina-1</title>
		<v:pageProperties v:drawingScale="0.0393701" v:pageScale="0.0393701" v:drawingUnits="24" v:shadowOffsetX="8.50394"
				v:shadowOffsetY="-8.50394"/>
		<g id="group60-1" transform="translate(0.375,-29.4715)" v:mID="60" v:groupContext="group">
			<title>Inklemming.60</title>
			<g id="shape61-2" v:mID="61" v:groupContext="shape" transform="translate(69.7565,30.0715) rotate(90)">
				<title>Blad.61</title>
				<path d="M0 58.42 L28.35 58.42" class="st1"/>
			</g>
			<g id="shape62-5" v:mID="62" v:groupContext="shape" transform="translate(49.8116,-11.2362) rotate(45)">
				<title>Blad.62</title>
				<path d="M0 58.42 L4.01 58.42" class="st2"/>
			</g>
			<g id="shape63-8" v:mID="63" v:groupContext="shape" transform="translate(46.977,-11.2362) rotate(45)">
				<title>Blad.63</title>
				<path d="M0 58.42 L8.02 58.42" class="st2"/>
			</g>
			<g id="shape64-11" v:mID="64" v:groupContext="shape" transform="translate(44.1423,-11.2362) rotate(45)">
				<title>Blad.64</title>
				<path d="M0 58.42 L12.03 58.42" class="st2"/>
			</g>
			<g id="shape65-14" v:mID="65" v:groupContext="shape" transform="translate(41.3077,-11.2362) rotate(45)">
				<title>Blad.65</title>
				<path d="M0 58.42 L16.04 58.42" class="st2"/>
			</g>
			<g id="shape66-17" v:mID="66" v:groupContext="shape" transform="translate(41.3077,-8.4016) rotate(45)">
				<title>Blad.66</title>
				<path d="M0 58.42 L16.04 58.42" class="st2"/>
			</g>
			<g id="shape67-20" v:mID="67" v:groupContext="shape" transform="translate(41.3077,-5.56695) rotate(45)">
				<title>Blad.67</title>
				<path d="M0 58.42 L16.04 58.42" class="st2"/>
			</g>
			<g id="shape68-23" v:mID="68" v:groupContext="shape" transform="translate(41.3077,-2.73231) rotate(45)">
				<title>Blad.68</title>
				<path d="M0 58.42 L16.04 58.42" class="st2"/>
			</g>
			<g id="shape69-26" v:mID="69" v:groupContext="shape" transform="translate(41.3077,0.102337) rotate(45)">
				<title>Blad.69</title>
				<path d="M0 58.42 L16.04 58.42" class="st2"/>
			</g>
			<g id="shape70-29" v:mID="70" v:groupContext="shape" transform="translate(41.3077,2.93698) rotate(45)">
				<title>Blad.70</title>
				<path d="M0 58.42 L16.04 58.42" class="st2"/>
			</g>
			<g id="shape71-32" v:mID="71" v:groupContext="shape" transform="translate(41.3077,5.77163) rotate(45)">
				<title>Blad.71</title>
				<path d="M0 58.42 L16.04 58.42" class="st2"/>
			</g>
			<g id="shape72-35" v:mID="72" v:groupContext="shape" transform="translate(41.3077,8.60627) rotate(45)">
				<title>Blad.72</title>
				<path d="M0 58.42 L12.03 58.42" class="st2"/>
			</g>
			<g id="shape73-38" v:mID="73" v:groupContext="shape" transform="translate(41.3077,11.4409) rotate(45)">
				<title>Blad.73</title>
				<path d="M0 58.42 L8.02 58.42" class="st2"/>
			</g>
			<g id="shape74-41" v:mID="74" v:groupContext="shape" transform="translate(41.3077,14.2756) rotate(45)">
				<title>Blad.74</title>
				<path d="M0 58.42 L4.01 58.42" class="st2"/>
			</g>
		</g>
		<g id="shape77-44" v:mID="77" v:groupContext="shape" transform="translate(25.882,-41.9005) rotate(14.0362)">
			<title>Blad.77</title>
			<path d="M0 58.42 C82.5 37.79 144.38 51.54 175.31 58.42" class="st3"/>
		</g>
		<g id="shape206-47" v:mID="206" v:groupContext="shape" transform="translate(11.7136,-43.6447)">
			<title>Ligger, 2 pt.206</title>
			<path d="M0 58.42 L170.08 58.42" class="st4"/>
		</g>
	</g>
</svg>
