<?xml version="1.0" encoding="UTF-8" standalone="no"?>
<!DOCTYPE svg PUBLIC "-//W3C//DTD SVG 1.1//EN" "http://www.w3.org/Graphics/SVG/1.1/DTD/svg11.dtd">
<!-- Gegenereerd door Microsoft Visio, SVG Export struc2_phi.svg Pagina-1 -->
<svg xmlns="http://www.w3.org/2000/svg" xmlns:xlink="http://www.w3.org/1999/xlink" xmlns:ev="http://www.w3.org/2001/xml-events"
		xmlns:v="http://schemas.microsoft.com/visio/2003/SVGExtensions/" width="2.2742in" height="0.831571in"
		viewBox="0 0 163.742 59.8731" xml:space="preserve" color-interpolation-filters="sRGB" class="st12">
	<v:documentProperties v:langID="1043" v:metric="true" v:viewMarkup="false"/>

	<style type="text/css">
	<![CDATA[
		.st1 {stroke:#000000;stroke-linecap:round;stroke-linejoin:round;stroke-width:1.2}
		.st2 {stroke:#000000;stroke-linecap:round;stroke-linejoin:round;stroke-width:0.75}
		.st3 {stroke:#000000;stroke-linecap:round;stroke-linejoin:round;stroke-width:2}
		.st4 {fill:#00cc99;stroke:#000000;stroke-linecap:round;stroke-linejoin:round;stroke-width:0.75}
		.st5 {marker-end:url(#mrkr1-78);stroke:#000000;stroke-linecap:butt;stroke-width:3}
		.st6 {fill:#000000;fill-opacity:1;stroke:#000000;stroke-opacity:1;stroke-width:0.67567567567568}
		.st7 {stroke:#000000;stroke-dasharray:5.25,3.75;stroke-linecap:round;stroke-linejoin:round;stroke-width:0.75}
		.st8 {fill:none;stroke:none;stroke-linecap:round;stroke-linejoin:round;stroke-width:0.24}
		.st9 {fill:#000000;font-family:Times New Roman;font-size:1.00001em;font-style:italic}
		.st10 {baseline-shift:-32.4941%;font-size:0.649882em;font-style:normal}
		.st11 {baseline-shift:32.4941%;font-size:0.649882em;font-style:normal}
		.st12 {fill:none;fill-rule:evenodd;font-size:12px;overflow:visible;stroke-linecap:square;stroke-miterlimit:3}
	]]>
	</style>

	<defs id="Markers">
		<g id="lend1">
			<path d="M 1 -1 L 0 0 L 1 1 " style="stroke-linecap:round;stroke-linejoin:round;fill:none"/>
		</g>
		<marker id="mrkr1-78" class="st6" v:arrowType="1" v:arrowSize="0" orient="auto" markerUnits="strokeWidth"
				overflow="visible">
			<use xlink:href="#lend1" transform="scale(-1.48,-1.48) "/>
		</marker>
	</defs>
	<g v:mID="0" v:index="1" v:groupContext="foregroundPage">
		<title>Pagina-1</title>
		<v:pageProperties v:drawingScale="0.0393701" v:pageScale="0.0393701" v:drawingUnits="24" v:shadowOffsetX="8.50394"
				v:shadowOffsetY="-8.50394"/>
		<g id="group457-1" transform="translate(163.367,76.3917) rotate(180)" v:mID="457" v:groupContext="group">
			<title>Inklemming.457</title>
			<g id="shape458-2" v:mID="458" v:groupContext="shape" transform="translate(71.2117,31.5267) rotate(90)">
				<title>Blad.458</title>
				<path d="M0 59.87 L28.35 59.87" class="st1"/>
			</g>
			<g id="shape459-5" v:mID="459" v:groupContext="shape" transform="translate(50.8406,-10.81) rotate(45)">
				<title>Blad.459</title>
				<path d="M0 59.87 L4.01 59.87" class="st2"/>
			</g>
			<g id="shape460-8" v:mID="460" v:groupContext="shape" transform="translate(48.006,-10.81) rotate(45)">
				<title>Blad.460</title>
				<path d="M0 59.87 L8.02 59.87" class="st2"/>
			</g>
			<g id="shape461-11" v:mID="461" v:groupContext="shape" transform="translate(45.1713,-10.81) rotate(45)">
				<title>Blad.461</title>
				<path d="M0 59.87 L12.03 59.87" class="st2"/>
			</g>
			<g id="shape462-14" v:mID="462" v:groupContext="shape" transform="translate(42.3367,-10.81) rotate(45)">
				<title>Blad.462</title>
				<path d="M0 59.87 L16.04 59.87" class="st2"/>
			</g>
			<g id="shape463-17" v:mID="463" v:groupContext="shape" transform="translate(42.3367,-7.97537) rotate(45)">
				<title>Blad.463</title>
				<path d="M0 59.87 L16.04 59.87" class="st2"/>
			</g>
			<g id="shape464-20" v:mID="464" v:groupContext="shape" transform="translate(42.3367,-5.14073) rotate(45)">
				<title>Blad.464</title>
				<path d="M0 59.87 L16.04 59.87" class="st2"/>
			</g>
			<g id="shape465-23" v:mID="465" v:groupContext="shape" transform="translate(42.3367,-2.30608) rotate(45)">
				<title>Blad.465</title>
				<path d="M0 59.87 L16.04 59.87" class="st2"/>
			</g>
			<g id="shape466-26" v:mID="466" v:groupContext="shape" transform="translate(42.3367,0.528563) rotate(45)">
				<title>Blad.466</title>
				<path d="M0 59.87 L16.04 59.87" class="st2"/>
			</g>
			<g id="shape467-29" v:mID="467" v:groupContext="shape" transform="translate(42.3367,3.36321) rotate(45)">
				<title>Blad.467</title>
				<path d="M0 59.87 L16.04 59.87" class="st2"/>
			</g>
			<g id="shape468-32" v:mID="468" v:groupContext="shape" transform="translate(42.3367,6.19785) rotate(45)">
				<title>Blad.468</title>
				<path d="M0 59.87 L16.04 59.87" class="st2"/>
			</g>
			<g id="shape469-35" v:mID="469" v:groupContext="shape" transform="translate(42.3367,9.0325) rotate(45)">
				<title>Blad.469</title>
				<path d="M0 59.87 L12.03 59.87" class="st2"/>
			</g>
			<g id="shape470-38" v:mID="470" v:groupContext="shape" transform="translate(42.3367,11.8671) rotate(45)">
				<title>Blad.470</title>
				<path d="M0 59.87 L8.02 59.87" class="st2"/>
			</g>
			<g id="shape471-41" v:mID="471" v:groupContext="shape" transform="translate(42.3367,14.7018) rotate(45)">
				<title>Blad.471</title>
				<path d="M0 59.87 L4.01 59.87" class="st2"/>
			</g>
		</g>
		<g id="shape472-44" v:mID="472" v:groupContext="shape" transform="translate(10.2963,-29.1814)">
			<title>Ligger, 2 pt.472</title>
			<path d="M0 59.87 L141.6 59.87" class="st3"/>
		</g>
		<g id="group474-47" transform="translate(0.375,-15.0081)" v:mID="474" v:groupContext="group">
			<title>Rol.474</title>
			<g id="group475-48" transform="translate(0.261477,-2.83465)" v:mID="475" v:groupContext="group">
				<title>Scharnier</title>
				<g id="shape476-49" v:mID="476" v:groupContext="shape" transform="translate(2.79729,0)">
					<title>Blad.476</title>
					<path d="M0 59.87 L13.99 59.87 L6.99 48.53 L0 59.87 Z" class="st4"/>
				</g>
				<g id="shape477-51" v:mID="477" v:groupContext="shape" transform="translate(2.79729,119.746) rotate(180)">
					<title>Blad.477</title>
					<path d="M0 59.87 L2.8 59.87" class="st2"/>
				</g>
				<g id="shape478-54" v:mID="478" v:groupContext="shape" transform="translate(16.7838,-7.10543E-15)">
					<title>Blad.478</title>
					<path d="M0 59.87 L2.8 59.87" class="st2"/>
				</g>
			</g>
			<g id="shape479-57" v:mID="479" v:groupContext="shape">
				<title>Blad.479</title>
				<path d="M0 59.87 L19.84 59.87" class="st2"/>
			</g>
		</g>
		<g id="group501-60" transform="translate(57.7766,-15.0081)" v:mID="501" v:groupContext="group">
			<title>Rol.501</title>
			<g id="group502-61" transform="translate(0.261477,-2.83465)" v:mID="502" v:groupContext="group">
				<title>Scharnier</title>
				<g id="shape503-62" v:mID="503" v:groupContext="shape" transform="translate(2.79729,0)">
					<title>Blad.503</title>
					<path d="M0 59.87 L13.99 59.87 L6.99 48.53 L0 59.87 Z" class="st4"/>
				</g>
				<g id="shape504-64" v:mID="504" v:groupContext="shape" transform="translate(2.79729,119.746) rotate(180)">
					<title>Blad.504</title>
					<path d="M0 59.87 L2.8 59.87" class="st2"/>
				</g>
				<g id="shape505-67" v:mID="505" v:groupContext="shape" transform="translate(16.7838,-7.10543E-15)">
					<title>Blad.505</title>
					<path d="M0 59.87 L2.8 59.87" class="st2"/>
				</g>
			</g>
			<g id="shape506-70" v:mID="506" v:groupContext="shape">
				<title>Blad.506</title>
				<path d="M0 59.87 L19.84 59.87" class="st2"/>
			</g>
		</g>
		<g id="shape507-73" v:mID="507" v:groupContext="shape" transform="translate(-18.9709,44.2309) rotate(76.9307) scale(1,-1)">
			<title>Hoekverdraaiing</title>
			<path d="M0 59.87 C4.69 58.78 8.41 58.5 13.04 59.87" class="st5"/>
		</g>
		<g id="shape509-79" v:mID="509" v:groupContext="shape" transform="translate(94.4948,84.2987) rotate(153.552)">
			<title>Blad.509</title>
			<path d="M0 59.87 L42.52 59.87" class="st7"/>
		</g>
		<g id="shape510-82" v:mID="510" v:groupContext="shape" transform="translate(132.564,65.3614) rotate(153.552)">
			<title>Blad.510</title>
			<path d="M0 59.87 L42.52 59.87" class="st7"/>
		</g>
		<g id="shape511-85" v:mID="511" v:groupContext="shape" transform="translate(178.564,84.2987) rotate(153.552)">
			<title>Blad.511</title>
			<path d="M0 59.87 L42.52 59.87" class="st7"/>
		</g>
		<g id="shape513-88" v:mID="513" v:groupContext="shape" transform="translate(66.0685,43.6327) rotate(76.9307) scale(1,-1)">
			<title>Hoekverdraaiing.513</title>
			<path d="M0 59.87 C4.69 58.78 8.41 58.5 13.04 59.87" class="st5"/>
		</g>
		<g id="shape514-93" v:mID="514" v:groupContext="shape" transform="translate(154.367,17.1527) rotate(76.9307) scale(-1,1)">
			<title>Hoekverdraaiing.514</title>
			<path d="M0 59.87 C4.69 58.78 8.41 58.5 13.04 59.87" class="st5"/>
		</g>
		<g id="shape515-98" v:mID="515" v:groupContext="shape" transform="translate(25.1782,-0.83492)">
			<title>A.515</title>
			<desc>φBAB</desc>
			<v:textBlock v:margins="rect(4,4,4,4)" v:tabSpace="42.5197"/>
			<v:textRect cx="21.2598" cy="52.7865" width="42.52" height="14.1732"/>
			<rect x="0" y="45.6999" width="42.5197" height="14.1732" class="st8"/>
			<text x="9.92" y="56.39" class="st9" v:langID="1043"><v:paragraph v:horizAlign="1"/><v:tabList/>φ<tspan dy="-0.279em"
						class="st10" v:baseFontSize="12">B</tspan><tspan dy="0.081em" class="st11" v:baseFontSize="12">AB</tspan></text>		</g>
		<g id="shape516-103" v:mID="516" v:groupContext="shape" transform="translate(67.6978,-43.3546)">
			<title>A.516</title>
			<desc>φBBC</desc>
			<v:textBlock v:margins="rect(4,4,4,4)" v:tabSpace="42.5197"/>
			<v:textRect cx="21.2598" cy="52.7865" width="42.52" height="14.1732"/>
			<rect x="0" y="45.6999" width="42.5197" height="14.1732" class="st8"/>
			<text x="10.14" y="56.39" class="st9" v:langID="1043"><v:paragraph v:horizAlign="1"/><v:tabList/>φ<tspan dy="-0.279em"
						class="st10" v:baseFontSize="12">B</tspan><tspan dy="0.081em" class="st11" v:baseFontSize="12">BC</tspan></text>		</g>
		<g id="shape517-108" v:mID="517" v:groupContext="shape" transform="translate(110.218,-0.83492)">
			<title>A.517</title>
			<desc>φC</desc>
			<v:textBlock v:margins="rect(4,4,4,4)" v:tabSpace="42.5197"/>
			<v:textRect cx="21.2598" cy="52.7865" width="42.52" height="14.1732"/>
			<rect x="0" y="45.6999" width="42.5197" height="14.1732" class="st8"/>
			<text x="15.34" y="56.39" class="st9" v:langID="1043"><v:paragraph v:horizAlign="1"/><v:tabList/>φ<tspan dy="-0.279em"
						class="st10" v:baseFontSize="12">C</tspan></text>		</g>
	</g>
</svg>
