<?xml version="1.0" encoding="UTF-8"?>
<svg width="76px" height="26px" viewBox="0 0 76 26" version="1.1" xmlns="http://www.w3.org/2000/svg" xmlns:xlink="http://www.w3.org/1999/xlink">
    <title>ans logo-01</title>
    <g id="Page-2" stroke="none" stroke-width="1" fill="none" fill-rule="evenodd">
        <g id="Artboard" transform="translate(-27.000000, -35.000000)" fill-rule="nonzero">
            <g id="ans-logo-01" transform="translate(27.000000, 35.500000)">
                <g id="Group" transform="translate(0.000000, 3.096774)" fill="#1B0166">
                    <path d="M18.6,7.66451613 L18.6,20.1677419 L12.0967742,20.1677419 L12.0967742,16.9935484 L11.516129,16.9935484 C10.4709677,19.2774194 8.96129032,20.7870968 5.98064516,20.7870968 C1.95483871,20.7870968 0.174193548,18.2709677 0.174193548,15.2903226 C0.174193548,9.9483871 4.12258065,8.63225806 8.6516129,7.66451613 C10.8580645,7.2 11.5548387,6.46451613 11.5548387,5.38064516 C11.5548387,4.41290323 10.8967742,3.83225806 9.81290323,3.83225806 C8.1483871,3.83225806 5.51612903,4.95483871 1.87741935,9.01935484 L1.29677419,9.01935484 L1.29677419,1.97419355 C4.08387097,0.735483871 7.56774194,0.116129032 10.1612903,0.116129032 C15.5032258,0.116129032 18.6,2.12903226 18.6,7.66451613 Z M7.95483871,10.7032258 C6.87096774,10.7032258 6.2516129,11.3612903 6.2516129,12.2903226 C6.2516129,14.2258065 8.45806452,15.2322581 12.0193548,14.8064516 C11.2064516,12.0967742 9.69677419,10.7032258 7.95483871,10.7032258 Z" id="Shape"></path>
                    <path d="M28.316129,3.6 L28.8967742,3.6 C30.2516129,1.35483871 32.3032258,0.116129032 35.2064516,0.116129032 C39.0774194,0.116129032 41.4774194,2.32258065 41.4774194,6.61935484 L41.4774194,20.1677419 L34.2774194,20.1677419 L34.2774194,8.94193548 C34.2774194,6.30967742 33.9677419,5.38064516 32.6129032,5.38064516 C31.0645161,5.38064516 29.2064516,7.78064516 29.2064516,12.9677419 L29.2064516,20.1677419 L22.0064516,20.1677419 L22.0064516,0.812903226 L28.316129,0.812903226 L28.316129,3.6 L28.316129,3.6 Z" id="Path"></path>
                    <path d="M59.7096774,8.1483871 L59.1290323,8.1483871 C55.8,4.62580645 53.4774194,3.81290323 52.0064516,3.81290323 C50.9612903,3.81290323 50.4580645,4.27741935 50.4580645,5.01290323 C50.4580645,7.99354839 60.7935484,6.90967742 60.7935484,13.6451613 C60.7935484,17.9806452 57.9677419,20.883871 52.1612903,20.883871 C49.2967742,20.883871 46.2774194,20.1870968 44.4193548,19.1806452 L44.4193548,12.2903226 L45,12.2903226 C48.2129032,16.083871 50.7677419,17.1290323 52.6645161,17.1290323 C53.9806452,17.1290323 54.6,16.7032258 54.6,15.7741935 C54.6,12.9483871 44.3032258,13.916129 44.3032258,6.83225806 C44.3032258,2.96129032 47.0129032,0.0967741935 52.6645161,0.0967741935 C55.1032258,0.0967741935 57.7354839,0.638709677 59.7096774,1.56774194 L59.7096774,8.1483871 L59.7096774,8.1483871 Z" id="Path"></path>
                </g>
                <path d="M73.1419355,0.619354839 C73.3354839,0.716129032 73.3741935,0.948387097 73.2387097,1.12258065 L71.1096774,3.90967742 C70.9741935,4.08387097 70.8774194,4.23870968 70.8774194,4.23870968 C70.8774194,4.25806452 71.0516129,4.23870968 71.2645161,4.21935484 L74.6129032,3.77419355 C74.8258065,3.75483871 75,3.89032258 75,4.10322581 L75,5.18709677 C75,5.4 74.8258065,5.55483871 74.6129032,5.53548387 L71.2645161,5.12903226 C71.0516129,5.10967742 70.8774194,5.09032258 70.8774194,5.10967742 C70.8774194,5.12903226 70.9935484,5.26451613 71.1096774,5.43870968 L73.2387097,8.10967742 C73.3741935,8.28387097 73.3354839,8.49677419 73.1419355,8.61290323 L72.0967742,9.21290323 C71.9032258,9.30967742 71.6903226,9.2516129 71.6129032,9.05806452 L70.2774194,5.96129032 C70.2,5.76774194 70.1032258,5.61290323 70.1032258,5.61290323 C70.083871,5.61290323 70.0064516,5.76774194 69.9096774,5.96129032 L68.4580645,9.09677419 C68.3612903,9.29032258 68.1483871,9.3483871 67.9741935,9.23225806 L67.083871,8.67096774 C66.9096774,8.55483871 66.8709677,8.32258065 66.9870968,8.16774194 L69.0967742,5.45806452 C69.2322581,5.28387097 69.3290323,5.1483871 69.3290323,5.12903226 C69.3290323,5.10967742 69.1548387,5.12903226 68.9419355,5.1483871 L65.6709677,5.57419355 C65.4580645,5.59354839 65.283871,5.45806452 65.283871,5.24516129 L65.283871,4.16129032 C65.283871,3.9483871 65.4580645,3.79354839 65.6709677,3.83225806 L68.9032258,4.25806452 C69.116129,4.27741935 69.2903226,4.29677419 69.2903226,4.27741935 C69.2903226,4.25806452 69.1935484,4.10322581 69.0580645,3.9483871 L66.9677419,1.23870968 C66.8322581,1.06451613 66.8903226,0.851612903 67.0645161,0.735483871 L68.0516129,0.174193548 C68.2451613,0.0774193548 68.4580645,0.135483871 68.5354839,0.329032258 L69.9096774,3.40645161 C69.9870968,3.6 70.083871,3.75483871 70.1032258,3.75483871 C70.1225806,3.75483871 70.2,3.6 70.2774194,3.40645161 L71.6322581,0.290322581 C71.7096774,0.0967741935 71.9419355,0.0193548387 72.116129,0.135483871 L73.1419355,0.619354839 Z" id="Path" fill="#F5A376"></path>
            </g>
        </g>
    </g>
</svg>