<?xml version="1.0" encoding="utf-8"?>
<!-- Generator: Adobe Illustrator 13.0.0, SVG Export Plug-In . SVG Version: 6.00 Build 14948)  -->
<!DOCTYPE svg PUBLIC "-//W3C//DTD SVG 1.1//EN" "http://www.w3.org/Graphics/SVG/1.1/DTD/svg11.dtd">
<svg version="1.1" id="Logo" xmlns="http://www.w3.org/2000/svg" xmlns:xlink="http://www.w3.org/1999/xlink" x="0px" y="0px"
	 width="281.396px" height="83.134px" viewBox="0 0 281.396 83.134" enable-background="new 0 0 281.396 83.134"
	 xml:space="preserve">
<g>
	<g>
		<path d="M32.01,81.436H0V0h30.119c8.454,0,15.057,1.832,19.624,5.443c4.594,3.634,6.923,8.86,6.923,15.533
			c0,3.732-0.919,7.19-2.733,10.278c-1.656,2.823-3.891,5.074-6.65,6.702c4.002,1.293,7.237,3.644,9.626,6.995
			c2.557,3.589,3.854,7.877,3.854,12.748c0,7.658-2.504,13.597-7.443,17.652C48.405,79.388,41.234,81.436,32.01,81.436z
			 M16.006,68.034h14.848c4.157,0,7.395-0.985,9.623-2.93c2.213-1.931,3.335-4.707,3.335-8.253c0-7.168-4.513-10.653-13.798-10.653
			H16.006V68.034z M16.006,33.009h11.802c4.233,0,7.44-0.83,9.533-2.465c2.063-1.614,3.108-4.154,3.108-7.55
			c0-3.116-1.029-5.514-3.059-7.127c-2.058-1.635-5.211-2.463-9.373-2.463H16.006V33.009z"/>
	</g>
	<g>
		<path d="M96.1,83.134c-5.294,0-10.217-1.23-14.632-3.656c-4.42-2.428-7.986-5.904-10.6-10.332
			c-2.616-4.424-3.941-9.525-3.941-15.16c0-5.208,1.236-10.074,3.674-14.463c2.438-4.391,5.932-7.957,10.384-10.599
			c4.454-2.641,9.54-3.98,15.116-3.98c5.292,0,10.213,1.212,14.63,3.602c4.42,2.396,7.987,5.854,10.602,10.279
			c2.615,4.43,3.941,9.531,3.941,15.162c0,5.277-1.236,10.179-3.673,14.568c-2.439,4.394-5.933,7.96-10.384,10.6
			C106.761,81.794,101.675,83.134,96.1,83.134z M96.1,38.875c-4.069,0-7.419,1.421-9.958,4.224c-2.548,2.816-3.84,6.478-3.84,10.886
			c0,4.479,1.309,8.177,3.891,10.989c2.572,2.804,5.905,4.227,9.907,4.227c4,0,7.333-1.423,9.907-4.227
			c2.582-2.814,3.891-6.512,3.891-10.989c0-4.408-1.292-8.07-3.84-10.886C103.519,40.296,100.168,38.875,96.1,38.875z"/>
	</g>
	<g>
		<path d="M160.503,83.134c-5.294,0-10.217-1.23-14.632-3.656c-4.42-2.428-7.986-5.904-10.6-10.332
			c-2.616-4.424-3.941-9.525-3.941-15.16c0-5.208,1.236-10.074,3.674-14.463c2.438-4.391,5.932-7.957,10.384-10.599
			c4.454-2.641,9.54-3.98,15.116-3.98c5.292,0,10.213,1.212,14.63,3.602c4.42,2.396,7.987,5.854,10.602,10.279
			c2.615,4.43,3.941,9.531,3.941,15.162c0,5.277-1.236,10.179-3.673,14.568c-2.44,4.394-5.934,7.96-10.384,10.6
			C171.165,81.794,166.078,83.134,160.503,83.134z M160.503,38.875c-4.069,0-7.419,1.421-9.958,4.224
			c-2.548,2.816-3.84,6.478-3.84,10.886c0,4.479,1.309,8.177,3.891,10.989c2.572,2.804,5.905,4.227,9.907,4.227
			c4,0,7.333-1.423,9.907-4.227c2.582-2.814,3.891-6.512,3.891-10.989c0-4.408-1.292-8.07-3.84-10.886
			C167.922,40.296,164.572,38.875,160.503,38.875z"/>
	</g>
	<g>
		<path d="M281.396,81.436h-15.375V51.014c0-4.208-0.752-7.344-2.234-9.321c-1.458-1.94-3.758-2.924-6.836-2.924
			c-3.081,0-5.542,1.164-7.312,3.458c-1.794,2.325-2.704,5.603-2.704,9.741v29.468h-15.376V51.014c0-4.211-0.734-7.348-2.184-9.324
			c-1.424-1.938-3.74-2.92-6.887-2.92c-3.15,0-5.646,1.164-7.416,3.458c-1.794,2.325-2.704,5.567-2.704,9.635v29.573h-15.375V26.641
			h14.844l0.091,5.774c1.563-2.277,3.585-4.059,6.025-5.307c2.809-1.437,6.138-2.165,9.894-2.165c7.628,0,13.141,3.098,16.399,9.212
			c1.506-2.657,3.751-4.845,6.683-6.509c3.161-1.793,6.672-2.703,10.435-2.703c6.46,0,11.472,2.009,14.896,5.971
			c3.408,3.946,5.137,9.78,5.137,17.34V81.436z"/>
	</g>
</g>
</svg>
