<?xml version="1.0" encoding="UTF-8" standalone="no"?>
<!DOCTYPE svg PUBLIC "-//W3C//DTD SVG 1.1//EN" "http://www.w3.org/Graphics/SVG/1.1/DTD/svg11.dtd">
<!-- Gegenereerd door Microsoft Visio, SVG Export TUDelft_logo_rgb_cropped.svg Pagina-1 -->
<svg xmlns="http://www.w3.org/2000/svg" xmlns:xlink="http://www.w3.org/1999/xlink" xmlns:ev="http://www.w3.org/2001/xml-events"
		xmlns:v="http://schemas.microsoft.com/visio/2003/SVGExtensions/" width="1.27587in" height="0.792865in"
		viewBox="0 0 91.8629 57.0863" xml:space="preserve" color-interpolation-filters="sRGB" class="st4">
	<v:documentProperties v:langID="1043" v:metric="true" v:viewMarkup="false"/>

	<style type="text/css">
	<![CDATA[
		.st1 {fill:none;stroke:none;stroke-linecap:butt;stroke-width:0.726936}
		.st2 {fill:#00a6d6;stroke:none;stroke-linecap:butt;stroke-width:0.726936}
		.st3 {fill:#000000;stroke:none;stroke-linecap:butt;stroke-width:0.726936}
		.st4 {fill:none;fill-rule:evenodd;font-size:12px;overflow:visible;stroke-linecap:square;stroke-miterlimit:3}
	]]>
	</style>

	<g v:mID="0" v:index="1" v:groupContext="foregroundPage">
		<title>Pagina-1</title>
		<v:pageProperties v:drawingScale="1" v:pageScale="1" v:drawingUnits="19" v:shadowOffsetX="9" v:shadowOffsetY="-9"/>
		<g id="group1-1" transform="translate(0.726936,-0.726936)" v:mID="1" v:groupContext="group">
			<title>Blad.1</title>
			<g id="shape2-2" v:mID="2" v:groupContext="shape">
				<title>Blad.2</title>
				<rect x="0" y="1.45387" width="90.409" height="55.6324" class="st1"/>
			</g>
			<g id="shape3-4" v:mID="3" v:groupContext="shape" transform="translate(21.2483,-20.5723)">
				<title>Blad.3</title>
				<path d="M6.65 54.39 C8.46 54.39 9.45 53.18 9.45 51.5 L9.45 42.89 L13.3 42.89 L13.3 51.69 C13.27 55.57 10.16 57.09
							 6.65 57.09 C3.14 57.09 0.04 55.57 0 51.69 L0 42.89 L3.85 42.89 L3.85 51.5 C3.86 53.18 4.84 54.39 6.65
							 54.39 Z" class="st2"/>
			</g>
			<g id="shape4-6" v:mID="4" v:groupContext="shape" transform="translate(6.94951,-20.8631)">
				<title>Blad.4</title>
				<path d="M4.32 57.09 L8.17 57.09 L8.17 45.88 L12.49 45.88 L12.49 43.18 L0 43.18 L0 45.88 L4.32 45.88 L4.32 57.09 Z"
						class="st3"/>
			</g>
			<g id="shape5-8" v:mID="5" v:groupContext="shape" transform="translate(9.79909,-35.6344)">
				<title>Blad.5</title>
				<path d="M10.73 51.18 C9.79 51.47 8.82 51.23 8.83 49.98 C8.83 48.06 13.32 46.45 13.95 44.78 C14.1 44.36 14.12 44.02
							 13.91 44.03 C13.77 44.04 13.88 44.25 13.56 44.56 C11.7 46.43 8.58 46.42 6.18 47.5 C4.61 48.2 0 50.37
							 1.06 55.2 C1.11 55.44 1.25 56.2 1.39 56.2 C1.55 56.2 1.55 55.74 1.55 55.19 C1.51 52.31 4.92 51.51 6.03
							 49.63 C6.16 49.4 6.4 49.09 6.45 49.24 C6.48 49.31 6.46 49.41 6.41 49.61 C6.06 51.16 4.45 52.15 4.91
							 53.26 C5.5 54.69 7.21 53.62 7.74 52.7 C7.88 52.44 7.96 52.28 8.05 52.31 C8.13 52.33 8.12 52.62 8.08
							 52.88 C7.79 54.55 7.41 55.48 6.19 56.43 C5.8 56.74 5.19 56.8 5.27 57.03 C5.29 57.09 5.55 57.08 5.76
							 57.06 C9.01 56.85 11.72 53.03 12.44 50.53 C12.51 50.35 12.53 50.19 12.46 50.13 C12.37 50.06 12.22 50.22
							 12.07 50.35 C11.7 50.69 11.19 51.03 10.73 51.18 Z" class="st3"/>
			</g>
			<g id="shape6-10" v:mID="6" v:groupContext="shape" transform="translate(51.5252,-20.565)">
				<title>Blad.6</title>
				<path d="M1.9 51.03 C1.92 49.52 2.83 48.16 4.35 48.16 C6.13 48.16 6.82 49.37 6.82 51.03 L1.9 51.03 ZM8.75 52.3 L8.75
							 51.39 C8.75 48.72 7.23 46.83 4.49 46.83 C1.43 46.83 0 49.2 0 52.03 C0 54.88 1.24 57.09 4.34 57.09 C6.65
							 57.09 8.35 55.99 8.64 53.79 L6.71 53.79 C6.5 55.2 5.79 55.76 4.36 55.76 C2.49 55.76 1.87 54.09 1.87
							 52.31 L8.75 52.31 L8.75 52.3 Z" class="st3"/>
			</g>
			<g id="shape7-12" v:mID="7" v:groupContext="shape" transform="translate(62.4947,-20.8631)">
				<title>Blad.7</title>
				<rect x="0" y="43.18" width="1.83188" height="13.9063" class="st3"/>
			</g>
			<g id="shape8-14" v:mID="8" v:groupContext="shape" transform="translate(66.3474,-20.8631)">
				<title>Blad.8</title>
				<path d="M3.72 57.09 L3.72 48.69 L5.95 48.69 L5.95 47.42 L3.72 47.42 L3.72 45.86 C3.72 44.74 4.26 44.55 5.3 44.55
							 C5.6 44.55 5.92 44.58 6.22 44.6 L6.22 43.09 C5.79 42.99 5.36 42.89 4.91 42.89 C3.18 42.89 1.89 43.76
							 1.89 45.61 L1.89 47.42 L0 47.42 L0 48.69 L1.89 48.69 L1.89 57.09 L3.72 57.09 Z" class="st3"/>
			</g>
			<g id="shape9-16" v:mID="9" v:groupContext="shape" transform="translate(73.3478,-20.5723)">
				<title>Blad.9</title>
				<path d="M0 47.13 L0 48.4 L1.66 48.4 L1.66 54.56 C1.66 55.85 1.68 57.09 4.4 57.09 C4.82 57.09 5.22 57.05 5.65 56.97
							 L5.65 55.57 C5.35 55.64 4.97 55.68 4.68 55.68 C4.03 55.68 3.49 55.36 3.49 54.67 L3.49 48.41 L5.72 48.41
							 L5.72 47.13 L3.49 47.13 L3.49 44.5 L1.66 45.07 L1.66 47.13 L0 47.13 Z" class="st3"/>
			</g>
			<g id="shape10-18" v:mID="10" v:groupContext="shape" transform="translate(38.404,-20.8631)">
				<title>Blad.10</title>
				<path d="M0 57.09 L4.78 57.09 C10.72 57.09 11.35 52.05 11.35 50.13 C11.35 48.21 10.72 43.17 4.78 43.17 L0 43.17 L0
							 57.09 ZM1.93 44.84 L4.78 44.84 C7.99 44.84 9.33 47.27 9.33 50.14 C9.33 53.01 7.99 55.44 4.78 55.44 L1.93
							 55.44 L1.93 44.84 Z" class="st3"/>
			</g>
		</g>
	</g>
</svg>
