<?xml version="1.0" encoding="UTF-8" standalone="no"?>
<!DOCTYPE svg PUBLIC "-//W3C//DTD SVG 1.1//EN" "http://www.w3.org/Graphics/SVG/1.1/DTD/svg11.dtd">
<!-- Gegenereerd door Microsoft Visio, SVG Export displaced_2.svg Pagina-1 -->
<svg xmlns="http://www.w3.org/2000/svg" xmlns:xlink="http://www.w3.org/1999/xlink" xmlns:ev="http://www.w3.org/2001/xml-events"
		xmlns:v="http://schemas.microsoft.com/visio/2003/SVGExtensions/" width="3.50806in" height="2.04912in"
		viewBox="0 0 252.58 147.536" xml:space="preserve" color-interpolation-filters="sRGB" class="st10">
	<v:documentProperties v:langID="1043" v:metric="true" v:viewMarkup="false"/>

	<style type="text/css">
	<![CDATA[
		.st1 {fill:#00cc99;stroke:#000000;stroke-linecap:round;stroke-linejoin:round;stroke-width:0.75}
		.st2 {stroke:#000000;stroke-linecap:round;stroke-linejoin:round;stroke-width:0.75}
		.st3 {stroke:#000000;stroke-dasharray:5.25,3.75;stroke-linecap:round;stroke-linejoin:round;stroke-width:0.75}
		.st4 {marker-end:url(#mrkr1-42);stroke:#000000;stroke-linecap:butt;stroke-width:3}
		.st5 {fill:#000000;fill-opacity:1;stroke:#000000;stroke-opacity:1;stroke-width:0.67567567567568}
		.st6 {stroke:#000000;stroke-linecap:round;stroke-linejoin:round;stroke-width:2.25}
		.st7 {fill:none;stroke:none;stroke-linecap:round;stroke-linejoin:round;stroke-width:0.75}
		.st8 {fill:#000000;font-family:Times New Roman;font-size:1.00001em;font-style:italic}
		.st9 {baseline-shift:-32.4941%;font-size:0.649882em;font-style:normal}
		.st10 {fill:none;fill-rule:evenodd;font-size:12px;overflow:visible;stroke-linecap:square;stroke-miterlimit:3}
	]]>
	</style>

	<defs id="Markers">
		<g id="lend1">
			<path d="M 1 -1 L 0 0 L 1 1 " style="stroke-linecap:round;stroke-linejoin:round;fill:none"/>
		</g>
		<marker id="mrkr1-42" class="st5" v:arrowType="1" v:arrowSize="0" orient="auto" markerUnits="strokeWidth"
				overflow="visible">
			<use xlink:href="#lend1" transform="scale(-1.48,-1.48) "/>
		</marker>
	</defs>
	<g v:mID="0" v:index="1" v:groupContext="foregroundPage">
		<title>Pagina-1</title>
		<v:pageProperties v:drawingScale="0.0393701" v:pageScale="0.0393701" v:drawingUnits="24" v:shadowOffsetX="8.50394"
				v:shadowOffsetY="-8.50394"/>
		<g id="group1869-1" transform="translate(0.375,-113.761)" v:mID="1869" v:groupContext="group">
			<title>Scharnieroplegging.1869</title>
			<g id="shape1870-2" v:mID="1870" v:groupContext="shape" transform="translate(2.83465,0)">
				<title>Blad.1870</title>
				<path d="M0 147.54 L14.17 147.54 L7.09 136.2 L0 147.54 Z" class="st1"/>
			</g>
			<g id="shape1871-4" v:mID="1871" v:groupContext="shape" transform="translate(2.83465,295.073) rotate(180)">
				<title>Blad.1871</title>
				<path d="M0 147.54 L2.83 147.54" class="st2"/>
			</g>
			<g id="shape1872-7" v:mID="1872" v:groupContext="shape" transform="translate(17.0079,0)">
				<title>Blad.1872</title>
				<path d="M0 147.54 L2.83 147.54" class="st2"/>
			</g>
		</g>
		<g id="group1873-10" transform="translate(198.8,-113.761)" v:mID="1873" v:groupContext="group">
			<title>Scharnieroplegging.1873</title>
			<g id="shape1874-11" v:mID="1874" v:groupContext="shape" transform="translate(2.83465,0)">
				<title>Blad.1874</title>
				<path d="M0 147.54 L14.17 147.54 L7.09 136.2 L0 147.54 Z" class="st1"/>
			</g>
			<g id="shape1875-13" v:mID="1875" v:groupContext="shape" transform="translate(2.83465,295.073) rotate(180)">
				<title>Blad.1875</title>
				<path d="M0 147.54 L2.83 147.54" class="st2"/>
			</g>
			<g id="shape1876-16" v:mID="1876" v:groupContext="shape" transform="translate(17.0079,0)">
				<title>Blad.1876</title>
				<path d="M0 147.54 L2.83 147.54" class="st2"/>
			</g>
		</g>
		<g id="group1880-19" transform="translate(227.147,-0.375)" v:mID="1880" v:groupContext="group">
			<title>Scharnieroplegging.1880</title>
			<g id="shape1881-20" v:mID="1881" v:groupContext="shape" transform="translate(2.83465,0)">
				<title>Blad.1881</title>
				<path d="M0 147.54 L14.17 147.54 L7.09 136.2 L0 147.54 Z" class="st1"/>
			</g>
			<g id="shape1882-22" v:mID="1882" v:groupContext="shape" transform="translate(2.83465,295.073) rotate(180)">
				<title>Blad.1882</title>
				<path d="M0 147.54 L2.83 147.54" class="st2"/>
			</g>
			<g id="shape1883-25" v:mID="1883" v:groupContext="shape" transform="translate(17.0079,0)">
				<title>Blad.1883</title>
				<path d="M0 147.54 L2.83 147.54" class="st2"/>
			</g>
		</g>
		<g id="shape1888-28" v:mID="1888" v:groupContext="shape" transform="translate(270.058,-66.0849) rotate(53.1301)">
			<title>Ligger, 2 pt.1888</title>
			<path d="M0 147.54 L141.73 147.54" class="st3"/>
		</g>
		<g id="shape1889-31" v:mID="1889" v:groupContext="shape" transform="translate(10.2963,-125.099)">
			<title>Ligger, 2 pt.1889</title>
			<path d="M0 147.54 L141.73 147.54" class="st3"/>
		</g>
		<g id="shape1890-34" v:mID="1890" v:groupContext="shape" transform="translate(152.029,-125.099)">
			<title>Ligger, 2 pt.1890</title>
			<path d="M0 147.54 L56.69 147.54" class="st3"/>
		</g>
		<g id="shape1895-37" v:mID="1895" v:groupContext="shape"
				transform="translate(-15.5569,55.7993) rotate(76.9307) scale(1,-1)">
			<title>Hoekverdraaiing</title>
			<path d="M0 147.54 C4.69 146.45 8.41 146.17 13.04 147.54" class="st4"/>
		</g>
		<g id="shape1896-43" v:mID="1896" v:groupContext="shape" transform="translate(228.58,148.559) rotate(148.744)">
			<title>Blad.1896</title>
			<path d="M0 147.54 L42.52 147.54" class="st3"/>
		</g>
		<g id="shape1923-46" v:mID="1923" v:groupContext="shape" transform="translate(264.928,126.497) rotate(148.744)">
			<title>Blad.1923</title>
			<path d="M0 147.54 L42.52 147.54" class="st3"/>
		</g>
		<g id="shape1924-49" v:mID="1924" v:groupContext="shape" transform="translate(136.52,175.193) rotate(-158.126)">
			<title>Blad.1924</title>
			<path d="M0 147.54 L42.52 147.54" class="st3"/>
		</g>
		<g id="shape1928-52" v:mID="1928" v:groupContext="shape" transform="translate(134.551,212.71) rotate(-126.87)">
			<title>Blad.1928</title>
			<path d="M0 128.15 C7.41 128.15 69.04 172.27 141.73 128.15" class="st6"/>
		</g>
		<g id="shape1931-55" v:mID="1931" v:groupContext="shape" transform="translate(152.029,-123.091)">
			<title>Blad.1931</title>
			<path d="M0 145.53 C36.35 123.47 26.7 156.25 56.69 145.53" class="st6"/>
		</g>
		<g id="shape1932-58" v:mID="1932" v:groupContext="shape" transform="translate(152.029,169.973) rotate(180)">
			<title>Blad.1932</title>
			<path d="M0 147.54 C36.35 125.47 115.65 123.16 141.73 147.54" class="st6"/>
		</g>
		<g id="shape1933-61" v:mID="1933" v:groupContext="shape" transform="translate(123.682,-96.753)">
			<title>Blad.1933</title>
			<desc>φD</desc>
			<v:textBlock v:margins="rect(4,4,4,4)" v:tabSpace="42.5197"/>
			<v:textRect cx="14.1732" cy="140.45" width="28.35" height="14.1732"/>
			<rect x="0" y="133.363" width="28.3465" height="14.1732" class="st7"/>
			<text x="8.04" y="144.05" class="st8" v:langID="1043"><v:paragraph v:horizAlign="1"/><v:tabList/>φ<tspan dy="-0.279em"
						class="st9" v:baseFontSize="12">D</tspan></text>		</g>
	</g>
</svg>
