<?xml version="1.0" encoding="UTF-8" standalone="no"?>
<!DOCTYPE svg PUBLIC "-//W3C//DTD SVG 1.1//EN" "http://www.w3.org/Graphics/SVG/1.1/DTD/svg11.dtd">
<!-- Gegenereerd door Microsoft Visio, SVG Export FBD_S.svg Pagina-1 -->
<svg xmlns="http://www.w3.org/2000/svg" xmlns:xlink="http://www.w3.org/1999/xlink" xmlns:ev="http://www.w3.org/2001/xml-events"
		xmlns:v="http://schemas.microsoft.com/visio/2003/SVGExtensions/" width="2.40491in" height="1.21496in"
		viewBox="0 0 173.153 87.4774" xml:space="preserve" color-interpolation-filters="sRGB" class="st10">
	<v:documentProperties v:langID="1043" v:metric="true" v:viewMarkup="false"/>

	<style type="text/css">
	<![CDATA[
		.st1 {stroke:#000000;stroke-linecap:round;stroke-linejoin:round;stroke-width:2}
		.st2 {marker-end:url(#mrkr5-15);stroke:#800000;stroke-linecap:round;stroke-linejoin:round;stroke-width:2}
		.st3 {fill:#800000;fill-opacity:1;stroke:#800000;stroke-opacity:1;stroke-width:0.44247787610619}
		.st4 {fill:none;stroke:none;stroke-linecap:round;stroke-linejoin:round;stroke-width:0.75}
		.st5 {fill:#000000;font-family:Times New Roman;font-size:1.00001em}
		.st6 {fill:none;stroke:none;stroke-linecap:round;stroke-linejoin:round;stroke-width:0.24}
		.st7 {fill:#000000;font-family:Times New Roman;font-size:1.00001em;font-style:italic}
		.st8 {baseline-shift:-32.4941%;font-size:0.649882em;font-style:normal}
		.st9 {baseline-shift:32.4941%;font-size:0.649882em;font-style:normal}
		.st10 {fill:none;fill-rule:evenodd;font-size:12px;overflow:visible;stroke-linecap:square;stroke-miterlimit:3}
	]]>
	</style>

	<defs id="Markers">
		<g id="lend5">
			<path d="M 2 1 L 0 0 L 1.98117 -0.993387 C 1.67173 -0.364515 1.67301 0.372641 1.98465 1.00043 " style="stroke:none"/>
		</g>
		<marker id="mrkr5-15" class="st3" v:arrowType="5" v:arrowSize="2" v:setback="3.775" refX="-3.775" orient="auto"
				markerUnits="strokeWidth" overflow="visible">
			<use xlink:href="#lend5" transform="scale(-2.26,-2.26) "/>
		</marker>
	</defs>
	<g v:mID="0" v:index="1" v:groupContext="foregroundPage">
		<title>Pagina-1</title>
		<v:pageProperties v:drawingScale="0.0393701" v:pageScale="0.0393701" v:drawingUnits="24" v:shadowOffsetX="8.50394"
				v:shadowOffsetY="-8.50394"/>
		<g id="shape2030-1" v:mID="2030" v:groupContext="shape" transform="translate(56.8129,-63.1971)">
			<title>Ligger, 2 pt.2030</title>
			<path d="M0 87.48 L28.35 87.48" class="st1"/>
		</g>
		<g id="shape2031-4" v:mID="2031" v:groupContext="shape" transform="translate(155.141,-28.2062) rotate(53.1301)">
			<title>Ligger, 2 pt.2031</title>
			<path d="M0 87.48 L28.35 87.48" class="st1"/>
		</g>
		<g id="shape2032-7" v:mID="2032" v:groupContext="shape" transform="translate(85.1594,-63.1971)">
			<title>Ligger, 2 pt.2032</title>
			<path d="M0 87.48 L28.35 87.48" class="st1"/>
		</g>
		<g id="shape2033-10" v:mID="2033" v:groupContext="shape" transform="translate(-30.6645,38.4535) rotate(-90)">
			<title>Moment.2033</title>
			<path d="M-0 87.48 A14.1732 14.1732 0 0 1 14.17 73.3 A14.1732 14.1732 0 0 1 26.14 79.88 L26.24 80.23" class="st2"/>
		</g>
		<g id="shape2034-16" v:mID="2034" v:groupContext="shape" transform="translate(200.983,38.4535) rotate(90) scale(-1,1)">
			<title>Moment.2034</title>
			<path d="M-0 87.48 A14.1732 14.1732 0 0 1 14.17 73.3 A14.1732 14.1732 0 0 1 26.14 79.88 L26.24 80.23" class="st2"/>
		</g>
		<g id="shape2037-21" v:mID="2037" v:groupContext="shape"
				transform="translate(144.732,128.278) rotate(-36.8699) scale(1,-1)">
			<title>Moment.2037</title>
			<path d="M-0 87.48 A14.1732 14.1732 0 0 1 14.17 73.3 A14.1732 14.1732 0 0 1 26.14 79.88 L26.24 80.23" class="st2"/>
		</g>
		<g id="shape2038-26" v:mID="2038" v:groupContext="shape" transform="translate(78.0727,-63.1971)">
			<title>Blad.2038</title>
			<desc>D</desc>
			<v:textBlock v:margins="rect(4,4,4,4)" v:tabSpace="42.5197"/>
			<v:textRect cx="7.08661" cy="80.3908" width="14.18" height="14.1733"/>
			<rect x="0" y="73.3041" width="14.1732" height="14.1733" class="st4"/>
			<text x="4" y="83.99" class="st5" v:langID="1043"><v:paragraph v:horizAlign="1"/><v:tabList/>D</text>		</g>
		<g id="shape2039-29" v:mID="2039" v:groupContext="shape" transform="translate(116.34,-63.1971)">
			<title>A.2039</title>
			<desc>MBBC</desc>
			<v:textBlock v:margins="rect(4,4,4,4)" v:tabSpace="42.5197"/>
			<v:textRect cx="28.3465" cy="80.3908" width="56.7" height="14.1732"/>
			<rect x="0" y="73.3042" width="56.6929" height="14.1732" class="st6"/>
			<text x="15.55" y="83.99" class="st7" v:langID="1043"><v:paragraph v:horizAlign="1"/><v:tabList/>M<tspan dy="-0.279em"
						class="st8" v:baseFontSize="12">B</tspan><tspan dy="0.081em" class="st9" v:baseFontSize="12">BC</tspan></text>		</g>
		<g id="shape2040-34" v:mID="2040" v:groupContext="shape" transform="translate(92.246,-0.83492)">
			<title>A.2040</title>
			<desc>MBBD</desc>
			<v:textBlock v:margins="rect(4,4,4,4)" v:tabSpace="42.5197"/>
			<v:textRect cx="28.3465" cy="80.3908" width="56.7" height="14.1732"/>
			<rect x="0" y="73.3042" width="56.6929" height="14.1732" class="st6"/>
			<text x="15.33" y="83.99" class="st7" v:langID="1043"><v:paragraph v:horizAlign="1"/><v:tabList/>M<tspan dy="-0.279em"
						class="st8" v:baseFontSize="12">B</tspan><tspan dy="0.081em" class="st9" v:baseFontSize="12">BD</tspan></text>		</g>
		<g id="shape2041-39" v:mID="2041" v:groupContext="shape" transform="translate(0.12,-56.1105)">
			<title>A.2041</title>
			<desc>MBAD</desc>
			<v:textBlock v:margins="rect(4,4,4,4)" v:tabSpace="42.5197"/>
			<v:textRect cx="28.3465" cy="80.3908" width="56.7" height="14.1732"/>
			<rect x="0" y="73.3042" width="56.6929" height="14.1732" class="st6"/>
			<text x="15.12" y="83.99" class="st7" v:langID="1043"><v:paragraph v:horizAlign="1"/><v:tabList/>M<tspan dy="-0.279em"
						class="st8" v:baseFontSize="12">B</tspan><tspan dy="0.081em" class="st9" v:baseFontSize="12">AD</tspan></text>		</g>
	</g>
</svg>
